<?xml version="1.0" encoding="utf-8"?><svg xmlns="http://www.w3.org/2000/svg" xmlns:xlink="http://www.w3.org/1999/xlink" width="1366" height="669" preserveAspectRatio="xMidYMid" viewBox="0 0 1366 669" style="z-index:1;margin-right:-2px;display:block;background-repeat-y:initial;background-repeat-x:initial;animation-play-state:paused" ><g transform="translate(683,334.5) scale(1,1) translate(-683,-334.5)" style="transform:matrix(1, 0, 0, 1, 0, 0);animation-play-state:paused" ><defs style="animation-play-state:paused" ><path id="path-35ir9wqqy2d-1" d="M-35 -35L35 -35L35 35L-35 35Z" fill="none" stroke="inherit" stroke-width="4.333333333333334" transform="scale(0.3)" style="transform:matrix(0.3, 0, 0, 0.3, 0, 0);animation-play-state:paused" ></path>

  
<path id="path-35ir9wqqy2d-2" d="M0 -37A37 37 0 0 1 0 37A37 37 0 0 1 0 -37" fill="none" stroke="inherit" stroke-width="4.333333333333334" transform="scale(0.3)" style="transform:matrix(0.3, 0, 0, 0.3, 0, 0);animation-play-state:paused" ></path>

  
<path id="path-35ir9wqqy2d-3" d="M0 -34.641L40 34.641L-40 34.641Z" fill="none" stroke="inherit" stroke-width="4.333333333333334" transform="scale(0.3)" style="transform:matrix(0.3, 0, 0, 0.3, 0, 0);animation-play-state:paused" ></path></defs>
<path id="path0" d="M 108.51746724562977 150.4677342525094
c 0 46.44772263770051 -11.364868304969272 13.341367140616104 -24.706235445585378 13.341367140616104
S 59.10499635445902 196.9154568902099 59.10499635445902 150.4677342525094
s 11.364868304969272 -13.341367140616104 24.706235445585378 -13.341367140616104
S 108.51746724562977 104.02001161480888 108.51746724562977 150.4677342525094
z" fill="none" stroke="none" style="animation-play-state:paused" ></path>


<use xlink:href="#path-35ir9wqqy2d-1" x="0" y="0" stroke="#01080a" transform="translate(104.18380737304688 175.1127471923828)" style="animation-play-state:paused" ></use>
<path id="path1" d="M 135.28524982457714 396.93034915870265
c 0 47.874242369613 -11.713910367032966 13.751112169995224 -25.46502253702819 13.751112169995224
S 84.35520475052074 444.80459152831565 84.35520475052074 396.93034915870265
s 11.713910367032966 -13.751112169995224 25.46502253702819 -13.751112169995224
S 135.28524982457714 349.05610678908965 135.28524982457714 396.93034915870265
z" fill="none" stroke="none" style="animation-play-state:paused" ></path>


<use xlink:href="#path-35ir9wqqy2d-3" x="0" y="0" stroke="#e76a24" transform="translate(128.498779296875 422.1379089355469)" style="animation-play-state:paused" ></use>
<path id="path2" d="M 221.60111029003352 218.40063208056546
c 0 22.026561439218042 -5.389477798957606 6.326778285732843 -11.716256084690448 6.326778285732843
S 198.1685981206526 240.4271935197835 198.1685981206526 218.40063208056546
s 5.389477798957606 -6.326778285732843 11.716256084690448 -6.326778285732843
S 221.60111029003352 196.37407064134743 221.60111029003352 218.40063208056546
z" fill="none" stroke="none" style="animation-play-state:paused" ></path>


<use xlink:href="#path-35ir9wqqy2d-2" x="0" y="0" stroke="#01080a" transform="translate(221.17506408691406 226.50064086914062)" style="animation-play-state:paused" ></use>
<path id="path3" d="M 342.1256705233944 570.2938029850443
c 0 58.62413208868406 -14.344202532337587 16.838846451004997 -31.183048983342584 16.838846451004997
S 279.7595725567092 628.9179350737284 279.7595725567092 570.2938029850443
s 14.344202532337587 -16.838846451004997 31.183048983342584 -16.838846451004997
S 342.1256705233944 511.66967089636023 342.1256705233944 570.2938029850443
z" fill="none" stroke="none" style="animation-play-state:paused" ></path>


<use xlink:href="#path-35ir9wqqy2d-3" x="0" y="0" stroke="#1c4595" transform="translate(332.7006530761719 600.6146240234375)" style="animation-play-state:paused" ></use>
<path id="path4" d="M 368.174460473376 247.52559243641514
c 0 53.354629460587745 -13.054856144611893 15.325265908892225 -28.380122053504117 15.325265908892225
S 311.4142163663677 300.8802218970029 311.4142163663677 247.52559243641514
s 13.054856144611893 -15.325265908892225 28.380122053504117 -15.325265908892225
S 368.174460473376 194.1709629758274 368.174460473376 247.52559243641514
z" fill="none" stroke="none" style="animation-play-state:paused" ></path>


<use xlink:href="#path-35ir9wqqy2d-3" x="0" y="0" stroke="#01080a" transform="translate(360.7466735839844 275.6720886230469)" style="animation-play-state:paused" ></use>
<path id="path5" d="M 471.01160128982605 244.21204826218982
c 0 52.99086065255413 -12.965848883071754 15.220779123605974 -28.18662800667773 15.220779123605974
S 414.6383452764706 297.20290891474394 414.6383452764706 244.21204826218982
s 12.965848883071754 -15.220779123605974 28.18662800667773 -15.220779123605974
S 471.01160128982605 191.2211876096357 471.01160128982605 244.21204826218982
z" fill="none" stroke="none" style="animation-play-state:paused" ></path>


<use xlink:href="#path-35ir9wqqy2d-3" x="0" y="0" stroke="#1c4595" transform="translate(470.720458984375 256.1297607421875)" style="animation-play-state:paused" ></use>
<path id="path6" d="M 531.3354454681466 487.71223415892183
c 0 42.88591346204217 -10.49336180454223 12.318294292288709 -22.811656096830937 12.318294292288709
S 485.71213327448476 530.598147620964 485.71213327448476 487.71223415892183
s 10.49336180454223 -12.318294292288709 22.811656096830937 -12.318294292288709
S 531.3354454681466 444.82632069687963 531.3354454681466 487.71223415892183
z" fill="none" stroke="none" style="animation-play-state:paused" ></path>


<use xlink:href="#path-35ir9wqqy2d-3" x="0" y="0" stroke="#1c4595" transform="translate(495.7069091796875 507.5984802246094)" style="animation-play-state:paused" ></use>
<path id="path7" d="M 619.0915387716432 454.00040564784354
c 0 60.74215259729974 -14.862441592956317 17.447214043905245 -32.309655636861564 17.447214043905245
S 554.4722274979201 514.7425582451433 554.4722274979201 454.00040564784354
s 14.862441592956317 -17.447214043905245 32.309655636861564 -17.447214043905245
S 619.0915387716432 393.2582530505438 619.0915387716432 454.00040564784354
z" fill="none" stroke="none" style="animation-play-state:paused" ></path>


<use xlink:href="#path-35ir9wqqy2d-3" x="0" y="0" stroke="#1c4595" transform="translate(601.6551513671875 479.33233642578125)" style="animation-play-state:paused" ></use>
<path id="path8" d="M 647.1603344113346 516.9034702635488
c 0 21.223323352886858 -5.19294082038721 6.0960609630632465 -11.289001783450455 6.0960609630632465
S 624.5823308444337 538.1267936164356 624.5823308444337 516.9034702635488
s 5.19294082038721 -6.0960609630632465 11.289001783450455 -6.0960609630632465
S 647.1603344113346 495.68014691066196 647.1603344113346 516.9034702635488
z" fill="none" stroke="none" style="animation-play-state:paused" ></path>


<use xlink:href="#path-35ir9wqqy2d-3" x="0" y="0" stroke="#1c4595" transform="translate(647.0867919921875 520.8109130859375)" style="animation-play-state:paused" ></use>
<path id="path9" d="M 698.5743600248247 198.0729271570182
c 0 21.905295522041897 -5.359806351137911 6.291946586118417 -11.651752937256328 6.291946586118417
S 675.2708541503121 219.97822267906008 675.2708541503121 198.0729271570182
s 5.359806351137911 -6.291946586118417 11.651752937256328 -6.291946586118417
S 698.5743600248247 176.16763163497632 698.5743600248247 198.0729271570182
z" fill="none" stroke="none" style="animation-play-state:paused" ></path>


<use xlink:href="#path-35ir9wqqy2d-3" x="0" y="0" stroke="#e76a24" transform="translate(677.1769409179688 209.6373291015625)" style="animation-play-state:paused" ></use>
<path id="path10" d="M 824.4806829989631 111.60360805795358
c 0 29.040559227959573 -7.105668747266703 8.341437225052218 -15.447105972318923 8.341437225052218
S 793.5864710543252 140.64416728591314 793.5864710543252 111.60360805795358
s 7.105668747266703 -8.341437225052218 15.447105972318923 -8.341437225052218
S 824.4806829989631 82.563048829994 824.4806829989631 111.60360805795358
z" fill="none" stroke="none" style="animation-play-state:paused" ></path>


<use xlink:href="#path-35ir9wqqy2d-3" x="0" y="0" stroke="#e76a24" transform="translate(806.4586791992188 120.54601287841797)" style="animation-play-state:paused" ></use>
<path id="path11" d="M 908.1561333296626 320.31329389863845
c 0 32.99570891356811 -8.073418138426238 9.477490858152542 -17.55090899657878 9.477490858152542
S 873.054315336505 353.3090028122066 873.054315336505 320.31329389863845
s 8.073418138426238 -9.477490858152542 17.55090899657878 -9.477490858152542
S 908.1561333296626 287.3175849850703 908.1561333296626 320.31329389863845
z" fill="none" stroke="none" style="animation-play-state:paused" ></path>


<use xlink:href="#path-35ir9wqqy2d-1" x="0" y="0" stroke="#e76a24" transform="translate(887.5508422851562 330.5318298339844)" style="animation-play-state:paused" ></use>
<path id="path12" d="M 959.737770902362 631.9984076362972
c 0 44.72295748367747 -10.942851299197677 12.845955872971187 -23.788807172168866 12.845955872971187
S 912.1601565580243 676.7213651199746 912.1601565580243 631.9984076362972
s 10.942851299197677 -12.845955872971187 23.788807172168866 -12.845955872971187
S 959.737770902362 587.2754501526198 959.737770902362 631.9984076362972
z" fill="none" stroke="none" style="animation-play-state:paused" ></path>


<use xlink:href="#path-35ir9wqqy2d-3" x="0" y="0" stroke="#01080a" transform="translate(949.8379516601562 653.1744995117188)" style="animation-play-state:paused" ></use>
<path id="path13" d="M 1023.6295942529036 261.3448000574554
c 0 61.79315272538275 -15.119601198763862 17.74909705941845 -32.868698258182306 17.74909705941845
S 957.892197736539 323.13795278283817 957.892197736539 261.3448000574554
s 15.119601198763862 -17.74909705941845 32.868698258182306 -17.74909705941845
S 1023.6295942529036 199.55164733207266 1023.6295942529036 261.3448000574554
z" fill="none" stroke="none" style="animation-play-state:paused" ></path>


<use xlink:href="#path-35ir9wqqy2d-3" x="0" y="0" stroke="#1c4595" transform="translate(1020.7021484375 290.90277099609375)" style="animation-play-state:paused" ></use>
<path id="path14" d="M 1085.6738094866441 106.04262196736914
c 0 53.64295936400971 -13.125404950768331 15.408084072641088 -28.53348902340942 15.408084072641088
S 1028.6068314398253 159.68558133137884 1028.6068314398253 106.04262196736914
s 13.125404950768331 -15.408084072641088 28.53348902340942 -15.408084072641088
S 1085.6738094866441 52.39966260335943 1085.6738094866441 106.04262196736914
z" fill="none" stroke="none" style="animation-play-state:paused" ></path>


<use xlink:href="#path-35ir9wqqy2d-3" x="0" y="0" stroke="#e76a24" transform="translate(1085.310546875 119.20616149902344)" style="animation-play-state:paused" ></use>
<path id="path15" d="M 1168.5671844281246 380.8778920246103
c 0 45.421655373183754 -11.113809293438576 13.046645692297462 -24.16045498573604 13.046645692297462
S 1120.2462744566524 426.299547397794 1120.2462744566524 380.8778920246103
s 11.113809293438576 -13.046645692297462 24.16045498573604 -13.046645692297462
S 1168.5671844281246 335.45623665142654 1168.5671844281246 380.8778920246103
z" fill="none" stroke="none" style="animation-play-state:paused" ></path>


<use xlink:href="#path-35ir9wqqy2d-2" x="0" y="0" stroke="#e76a24" transform="translate(1122.470703125 402.76800537109375)" style="animation-play-state:paused" ></use>
<path id="path16" d="M 1265.9365238998914 611.1378835117621
c 0 32.789064165717754 -8.022856125654343 9.418135451855099 -17.440991577509443 9.418135451855099
S 1231.0545407448724 643.9269476774798 1231.0545407448724 611.1378835117621
s 8.022856125654343 -9.418135451855099 17.440991577509443 -9.418135451855099
S 1265.9365238998914 578.3488193460444 1265.9365238998914 611.1378835117621
z" fill="none" stroke="none" style="animation-play-state:paused" ></path>


<use xlink:href="#path-35ir9wqqy2d-3" x="0" y="0" stroke="#1c4595" transform="translate(1255.5284423828125 623.96923828125)" style="animation-play-state:paused" ></use>
<path id="path17" d="M 1337.2139893782214 391.79903907999113
c 0 24.45839109025848 -5.984499947616436 7.025282547201904 -13.00978249481834 7.025282547201904
S 1311.1944243885846 416.2574301702496 1311.1944243885846 391.79903907999113
s 5.984499947616436 -7.025282547201904 13.00978249481834 -7.025282547201904
S 1337.2139893782214 367.34064798973264 1337.2139893782214 391.79903907999113
z" fill="none" stroke="none" style="animation-play-state:paused" ></path>


<use xlink:href="#path-35ir9wqqy2d-1" x="0" y="0" stroke="#e76a24" transform="translate(1323.2169189453125 398.93463134765625)" style="animation-play-state:paused" ></use></g></svg>