<svg id="Capa_1" enable-background="new 0 0 512 512" height="512" viewBox="0 0 512 512" width="512" xmlns="http://www.w3.org/2000/svg" xmlns:xlink="http://www.w3.org/1999/xlink"><linearGradient id="SVGID_1_" gradientUnits="userSpaceOnUse" x1="61.112" x2="492.938" y1="121.916" y2="408.982"><stop offset=".0485" stop-color="#ffdbed"/><stop offset=".9993" stop-color="#d2deff"/></linearGradient><linearGradient id="lg1"><stop offset=".0028" stop-color="#ff7eb8" stop-opacity="0"/><stop offset="1" stop-color="#ff7eb8" stop-opacity=".6"/></linearGradient><linearGradient id="SVGID_2_" gradientUnits="userSpaceOnUse" x1="168.814" x2="168.814" xlink:href="#lg1" y1="382.552" y2="466.781"/><linearGradient id="SVGID_3_" gradientUnits="userSpaceOnUse" x1="343.186" x2="343.186" xlink:href="#lg1" y1="382.552" y2="466.781"/><linearGradient id="SVGID_4_" gradientUnits="userSpaceOnUse" x1="93.653" x2="93.653" xlink:href="#lg1" y1="245.399" y2="329.628"/><linearGradient id="SVGID_5_" gradientUnits="userSpaceOnUse" x1="256" x2="256" xlink:href="#lg1" y1="245.399" y2="329.628"/><linearGradient id="SVGID_6_" gradientUnits="userSpaceOnUse" x1="418.347" x2="418.347" xlink:href="#lg1" y1="245.399" y2="329.628"/><linearGradient id="SVGID_7_" gradientUnits="userSpaceOnUse" x1="256" x2="256" xlink:href="#lg1" y1="45.219" y2="174.544"/><g><g><path d="m505.626 282.917c-11.826-34.61-38.138-60.16-69.852-72.202-16.43-6.239-27.346-21.856-27.587-39.429-.005-.384-.012-.769-.021-1.154-1.507-64.582-55.488-116.33-120.077-115.221-38.094.654-71.788 19.355-92.905 47.92-18.185 24.599-46.49 39.965-77.08 39.949-.898 0-1.797.009-2.7.029-61.917 1.355-114.567 54.478-115.393 116.404-.879 65.932 52.303 119.654 118.032 119.654 50.947 0 94.349-32.277 110.886-77.497 4.327-11.832 17.152-18.174 29.283-14.772.151.042.303.085.455.126 11.099 3.064 18.458 13.64 17.55 25.119-1.217 15.383.581 31.255 5.798 46.796 20.521 61.135 87.188 94.685 148.493 74.68 62.711-20.464 96.379-88.183 75.118-150.402z" fill="url(#SVGID_1_)"/><path d="m323.161 174.544h-134.322c-5.536 0-10.024-4.488-10.024-10.024v-109.277c0-5.536 4.488-10.024 10.024-10.024h134.322c5.536 0 10.024 4.488 10.024 10.024v109.277c0 5.537-4.488 10.024-10.024 10.024z" fill="#fff"/><path d="m323.161 45.219h-34.161v129.326h34.161c5.536 0 10.024-4.488 10.024-10.024v-109.278c0-5.536-4.488-10.024-10.024-10.024z" fill="#ffdbed"/><path d="m333.185 77.964v-22.721c0-5.536-4.488-10.024-10.024-10.024h-134.322c-5.536 0-10.024 4.488-10.024 10.024v22.721z" fill="#6583fe"/><path d="m268.858 142.14h-58.716c-2.768 0-5.011-2.244-5.011-5.011s2.243-5.011 5.011-5.011h58.716c2.768 0 5.011 2.244 5.011 5.011-.001 2.768-2.244 5.011-5.011 5.011z" fill="#ffa8cf"/><path d="m241.794 121.336h-31.651c-2.768 0-5.011-2.244-5.011-5.011s2.243-5.011 5.011-5.011h31.651c2.768 0 5.011 2.244 5.011 5.011s-2.244 5.011-5.011 5.011z" fill="#ff7eb8"/><path d="m145.782 329.628h-104.258c-5.536 0-10.024-4.488-10.024-10.024v-64.181c0-5.536 4.488-10.024 10.024-10.024h104.258c5.536 0 10.024 4.488 10.024 10.024v64.181c0 5.536-4.488 10.024-10.024 10.024z" fill="#fff"/><path d="m145.782 329.628h-104.258c-5.536 0-10.024-4.488-10.024-10.024v-64.181c0-5.536 4.488-10.024 10.024-10.024h104.258c5.536 0 10.024 4.488 10.024 10.024v64.181c0 5.536-4.488 10.024-10.024 10.024z" fill="#fff"/><path d="m155.806 278.144v-22.721c0-5.536-4.488-10.024-10.024-10.024h-104.258c-5.536 0-10.024 4.488-10.024 10.024v22.721z" fill="#97ffd2"/><path d="m124.479 307.042h-61.652c-2.768 0-5.011-2.244-5.011-5.011s2.243-5.011 5.011-5.011h61.651c2.768 0 5.011 2.244 5.011 5.011s-2.243 5.011-5.01 5.011z" fill="#02ffb3"/><path d="m308.129 329.628h-104.258c-5.536 0-10.024-4.488-10.024-10.024v-64.181c0-5.536 4.488-10.024 10.024-10.024h104.258c5.536 0 10.024 4.488 10.024 10.024v64.181c0 5.536-4.488 10.024-10.024 10.024z" fill="#fff"/><path d="m318.153 278.144v-22.721c0-5.536-4.488-10.024-10.024-10.024h-104.258c-5.536 0-10.024 4.488-10.024 10.024v22.721z" fill="#97ffd2"/><path d="m286.826 307.042h-61.651c-2.768 0-5.011-2.244-5.011-5.011s2.243-5.011 5.011-5.011h61.651c2.768 0 5.011 2.244 5.011 5.011s-2.244 5.011-5.011 5.011z" fill="#02ffb3"/><path d="m470.476 329.628h-104.258c-5.536 0-10.024-4.488-10.024-10.024v-64.181c0-5.536 4.488-10.024 10.024-10.024h104.258c5.536 0 10.024 4.488 10.024 10.024v64.181c0 5.536-4.488 10.024-10.024 10.024z" fill="#fff"/><path d="m480.5 278.144v-22.721c0-5.536-4.488-10.024-10.024-10.024h-104.258c-5.536 0-10.024 4.488-10.024 10.024v22.721z" fill="#97ffd2"/><path d="m449.173 307.042h-61.651c-2.768 0-5.011-2.244-5.011-5.011s2.243-5.011 5.011-5.011h61.651c2.768 0 5.011 2.244 5.011 5.011s-2.244 5.011-5.011 5.011z" fill="#02ffb3"/><path d="m220.942 466.781h-104.257c-5.536 0-10.024-4.488-10.024-10.024v-64.181c0-5.536 4.488-10.024 10.024-10.024h104.258c5.536 0 10.024 4.488 10.024 10.024v64.181c0 5.536-4.488 10.024-10.025 10.024z" fill="#fff"/><path d="m230.967 415.297v-22.721c0-5.536-4.488-10.024-10.024-10.024h-104.258c-5.536 0-10.024 4.488-10.024 10.024v22.721z" fill="#ffa8cf"/><path d="m199.639 444.195h-61.651c-2.768 0-5.011-2.244-5.011-5.011s2.243-5.011 5.011-5.011h61.651c2.768 0 5.011 2.244 5.011 5.011s-2.243 5.011-5.011 5.011z" fill="#ff7eb8"/><path d="m395.315 466.781h-104.258c-5.536 0-10.024-4.488-10.024-10.024v-64.181c0-5.536 4.488-10.024 10.024-10.024h104.258c5.536 0 10.024 4.488 10.024 10.024v64.181c0 5.536-4.488 10.024-10.024 10.024z" fill="#fff"/><path d="m405.339 415.297v-22.721c0-5.536-4.488-10.024-10.024-10.024h-104.257c-5.536 0-10.024 4.488-10.024 10.024v22.721z" fill="#ffa8cf"/><path d="m374.012 444.195h-61.651c-2.768 0-5.011-2.244-5.011-5.011s2.243-5.011 5.011-5.011h61.651c2.768 0 5.011 2.244 5.011 5.011s-2.243 5.011-5.011 5.011z" fill="#ff7eb8"/><circle cx="289" cy="111.314" fill="#97ffd2" r="14.093"/><path d="m413.339 245.395 9.907.004.097-5.728c-.087-13.735-11.284-24.883-25.039-24.883h-137.304l.037-40.385h-10.009l-.028 40.384h-137.304c-13.755 0-24.952 11.148-25.039 24.883v5.729h9.923l.081-5.729c.087-8.221 6.794-14.883 15.035-14.883h137.304v20.612h10v-20.612h137.304c8.241 0 14.948 6.662 15.035 14.883z" fill="#2626bc"/><path d="m348.182 376.823c-.087-13.735-11.284-24.883-25.039-24.883h-62.143v-22.312h-10v22.312h-62.144c-13.755 0-24.952 11.148-25.039 24.883l.044 5.729h9.988l-.028-5.729c.087-8.221 6.794-14.883 15.035-14.883h134.287c8.241 0 14.948 6.662 15.035 14.883l.03 5.729h9.974z" fill="#2626bc"/><path d="m220.942 466.781h-104.257c-5.536 0-10.024-4.488-10.024-10.024v-64.181c0-5.536 4.488-10.024 10.024-10.024h104.258c5.536 0 10.024 4.488 10.024 10.024v64.181c0 5.536-4.488 10.024-10.025 10.024z" fill="url(#SVGID_2_)"/><path d="m395.315 466.781h-104.258c-5.536 0-10.024-4.488-10.024-10.024v-64.181c0-5.536 4.488-10.024 10.024-10.024h104.258c5.536 0 10.024 4.488 10.024 10.024v64.181c0 5.536-4.488 10.024-10.024 10.024z" fill="url(#SVGID_3_)"/><path d="m145.782 329.628h-104.258c-5.536 0-10.024-4.488-10.024-10.024v-64.181c0-5.536 4.488-10.024 10.024-10.024h104.258c5.536 0 10.024 4.488 10.024 10.024v64.181c0 5.536-4.488 10.024-10.024 10.024z" fill="url(#SVGID_4_)"/><path d="m308.129 329.628h-104.258c-5.536 0-10.024-4.488-10.024-10.024v-64.181c0-5.536 4.488-10.024 10.024-10.024h104.258c5.536 0 10.024 4.488 10.024 10.024v64.181c0 5.536-4.488 10.024-10.024 10.024z" fill="url(#SVGID_5_)"/><path d="m470.476 329.628h-104.258c-5.536 0-10.024-4.488-10.024-10.024v-64.181c0-5.536 4.488-10.024 10.024-10.024h104.258c5.536 0 10.024 4.488 10.024 10.024v64.181c0 5.536-4.488 10.024-10.024 10.024z" fill="url(#SVGID_6_)"/><path d="m323.161 174.544h-134.322c-5.536 0-10.024-4.488-10.024-10.024v-109.277c0-5.536 4.488-10.024 10.024-10.024h134.322c5.536 0 10.024 4.488 10.024 10.024v109.277c0 5.537-4.488 10.024-10.024 10.024z" fill="url(#SVGID_7_)"/></g><g><path d="m129.489 127.651c-2.761 0-5-2.239-5-5 0-3.321-2.702-6.023-6.023-6.023-2.761 0-5-2.239-5-5s2.239-5 5-5c3.321 0 6.023-2.702 6.023-6.024 0-2.761 2.239-5 5-5s5 2.239 5 5c0 3.322 2.702 6.024 6.023 6.024 2.761 0 5 2.239 5 5s-2.239 5-5 5c-3.321 0-6.023 2.702-6.023 6.023 0 2.761-2.239 5-5 5z" fill="#6583fe"/><path d="m445.999 393.002c-2.762 0-5-2.239-5-5 0-3.321-2.702-6.023-6.024-6.023-2.762 0-5-2.239-5-5s2.238-5 5-5c3.322 0 6.024-2.702 6.024-6.024 0-2.761 2.238-5 5-5s5 2.239 5 5c0 3.322 2.702 6.024 6.023 6.024 2.762 0 5 2.239 5 5s-2.238 5-5 5c-3.321 0-6.023 2.702-6.023 6.023 0 2.761-2.238 5-5 5z" fill="#ff7eb8"/><path d="m371.487 196.244c-1.279 0-2.56-.488-3.535-1.464l-11.023-11.023c-1.953-1.953-1.953-5.119 0-7.071l11.023-11.023c1.951-1.952 5.119-1.952 7.07 0l11.023 11.023c1.953 1.953 1.953 5.119 0 7.071l-11.023 11.023c-.975.975-2.255 1.464-3.535 1.464zm-3.952-16.024 3.952 3.952 3.952-3.952-3.952-3.952z" fill="#ff7eb8"/><path d="m68.84 431.321c-1.28 0-2.559-.488-3.536-1.464l-11.024-11.023c-.938-.938-1.464-2.209-1.464-3.536s.527-2.598 1.464-3.536l11.024-11.024c.938-.938 2.209-1.464 3.536-1.464 1.326 0 2.598.527 3.536 1.464l11.023 11.024c1.953 1.953 1.953 5.119 0 7.071l-11.023 11.023c-.977.976-2.256 1.465-3.536 1.465zm-3.952-16.024 3.953 3.953 3.953-3.953-3.953-3.953z" fill="#97ffd2"/></g></g></svg>