<svg id="Capa_1" enable-background="new 0 0 512 512" height="512" viewBox="0 0 512 512" width="512" xmlns="http://www.w3.org/2000/svg" xmlns:xlink="http://www.w3.org/1999/xlink"><linearGradient id="SVGID_1_" gradientUnits="userSpaceOnUse" x1="28.936" x2="438.263" y1="47.047" y2="480.197"><stop offset="0" stop-color="#ffdbed"/><stop offset="1" stop-color="#dcfdee"/></linearGradient><linearGradient id="SVGID_2_" gradientUnits="userSpaceOnUse" x1="256" x2="256" y1="109.375" y2="423.625"><stop offset=".0028" stop-color="#ff7eb8" stop-opacity="0"/><stop offset="1" stop-color="#ff7eb8" stop-opacity=".6"/></linearGradient><g><g><path d="m310.075 89.353c-21.43-52.669-73.271-89.723-133.726-89.35-77.124.475-140.536 62.684-142.407 139.786-.923 38.04 12.978 72.821 36.334 98.983 18.619 20.856 27.963 48.325 27.021 76.268-.125 3.714-.144 7.455-.052 11.22 2.464 101.4 89.087 185.801 190.517 185.74 105.133-.063 190.34-85.31 190.34-190.457 0-77.074-45.784-143.448-111.637-173.423-25.667-11.683-45.762-32.647-56.39-58.767z" fill="url(#SVGID_1_)"/><path d="m456 124.375v284.25c0 8.28-6.72 15-15 15h-370c-8.28 0-15-6.72-15-15v-284.25c0-8.28 6.72-15 15-15h370c8.28 0 15 6.72 15 15z" fill="#fff"/><path d="m417.713 423.624h-323.426v-27.124c0-1.657 1.343-3 3-3h317.425c1.657 0 3 1.343 3 3v27.124z" fill="#d2deff"/><path d="m94.287 157.545h323.425v21.124c0 1.657-1.343 3-3 3h-317.426c-1.657 0-3-1.343-3-3z" fill="#d2deff"/><path d="m456 157.545v-33.171c0-8.284-6.716-15-15-15h-370c-8.284 0-15 6.716-15 15v33.171z" fill="#6583fe"/><path d="m213.954 286.344h-116.667c-1.657 0-3-1.343-3-3v-81.149c0-1.657 1.343-3 3-3h116.667c1.657 0 3 1.343 3 3v81.149c0 1.657-1.343 3-3 3z" fill="#ff7eb8"/><path d="m141.122 229.407v26.724c0 2.313 2.507 3.756 4.507 2.594l22.997-13.362c1.99-1.157 1.99-4.031 0-5.188l-22.997-13.362c-2-1.162-4.507.281-4.507 2.594z" fill="#fff"/><path d="m238.45 355.771h-139.154c-2.766 0-5.008-2.242-5.008-5.008s2.242-5.008 5.008-5.008h139.154c2.766 0 5.008 2.242 5.008 5.008s-2.242 5.008-5.008 5.008z" fill="#b7c5ff"/><path d="m238.45 318.787h-68.32c-2.766 0-5.008-2.242-5.008-5.008s2.242-5.008 5.008-5.008h68.32c2.766 0 5.008 2.242 5.008 5.008s-2.242 5.008-5.008 5.008z" fill="#6583fe"/><path d="m238.45 375.637h-139.154c-2.766 0-5.008-2.242-5.008-5.008s2.242-5.008 5.008-5.008h139.154c2.766 0 5.008 2.242 5.008 5.008 0 2.765-2.242 5.008-5.008 5.008z" fill="#b7c5ff"/><path d="m412.704 245.985h-166.742c-2.766 0-5.008-2.242-5.008-5.008s2.242-5.008 5.008-5.008h166.742c2.766 0 5.008 2.242 5.008 5.008.001 2.766-2.241 5.008-5.008 5.008z" fill="#b7c5ff"/><path d="m352.704 209.211h-106.742c-2.766 0-5.008-2.242-5.008-5.008s2.242-5.008 5.008-5.008h106.742c2.766 0 5.008 2.242 5.008 5.008.001 2.765-2.241 5.008-5.008 5.008z" fill="#ffa8cf"/><path d="m412.704 265.851h-166.742c-2.766 0-5.008-2.242-5.008-5.008s2.242-5.008 5.008-5.008h166.742c2.766 0 5.008 2.242 5.008 5.008.001 2.766-2.241 5.008-5.008 5.008z" fill="#b7c5ff"/><path d="m412.704 286.135h-166.742c-2.766 0-5.008-2.242-5.008-5.008s2.242-5.008 5.008-5.008h166.742c2.766 0 5.008 2.242 5.008 5.008.001 2.765-2.241 5.008-5.008 5.008z" fill="#b7c5ff"/><path d="m414.713 375.637h-148.717c-1.657 0-3-1.343-3-3v-60.866c0-1.657 1.343-3 3-3h148.717c1.657 0 3 1.343 3 3v60.866c0 1.657-1.344 3-3 3z" fill="#6583fe"/><g fill="#d2deff"><circle cx="357.264" cy="342.204" r="5.59"/><circle cx="340.354" cy="342.204" r="5.59"/><circle cx="323.444" cy="342.204" r="5.59"/></g><path d="m456 124.375v284.25c0 8.28-6.72 15-15 15h-370c-8.28 0-15-6.72-15-15v-284.25c0-8.28 6.72-15 15-15h370c8.28 0 15 6.72 15 15z" fill="url(#SVGID_2_)"/><path d="m94.082 138.532c-2.762 0-5-2.239-5-5v-.145c0-2.761 2.238-5 5-5s5 2.239 5 5v.145c0 2.761-2.238 5-5 5z" fill="#2d58e0"/><path d="m113.407 138.532c-2.762 0-5-2.239-5-5v-.145c0-2.761 2.238-5 5-5s5 2.239 5 5v.145c0 2.761-2.238 5-5 5z" fill="#2d58e0"/><path d="m132.731 138.532c-2.762 0-5-2.239-5-5v-.145c0-2.761 2.238-5 5-5s5 2.239 5 5v.145c0 2.761-2.238 5-5 5z" fill="#2d58e0"/></g><g><path d="m106.688 475.142c-1.326 0-2.598-.527-3.535-1.464l-11.018-11.018c-1.953-1.953-1.953-5.119 0-7.071l11.018-11.018c.938-.938 2.209-1.464 3.535-1.464s2.598.527 3.535 1.464l11.019 11.018c.938.938 1.465 2.209 1.465 3.536s-.526 2.598-1.465 3.536l-11.019 11.018c-.937.936-2.208 1.463-3.535 1.463zm-3.946-16.018 3.946 3.947 3.947-3.947-3.947-3.947z" fill="#6583fe"/><path d="m288.982 61.982c-1.326 0-2.598-.527-3.535-1.464l-11.018-11.018c-.938-.938-1.465-2.209-1.465-3.536s.527-2.598 1.465-3.536l11.019-11.018c1.951-1.952 5.119-1.952 7.07 0l11.018 11.018c1.953 1.953 1.953 5.119 0 7.071l-11.018 11.018c-.938.938-2.209 1.465-3.536 1.465zm-3.947-16.018 3.947 3.947 3.946-3.947-3.946-3.947z" fill="#6583fe"/><path d="m417.713 482.054c-1.279 0-2.559-.488-3.535-1.464l-11.019-11.018c-.938-.938-1.465-2.209-1.465-3.536s.526-2.598 1.465-3.536l11.019-11.018c.938-.938 2.209-1.464 3.535-1.464s2.598.527 3.535 1.464l11.018 11.018c1.953 1.953 1.953 5.119 0 7.071l-11.018 11.018c-.976.976-2.256 1.465-3.535 1.465zm-3.947-16.018 3.947 3.947 3.946-3.947-3.946-3.947z" fill="#ff7eb8"/><path d="m340.354 73c-2.762 0-5-2.239-5-5 0-3.318-2.7-6.018-6.019-6.018-2.762 0-5-2.239-5-5s2.238-5 5-5c3.318 0 6.019-2.7 6.019-6.018 0-2.761 2.238-5 5-5s5 2.239 5 5c0 3.318 2.699 6.018 6.018 6.018 2.762 0 5 2.239 5 5s-2.238 5-5 5c-3.318 0-6.018 2.7-6.018 6.018 0 2.761-2.238 5-5 5z" fill="#97ffd2"/></g></g></svg>