<svg id="Capa_1" enable-background="new 0 0 512 512" height="512" viewBox="0 0 512 512" width="512" xmlns="http://www.w3.org/2000/svg" xmlns:xlink="http://www.w3.org/1999/xlink"><linearGradient id="SVGID_1_" gradientUnits="userSpaceOnUse" x1="36.433" x2="519.397" y1="149.158" y2="385.225"><stop offset=".0485" stop-color="#d2deff"/><stop offset=".9993" stop-color="#dcfdee"/></linearGradient><linearGradient id="SVGID_2_" gradientUnits="userSpaceOnUse" x1="249.51" x2="249.51" y1="68.943" y2="469.366"><stop offset=".0028" stop-color="#ff7eb8" stop-opacity="0"/><stop offset="1" stop-color="#ff7eb8" stop-opacity=".6"/></linearGradient><g><g><path d="m408.229 156.045c-23.697-9.236-43.717-26.089-55.961-48.381-20.59-37.487-60.43-62.898-106.221-62.898-47.53 0-88.646 27.377-108.477 67.219-12.146 24.401-32.814 43.56-58.09 53.761-37.349 15.074-68.703 49.524-78.653 103.382-1.092 5.91-1.108 11.986-.016 17.896 15.448 83.572 82.399 120.435 143.334 110.66 34.126-5.474 68.672 5.909 93.967 29.462 51.434 47.892 133.884 62.907 213.923 11.57 9.377-6.014 21.957-18.634 27.966-28.015 68.966-107.67 17.879-219.714-71.772-254.656z" fill="url(#SVGID_1_)"/><path d="m369.066 86.936v364.437c0 9.936-8.057 17.993-17.993 17.993h-203.126c-9.936 0-17.993-8.057-17.993-17.993v-364.437c0-9.936 8.057-17.993 17.993-17.993h203.126c9.936 0 17.993 8.057 17.993 17.993z" fill="#fff"/><g fill="#d2deff"><path d="m369.066 309.705v68.255h-19.073c-5.498 0-9.966-4.508-9.966-10.066v-48.112c0-5.568 4.468-10.076 9.966-10.076h19.073z"/><path d="m161.272 167.727v70.934c0 4.178-3.349 7.567-7.477 7.567h-23.841v-86.069h23.841c4.129.001 7.477 3.389 7.477 7.568z"/><path d="m161.272 293.641v131.302c0 4.178-3.349 7.567-7.477 7.567h-23.841v-146.436h23.841c4.129 0 7.477 3.388 7.477 7.567z"/><path d="m369.066 139.957v118.047h-40.215c-5.538 0-10.036-4.498-10.036-10.036v-97.974c0-5.538 4.498-10.036 10.036-10.036z"/></g><path d="m369.067 172.568v-85.537c0-9.991-8.013-18.09-17.896-18.09h-203.321c-9.884 0-17.896 8.099-17.896 18.09v85.537z" fill="#ffc4df"/><path d="m320.79 93.748 7.993-24.808h-158.545l7.993 24.808c1.157 3.592 4.47 6.024 8.208 6.024h126.144c3.737 0 7.05-2.431 8.207-6.024z" fill="#b7c5ff"/><ellipse cx="249.51" cy="243.904" fill="#ff7eb8" rx="44.789" ry="45.274"/><path d="m261.867 250.453c3.441-3.299 5.6-7.945 5.6-13.098 0-9.979-8.056-18.098-17.958-18.098-9.901 0-17.957 8.119-17.957 18.098 0 5.153 2.159 9.799 5.6 13.098-3.441 3.299-5.6 7.945-5.6 13.098 0 2.761 2.239 5 5 5s5-2.239 5-5c0-4.465 3.569-8.098 7.957-8.098s7.958 3.633 7.958 8.098c0 2.761 2.239 5 5 5s5-2.239 5-5c.001-5.153-2.158-9.799-5.6-13.098zm-20.314-13.098c0-4.465 3.569-8.098 7.957-8.098s7.958 3.633 7.958 8.098-3.57 8.098-7.958 8.098-7.957-3.633-7.957-8.098z" fill="#fff"/><path d="m282.647 328.18h-66.273c-2.816 0-5.099-2.308-5.099-5.154s2.282-5.154 5.099-5.154h66.273c2.816 0 5.099 2.308 5.099 5.154s-2.283 5.154-5.099 5.154z" fill="#b7c5ff"/><path d="m264.732 347.296h-30.442c-2.816 0-5.099-2.308-5.099-5.154s2.282-5.154 5.099-5.154h30.442c2.816 0 5.099 2.308 5.099 5.154-.001 2.846-2.283 5.154-5.099 5.154z" fill="#6583fe"/><ellipse cx="266.341" cy="404.743" fill="#d2deff" rx="5.564" ry="5.624"/><path d="m249.511 399.119c3.073 0 5.564 2.518 5.564 5.624s-2.491 5.624-5.564 5.624-5.564-2.518-5.564-5.624 2.491-5.624 5.564-5.624z" fill="#d2deff"/><ellipse cx="232.68" cy="404.743" fill="#d2deff" rx="5.564" ry="5.624"/><path d="m369.066 86.936v364.437c0 9.936-8.057 17.993-17.993 17.993h-203.126c-9.936 0-17.993-8.057-17.993-17.993v-364.437c0-9.936 8.057-17.993 17.993-17.993h203.126c9.936 0 17.993 8.057 17.993 17.993z" fill="url(#SVGID_2_)"/><path d="m405.848 362.966h-55.856c-5.501 0-9.96-4.507-9.96-10.068v-48.116c0-5.56 4.459-10.068 9.96-10.068h55.856c5.501 0 9.96 4.507 9.96 10.068v48.116c0 5.56-4.459 10.068-9.96 10.068z" fill="#97ffd2"/><path d="m371.146 345.991c-.83 0-1.67-.21-2.443-.651-2.396-1.367-3.241-4.438-1.888-6.859l13.537-24.233c1.352-2.421 4.39-3.275 6.784-1.908 2.396 1.367 3.241 4.438 1.888 6.859l-13.537 24.233c-.915 1.638-2.603 2.559-4.341 2.559z" fill="#01eca5"/><path d="m153.791 231.233h-107.807c-4.133 0-7.483-3.387-7.483-7.564v-70.937c0-4.178 3.35-7.564 7.483-7.564h107.807c4.133 0 7.483 3.387 7.483 7.564v70.937c0 4.178-3.35 7.564-7.483 7.564z" fill="#ff7eb8"/><path d="m76.626 205.333c-1.273 0-2.547-.491-3.517-1.473l-11.974-12.104c-1.943-1.964-1.943-5.148 0-7.111l11.974-12.104c1.941-1.963 5.093-1.963 7.034 0 1.943 1.964 1.943 5.148 0 7.111l-8.456 8.548 8.456 8.548c1.943 1.964 1.943 5.148 0 7.111-.97.983-2.244 1.474-3.517 1.474z" fill="#fff"/><path d="m123.149 171.069c1.273 0 2.547.491 3.517 1.473l11.974 12.104c1.943 1.964 1.943 5.148 0 7.111l-11.974 12.104c-1.941 1.963-5.093 1.963-7.034 0-1.943-1.964-1.943-5.148 0-7.111l8.456-8.548-8.456-8.548c-1.943-1.964-1.943-5.148 0-7.111.971-.983 2.245-1.474 3.517-1.474z" fill="#fff"/><path d="m93.122 205.334c-.829 0-1.668-.21-2.441-.651-2.393-1.366-3.237-4.433-1.886-6.851l13.522-24.207c1.35-2.418 4.386-3.271 6.777-1.906 2.393 1.366 3.237 4.433 1.886 6.851l-13.522 24.207c-.914 1.636-2.6 2.557-4.336 2.557z" fill="#fff"/><path d="m153.791 417.512h-107.807c-4.133 0-7.483-3.387-7.483-7.564v-131.302c0-4.178 3.35-7.564 7.483-7.564h107.807c4.133 0 7.483 3.387 7.483 7.564v131.302c0 4.177-3.35 7.564-7.483 7.564z" fill="#01eca5"/><path d="m450.489 243.005h-121.64c-5.54 0-10.031-4.491-10.031-10.031v-97.978c0-5.54 4.491-10.031 10.031-10.031h121.64c5.54 0 10.031 4.491 10.031 10.031v97.978c0 5.54-4.491 10.031-10.031 10.031z" fill="#fff"/><path d="m450.543 124.965h-34v118.04h34c5.51 0 9.977-4.515 9.977-10.085v-97.87c0-5.57-4.467-10.085-9.977-10.085z" fill="#dcfdee"/><path d="m460.52 157.91v-22.86c0-5.57-4.467-10.085-9.977-10.085h-121.748c-5.51 0-9.977 4.515-9.977 10.085v22.86z" fill="#01eca5"/><path d="m396.495 219.458h-49.482c-2.755 0-4.987-2.257-4.987-5.041s2.233-5.041 4.987-5.041h49.482c2.755 0 4.987 2.257 4.987 5.041s-2.233 5.041-4.987 5.041z" fill="#b7c5ff"/><path d="m369.558 198.527h-22.545c-2.755 0-4.987-2.257-4.987-5.041s2.233-5.041 4.987-5.041h22.545c2.755 0 4.987 2.257 4.987 5.041s-2.233 5.041-4.987 5.041z" fill="#b7c5ff"/><path d="m129.043 346.609h-58.311c-2.753 0-4.984-2.256-4.984-5.038s2.231-5.038 4.984-5.038h58.311c2.753 0 4.984 2.256 4.984 5.038s-2.231 5.038-4.984 5.038z" fill="#fff"/><path d="m117.099 319.662h-34.423c-2.753 0-4.984-2.256-4.984-5.038s2.231-5.038 4.984-5.038h34.423c2.753 0 4.984 2.256 4.984 5.038s-2.231 5.038-4.984 5.038z" fill="#97ffd2"/><path d="m129.043 364.502h-58.311c-2.753 0-4.984-2.256-4.984-5.038s2.231-5.038 4.984-5.038h58.311c2.753 0 4.984 2.256 4.984 5.038 0 2.783-2.231 5.038-4.984 5.038z" fill="#fff"/><path d="m129.043 382.396h-58.311c-2.753 0-4.984-2.256-4.984-5.038s2.231-5.038 4.984-5.038h58.311c2.753 0 4.984 2.256 4.984 5.038s-2.231 5.038-4.984 5.038z" fill="#fff"/></g><g><path d="m462.529 388.412c-1.335 0-2.615-.534-3.555-1.483l-10.972-11.091c-1.927-1.948-1.927-5.085 0-7.033l10.972-11.091c.939-.949 2.219-1.483 3.555-1.483s2.615.534 3.555 1.483l10.972 11.091c1.927 1.948 1.927 5.085 0 7.033l-10.972 11.091c-.94.948-2.22 1.483-3.555 1.483zm-3.939-16.091 3.938 3.981 3.939-3.981-3.939-3.981z" fill="#6583fe"/><path d="m412.167 416.614c-1.335 0-2.615-.534-3.555-1.483l-10.972-11.091c-1.927-1.948-1.927-5.085 0-7.033l10.972-11.091c.939-.949 2.219-1.483 3.555-1.483 1.335 0 2.615.534 3.555 1.483l10.972 11.091c1.927 1.948 1.927 5.085 0 7.033l-10.972 11.091c-.94.949-2.22 1.483-3.555 1.483zm-3.939-16.091 3.939 3.981 3.938-3.981-3.938-3.981z" fill="#ff7eb8"/><path d="m89.3 124.414c-2.761 0-5-2.239-5-5 0-3.346-2.668-6.067-5.949-6.067-2.761 0-5-2.239-5-5s2.239-5 5-5c3.28 0 5.949-2.722 5.949-6.067 0-2.761 2.239-5 5-5s5 2.239 5 5c0 3.346 2.668 6.067 5.949 6.067 2.761 0 5 2.239 5 5s-2.239 5-5 5c-3.28 0-5.949 2.722-5.949 6.067 0 2.761-2.239 5-5 5z" fill="#97ffd2"/><path d="m107.587 73.334c-2.761 0-5-2.239-5-5 0-3.346-2.668-6.067-5.949-6.067-2.761 0-5-2.239-5-5s2.239-5 5-5c3.28 0 5.949-2.722 5.949-6.067 0-2.761 2.239-5 5-5s5 2.239 5 5c0 3.346 2.668 6.067 5.949 6.067 2.761 0 5 2.239 5 5s-2.239 5-5 5c-3.28 0-5.949 2.722-5.949 6.067 0 2.762-2.239 5-5 5z" fill="#6583fe"/></g></g></svg>