<svg id="Capa_1" enable-background="new 0 0 512 512" height="512" viewBox="0 0 512 512" width="512" xmlns="http://www.w3.org/2000/svg" xmlns:xlink="http://www.w3.org/1999/xlink"><linearGradient id="SVGID_1_" gradientUnits="userSpaceOnUse" x1="28.984" x2="502.522" y1="124.555" y2="414.076"><stop offset=".0485" stop-color="#ffdbed"/><stop offset=".9993" stop-color="#d2deff"/></linearGradient><linearGradient id="SVGID_2_" gradientUnits="userSpaceOnUse" x1="256.001" x2="256.001" y1="109.775" y2="394.025"><stop offset=".0028" stop-color="#ff7eb8" stop-opacity="0"/><stop offset="1" stop-color="#ff7eb8" stop-opacity=".6"/></linearGradient><g><g><path d="m408.229 154.265c-23.697-9.236-43.717-26.089-55.961-48.381-20.59-37.487-60.43-62.898-106.221-62.898-47.53 0-88.646 27.377-108.477 67.219-12.146 24.401-32.814 43.56-58.09 53.761-37.349 15.074-68.703 49.524-78.653 103.382-1.092 5.91-1.108 11.986-.016 17.896 15.448 83.572 82.399 120.435 143.334 110.66 34.126-5.474 68.672 5.909 93.967 29.462 51.434 47.892 133.884 62.907 213.923 11.57 9.377-6.014 21.957-18.634 27.966-28.015 68.966-107.67 17.879-219.714-71.772-254.656z" fill="url(#SVGID_1_)"/><path d="m312.711 466.729h-113.421l22.682-89.905h68.057z" fill="#9fb0fe"/><path d="m297.929 408.126h-83.857l7.9-31.302h68.057z" fill="#8399fe"/><path d="m456.001 124.775v254.25c0 8.28-6.72 15-15 15h-370c-8.28 0-15-6.72-15-15v-254.25c0-8.28 6.72-15 15-15h370c8.28 0 15 6.72 15 15z" fill="#fff"/><path d="m428.001 343.632h-214v-153.936c0-1.657 1.343-3 3-3h208c1.657 0 3 1.343 3 3z" fill="#d2deff"/><path d="m428.001 207.804h-214v-18.107c0-1.657 1.343-3 3-3h208c1.657 0 3 1.343 3 3z" fill="#02ffb3"/><path d="m456.001 157.946v-33.171c0-8.284-6.716-15-15-15h-370c-8.284 0-15 6.716-15 15v33.171z" fill="#ff7eb8"/><path d="m56.001 343.632v35.39c0 8.284 6.716 15 15 15h370c8.284 0 15-6.716 15-15v-35.39z" fill="#b7c5ff"/><ellipse cx="143.067" cy="226.335" fill="#02ffb3" rx="40.143" ry="40.143" transform="matrix(.16 -.987 .987 .16 -103.262 331.3)"/><path d="m159.68 220.528c0-9.16-7.453-16.612-16.613-16.612s-16.613 7.452-16.613 16.612c0 4.518 1.818 8.615 4.755 11.613-2.936 2.998-4.755 7.096-4.755 11.613 0 2.762 2.239 5 5 5s5-2.238 5-5c0-3.646 2.966-6.613 6.613-6.613s6.613 2.967 6.613 6.613c0 2.762 2.239 5 5 5s5-2.238 5-5c0-4.518-1.818-8.615-4.755-11.613 2.937-2.997 4.755-7.095 4.755-11.613zm-16.613-6.612c3.646 0 6.613 2.966 6.613 6.612s-2.967 6.613-6.613 6.613-6.613-2.967-6.613-6.613 2.966-6.612 6.613-6.612z" fill="#fff"/><path d="m385.328 256.313h-128.654c-7.828 0-14.173-6.346-14.173-14.173 0-7.828 6.346-14.173 14.173-14.173h128.654c7.828 0 14.173 6.346 14.173 14.173s-6.346 14.173-14.173 14.173z" fill="#fff"/><g fill="#6583fe"><circle cx="304.09" cy="242.356" r="5.59"/><circle cx="321.001" cy="242.356" r="5.59"/><path d="m337.912 236.766c3.087 0 5.59 2.503 5.59 5.59s-2.503 5.59-5.59 5.59-5.59-2.503-5.59-5.59 2.502-5.59 5.59-5.59z"/></g><path d="m385.328 295.813h-128.654c-7.828 0-14.173-6.346-14.173-14.173 0-7.828 6.346-14.173 14.173-14.173h128.654c7.828 0 14.173 6.346 14.173 14.173s-6.346 14.173-14.173 14.173z" fill="#fff"/><circle cx="304.09" cy="281.856" fill="#6583fe" r="5.59"/><circle cx="321.001" cy="281.856" fill="#6583fe" r="5.59"/><path d="m337.912 276.266c3.087 0 5.59 2.503 5.59 5.59s-2.503 5.59-5.59 5.59-5.59-2.503-5.59-5.59 2.502-5.59 5.59-5.59z" fill="#6583fe"/><path d="m340.895 325.643h-39.574c-1.657 0-3-1.343-3-3v-11.5c0-1.657 1.343-3 3-3h39.574c1.657 0 3 1.343 3 3v11.5c0 1.657-1.343 3-3 3z" fill="#ff7eb8"/><path d="m176.36 292.101h-66.586c-2.829 0-5.123-2.294-5.123-5.123s2.293-5.123 5.123-5.123h66.586c2.829 0 5.123 2.294 5.123 5.123s-2.294 5.123-5.123 5.123z" fill="#b7c5ff"/><path d="m158.36 311.101h-30.586c-2.829 0-5.123-2.294-5.123-5.123s2.293-5.123 5.123-5.123h30.586c2.829 0 5.123 2.294 5.123 5.123s-2.294 5.123-5.123 5.123z" fill="#6583fe"/><path d="m456.001 124.775v254.25c0 8.28-6.72 15-15 15h-370c-8.28 0-15-6.72-15-15v-254.25c0-8.28 6.72-15 15-15h370c8.28 0 15 6.72 15 15z" fill="url(#SVGID_2_)"/><g><g fill="#fe2c8f"><path d="m94.083 128.788c-2.761 0-5 2.238-5 5v.145c0 2.762 2.239 5 5 5s5-2.238 5-5v-.145c0-2.762-2.239-5-5-5z"/><path d="m113.408 128.788c-2.761 0-5 2.238-5 5v.145c0 2.762 2.239 5 5 5s5-2.238 5-5v-.145c0-2.762-2.239-5-5-5z"/><path d="m132.732 128.788c-2.761 0-5 2.238-5 5v.145c0 2.762 2.239 5 5 5s5-2.238 5-5v-.145c0-2.762-2.238-5-5-5z"/></g><path d="m180.067 471.722c-2.761 0-5-2.238-5-5s2.239-5 5-5h151.867c2.761 0 5 2.238 5 5s-2.239 5-5 5z" fill="#6583fe"/></g></g><g><path d="m374.212 453.379c-1.28 0-2.559-.488-3.536-1.465l-10.994-10.994c-1.953-1.952-1.953-5.118 0-7.07l10.994-10.994c1.953-1.953 5.118-1.953 7.071 0l10.994 10.994c1.953 1.952 1.953 5.118 0 7.07l-10.994 10.994c-.976.977-2.255 1.465-3.535 1.465zm-3.923-15.994 3.923 3.923 3.923-3.923-3.923-3.923z" fill="#ff7eb8"/><path d="m131.454 95.442c-1.28 0-2.559-.488-3.536-1.465l-10.994-10.994c-1.953-1.952-1.953-5.118 0-7.07l10.994-10.994c1.953-1.953 5.118-1.953 7.071 0l10.994 10.994c1.953 1.952 1.953 5.118 0 7.07l-10.994 10.994c-.976.977-2.255 1.465-3.535 1.465zm-3.923-15.994 3.923 3.923 3.923-3.923-3.923-3.923z" fill="#ff7eb8"/><path d="m181.482 72.266c-1.28 0-2.559-.488-3.536-1.465l-10.994-10.994c-1.953-1.952-1.953-5.118 0-7.07l10.994-10.994c1.953-1.953 5.118-1.953 7.071 0l10.994 10.994c1.953 1.952 1.953 5.118 0 7.07l-10.994 10.994c-.975.976-2.255 1.465-3.535 1.465zm-3.922-15.994 3.923 3.923 3.923-3.923-3.923-3.923z" fill="#6583fe"/><path d="m410.519 77.768c-2.761 0-5-2.238-5-5 0-3.318-2.7-6.018-6.018-6.018-2.761 0-5-2.238-5-5s2.239-5 5-5c3.318 0 6.018-2.699 6.018-6.018 0-2.762 2.239-5 5-5s5 2.238 5 5c0 3.318 2.7 6.018 6.018 6.018 2.761 0 5 2.238 5 5s-2.239 5-5 5c-3.318 0-6.018 2.699-6.018 6.018 0 2.761-2.239 5-5 5z" fill="#97ffd2"/></g></g></svg>