<svg id="Capa_1" enable-background="new 0 0 512 512" height="512" viewBox="0 0 512 512" width="512" xmlns="http://www.w3.org/2000/svg" xmlns:xlink="http://www.w3.org/1999/xlink"><linearGradient id="SVGID_1_" gradientUnits="userSpaceOnUse" x1="46.548" x2="425.555" y1="35.606" y2="483.918"><stop offset=".0485" stop-color="#d2deff"/><stop offset=".9993" stop-color="#dcfdee"/></linearGradient><linearGradient id="SVGID_2_" gradientUnits="userSpaceOnUse" x1="243.406" x2="243.406" y1="115.727" y2="399.842"><stop offset=".0028" stop-color="#ff7eb8" stop-opacity="0"/><stop offset="1" stop-color="#ff7eb8" stop-opacity=".6"/></linearGradient><g><g><path d="m310.075 89.353c-21.43-52.669-73.271-89.723-133.726-89.35-77.124.475-140.536 62.684-142.407 139.786-.923 38.04 12.978 72.821 36.334 98.983 18.619 20.856 27.963 48.325 27.021 76.268-.125 3.714-.144 7.455-.052 11.22 2.464 101.4 89.087 185.801 190.517 185.74 105.133-.063 190.34-85.31 190.34-190.457 0-77.074-45.784-143.448-111.637-173.423-25.667-11.683-45.762-32.647-56.39-58.767z" fill="url(#SVGID_1_)"/><path d="m300.087 472.513h-113.366l22.671-89.862h68.025z" fill="#9fb0fe"/><path d="m285.313 413.938h-83.817l7.896-31.287h68.025z" fill="#8399fe"/><path d="m443.311 130.72v254.129c0 8.276-6.717 14.993-14.993 14.993h-369.825c-8.276 0-14.993-6.717-14.993-14.993v-254.129c0-8.276 6.717-14.993 14.993-14.993h369.824c8.277 0 14.994 6.717 14.994 14.993z" fill="#fff"/><path d="m443.311 130.72v95.684c-14.213 13.334-33.344 21.5-54.384 21.5-43.949 0-79.572-35.633-79.572-79.572 0-20.161 7.496-38.582 19.881-52.605h99.083c8.275 0 14.992 6.717 14.992 14.993z" fill="#d2deff"/><path d="m138.884 257.785h-61.4c-1.656 0-2.999-1.342-2.999-2.999v-90.909h67.397v90.909c0 1.656-1.342 2.999-2.998 2.999z" fill="#97ffd2"/><path d="m415.134 163.877v90.904c0 1.659-1.349 2.999-2.999 2.999h-241.334c-1.659 0-2.999-1.339-2.999-2.999v-90.904z" fill="#9fb0fe"/><path d="m415.134 164.264v79.222c-8.206 2.869-17.022 4.418-26.208 4.418-43.949 0-79.572-35.633-79.572-79.572 0-1.359.03-2.719.11-4.068z" fill="#8399fe"/><path d="m123.411 326.662h-45.927c-1.656 0-2.999-1.343-2.999-2.999v-45.927c0-1.656 1.343-2.999 2.999-2.999h45.927c1.656 0 2.999 1.343 2.999 2.999v45.927c-.001 1.656-1.343 2.999-2.999 2.999z" fill="#ffc4df"/><path d="m198.497 326.662h-45.927c-1.656 0-2.999-1.343-2.999-2.999v-45.927c0-1.656 1.342-2.999 2.999-2.999h45.927c1.656 0 2.999 1.343 2.999 2.999v45.927c0 1.656-1.343 2.999-2.999 2.999z" fill="#97ffd2"/><path d="m306.354 326.662h-78.696c-1.656 0-2.999-1.343-2.999-2.999v-45.927c0-1.656 1.343-2.999 2.999-2.999h78.696c1.656 0 2.999 1.343 2.999 2.999v45.927c0 1.656-1.343 2.999-2.999 2.999z" fill="#ff7eb8"/><path d="m412.133 326.662h-78.696c-1.656 0-2.999-1.343-2.999-2.999v-45.927c0-1.656 1.343-2.999 2.999-2.999h78.696c1.656 0 2.999 1.343 2.999 2.999v45.927c0 1.656-1.343 2.999-2.999 2.999z" fill="#ffa8cf"/><path d="m443.31 163.877v-33.156c0-8.28-6.713-14.993-14.993-14.993h-369.825c-8.28 0-14.993 6.713-14.993 14.993v33.156z" fill="#6583fe"/><path d="m43.499 349.475v35.373c0 8.28 6.713 14.993 14.993 14.993h369.824c8.28 0 14.993-6.713 14.993-14.993v-35.373z" fill="#b7c5ff"/><g fill="#fff"><ellipse cx="223.154" cy="238.15" rx="5.569" ry="5.629"/><ellipse cx="206.307" cy="238.15" rx="5.569" ry="5.629"/><ellipse cx="189.46" cy="238.15" rx="5.569" ry="5.629"/></g><path d="m261.556 295.665h-14.973c-2.828 0-5.12-2.293-5.12-5.12s2.292-5.12 5.12-5.12h14.973c2.828 0 5.12 2.293 5.12 5.12s-2.292 5.12-5.12 5.12z" fill="#ffc4df"/><path d="m287.429 295.665h-6.574c-2.828 0-5.12-2.293-5.12-5.12s2.292-5.12 5.12-5.12h6.574c2.828 0 5.12 2.293 5.12 5.12s-2.292 5.12-5.12 5.12z" fill="#ffc4df"/><path d="m287.429 315.975h-40.847c-2.828 0-5.12-2.293-5.12-5.12s2.292-5.12 5.12-5.12h40.847c2.828 0 5.12 2.293 5.12 5.12s-2.292 5.12-5.12 5.12z" fill="#ff5ba8"/><path d="m367.335 295.665h-14.973c-2.828 0-5.12-2.293-5.12-5.12s2.292-5.12 5.12-5.12h14.973c2.828 0 5.12 2.293 5.12 5.12s-2.292 5.12-5.12 5.12z" fill="#ff5ba8"/><path d="m393.208 295.665h-6.574c-2.828 0-5.12-2.293-5.12-5.12s2.292-5.12 5.12-5.12h6.574c2.828 0 5.12 2.293 5.12 5.12s-2.292 5.12-5.12 5.12z" fill="#ff5ba8"/><path d="m393.208 315.975h-40.847c-2.828 0-5.12-2.293-5.12-5.12s2.292-5.12 5.12-5.12h40.847c2.828 0 5.12 2.293 5.12 5.12s-2.292 5.12-5.12 5.12z" fill="#ff7eb8"/><path d="m443.311 130.72v254.129c0 8.276-6.717 14.993-14.993 14.993h-369.825c-8.276 0-14.993-6.717-14.993-14.993v-254.129c0-8.276 6.717-14.993 14.993-14.993h369.824c8.277 0 14.994 6.717 14.994 14.993z" fill="url(#SVGID_2_)"/><g><g fill="#2d58e0"><path d="m76.564 139.73v.146c0 2.762 2.239 5 5 5s5-2.238 5-5v-.146c0-2.762-2.239-5-5-5s-5 2.239-5 5z"/><path d="m95.879 139.73v.146c0 2.762 2.239 5 5 5s5-2.238 5-5v-.146c0-2.762-2.239-5-5-5s-5 2.239-5 5z"/><path d="m115.195 139.73v.146c0 2.762 2.239 5 5 5s5-2.238 5-5v-.146c0-2.762-2.239-5-5-5s-5 2.239-5 5z"/></g><path d="m319.303 467.507h-151.796c-2.761 0-5 2.238-5 5s2.239 5 5 5h151.796c2.761 0 5-2.238 5-5s-2.239-5-5-5z" fill="#6583fe"/></g><ellipse cx="388.926" cy="154.026" fill="#ff7eb8" rx="79.574" ry="79.574" transform="matrix(.707 -.707 .707 .707 5.001 320.125)"/><ellipse cx="388.926" cy="154.026" fill="#dcfdee" rx="59.001" ry="59.001" transform="matrix(.23 -.973 .973 .23 149.663 497.159)"/><path d="m368.561 179.389c-1.279 0-2.558-.488-3.534-1.464-1.952-1.951-1.952-5.116 0-7.067l40.731-40.731c1.952-1.952 5.116-1.952 7.068 0 1.952 1.951 1.952 5.116 0 7.067l-40.731 40.731c-.976.976-2.255 1.464-3.534 1.464z" fill="#ff7eb8"/><path d="m370.31 149.718c-7.89 0-14.309-6.419-14.309-14.31 0-7.89 6.419-14.309 14.309-14.309s14.309 6.419 14.309 14.309c0 7.891-6.419 14.31-14.309 14.31zm0-18.623c-2.379 0-4.314 1.935-4.314 4.313s1.935 4.314 4.314 4.314 4.314-1.936 4.314-4.314-1.936-4.313-4.314-4.313z" fill="#ff7eb8"/><path d="m407.543 186.951c-7.89 0-14.309-6.419-14.309-14.31 0-7.89 6.419-14.309 14.309-14.309s14.309 6.419 14.309 14.309c0 7.892-6.419 14.31-14.309 14.31zm0-18.622c-2.379 0-4.314 1.935-4.314 4.313s1.935 4.314 4.314 4.314 4.314-1.936 4.314-4.314-1.935-4.313-4.314-4.313z" fill="#ff7eb8"/></g><g><path d="m315.711 66.479c-1.326 0-2.598-.527-3.536-1.465l-10.995-10.996c-1.953-1.952-1.953-5.118 0-7.07l10.995-10.995c1.953-1.953 5.118-1.953 7.071 0l10.996 10.995c.938.938 1.464 2.209 1.464 3.535s-.527 2.598-1.464 3.535l-10.996 10.996c-.936.937-2.208 1.465-3.535 1.465zm-3.924-15.997 3.924 3.925 3.924-3.925-3.924-3.924z" fill="#97ffd2"/><path d="m340.92 446.266c-1.28 0-2.559-.488-3.536-1.465l-10.996-10.995c-.938-.938-1.464-2.209-1.464-3.535s.527-2.598 1.464-3.535l10.996-10.995c1.954-1.953 5.119-1.952 7.071 0l10.995 10.995c1.953 1.952 1.953 5.118 0 7.07l-10.995 10.995c-.976.976-2.255 1.465-3.535 1.465zm-3.924-15.995 3.924 3.924 3.924-3.924-3.924-3.924z" fill="#6583fe"/><g fill="#ff7eb8"><path d="m384.619 471.108c-2.761 0-5-2.238-5-5 0-3.317-2.699-6.016-6.016-6.016-2.761 0-5-2.238-5-5s2.239-5 5-5c3.317 0 6.016-2.698 6.016-6.016 0-2.762 2.239-5 5-5s5 2.238 5 5c0 3.317 2.699 6.016 6.016 6.016 2.761 0 5 2.238 5 5s-2.239 5-5 5c-3.317 0-6.016 2.698-6.016 6.016 0 2.762-2.239 5-5 5z"/><path d="m180.068 80.493c-2.761 0-5-2.238-5-5 0-3.317-2.699-6.016-6.016-6.016-2.761 0-5-2.238-5-5s2.239-5 5-5c3.317 0 6.016-2.698 6.016-6.016 0-2.762 2.239-5 5-5s5 2.238 5 5c0 3.317 2.699 6.016 6.016 6.016 2.761 0 5 2.238 5 5s-2.239 5-5 5c-3.317 0-6.016 2.698-6.016 6.016 0 2.762-2.239 5-5 5z"/></g></g></g></svg>