<svg id="Capa_1" enable-background="new 0 0 512 512" height="512" viewBox="0 0 512 512" width="512" xmlns="http://www.w3.org/2000/svg" xmlns:xlink="http://www.w3.org/1999/xlink"><linearGradient id="SVGID_1_" gradientTransform="matrix(1 0 0 -1 50.4 -7650.99)" gradientUnits="userSpaceOnUse" x1="5.986" x2="553.133" y1="-7906.822" y2="-7904.368"><stop offset=".0485" stop-color="#d2deff"/><stop offset=".9993" stop-color="#dcfdee"/></linearGradient><linearGradient id="SVGID_2_" gradientUnits="userSpaceOnUse" x1="258.872" x2="258.872" y1="110.374" y2="396.697"><stop offset=".0028" stop-color="#ff7eb8" stop-opacity="0"/><stop offset="1" stop-color="#ff7eb8" stop-opacity=".6"/></linearGradient><g><g><path d="m482.969 142.248c-34.945-35.948-89.48-40.907-129.831-14.878-11.48 7.405-25.381 9.888-38.717 6.927-31.565-7.009-64.584-2.222-92.707 13.042-18.907 10.261-41.936 8.477-59.579-3.83-11.712-8.169-25.312-14.023-40.257-16.777-55.438-10.217-109.337 26.553-119.994 81.907-10.899 56.609 26.628 111.012 83.196 121.089 13.821 2.462 27.488 2.047 40.388-.816 20.936-4.646 42.81 3.122 56.321 19.776 8.528 10.512 18.812 19.894 30.757 27.689 61.731 40.28 144.427 22.89 184.707-38.84.043-.065.085-.131.128-.196 7.377-11.349 18.851-19.44 32.12-22.119 19.353-3.907 37.801-13.404 52.756-28.495 39.373-39.732 39.701-104.371.712-144.479z" fill="url(#SVGID_1_)"/><path d="m464.348 284.205c-7.804-49.453-53.183-83.631-102.447-78.043-3.85-53.544-48.504-95.788-103.029-95.788s-99.179 42.244-103.029 95.788c-49.268-5.589-94.649 28.596-102.448 78.052-8.014 50.82 26.686 98.514 77.505 106.528 50.333 7.938 205.617 7.942 255.953-.002 50.819-8.018 85.514-55.716 77.495-106.535z" fill="#02ffb3"/><path d="m208.397 123.533v40.294c0 4.15-3.36 7.521-7.521 7.521h-36.254c9.102-20.252 24.533-37.023 43.775-47.815z" fill="#01eca5"/><path d="m371.974 256.537v136.044c-55.316 5.491-170.877 5.491-226.203 0v-136.044c0-1.657 1.343-3 3-3h220.202c1.658 0 3.001 1.343 3.001 3z" fill="#97ffd2"/><g fill="#6583fe"><circle cx="322.956" cy="317.163" r="5.59"/><circle cx="322.956" cy="300.252" r="5.59"/><circle cx="322.956" cy="283.34" r="5.59"/></g><path d="m464.348 284.205c-7.804-49.453-53.183-83.631-102.447-78.043-3.85-53.544-48.504-95.788-103.029-95.788s-99.179 42.244-103.029 95.788c-49.268-5.589-94.649 28.596-102.448 78.052-8.014 50.82 26.686 98.514 77.505 106.528 50.333 7.938 205.617 7.942 255.953-.002 50.819-8.018 85.514-55.716 77.495-106.535z" fill="url(#SVGID_2_)"/><path d="m320.138 346.341h-27.848v-164.356c0-5.523-4.478-10.001-10.001-10.001h-46.834c-5.523 0-10.001 4.478-10.001 10.001v164.355h-27.848c-11.473 0-18.034 13.085-11.172 22.279l61.266 82.083c5.575 7.469 16.768 7.469 22.344 0l61.266-82.083c6.862-9.193.301-22.278-11.172-22.278z" fill="#6583fe"/><path d="m200.878 159.346h-108.381c-4.155 0-7.523-3.368-7.523-7.523v-70.549c0-4.155 3.368-7.523 7.523-7.523h108.381c4.155 0 7.523 3.368 7.523 7.523v70.549c0 4.155-3.368 7.523-7.523 7.523z" fill="#fff"/><g fill="#ff7eb8"><path d="m123.302 133.587c-1.28 0-2.56-.488-3.536-1.465l-12.037-12.037c-1.954-1.953-1.954-5.12 0-7.073l12.037-12.037c1.952-1.953 5.12-1.953 7.072 0 1.953 1.953 1.953 5.12 0 7.073l-8.501 8.501 8.501 8.501c1.953 1.953 1.953 5.12 0 7.073-.976.975-2.256 1.464-3.536 1.464z"/><path d="m170.073 99.51c1.28 0 2.56.488 3.536 1.465l12.037 12.037c1.953 1.953 1.953 5.12 0 7.073l-12.037 12.037c-1.952 1.953-5.12 1.953-7.072 0-1.953-1.953-1.953-5.12 0-7.073l8.501-8.501-8.501-8.501c-1.953-1.953-1.953-5.12 0-7.073.976-.975 2.256-1.464 3.536-1.464z"/><path d="m139.885 133.588c-.833 0-1.677-.209-2.454-.647-2.406-1.358-3.255-4.409-1.896-6.814l13.594-24.075c1.358-2.405 4.409-3.254 6.813-1.896 2.406 1.358 3.255 4.409 1.896 6.814l-13.594 24.075c-.918 1.628-2.613 2.543-4.359 2.543z"/></g><path d="m454.501 435.051h-56.088c-5.523 0-10.001-4.478-10.001-10.001v-47.798c0-5.523 4.478-10.001 10.001-10.001h56.088c5.523 0 10.001 4.478 10.001 10.001v47.798c0 5.523-4.478 10.001-10.001 10.001z" fill="#dcfdee"/><path d="m419.656 418.189c-.833 0-1.677-.209-2.453-.647-2.406-1.358-3.254-4.408-1.896-6.813l13.593-24.073c1.358-2.405 4.409-3.253 6.812-1.896 2.406 1.358 3.254 4.408 1.896 6.813l-13.593 24.073c-.92 1.628-2.614 2.543-4.359 2.543z" fill="#02ffb3"/><circle cx="211.632" cy="407.333" fill="#dcfdee" r="23.222"/><circle cx="84.974" cy="224.079" fill="#dcfdee" r="23.222"/><ellipse cx="411.281" cy="159.126" fill="#dcfdee" rx="23.222" ry="23.222" transform="matrix(.922 -.388 .388 .922 -29.519 172.12)"/></g><g><path d="m353.277 112.157c-1.279 0-2.56-.488-3.535-1.465l-10.995-10.995c-1.953-1.952-1.953-5.118 0-7.07l10.995-10.995c1.951-1.953 5.119-1.953 7.07 0l10.995 10.995c1.953 1.952 1.953 5.118 0 7.07l-10.995 10.995c-.975.976-2.255 1.465-3.535 1.465zm-3.923-15.995 3.924 3.924 3.924-3.924-3.924-3.924z" fill="#6583fe"/><path d="m57.495 195.566c-1.28 0-2.559-.488-3.536-1.465l-10.995-10.995c-1.953-1.952-1.953-5.118 0-7.07l10.995-10.995c1.953-1.953 5.118-1.953 7.071 0l10.996 10.995c.938.938 1.464 2.209 1.464 3.535s-.527 2.598-1.464 3.535l-10.996 10.995c-.976.977-2.256 1.465-3.535 1.465zm-3.924-15.995 3.924 3.924 3.924-3.924-3.924-3.924z" fill="#ff7eb8"/><g fill="#97ffd2"><path d="m294.76 87.735c-2.762 0-5-2.238-5-5 0-3.319-2.7-6.02-6.02-6.02-2.762 0-5-2.238-5-5s2.238-5 5-5c3.319 0 6.02-2.7 6.02-6.019 0-2.762 2.238-5 5-5s5 2.238 5 5c0 3.318 2.7 6.019 6.019 6.019 2.762 0 5 2.238 5 5s-2.238 5-5 5c-3.318 0-6.019 2.7-6.019 6.02 0 2.762-2.239 5-5 5z"/><path d="m334.94 446.574c-2.762 0-5-2.238-5-5 0-3.318-2.7-6.019-6.02-6.019-2.762 0-5-2.238-5-5s2.238-5 5-5c3.319 0 6.02-2.7 6.02-6.02 0-2.762 2.238-5 5-5s5 2.238 5 5c0 3.319 2.7 6.02 6.019 6.02 2.762 0 5 2.238 5 5s-2.238 5-5 5c-3.318 0-6.019 2.7-6.019 6.019 0 2.761-2.238 5-5 5z"/></g></g></g></svg>