<svg id="Capa_1" enable-background="new 0 0 512 512" height="512" viewBox="0 0 512 512" width="512" xmlns="http://www.w3.org/2000/svg" xmlns:xlink="http://www.w3.org/1999/xlink"><linearGradient id="SVGID_1_" gradientUnits="userSpaceOnUse" x1="-3.494" x2="526.477" y1="119.074" y2="391.42"><stop offset="0" stop-color="#ffdbed"/><stop offset="1" stop-color="#dcfdee"/></linearGradient><linearGradient id="SVGID_2_" gradientUnits="userSpaceOnUse" x1="261.112" x2="261.112" y1="89.304" y2="375.621"><stop offset=".0028" stop-color="#ff7eb8" stop-opacity="0"/><stop offset="1" stop-color="#ff7eb8" stop-opacity=".6"/></linearGradient><g><g><path d="m505.626 291.72c-11.826-34.61-38.138-60.16-69.852-72.202-16.43-6.239-27.346-21.856-27.587-39.429-.005-.384-.012-.769-.021-1.154-1.507-64.582-55.488-116.33-120.077-115.221-38.094.654-71.788 19.355-92.905 47.92-18.185 24.599-46.49 39.965-77.08 39.949-.898 0-1.797.009-2.7.029-61.917 1.355-114.567 54.478-115.393 116.404-.88 65.932 52.302 119.654 118.032 119.654 50.947 0 94.349-32.277 110.886-77.497 4.327-11.832 17.152-18.174 29.283-14.772.151.042.303.085.455.126 11.099 3.064 18.458 13.64 17.55 25.119-1.217 15.383.581 31.255 5.798 46.796 20.521 61.135 87.188 94.685 148.493 74.68 62.711-20.464 96.379-88.184 75.118-150.402z" fill="url(#SVGID_1_)"/><path d="m466.582 263.131c-7.804-49.451-53.182-83.629-102.444-78.041-3.849-53.542-48.502-95.786-103.026-95.786s-99.177 42.243-103.026 95.786c-49.267-5.589-94.646 28.595-102.446 78.05-8.014 50.818 26.685 98.511 77.504 106.526 50.332 7.937 205.612 7.942 255.946-.002 50.817-8.019 85.512-55.716 77.492-106.533z" fill="#ff7eb8"/><path d="m451.246 224.732h-48.674c-5.52 0-10.001-4.47-10.001-10.001v-28.491c23.883 4.7 44.964 18.641 58.675 38.492z" fill="#ff5ba8"/><path d="m374.211 235.463v136.04c-55.314 5.49-170.873 5.49-226.197 0v-136.04c0-1.657 1.343-3 3-3h220.197c1.656 0 3 1.343 3 3z" fill="#ffa8cf"/><path d="m333.548 250.594-6.811-9.125h-131.249l-6.811 9.125c-6.86 9.201-.3 22.282 11.171 22.282h27.852v102.458c21.912.38 44.923.38 66.825 0v-102.458h27.852c11.471 0 18.031-13.081 11.171-22.282z" fill="#ff7eb8"/><g fill="#fff"><path d="m322.117 313c3.087 0 5.59 2.503 5.59 5.59s-2.503 5.59-5.59 5.59-5.59-2.503-5.59-5.59 2.503-5.59 5.59-5.59z"/><path d="m322.117 296.088c3.087 0 5.59 2.503 5.59 5.59s-2.503 5.59-5.59 5.59-5.59-2.503-5.59-5.59 2.503-5.59 5.59-5.59z"/><path d="m322.117 279.177c3.087 0 5.59 2.503 5.59 5.59s-2.503 5.59-5.59 5.59-5.59-2.503-5.59-5.59 2.503-5.59 5.59-5.59z"/></g><path d="m466.582 263.131c-7.804-49.451-53.182-83.629-102.444-78.041-3.849-53.542-48.502-95.786-103.026-95.786s-99.177 42.243-103.026 95.786c-49.267-5.589-94.646 28.595-102.446 78.05-8.014 50.818 26.685 98.511 77.504 106.526 50.332 7.937 205.612 7.942 255.946-.002 50.817-8.019 85.512-55.716 77.492-106.533z" fill="url(#SVGID_2_)"/><path d="m199.848 260.874h27.847v164.351c0 5.523 4.477 10.001 10.001 10.001h46.833c5.523 0 10.001-4.478 10.001-10.001v-164.351h27.847c11.473 0 18.034-13.085 11.172-22.279l-61.264-82.081c-5.575-7.469-16.768-7.469-22.343 0l-61.264 82.081c-6.864 9.195-.303 22.279 11.17 22.279z" fill="#97ffd2"/><path d="m159.942 405.831h-108.378c-4.155 0-7.523-3.368-7.523-7.523v-70.548c0-4.155 3.368-7.523 7.523-7.523h108.378c4.155 0 7.523 3.368 7.523 7.523v70.548c0 4.155-3.368 7.523-7.523 7.523z" fill="#fff"/><path d="m82.368 380.073c-1.28 0-2.56-.488-3.536-1.465l-12.037-12.037c-1.953-1.953-1.953-5.12 0-7.072l12.037-12.037c1.951-1.952 5.12-1.952 7.071 0 1.953 1.953 1.953 5.12 0 7.072l-8.5 8.501 8.5 8.501c1.953 1.953 1.953 5.12 0 7.072-.975.976-2.255 1.465-3.535 1.465z" fill="#6583fe"/><path d="m129.138 345.997c1.28 0 2.56.488 3.536 1.465l12.037 12.037c1.953 1.953 1.953 5.12 0 7.072l-12.037 12.037c-1.952 1.952-5.12 1.952-7.071 0-1.953-1.953-1.953-5.12 0-7.072l8.5-8.501-8.5-8.501c-1.953-1.953-1.953-5.12 0-7.072.975-.977 2.255-1.465 3.535-1.465z" fill="#6583fe"/><path d="m98.951 380.074c-.833 0-1.677-.209-2.454-.647-2.406-1.358-3.254-4.408-1.896-6.814l13.594-24.074c1.358-2.405 4.409-3.253 6.813-1.896 2.406 1.358 3.254 4.408 1.896 6.814l-13.594 24.074c-.919 1.628-2.614 2.543-4.359 2.543z" fill="#6583fe"/><path d="m458.659 212.735h-56.086c-5.523 0-10.001-4.477-10.001-10.001v-47.796c0-5.523 4.477-10.001 10.001-10.001h56.086c5.523 0 10.001 4.477 10.001 10.001v47.796c0 5.523-4.478 10.001-10.001 10.001z" fill="#ffa8cf"/><path d="m423.815 195.873c-.833 0-1.677-.209-2.453-.647-2.405-1.358-3.254-4.408-1.896-6.813l13.593-24.072c1.358-2.404 4.409-3.253 6.812-1.896 2.405 1.358 3.254 4.408 1.896 6.813l-13.593 24.072c-.92 1.628-2.614 2.543-4.359 2.543z" fill="#fff"/><g fill="#ffa8cf"><ellipse cx="298.896" cy="375.621" rx="23.221" ry="23.221" transform="matrix(.228 -.974 .974 .228 -134.873 581.231)"/><ellipse cx="125.591" cy="118.699" rx="23.221" ry="23.221" transform="matrix(.926 -.377 .377 .926 -35.504 56.162)"/><ellipse cx="336.342" cy="118.699" rx="23.221" ry="23.221" transform="matrix(.926 -.377 .377 .926 -19.926 135.683)"/></g></g><g><path d="m85.337 179.54c-1.28 0-2.559-.488-3.536-1.465l-10.994-10.995c-.938-.938-1.464-2.209-1.464-3.535s.527-2.598 1.465-3.536l10.995-10.994c1.952-1.951 5.118-1.951 7.07 0l10.995 10.994c.938.938 1.465 2.21 1.465 3.536s-.527 2.598-1.464 3.535l-10.995 10.995c-.978.977-2.257 1.465-3.537 1.465zm-3.923-15.995 3.924 3.924 3.924-3.924-3.924-3.924z" fill="#ff7eb8"/><path d="m54.335 138.145c-1.326 0-2.598-.526-3.536-1.465l-10.995-10.995c-1.953-1.952-1.953-5.118 0-7.07l10.995-10.995c.938-.938 2.209-1.465 3.536-1.465s2.598.526 3.536 1.465l10.995 10.995c1.953 1.952 1.953 5.118 0 7.07l-10.995 10.995c-.938.938-2.21 1.465-3.536 1.465zm-3.924-15.995 3.924 3.924 3.924-3.924-3.924-3.924z" fill="#97ffd2"/><path d="m192.346 448.303c-2.761 0-5-2.238-5-5 0-3.318-2.7-6.019-6.019-6.019-2.761 0-5-2.238-5-5s2.239-5 5-5c3.319 0 6.019-2.7 6.019-6.02 0-2.762 2.239-5 5-5s5 2.238 5 5c0 3.319 2.7 6.02 6.019 6.02 2.761 0 5 2.238 5 5s-2.239 5-5 5c-3.319 0-6.019 2.7-6.019 6.019 0 2.762-2.239 5-5 5z" fill="#6583fe"/><path d="m421.909 105.323c-2.761 0-5-2.238-5-5 0-3.318-2.7-6.019-6.019-6.019-2.761 0-5-2.238-5-5s2.239-5 5-5c3.319 0 6.019-2.7 6.019-6.02 0-2.762 2.239-5 5-5s5 2.238 5 5c0 3.319 2.7 6.02 6.019 6.02 2.761 0 5 2.238 5 5s-2.239 5-5 5c-3.319 0-6.019 2.7-6.019 6.019 0 2.762-2.239 5-5 5z" fill="#ff7eb8"/></g></g></svg>