<svg id="Capa_1" enable-background="new 0 0 512 512" height="512" viewBox="0 0 512 512" width="512" xmlns="http://www.w3.org/2000/svg" xmlns:xlink="http://www.w3.org/1999/xlink"><linearGradient id="SVGID_1_" gradientUnits="userSpaceOnUse" x1="68.615" x2="412.113" y1="-6.201" y2="506.593"><stop offset=".0485" stop-color="#ffdbed"/><stop offset=".9993" stop-color="#d2deff"/></linearGradient><linearGradient id="SVGID_2_" gradientUnits="userSpaceOnUse" x1="256" x2="256" y1="94.317" y2="378.567"><stop offset=".0028" stop-color="#ff7eb8" stop-opacity="0"/><stop offset="1" stop-color="#ff7eb8" stop-opacity=".6"/></linearGradient><g><g><g><path d="m310.075 89.353c-21.43-52.669-73.271-89.723-133.726-89.35-77.124.475-140.536 62.684-142.407 139.786-.923 38.04 12.978 72.821 36.334 98.983 18.619 20.856 27.963 48.325 27.021 76.268-.125 3.714-.144 7.455-.052 11.22 2.464 101.4 89.087 185.801 190.517 185.74 105.133-.063 190.34-85.31 190.34-190.457 0-77.074-45.784-143.448-111.637-173.423-25.667-11.683-45.762-32.647-56.39-58.767z" fill="url(#SVGID_1_)"/><path d="m312.71 451.274h-113.421l14.782-58.603 7.9-31.301h68.057l7.9 31.301z" fill="#9fb0fe"/><path d="m297.928 392.671h-83.857l7.9-31.301h68.057z" fill="#8399fe"/><path d="m456 109.317v254.25c0 8.28-6.72 15-15 15h-370c-8.28 0-15-6.72-15-15v-254.25c0-8.28 6.72-15 15-15h370c8.28 0 15 6.72 15 15z" fill="#fff"/><path d="m441 94.317h-86v284.25h86c8.28 0 15-6.72 15-15v-254.25c0-8.28-6.72-15-15-15z" fill="#ffc4df"/><path d="m437.5 189.467-7.19-25.25c-.61-2.15-2.58-3.64-4.81-3.64h-24.4c-2.23 0-4.2 1.49-4.81 3.64l-7.19 25.25c-10.08 2.47-19.57 6.44-28.21 11.68l-22.94-12.77c-1.95-1.09-4.39-.75-5.97.83l-17.25 17.26c-1.58 1.58-1.92 4.01-.84 5.97l12.78 22.94c-5.24 8.64-9.22 18.13-11.69 28.2l-25.25 7.2c-2.15.61-3.63 2.57-3.63 4.81v24.4c0 2.23 1.48 4.19 3.63 4.81l25.25 7.19c1.693 6.91 4.105 13.539 7.141 19.81h72.858c-17.232-7.181-29.349-24.174-29.349-44.01 0-26.33 21.34-47.67 47.67-47.67 18.71 0 34.89 10.77 42.7 26.45v-70.6c-5.88-2.74-12.07-4.92-18.5-6.5z" fill="#ff7eb8"/><path d="m437.5 189.467-7.19-25.25c-.61-2.15-2.58-3.64-4.81-3.64h-24.4c-2.23 0-4.2 1.49-4.81 3.64l-7.19 25.25c-10.08 2.47-19.57 6.44-28.21 11.68l-22.94-12.77c-1.95-1.09-4.39-.75-5.97.83l-17.25 17.26c-1.58 1.58-1.92 4.01-.84 5.97l12.78 22.94c-5.24 8.64-9.22 18.13-11.69 28.2l-25.25 7.2c-2.15.61-3.63 2.57-3.63 4.81v24.4c0 2.23 1.48 4.19 3.63 4.81l25.25 7.19c1.693 6.91 4.105 13.539 7.141 19.81h72.858c-17.232-7.181-29.349-24.174-29.349-44.01 0-26.33 21.34-47.67 47.67-47.67 18.71 0 34.89 10.77 42.7 26.45v-70.6c-5.88-2.74-12.07-4.92-18.5-6.5z" fill="#ff5ba8"/><path d="m456 142.491v-33.171c0-8.284-6.716-15-15-15h-370c-8.284 0-15 6.716-15 15v33.171z" fill="#6583fe"/><path d="m55.999 328.178v35.39c0 8.284 6.716 15 15 15h370c8.284 0 15-6.716 15-15v-35.39z" fill="#b7c5ff"/><path d="m259.709 274.271h-166.742c-2.766 0-5.008-2.242-5.008-5.008s2.242-5.008 5.008-5.008h166.742c2.766 0 5.008 2.242 5.008 5.008s-2.242 5.008-5.008 5.008z" fill="#b7c5ff"/><path d="m199.709 232.279h-106.742c-2.766 0-5.008-2.242-5.008-5.008s2.242-5.008 5.008-5.008h106.742c2.766 0 5.008 2.242 5.008 5.008s-2.242 5.008-5.008 5.008z" fill="#ffa8cf"/><path d="m259.709 294.137h-166.742c-2.766 0-5.008-2.242-5.008-5.008s2.242-5.008 5.008-5.008h166.742c2.766 0 5.008 2.242 5.008 5.008 0 2.765-2.242 5.008-5.008 5.008z" fill="#b7c5ff"/><path d="m106.117 202.462c-1.279 0-2.56-.488-3.535-1.464l-12.035-12.035c-1.953-1.953-1.953-5.119 0-7.071l12.035-12.035c1.951-1.952 5.119-1.952 7.07 0 1.953 1.953 1.953 5.119 0 7.071l-8.499 8.5 8.499 8.5c1.953 1.953 1.953 5.119 0 7.071-.975.975-2.256 1.463-3.535 1.463z" fill="#4369fd"/><path d="m152.879 202.462c-1.279 0-2.56-.488-3.535-1.464-1.953-1.953-1.953-5.119 0-7.071l8.499-8.5-8.499-8.5c-1.953-1.953-1.953-5.119 0-7.071 1.951-1.952 5.119-1.952 7.07 0l12.035 12.035c1.953 1.953 1.953 5.119 0 7.071l-12.035 12.035c-.976.977-2.256 1.465-3.535 1.465z" fill="#4369fd"/><path d="m122.697 202.463c-.833 0-1.677-.208-2.453-.647-2.405-1.358-3.254-4.408-1.896-6.813l13.592-24.07c1.357-2.404 4.408-3.253 6.812-1.896 2.405 1.358 3.254 4.408 1.896 6.813l-13.592 24.07c-.92 1.628-2.615 2.543-4.359 2.543z" fill="#4369fd"/><path d="m379.05 294.137h-16c-1.657 0-3-1.343-3-3v-60.866c0-1.657 1.343-3 3-3h16c1.657 0 3 1.343 3 3v60.866c0 1.657-1.343 3-3 3z" fill="#02ffb3"/><path d="m346.337 294.137h-16c-1.657 0-3-1.343-3-3v-37.657c0-1.657 1.343-3 3-3h16c1.657 0 3 1.343 3 3v37.657c0 1.657-1.343 3-3 3z" fill="#02ffb3"/><path d="m411.763 294.137h-16c-1.657 0-3-1.343-3-3v-78.34c0-1.657 1.343-3 3-3h16c1.657 0 3 1.343 3 3v78.34c0 1.657-1.343 3-3 3z" fill="#02ffb3"/><g fill="#6583fe"><circle cx="308.741" cy="173.981" r="5.59"/><circle cx="291.83" cy="173.981" r="5.59"/><circle cx="274.92" cy="173.981" r="5.59"/></g><path d="m456 109.317v254.25c0 8.28-6.72 15-15 15h-370c-8.28 0-15-6.72-15-15v-254.25c0-8.28 6.72-15 15-15h370c8.28 0 15 6.72 15 15z" fill="url(#SVGID_2_)"/></g><g><path d="m319.337 66.796c-1.326 0-2.598-.527-3.535-1.464l-11.018-11.018c-1.953-1.953-1.953-5.119 0-7.071l11.018-11.018c.938-.938 2.209-1.464 3.535-1.464s2.598.527 3.535 1.464l11.019 11.018c.938.938 1.465 2.209 1.465 3.536s-.526 2.598-1.465 3.536l-11.019 11.018c-.937.936-2.209 1.463-3.535 1.463zm-3.946-16.018 3.946 3.947 3.947-3.947-3.947-3.947z" fill="#ff7eb8"/><path d="m382.05 436.48c-1.326 0-2.598-.527-3.535-1.464l-11.018-11.018c-1.953-1.953-1.953-5.119 0-7.071l11.018-11.018c1.951-1.952 5.117-1.952 7.07 0l11.019 11.018c.938.938 1.465 2.209 1.465 3.536s-.526 2.598-1.465 3.536l-11.019 11.018c-.938.936-2.209 1.463-3.535 1.463zm-3.946-16.018 3.946 3.947 3.947-3.947-3.947-3.947z" fill="#6583fe"/><path d="m106.684 477.24c-2.762 0-5-2.239-5-5 0-3.318-2.7-6.018-6.019-6.018-2.762 0-5-2.239-5-5s2.238-5 5-5c3.318 0 6.019-2.7 6.019-6.018 0-2.761 2.238-5 5-5s5 2.239 5 5c0 3.318 2.699 6.018 6.018 6.018 2.762 0 5 2.239 5 5s-2.238 5-5 5c-3.318 0-6.018 2.7-6.018 6.018 0 2.761-2.239 5-5 5z" fill="#97ffd2"/><path d="m150.016 430.842c-2.762 0-5-2.239-5-5 0-3.318-2.699-6.018-6.018-6.018-2.762 0-5-2.239-5-5s2.238-5 5-5c3.318 0 6.018-2.7 6.018-6.018 0-2.761 2.238-5 5-5s5 2.239 5 5c0 3.318 2.7 6.018 6.019 6.018 2.762 0 5 2.239 5 5s-2.238 5-5 5c-3.318 0-6.019 2.7-6.019 6.018 0 2.762-2.239 5-5 5z" fill="#6583fe"/></g></g><path d="m331.934 456.268h-151.868c-2.762 0-5-2.239-5-5s2.238-5 5-5h151.867c2.762 0 5 2.239 5 5s-2.238 5-4.999 5z" fill="#6583fe"/><g fill="#2d58e0"><path d="m94.082 123.479c-2.762 0-5-2.239-5-5v-.146c0-2.761 2.238-5 5-5s5 2.239 5 5v.146c0 2.761-2.238 5-5 5z"/><path d="m113.407 123.479c-2.762 0-5-2.239-5-5v-.146c0-2.761 2.238-5 5-5s5 2.239 5 5v.146c0 2.761-2.238 5-5 5z"/><path d="m132.731 123.479c-2.762 0-5-2.239-5-5v-.146c0-2.761 2.238-5 5-5s5 2.239 5 5v.146c0 2.761-2.238 5-5 5z"/></g></g></svg>