<svg id="Capa_1" enable-background="new 0 0 512 512" height="512" viewBox="0 0 512 512" width="512" xmlns="http://www.w3.org/2000/svg" xmlns:xlink="http://www.w3.org/1999/xlink"><linearGradient id="SVGID_1_" gradientUnits="userSpaceOnUse" x1="18.201" x2="537.986" y1="155.4" y2="356.816"><stop offset="0" stop-color="#ffdbed"/><stop offset="1" stop-color="#dcfdee"/></linearGradient><linearGradient id="lg1"><stop offset=".0028" stop-color="#ff7eb8" stop-opacity="0"/><stop offset="1" stop-color="#ff7eb8" stop-opacity=".6"/></linearGradient><linearGradient id="SVGID_2_" gradientUnits="userSpaceOnUse" x1="392.413" x2="392.413" xlink:href="#lg1" y1="91.239" y2="431.642"/><linearGradient id="SVGID_3_" gradientUnits="userSpaceOnUse" x1="256.001" x2="256.001" xlink:href="#lg1" y1="91.239" y2="431.642"/><linearGradient id="SVGID_4_" gradientUnits="userSpaceOnUse" x1="119.588" x2="119.588" xlink:href="#lg1" y1="91.239" y2="431.642"/><g><g><path d="m408.229 154.262c-23.697-9.236-43.717-26.089-55.961-48.381-20.59-37.487-60.43-62.898-106.221-62.898-47.53 0-88.646 27.377-108.477 67.219-12.146 24.401-32.814 43.56-58.09 53.761-37.349 15.074-68.703 49.524-78.653 103.382-1.092 5.91-1.108 11.986-.016 17.896 15.448 83.572 82.399 120.435 143.334 110.66 34.126-5.474 68.672 5.909 93.967 29.462 51.434 47.892 133.884 62.907 213.923 11.57 9.377-6.014 21.957-18.634 27.966-28.015 68.966-107.67 17.879-219.714-71.772-254.656z" fill="url(#SVGID_1_)"/><path d="m164.608 431.642h-90.038c-5.529 0-10.012-4.482-10.012-10.012v-320.379c0-5.529 4.482-10.012 10.012-10.012h90.037c5.529 0 10.012 4.482 10.012 10.012v320.379c0 5.529-4.482 10.012-10.011 10.012z" fill="#fff"/><path d="m147.749 159.64h-56.32c-1.659 0-3.004-1.345-3.004-3.004v-39.989c0-1.659 1.345-3.004 3.004-3.004h56.319c1.659 0 3.004 1.345 3.004 3.004v39.989c0 1.66-1.344 3.004-3.003 3.004z" fill="#ffc4df"/><path d="m147.749 220.476h-56.32c-1.659 0-3.004-1.345-3.004-3.004v-39.989c0-1.659 1.345-3.004 3.004-3.004h56.319c1.659 0 3.004 1.345 3.004 3.004v39.989c0 1.66-1.344 3.004-3.003 3.004z" fill="#ffa8cf"/><path d="m147.749 281.312h-56.32c-1.659 0-3.004-1.345-3.004-3.004v-39.988c0-1.659 1.345-3.004 3.004-3.004h56.319c1.659 0 3.004 1.345 3.004 3.004v39.989c0 1.658-1.344 3.003-3.003 3.003z" fill="#ff7eb8"/><path d="m147.749 342.148h-56.32c-1.659 0-3.004-1.345-3.004-3.004v-39.989c0-1.659 1.345-3.004 3.004-3.004h56.319c1.659 0 3.004 1.345 3.004 3.004v39.989c0 1.659-1.344 3.004-3.003 3.004z" fill="#ff5ba8"/><path d="m109.917 364.478h19.344c2.227 0 4.032-1.805 4.032-4.032s-1.805-4.032-4.032-4.032h-19.344c-2.227 0-4.032 1.805-4.032 4.032s1.805 4.032 4.032 4.032z" fill="#b7c5ff"/><path d="m301.02 431.642h-90.037c-5.529 0-10.012-4.482-10.012-10.012v-320.379c0-5.529 4.482-10.012 10.012-10.012h90.037c5.529 0 10.012 4.482 10.012 10.012v320.379c-.001 5.529-4.483 10.012-10.012 10.012z" fill="#fff"/><path d="m284.161 159.64h-56.32c-1.659 0-3.004-1.345-3.004-3.004v-39.989c0-1.659 1.345-3.004 3.004-3.004h56.319c1.659 0 3.004 1.345 3.004 3.004v39.989c0 1.66-1.344 3.004-3.003 3.004z" fill="#97ffd2"/><path d="m284.161 220.476h-56.32c-1.659 0-3.004-1.345-3.004-3.004v-39.989c0-1.659 1.345-3.004 3.004-3.004h56.319c1.659 0 3.004 1.345 3.004 3.004v39.989c0 1.66-1.344 3.004-3.003 3.004z" fill="#02ffb3"/><path d="m284.161 281.312h-56.32c-1.659 0-3.004-1.345-3.004-3.004v-39.988c0-1.659 1.345-3.004 3.004-3.004h56.319c1.659 0 3.004 1.345 3.004 3.004v39.989c0 1.658-1.344 3.003-3.003 3.003z" fill="#01eca5"/><path d="m284.161 342.148h-56.32c-1.659 0-3.004-1.345-3.004-3.004v-39.989c0-1.659 1.345-3.004 3.004-3.004h56.319c1.659 0 3.004 1.345 3.004 3.004v39.989c0 1.659-1.344 3.004-3.003 3.004z" fill="#00d890"/><path d="m246.329 364.478h19.344c2.227 0 4.032-1.805 4.032-4.032s-1.805-4.032-4.032-4.032h-19.344c-2.227 0-4.032 1.805-4.032 4.032s1.805 4.032 4.032 4.032z" fill="#b7c5ff"/><path d="m437.432 431.642h-90.037c-5.529 0-10.012-4.482-10.012-10.012v-320.379c0-5.529 4.482-10.012 10.012-10.012h90.037c5.529 0 10.012 4.482 10.012 10.012v320.379c-.001 5.529-4.483 10.012-10.012 10.012z" fill="#fff"/><path d="m420.573 159.64h-56.319c-1.659 0-3.004-1.345-3.004-3.004v-39.989c0-1.659 1.345-3.004 3.004-3.004h56.319c1.659 0 3.004 1.345 3.004 3.004v39.989c-.001 1.66-1.345 3.004-3.004 3.004z" fill="#9fb0fe"/><path d="m420.573 220.476h-56.319c-1.659 0-3.004-1.345-3.004-3.004v-39.989c0-1.659 1.345-3.004 3.004-3.004h56.319c1.659 0 3.004 1.345 3.004 3.004v39.989c-.001 1.66-1.345 3.004-3.004 3.004z" fill="#6583fe"/><path d="m420.573 281.312h-56.319c-1.659 0-3.004-1.345-3.004-3.004v-39.988c0-1.659 1.345-3.004 3.004-3.004h56.319c1.659 0 3.004 1.345 3.004 3.004v39.989c-.001 1.658-1.345 3.003-3.004 3.003z" fill="#4369fd"/><path d="m420.573 342.148h-56.319c-1.659 0-3.004-1.345-3.004-3.004v-39.989c0-1.659 1.345-3.004 3.004-3.004h56.319c1.659 0 3.004 1.345 3.004 3.004v39.989c-.001 1.659-1.345 3.004-3.004 3.004z" fill="#2d58e0"/><path d="m382.741 364.478h19.344c2.227 0 4.032-1.805 4.032-4.032s-1.805-4.032-4.032-4.032h-19.344c-2.227 0-4.032 1.805-4.032 4.032s1.805 4.032 4.032 4.032z" fill="#b7c5ff"/><path d="m437.432 431.642h-90.037c-5.529 0-10.012-4.482-10.012-10.012v-320.379c0-5.529 4.482-10.012 10.012-10.012h90.037c5.529 0 10.012 4.482 10.012 10.012v320.379c-.001 5.529-4.483 10.012-10.012 10.012z" fill="url(#SVGID_2_)"/><path d="m301.02 431.642h-90.037c-5.529 0-10.012-4.482-10.012-10.012v-320.379c0-5.529 4.482-10.012 10.012-10.012h90.037c5.529 0 10.012 4.482 10.012 10.012v320.379c-.001 5.529-4.483 10.012-10.012 10.012z" fill="url(#SVGID_3_)"/><path d="m164.608 431.642h-90.038c-5.529 0-10.012-4.482-10.012-10.012v-320.379c0-5.529 4.482-10.012 10.012-10.012h90.037c5.529 0 10.012 4.482 10.012 10.012v320.379c0 5.529-4.482 10.012-10.011 10.012z" fill="url(#SVGID_4_)"/></g><g><path d="m139.015 73.558c-2.761 0-5-2.238-5-5 0-3.324-2.705-6.028-6.029-6.028-2.761 0-5-2.238-5-5s2.239-5 5-5c3.324 0 6.029-2.705 6.029-6.029 0-2.762 2.239-5 5-5s5 2.238 5 5c0 3.324 2.704 6.029 6.028 6.029 2.761 0 5 2.238 5 5s-2.239 5-5 5c-3.324 0-6.028 2.704-6.028 6.028 0 2.761-2.239 5-5 5z" fill="#97ffd2"/><path d="m320.205 480.5c-2.762 0-5-2.238-5-5 0-3.324-2.704-6.028-6.028-6.028-2.762 0-5-2.238-5-5s2.238-5 5-5c3.324 0 6.028-2.705 6.028-6.029 0-2.762 2.238-5 5-5s5 2.238 5 5c0 3.324 2.705 6.029 6.029 6.029 2.762 0 5 2.238 5 5s-2.238 5-5 5c-3.324 0-6.029 2.704-6.029 6.028 0 2.762-2.238 5-5 5z" fill="#6583fe"/><g fill="#ff7eb8"><path d="m194.155 63.515c-1.326 0-2.598-.526-3.536-1.465l-11.007-11.008c-1.953-1.952-1.953-5.118 0-7.07l11.007-11.007c1.953-1.953 5.118-1.953 7.071 0l11.007 11.007c.938.938 1.464 2.209 1.464 3.535s-.527 2.598-1.464 3.535l-11.007 11.008c-.937.937-2.209 1.465-3.535 1.465zm-3.936-16.008 3.936 3.937 3.936-3.937-3.936-3.936z"/><path d="m267.008 480.479c-1.279 0-2.56-.488-3.535-1.465l-11.007-11.007c-1.953-1.952-1.953-5.118 0-7.07l11.006-11.008c.938-.938 2.21-1.465 3.536-1.465s2.598.526 3.535 1.465l11.008 11.008c.938.938 1.465 2.209 1.465 3.535s-.527 2.598-1.465 3.536l-11.008 11.007c-.976.975-2.256 1.464-3.535 1.464zm-3.936-16.007 3.936 3.936 3.937-3.936-3.937-3.937z"/></g></g></g></svg>