<svg id="Capa_1" enable-background="new 0 0 512 512" height="512" viewBox="0 0 512 512" width="512" xmlns="http://www.w3.org/2000/svg" xmlns:xlink="http://www.w3.org/1999/xlink"><linearGradient id="SVGID_1_" gradientUnits="userSpaceOnUse" x1="-7.477" x2="546.957" y1="153.817" y2="320.581"><stop offset="0" stop-color="#ffdbed"/><stop offset="1" stop-color="#dcfdee"/></linearGradient><linearGradient id="SVGID_2_" gradientUnits="userSpaceOnUse" x1="239.126" x2="239.126" y1="80.797" y2="448.115"><stop offset=".0028" stop-color="#ff7eb8" stop-opacity="0"/><stop offset="1" stop-color="#ff7eb8" stop-opacity=".6"/></linearGradient><g><g><path d="m505.626 283.457c-11.826-34.61-38.138-60.16-69.852-72.202-16.43-6.239-27.346-21.856-27.587-39.429-.005-.384-.012-.769-.021-1.154-1.507-64.582-55.488-116.33-120.077-115.221-38.094.654-71.788 19.355-92.905 47.92-18.185 24.599-46.49 39.965-77.08 39.949-.898 0-1.797.009-2.7.029-61.917 1.354-114.567 54.478-115.393 116.403-.879 65.932 52.303 119.654 118.032 119.654 50.947 0 94.349-32.277 110.886-77.497 4.327-11.832 17.152-18.174 29.283-14.772.151.042.303.085.455.127 11.099 3.064 18.458 13.64 17.55 25.119-1.217 15.383.581 31.255 5.798 46.796 20.521 61.135 87.188 94.685 148.493 74.68 62.711-20.465 96.379-88.184 75.118-150.402z" fill="url(#SVGID_1_)"/><ellipse cx="239.126" cy="264.456" fill="#d2deff" rx="183.659" ry="183.659" transform="matrix(.707 -.707 .707 .707 -116.96 246.545)"/><path d="m367.732 140.384c-9.839 6.13-20.778 11.49-32.544 16.006-11.778-27.228-27.963-49.346-47.13-63.491.023-.093-6.272-4.829-8.766-7.685-.305 2.785-2.126 8.721-2.971 11.307 3.329 1.936 8.164 6.227 8.164 6.227.002-.004.004-.007.005-.01 16.636 13.078 30.777 32.839 41.308 57.016-24.864 8.309-52.864 13.028-81.672 13.518v-47.518l-10-.021v47.539c-20.288-.334-40.048-2.698-58.87-7.048.474-1.597.868-3.228 1.184-4.886-.195.037-.393.071-.601.09-3.269.293-6.565.31-9.82.719-1.364 5.202-3.75 9.993-6.921 14.155 1.627 1.119 3.216 2.306 4.825 3.443 1.221.626 2.439 1.258 3.658 1.887 1.41-1.919 2.697-3.933 3.828-6.045 20.036 4.759 41.094 7.342 62.715 7.687v76.182h-102.024c.334-20.212 2.691-39.928 7.016-58.708.416-.103.822-.228 1.234-.341-.064-.13-.127-.26-.191-.389-.406-.818-.849-1.627-1.226-2.458-.528-1.163-1.125-1.352-.686-1.101-2.228-1.233-2.508-3.475-1.643-5.391-2.057.502-4.179.834-6.345 1.008-.548 2.145-1.352 4.223-2.404 6.172-.336 1.383-.715 2.713-1.083 3.967.095.001.188.005.283.005.502 0 .998-.023 1.496-.038-3.972 18.401-6.139 37.619-6.452 57.273h-61.559l-4.995.053c-.05 1.684-.078 3.252-.078 4.948 0 1.769.025 3.241.08 4.996l4.992.004h61.561c.543 33.399 6.523 65.714 17.201 93.814-12.892 4.959-24.86 10.885-35.564 17.705l-3.856 3.193c2.198 2.547 4.467 5.03 6.798 7.453l3.907-3.13c9.821-6.113 20.729-11.458 32.461-15.964 2.156 4.99 4.474 9.821 6.939 14.482 0 0 2.901 5.824 3.771 6.88.619.751 1.351.902 1.529 1.685 3.011-1.369 5.145-2.64 8.494-3.235l-4.314-8.802c-2.487-4.619-4.817-9.423-6.984-14.393 24.848-8.302 52.829-13.014 81.645-13.503v87.277l-.006 5.121c1.664.047 3.331.077 5.006.077 12.987 0 25.659-1.349 37.884-3.913l10.584-7.788c7.221-5.277 14.129-11.776 20.642-19.447 0 0 4.162-5.277 6.386-7.804 0 0-9.784-4.21-10.769-2.983-.638.794-4.21 5.442-4.21 5.442-16.537 19.031-35.58 29.755-55.516 31.292v-87.275c10.526.181 20.94.938 31.139 2.215l10.325 1.279c-.291-4.627-.553-5.711-.755-10.687l-10.072-.727c-10.055-1.201-20.299-1.91-30.638-2.082v-76.181h31.13s6.812.002 10.248 0c.25-4.623.14-5.74.47-9.991-3.149-.016-10.07-.01-10.07-.01h-31.778v-76.182c30.091-.497 59.396-5.477 85.448-14.257 6.507 17.091 11.278 36.08 14.001 56.248 0 0 .821 6.876 1.314 10.507l10.054-.136c-.185-2.128-1.184-9.74-1.184-9.74-2.764-21.569-7.831-41.911-14.812-60.251 12.925-4.97 24.913-10.917 35.632-17.754l3.952-2.986c-1.959-2.266-4.493-5.057-6.558-7.225zm-133.606 205.253c-30.1.496-59.385 5.47-85.422 14.243-10.291-27.002-16.062-58.155-16.603-90.424h102.025z" fill="#b7c5ff"/><g fill="#9fb0fe"><path d="m172.33 166.928c0 25-20.266 45.276-45.276 45.276-24.131 0-43.838-18.867-45.196-42.649 11.027-18.238 25.14-34.399 41.61-47.773 1.189-.09 2.377-.14 3.586-.14 25.01 0 45.276 20.276 45.276 45.286z"/><path d="m284.536 95.783c0 25-20.266 45.276-45.276 45.276s-45.276-20.276-45.276-45.276c0-3.306.36-6.542 1.029-9.648 14.133-3.486 28.906-5.334 44.117-5.334 15.302 0 30.174 1.868 44.387 5.404.669 3.086 1.019 6.292 1.019 9.578z"/><path d="m422.781 264.452c0 74.931-44.856 139.374-109.19 167.939l-25.559-15.901c-2.507-1.548-4.195-4.125-4.615-7.032-2.657-18.358-4.355-46.465-4.355-77.987 0-29.265 1.468-55.594 3.805-73.892.629-4.984 4.884-8.71 9.898-8.71h129.355c.441 5.135.661 10.339.661 15.583z"/></g><path d="m190.422 92.723c-9.253 6.788-17.896 15.484-25.751 25.907 0 0-4.835 6.043-6.606 8.219 3.613 3.588 3.903 4.398 5.958 9.133 1.176-2.251 6.772-8.787 6.772-8.787 7.09-9.844 23.16-24.6 23.16-24.6s5.907-4.032 8.675-5.065c-1.503-3.279-2.577-6.794-3.154-10.471-3.828 1.913-9.07 5.6-9.054 5.664z" fill="#b7c5ff"/><circle cx="239.126" cy="264.456" fill="url(#SVGID_2_)" r="183.659"/><ellipse cx="127.054" cy="151.941" fill="#02ffb3" rx="45.279" ry="45.279" transform="matrix(.707 -.707 .707 .707 -70.225 134.343)"/><path d="m143.653 143.719c0-9.153-7.446-16.6-16.599-16.6s-16.6 7.446-16.6 16.6c0 4.512 1.815 8.604 4.747 11.6-2.932 2.995-4.747 7.087-4.747 11.6 0 2.762 2.238 5 5 5s5-2.238 5-5c0-3.639 2.961-6.6 6.6-6.6s6.599 2.961 6.599 6.6c0 2.762 2.238 5 5 5s5-2.238 5-5c0-4.512-1.815-8.604-4.747-11.6 2.932-2.996 4.747-7.088 4.747-11.6zm-16.598-6.6c3.639 0 6.599 2.961 6.599 6.6s-2.96 6.6-6.599 6.6-6.6-2.961-6.6-6.6 2.961-6.6 6.6-6.6z" fill="#fff"/><ellipse cx="239.259" cy="80.797" fill="#ff7eb8" rx="45.279" ry="45.279" transform="matrix(.707 -.707 .707 .707 12.945 192.847)"/><path d="m255.858 72.574c0-9.152-7.446-16.599-16.599-16.599s-16.6 7.446-16.6 16.599c0 4.512 1.815 8.604 4.747 11.6-2.932 2.995-4.747 7.087-4.747 11.6 0 2.762 2.238 5 5 5s5-2.238 5-5c0-3.639 2.961-6.6 6.6-6.6s6.599 2.961 6.599 6.6c0 2.762 2.238 5 5 5s5-2.238 5-5c0-4.512-1.815-8.604-4.747-11.6 2.932-2.995 4.747-7.088 4.747-11.6zm-16.598-6.598c3.639 0 6.599 2.96 6.599 6.599s-2.96 6.6-6.599 6.6-6.6-2.961-6.6-6.6 2.961-6.599 6.6-6.599z" fill="#fff"/><ellipse cx="171.887" cy="432.26" fill="#02ffb3" rx="45.279" ry="45.279" transform="matrix(.924 -.383 .383 .924 -152.335 98.682)"/><path d="m188.486 424.037c0-9.152-7.446-16.599-16.6-16.599-9.152 0-16.599 7.446-16.599 16.599 0 4.512 1.815 8.604 4.747 11.6-2.931 2.995-4.747 7.087-4.747 11.6 0 2.762 2.238 5 5 5s5-2.238 5-5c0-3.639 2.96-6.6 6.599-6.6s6.6 2.961 6.6 6.6c0 2.762 2.238 5 5 5s5-2.238 5-5c0-4.512-1.815-8.604-4.747-11.6 2.932-2.995 4.747-7.088 4.747-11.6zm-16.599-6.599c3.639 0 6.6 2.96 6.6 6.599s-2.961 6.6-6.6 6.6-6.599-2.961-6.599-6.6 2.96-6.599 6.599-6.599z" fill="#fff"/><path d="m447.57 398.514c2.5-1.554 4.19-4.124 4.611-7.037 2.654-18.353 4.352-46.465 4.352-77.982 0-29.264-1.464-55.591-3.798-73.898-.635-4.982-4.884-8.704-9.907-8.704h-150.057c-5.022 0-9.272 3.722-9.907 8.704-2.334 18.306-3.798 44.634-3.798 73.898 0 31.517 1.698 59.629 4.352 77.982.421 2.913 2.111 5.482 4.611 7.037l67.895 42.217c7.271 4.521 16.479 4.521 23.75 0z" fill="#6583fe"/><path d="m367.802 260.86v61.527h-58.72c-.03-2.946-.05-5.913-.05-8.889 0-17.819.574-35.082 1.615-49.861.11-1.566 1.419-2.777 2.989-2.777z" fill="#ffa8cf"/><path d="m309.083 322.387h58.72v90.442l-54.607-33.953c-.787-.489-1.305-1.306-1.399-2.228-1.53-14.897-2.492-34.069-2.714-54.261z" fill="#ffc4df"/><path d="m426.572 313.497c0 2.976-.02 5.943-.05 8.889h-58.72v-61.527h54.158c1.569 0 2.878 1.209 2.989 2.775 1.049 14.78 1.623 32.043 1.623 49.863z" fill="#ffc4df"/><path d="m426.522 322.387c-.222 20.193-1.185 39.364-2.714 54.261-.095.921-.613 1.739-1.399 2.228l-54.606 33.953v-90.442z" fill="#ffa8cf"/></g><g><path d="m437.574 187.169c-2.762 0-5-2.238-5-5 0-3.31-2.692-6.003-6.002-6.003-2.762 0-5-2.238-5-5s2.238-5 5-5c3.31 0 6.002-2.693 6.002-6.003 0-2.762 2.238-5 5-5s5 2.238 5 5c0 3.31 2.693 6.003 6.003 6.003 2.762 0 5 2.238 5 5s-2.238 5-5 5c-3.31 0-6.003 2.693-6.003 6.003 0 2.762-2.238 5-5 5z" fill="#97ffd2"/><path d="m81.858 440.018c-1.326 0-2.598-.526-3.535-1.465l-10.981-10.981c-.938-.938-1.465-2.209-1.465-3.535s.527-2.598 1.465-3.536l10.981-10.98c1.951-1.951 5.119-1.952 7.07.001l10.98 10.98c1.953 1.952 1.953 5.118.001 7.07l-10.98 10.981c-.938.938-2.209 1.465-3.536 1.465zm-3.91-15.981 3.91 3.91 3.909-3.91-3.909-3.909z" fill="#ff7eb8"/><g fill="#6583fe"><path d="m408.168 131.244c-1.279 0-2.56-.488-3.535-1.465l-10.98-10.98c-1.953-1.952-1.953-5.118-.001-7.07l10.98-10.981c.938-.938 2.21-1.465 3.536-1.465s2.598.526 3.535 1.465l10.981 10.981c.938.938 1.465 2.209 1.465 3.535s-.527 2.598-1.465 3.536l-10.981 10.98c-.975.976-2.256 1.464-3.535 1.464zm-3.909-15.98 3.909 3.909 3.91-3.909-3.91-3.91z"/><path d="m154.128 66.422c-1.279 0-2.559-.488-3.535-1.464l-10.981-10.98c-.938-.938-1.465-2.21-1.465-3.536s.526-2.598 1.465-3.535l10.981-10.981c.938-.938 2.209-1.465 3.535-1.465s2.598.527 3.536 1.465l10.98 10.981c1.952 1.952 1.952 5.118-.001 7.07l-10.98 10.98c-.975.977-2.256 1.465-3.535 1.465zm-3.91-15.981 3.91 3.909 3.909-3.909-3.909-3.91z"/></g></g></g></svg>