<svg id="Capa_1" enable-background="new 0 0 512 512" height="512" viewBox="0 0 512 512" width="512" xmlns="http://www.w3.org/2000/svg" xmlns:xlink="http://www.w3.org/1999/xlink"><linearGradient id="SVGID_1_" gradientUnits="userSpaceOnUse" x1="-30.819" x2="528.595" y1="188.497" y2="357.794"><stop offset=".0485" stop-color="#d2deff"/><stop offset=".9993" stop-color="#dcfdee"/></linearGradient><linearGradient id="lg1"><stop offset=".0028" stop-color="#ff7eb8" stop-opacity="0"/><stop offset="1" stop-color="#ff7eb8" stop-opacity=".6"/></linearGradient><linearGradient id="SVGID_2_" gradientUnits="userSpaceOnUse" x1="314.513" x2="314.513" xlink:href="#lg1" y1="71.988" y2="416.03"/><linearGradient id="SVGID_3_" gradientUnits="userSpaceOnUse" x1="209.064" x2="209.064" xlink:href="#lg1" y1="377.34" y2="465.97"/><g><g><path d="m382.606 175.486c-.192-.001-.385-.002-.577-.002-32.034-.05-62.385-13.844-83.44-37.986-31.366-35.964-77.6-58.622-129.121-58.393-93.512.414-170.663 78.98-169.454 172.485 1.203 92.986 76.955 167.995 170.227 167.995 26.343 0 51.286-5.987 73.547-16.672 19.194-9.213 42.065-6.784 58.968 6.161 21.863 16.745 49.19 26.713 78.846 26.763 71.382.119 129.981-58.02 130.396-129.401.418-72.049-57.442-130.527-129.392-130.95z" fill="url(#SVGID_1_)"/><path d="m439.446 86.98v314.058c0 8.276-6.716 14.992-14.992 14.992h-219.882c-8.276 0-14.992-6.716-14.992-14.992v-314.058c0-8.276 6.716-14.992 14.992-14.992h219.882c8.276 0 14.992 6.716 14.992 14.992z" fill="#9fb0fe"/><path d="m189.58 377.34v23.697c0 8.276 6.716 14.992 14.992 14.992h219.882c8.276 0 14.992-6.716 14.992-14.992v-23.697z" fill="#b7c5ff"/><path d="m244.133 71.985v344.043h-39.561c-8.272 0-14.994-6.712-14.994-14.994v-314.055c0-8.272 6.722-14.994 14.994-14.994z" fill="#d2deff"/><path d="m226.208 190.907v70.569c0 4.151-3.361 7.522-7.522 7.522h-29.108v-85.623h29.108c4.162 0 7.522 3.371 7.522 7.532z" fill="#b7c5ff"/><path d="m439.446 120.133v-33.153c0-8.28-6.712-14.992-14.992-14.992h-219.882c-8.28 0-14.992 6.712-14.992 14.992v33.154z" fill="#ff7eb8"/><path d="m319.469 232.704h-15.736c-2.616 0-4.952 1.912-5.2 4.516-.285 2.987 2.056 5.501 4.985 5.501h15.951c2.766 0 5.008-2.242 5.008-5.008s-2.242-5.009-5.008-5.009z" fill="#d2deff"/><path d="m379.909 232.704h-37.42c-2.766 0-5.008 2.242-5.008 5.008s2.242 5.008 5.008 5.008h37.635c2.929 0 5.27-2.514 4.985-5.501-.248-2.603-2.584-4.515-5.2-4.515z" fill="#97ffd2"/><path d="m355.479 253.674h-51.745c-2.616 0-4.951 1.912-5.2 4.516-.285 2.987 2.056 5.501 4.985 5.501h51.961c2.766 0 5.008-2.242 5.008-5.008-.001-2.767-2.243-5.009-5.009-5.009z" fill="#d2deff"/><path d="m409.917 253.674h-31.419c-2.766 0-5.008 2.242-5.008 5.008s2.242 5.008 5.008 5.008h31.634c2.929 0 5.27-2.514 4.985-5.501-.248-2.603-2.584-4.515-5.2-4.515z" fill="#97ffd2"/><path d="m340.474 274.644h-36.741c-2.616 0-4.952 1.912-5.2 4.516-.285 2.987 2.056 5.501 4.985 5.501h36.957c2.766 0 5.008-2.242 5.008-5.008 0-2.767-2.242-5.009-5.009-5.009z" fill="#d2deff"/><path d="m379.909 274.644h-16.414c-2.766 0-5.008 2.242-5.008 5.008s2.242 5.008 5.008 5.008h16.63c2.929 0 5.27-2.514 4.985-5.501-.249-2.603-2.585-4.515-5.201-4.515z" fill="#97ffd2"/><path d="m409.918 295.614h-61.427c-2.766 0-5.008 2.242-5.008 5.008s2.242 5.008 5.008 5.008h61.642c2.929 0 5.27-2.514 4.985-5.501-.249-2.603-2.585-4.515-5.2-4.515z" fill="#97ffd2"/><path d="m325.47 295.614h-21.737c-2.616 0-4.952 1.912-5.2 4.516-.285 2.987 2.056 5.501 4.985 5.501h21.952c2.766 0 5.008-2.242 5.008-5.008.001-2.767-2.242-5.009-5.008-5.009z" fill="#d2deff"/><g fill="#fff"><path d="m290.461 197.843h-16.736c-2.616 0-4.952 1.912-5.2 4.516-.285 2.987 2.056 5.501 4.985 5.501h16.951c2.766 0 5.009-2.242 5.009-5.008-.001-2.766-2.243-5.009-5.009-5.009z"/><path d="m379.909 197.843h-65.094c-2.766 0-5.009 2.242-5.009 5.008s2.242 5.008 5.009 5.008h65.309c2.929 0 5.27-2.514 4.985-5.501-.248-2.602-2.584-4.515-5.2-4.515z"/><path d="m290.461 333.445h-16.736c-2.616 0-4.952 1.912-5.2 4.516-.285 2.987 2.056 5.501 4.985 5.501h16.951c2.766 0 5.009-2.242 5.009-5.008-.001-2.767-2.243-5.009-5.009-5.009z"/><path d="m379.909 333.445h-65.094c-2.766 0-5.009 2.242-5.009 5.009 0 2.766 2.242 5.008 5.009 5.008h65.309c2.929 0 5.27-2.514 4.985-5.501-.248-2.604-2.584-4.516-5.2-4.516z"/></g><path d="m224.83 293.398c0-2.762-2.239-5-5-5s-5 2.238-5 5v.146c0 2.762 2.239 5 5 5s5-2.238 5-5z" fill="#9fb0fe"/><path d="m219.83 333.743c-2.761 0-5 2.238-5 5v.146c0 2.762 2.239 5 5 5s5-2.238 5-5v-.146c0-2.761-2.239-5-5-5z" fill="#9fb0fe"/><path d="m439.446 86.98v314.058c0 8.276-6.716 14.992-14.992 14.992h-219.882c-8.276 0-14.992-6.716-14.992-14.992v-314.058c0-8.276 6.716-14.992 14.992-14.992h219.882c8.276 0 14.992 6.716 14.992 14.992z" fill="url(#SVGID_2_)"/><path d="m218.687 254.831h-108.41c-4.156 0-7.525-3.369-7.525-7.525v-70.569c0-4.156 3.369-7.525 7.525-7.525h108.41c4.156 0 7.525 3.369 7.525 7.525v70.569c0 4.156-3.369 7.525-7.525 7.525z" fill="#6583fe"/><path d="m141.09 229.065c-1.28 0-2.561-.489-3.537-1.465l-12.041-12.041c-1.954-1.954-1.954-5.121 0-7.075l12.041-12.041c1.952-1.953 5.122-1.953 7.074 0 1.954 1.954 1.954 5.121 0 7.075l-8.503 8.503 8.503 8.503c1.954 1.954 1.954 5.121 0 7.075-.976.978-2.257 1.466-3.537 1.466z" fill="#fff"/><path d="m187.874 194.979c1.28 0 2.561.489 3.537 1.465l12.041 12.041c1.954 1.954 1.954 5.121 0 7.075l-12.042 12.04c-1.952 1.953-5.122 1.953-7.074 0-1.954-1.954-1.954-5.121 0-7.075l8.503-8.503-8.503-8.503c-1.954-1.954-1.954-5.121 0-7.075.977-.976 2.258-1.465 3.538-1.465z" fill="#fff"/><path d="m157.678 229.066c-.833 0-1.678-.209-2.454-.647-2.406-1.359-3.255-4.41-1.896-6.816l13.598-24.081c1.358-2.405 4.41-3.254 6.815-1.896 2.406 1.359 3.255 4.41 1.896 6.816l-13.598 24.081c-.92 1.628-2.615 2.543-4.361 2.543z" fill="#fff"/><path d="m332.479 465.97h-246.829c-5.524 0-10.003-4.478-10.003-10.003v-68.624c0-5.524 4.478-10.003 10.003-10.003h246.829c5.524 0 10.003 4.478 10.003 10.003v68.624c0 5.524-4.478 10.003-10.003 10.003z" fill="#fff"/><g><path d="m227.641 90.988c-2.761 0-5 2.238-5 5v.145c0 2.762 2.239 5 5 5s5-2.238 5-5v-.145c0-2.761-2.238-5-5-5z" fill="#fe2c8f"/><path d="m246.956 90.988c-2.761 0-5 2.238-5 5v.145c0 2.762 2.239 5 5 5s5-2.238 5-5v-.145c0-2.761-2.239-5-5-5z" fill="#fe2c8f"/><path d="m266.27 90.988c-2.762 0-5 2.238-5 5v.145c0 2.762 2.238 5 5 5s5-2.238 5-5v-.145c0-2.761-2.238-5-5-5z" fill="#fe2c8f"/><path d="m152.798 377.34v-13.59c0-12.133-9.871-22.004-22.005-22.004h-38.141c-6.62 0-12.005-5.386-12.005-12.005s5.385-12.005 12.005-12.005h39.963c12.166 0 22.063-9.897 22.063-22.063s-9.897-22.063-22.063-22.063h-39.963c-6.62 0-12.005-5.386-12.005-12.005v-32.578c0-6.619 5.385-12.004 12.005-12.004h10.1v-10h-10.1c-12.133 0-22.005 9.871-22.005 22.004v32.578c0 12.134 9.872 22.005 22.005 22.005h39.963c6.652 0 12.063 5.412 12.063 12.063s-5.412 12.063-12.063 12.063h-39.963c-12.133 0-22.005 9.871-22.005 22.005s9.872 22.005 22.005 22.005h38.141c6.62 0 12.005 5.385 12.005 12.004v13.59z" fill="#2626bc"/><g fill="#9fb0fe"><path d="m103.785 402.296c0-2.762-2.239-5-5-5s-5 2.238-5 5v.115c0 2.762 2.239 5 5 5s5-2.238 5-5z"/><path d="m128.291 402.296c0-2.762-2.239-5-5-5s-5 2.238-5 5v.115c0 2.762 2.239 5 5 5s5-2.238 5-5z"/><path d="m147.798 407.411c2.761 0 5-2.238 5-5v-.115c0-2.762-2.239-5-5-5s-5 2.238-5 5v.115c0 2.762 2.239 5 5 5z"/><path d="m177.305 402.411v-.115c0-2.762-2.239-5-5-5s-5 2.238-5 5v.115c0 2.762 2.239 5 5 5s5-2.238 5-5z"/><path d="m201.811 402.411v-.115c0-2.762-2.239-5-5-5s-5 2.238-5 5v.115c0 2.762 2.239 5 5 5s5-2.238 5-5z"/><path d="m226.318 402.411v-.115c0-2.762-2.239-5-5-5s-5 2.238-5 5v.115c0 2.762 2.239 5 5 5s5-2.238 5-5z"/><path d="m250.825 402.411v-.115c0-2.762-2.239-5-5-5s-5 2.238-5 5v.115c0 2.762 2.239 5 5 5s5-2.238 5-5z"/><path d="m270.331 407.411c2.762 0 5-2.238 5-5v-.115c0-2.762-2.238-5-5-5s-5 2.238-5 5v.115c0 2.762 2.238 5 5 5z"/><path d="m294.838 407.411c2.762 0 5-2.238 5-5v-.115c0-2.762-2.238-5-5-5s-5 2.238-5 5v.115c0 2.762 2.238 5 5 5z"/><path d="m319.345 407.411c2.762 0 5-2.238 5-5v-.115c0-2.762-2.238-5-5-5s-5 2.238-5 5v.115c0 2.762 2.238 5 5 5z"/><path d="m106.038 421.598v.115c0 2.762 2.239 5 5 5s5-2.238 5-5v-.115c0-2.762-2.239-5-5-5s-5 2.238-5 5z"/><path d="m130.545 421.598v.115c0 2.762 2.239 5 5 5s5-2.238 5-5v-.115c0-2.762-2.239-5-5-5s-5 2.238-5 5z"/><path d="m165.052 421.713v-.115c0-2.762-2.239-5-5-5s-5 2.238-5 5v.115c0 2.762 2.239 5 5 5s5-2.238 5-5z"/><path d="m189.558 421.713v-.115c0-2.762-2.239-5-5-5s-5 2.238-5 5v.115c0 2.762 2.239 5 5 5s5-2.238 5-5z"/><path d="m209.065 416.598c-2.761 0-5 2.238-5 5v.115c0 2.762 2.239 5 5 5s5-2.238 5-5v-.115c0-2.762-2.239-5-5-5z"/><path d="m238.572 421.713v-.115c0-2.762-2.239-5-5-5s-5 2.238-5 5v.115c0 2.762 2.239 5 5 5s5-2.238 5-5z"/><path d="m263.078 421.713v-.115c0-2.762-2.238-5-5-5-2.761 0-5 2.238-5 5v.115c0 2.762 2.239 5 5 5 2.762 0 5-2.238 5-5z"/><path d="m287.585 421.713v-.115c0-2.762-2.238-5-5-5s-5 2.238-5 5v.115c0 2.762 2.238 5 5 5s5-2.238 5-5z"/><path d="m312.092 421.713v-.115c0-2.762-2.238-5-5-5s-5 2.238-5 5v.115c0 2.762 2.238 5 5 5s5-2.238 5-5z"/><path d="m98.785 435.899c-2.761 0-5 2.238-5 5v.115c0 2.762 2.239 5 5 5s5-2.238 5-5v-.115c0-2.762-2.239-5-5-5z"/><path d="m123.291 435.899c-2.761 0-5 2.238-5 5v.115c0 2.762 2.239 5 5 5s5-2.238 5-5v-.115c0-2.762-2.238-5-5-5z"/><path d="m142.798 441.014c0 2.762 2.239 5 5 5h98.026c2.761 0 5-2.238 5-5s-2.239-5-5-5h-98.026c-2.761 0-5 2.238-5 5z"/><path d="m265.331 441.014c0 2.762 2.238 5 5 5s5-2.238 5-5v-.115c0-2.762-2.238-5-5-5s-5 2.238-5 5z"/><path d="m289.838 441.014c0 2.762 2.238 5 5 5s5-2.238 5-5v-.115c0-2.762-2.238-5-5-5s-5 2.238-5 5z"/><path d="m314.345 441.014c0 2.762 2.238 5 5 5s5-2.238 5-5v-.115c0-2.762-2.238-5-5-5s-5 2.238-5 5z"/></g></g><path d="m332.479 465.97h-246.829c-5.524 0-10.003-4.478-10.003-10.003v-68.624c0-5.524 4.478-10.003 10.003-10.003h246.829c5.524 0 10.003 4.478 10.003 10.003v68.624c0 5.524-4.478 10.003-10.003 10.003z" fill="url(#SVGID_3_)"/></g><g><path d="m379.311 468.031c-2.762 0-5-2.238-5-5 0-3.313-2.695-6.009-6.008-6.009-2.762 0-5-2.238-5-5s2.238-5 5-5c3.313 0 6.008-2.695 6.008-6.009 0-2.762 2.238-5 5-5s5 2.238 5 5c0 3.313 2.695 6.009 6.009 6.009 2.762 0 5 2.238 5 5s-2.238 5-5 5c-3.313 0-6.009 2.695-6.009 6.009 0 2.762-2.238 5-5 5z" fill="#6583fe"/><path d="m124.047 76c-2.761 0-5-2.238-5-5 0-3.316-2.698-6.015-6.015-6.015-2.761 0-5-2.238-5-5s2.239-5 5-5c3.317 0 6.015-2.698 6.015-6.016 0-2.762 2.239-5 5-5s5 2.238 5 5c0 3.317 2.698 6.016 6.015 6.016 2.761 0 5 2.238 5 5s-2.239 5-5 5c-3.317 0-6.015 2.698-6.015 6.015 0 2.762-2.239 5-5 5z" fill="#97ffd2"/><path d="m102.752 152.458c-1.326 0-2.598-.526-3.536-1.465l-11.015-11.016c-.938-.938-1.464-2.209-1.464-3.535s.527-2.598 1.464-3.535l11.015-11.015c1.953-1.953 5.118-1.953 7.071 0l11.015 11.015c.938.938 1.464 2.209 1.464 3.535s-.527 2.598-1.464 3.535l-11.015 11.016c-.937.939-2.209 1.465-3.535 1.465zm-3.944-16.016 3.944 3.944 3.944-3.944-3.944-3.943z" fill="#ff7eb8"/><path d="m157.108 136.149c-2.761 0-5-2.238-5-5 0-3.317-2.698-6.016-6.015-6.016-2.761 0-5-2.238-5-5s2.239-5 5-5c3.317 0 6.015-2.698 6.015-6.015 0-2.762 2.239-5 5-5s5 2.238 5 5c0 3.316 2.698 6.015 6.015 6.015 2.761 0 5 2.238 5 5s-2.239 5-5 5c-3.317 0-6.015 2.698-6.015 6.016 0 2.761-2.239 5-5 5z" fill="#6583fe"/></g></g></svg>