<svg id="Capa_1" enable-background="new 0 0 512 512" height="512" viewBox="0 0 512 512" width="512" xmlns="http://www.w3.org/2000/svg" xmlns:xlink="http://www.w3.org/1999/xlink"><linearGradient id="SVGID_1_" gradientUnits="userSpaceOnUse" x1="11.91" x2="514.891" y1="115.336" y2="404.857"><stop offset=".0485" stop-color="#d2deff"/><stop offset=".9993" stop-color="#dcfdee"/></linearGradient><linearGradient id="SVGID_2_" gradientUnits="userSpaceOnUse" x1="222.165" x2="222.165" y1="133.544" y2="388.273"><stop offset=".0028" stop-color="#ff7eb8" stop-opacity="0"/><stop offset="1" stop-color="#ff7eb8" stop-opacity=".6"/></linearGradient><g><g><g><path d="m505.626 291.92c-11.826-34.61-38.138-60.16-69.852-72.202-16.43-6.239-27.346-21.856-27.587-39.429-.005-.384-.012-.769-.021-1.154-1.507-64.582-55.488-116.33-120.077-115.221-38.094.654-71.788 19.355-92.905 47.92-18.185 24.599-46.49 39.965-77.08 39.949-.898 0-1.797.009-2.7.029-61.917 1.354-114.567 54.478-115.393 116.404-.88 65.931 52.302 119.654 118.032 119.654 50.947 0 94.349-32.277 110.886-77.497 4.327-11.832 17.152-18.174 29.283-14.772.151.042.303.085.455.127 11.099 3.064 18.458 13.64 17.55 25.119-1.217 15.383.581 31.255 5.798 46.796 20.521 61.135 87.188 94.685 148.493 74.68 62.711-20.465 96.379-88.185 75.118-150.403z" fill="url(#SVGID_1_)"/><path d="m272.986 453.429h-101.642l13.247-52.516 7.079-28.052h60.99l7.079 28.052z" fill="#9fb0fe"/><path d="m259.739 400.913h-75.148l7.079-28.052h60.99z" fill="#8399fe"/><path d="m376.389 388.273h-308.447c-9.357 0-16.942-7.585-16.942-16.941v-220.846c0-9.357 7.585-16.942 16.942-16.942h308.447c9.357 0 16.941 7.585 16.941 16.942v220.846c0 9.356-7.585 16.941-16.941 16.941z" fill="#fff"/><path d="m393.327 150.482v104.954c-3.897.583-7.876.89-11.937.89-43.972 0-79.618-35.646-79.618-79.608 0-15.915 4.664-30.737 12.714-43.174h61.903c9.359-.001 16.938 7.589 16.938 16.938z" fill="#d2deff"/><path d="m269.133 147.679h81.991v195.435h-81.991z" fill="#ffdbed"/><path d="m351.125 147.679v102.684c-28.967-11.906-49.352-40.402-49.352-73.645 0-10.249 1.933-20.038 5.462-29.039z" fill="#ffa8cf"/><path d="m364.852 343.116h-109.444v-80.913c0-1.695 1.374-3.069 3.069-3.069h103.308c1.695 0 3.069 1.374 3.069 3.069v80.913z" fill="#d2deff"/><path d="m364.852 283.668h-109.444v-21.464c0-1.695 1.374-3.069 3.069-3.069h103.308c1.695 0 3.069 1.374 3.069 3.069v21.464z" fill="#6583fe"/><path d="m393.33 176.713v-26.227c0-9.357-7.585-16.942-16.941-16.942h-308.447c-9.356 0-16.942 7.585-16.942 16.942v26.227z" fill="#6583fe"/><path d="m51 343.116v28.215c0 9.357 7.585 16.941 16.942 16.941h308.447c9.356 0 16.941-7.585 16.941-16.941v-28.215z" fill="#b7c5ff"/><path d="m179.212 243.938h-89.98c-2.829 0-5.123-2.294-5.123-5.123s2.293-5.123 5.123-5.123h89.981c2.829 0 5.123 2.294 5.123 5.123-.001 2.829-2.294 5.123-5.124 5.123z" fill="#b7c5ff"/><path d="m229.098 243.938h-24.577c-2.829 0-5.123-2.294-5.123-5.123s2.293-5.123 5.123-5.123h24.577c2.829 0 5.123 2.294 5.123 5.123s-2.293 5.123-5.123 5.123z" fill="#ffa8cf"/><path d="m229.098 264.258h-139.866c-2.829 0-5.123-2.294-5.123-5.123s2.293-5.123 5.123-5.123h139.866c2.829 0 5.123 2.294 5.123 5.123s-2.293 5.123-5.123 5.123z" fill="#b7c5ff"/><path d="m94.918 222.699c-1.326 0-2.598-.527-3.535-1.464l-6.978-6.978c-1.953-1.953-1.953-5.119 0-7.071 1.951-1.952 5.119-1.952 7.07 0l3.442 3.442 12.28-12.28c1.951-1.952 5.119-1.952 7.07 0 1.953 1.953 1.953 5.119 0 7.071l-15.815 15.816c-.936.937-2.208 1.464-3.534 1.464z" fill="#4369fd"/><path d="m117.841 325.723h-28.61c-2.829 0-5.123-2.294-5.123-5.123s2.293-5.123 5.123-5.123h28.61c2.829 0 5.123 2.294 5.123 5.123s-2.293 5.123-5.123 5.123z" fill="#b7c5ff"/><path d="m229.098 325.723h-85.948c-2.829 0-5.123-2.294-5.123-5.123s2.293-5.123 5.123-5.123h85.948c2.829 0 5.123 2.294 5.123 5.123s-2.293 5.123-5.123 5.123z" fill="#ffa8cf"/><path d="m94.918 304.484c-1.326 0-2.598-.527-3.536-1.464l-6.978-6.978c-1.952-1.953-1.952-5.119.001-7.071 1.951-1.952 5.118-1.952 7.071 0l3.441 3.442 12.28-12.28c1.951-1.952 5.119-1.952 7.07 0 1.953 1.953 1.953 5.119 0 7.071l-15.814 15.816c-.937.937-2.209 1.464-3.535 1.464z" fill="#4369fd"/><g fill="#fff"><circle cx="327.04" cy="300.156" r="5.59"/><circle cx="310.13" cy="300.156" r="5.59"/><circle cx="293.22" cy="300.156" r="5.59"/></g><path d="m376.389 388.273h-308.447c-9.357 0-16.942-7.585-16.942-16.941v-220.846c0-9.357 7.585-16.942 16.942-16.942h308.447c9.357 0 16.941 7.585 16.941 16.942v220.846c0 9.356-7.585 16.941-16.941 16.941z" fill="url(#SVGID_2_)"/><circle cx="381.388" cy="163.074" fill="#02ffb3" r="79.612"/><ellipse cx="381.388" cy="163.074" fill="#dcfdee" rx="59.029" ry="59.029" transform="matrix(.707 -.707 .707 .707 -3.605 317.445)"/><path d="m369.967 189.668c-2.035 0-3.986-.808-5.425-2.247l-15.683-15.684c-2.996-2.996-2.996-7.853 0-10.849 2.998-2.997 7.854-2.996 10.85 0l10.258 10.259 33.103-33.103c2.998-2.996 7.854-2.996 10.85 0s2.996 7.853 0 10.849l-38.528 38.527c-1.44 1.44-3.391 2.248-5.425 2.248z" fill="#ff7eb8"/></g><g><path d="m209.433 85.612c-1.326 0-2.598-.527-3.535-1.464l-11.019-11.018c-.938-.938-1.465-2.209-1.465-3.536s.526-2.598 1.465-3.536l11.019-11.018c.938-.938 2.209-1.464 3.535-1.464s2.598.527 3.535 1.464l11.018 11.018c1.953 1.953 1.953 5.119 0 7.071l-11.018 11.018c-.938.938-2.209 1.465-3.535 1.465zm-3.948-16.018 3.947 3.947 3.946-3.947-3.946-3.947z" fill="#ff7eb8"/><path d="m436.299 304.007c-2.762 0-5-2.239-5-5 0-3.318-2.7-6.018-6.019-6.018-2.762 0-5-2.239-5-5s2.238-5 5-5c3.318 0 6.019-2.7 6.019-6.018 0-2.761 2.238-5 5-5s5 2.239 5 5c0 3.318 2.699 6.018 6.018 6.018 2.762 0 5 2.239 5 5s-2.238 5-5 5c-3.318 0-6.018 2.7-6.018 6.018 0 2.761-2.238 5-5 5z" fill="#6583fe"/><path d="m171.165 103.717c-2.762 0-5-2.239-5-5 0-3.318-2.699-6.018-6.018-6.018-2.762 0-5-2.239-5-5s2.238-5 5-5c3.318 0 6.018-2.7 6.018-6.018 0-2.761 2.238-5 5-5s5 2.239 5 5c0 3.318 2.699 6.018 6.018 6.018 2.762 0 5 2.239 5 5s-2.238 5-5 5c-3.318 0-6.018 2.7-6.018 6.018 0 2.761-2.238 5-5 5z" fill="#97ffd2"/><path d="m373.439 434.068c-2.762 0-5-2.239-5-5 0-3.318-2.7-6.018-6.019-6.018-2.762 0-5-2.239-5-5s2.238-5 5-5c3.318 0 6.019-2.7 6.019-6.018 0-2.761 2.238-5 5-5s5 2.239 5 5c0 3.318 2.699 6.018 6.018 6.018 2.762 0 5 2.239 5 5s-2.238 5-5 5c-3.318 0-6.018 2.7-6.018 6.018 0 2.761-2.238 5-5 5z" fill="#ff7eb8"/></g></g><path d="m290.214 458.424h-136.097c-2.762 0-5-2.239-5-5s2.238-5 5-5h136.097c2.762 0 5 2.239 5 5s-2.238 5-5 5z" fill="#6583fe"/><g fill="#2d58e0"><path d="m85.127 160.194c-2.762 0-5-2.239-5-5v-.13c0-2.761 2.238-5 5-5s5 2.239 5 5v.13c0 2.761-2.238 5-5 5z"/><path d="m102.445 160.194c-2.762 0-5-2.239-5-5v-.13c0-2.761 2.238-5 5-5s5 2.239 5 5v.13c0 2.761-2.238 5-5 5z"/><path d="m119.764 160.194c-2.762 0-5-2.239-5-5v-.13c0-2.761 2.238-5 5-5s5 2.239 5 5v.13c0 2.761-2.239 5-5 5z"/></g></g></svg>