<svg id="Capa_1" enable-background="new 0 0 512 512" height="512" viewBox="0 0 512 512" width="512" xmlns="http://www.w3.org/2000/svg" xmlns:xlink="http://www.w3.org/1999/xlink"><linearGradient id="SVGID_1_" gradientUnits="userSpaceOnUse" x1="59.563" x2="412.876" y1="27.758" y2="481.666"><stop offset=".0485" stop-color="#d2deff"/><stop offset=".9993" stop-color="#dcfdee"/></linearGradient><linearGradient id="SVGID_2_" gradientUnits="userSpaceOnUse" x1="252.287" x2="252.287" y1="71.501" y2="461.499"><stop offset=".0028" stop-color="#ff7eb8" stop-opacity="0"/><stop offset="1" stop-color="#ff7eb8" stop-opacity=".6"/></linearGradient><g><g><path d="m310.075 89.353c-21.43-52.669-73.271-89.723-133.726-89.35-77.124.475-140.536 62.684-142.407 139.786-.923 38.04 12.978 72.821 36.334 98.983 18.619 20.856 27.963 48.325 27.021 76.268-.125 3.714-.144 7.455-.052 11.22 2.464 101.4 89.087 185.801 190.517 185.74 105.133-.063 190.34-85.31 190.34-190.457 0-77.074-45.784-143.448-111.637-173.423-25.667-11.683-45.762-32.647-56.39-58.767z" fill="url(#SVGID_1_)"/><path d="m447.287 285.204v-37.408c0-3.425-2.272-6.434-5.565-7.372l-38.709-11.024c-3.791-15.451-9.886-29.996-17.916-43.241l19.578-35.171c1.666-2.992 1.144-6.726-1.277-9.148l-26.451-26.451c-2.422-2.422-6.156-2.943-9.148-1.277l-35.171 19.578c-13.245-8.03-27.79-14.125-43.241-17.916l-11.025-38.708c-.938-3.294-3.947-5.565-7.372-5.565h-37.407c-3.425 0-6.434 2.272-7.372 5.565l-11.025 38.708c-15.451 3.791-29.996 9.886-43.241 17.916l-35.171-19.578c-2.992-1.666-6.726-1.144-9.148 1.277l-26.451 26.451c-2.422 2.422-2.943 6.156-1.277 9.148l19.578 35.171c-8.03 13.245-14.125 27.79-17.916 43.241l-38.708 11.024c-3.294.938-5.565 3.947-5.565 7.372v37.408c0 3.425 2.272 6.434 5.565 7.372l38.708 11.024c3.791 15.451 9.886 29.996 17.916 43.241l-19.578 35.171c-1.666 2.992-1.144 6.726 1.277 9.148l26.451 26.451c2.422 2.422 6.156 2.943 9.148 1.277l35.171-19.578c13.245 8.03 27.79 14.125 43.241 17.916l11.025 38.708c.938 3.294 3.947 5.565 7.372 5.565h37.407c3.425 0 6.434-2.272 7.372-5.565l11.025-38.708c15.451-3.791 29.996-9.886 43.241-17.916l35.171 19.578c2.992 1.666 6.726 1.144 9.148-1.277l26.451-26.451c2.422-2.422 2.943-6.156 1.277-9.148l-19.578-35.171c8.03-13.245 14.125-27.79 17.916-43.241l38.708-11.025c3.294-.937 5.566-3.947 5.566-7.371z" fill="#9fb0fe"/><path d="m174.897 131.95v62.26c0 5.53-4.49 10.02-10.02 10.02h-54.79c2.74-6.25 5.89-12.29 9.39-18.07l-19.58-35.17c-1.66-2.99-1.14-6.73 1.28-9.15l26.45-26.45c2.42-2.42 6.16-2.94 9.15-1.28l35.17 19.58c.97-.59 1.96-1.17 2.95-1.74z" fill="#8399fe"/><ellipse cx="252.287" cy="266.5" fill="#ffc4df" rx="94" ry="94" transform="matrix(.707 -.707 .707 .707 -114.551 256.45)"/><circle cx="252.287" cy="266.5" fill="#ff7eb8" r="77.388"/><path d="m252.287 388.5c-67.271 0-122-54.729-122-122 0-2.761 2.239-5 5-5s5 2.239 5 5c0 61.757 50.243 112 112 112 2.761 0 5 2.239 5 5s-2.239 5-5 5z" fill="#d2deff"/><path d="m369.287 271.5c-2.761 0-5-2.239-5-5 0-61.757-50.243-112-112-112-2.761 0-5-2.239-5-5s2.239-5 5-5c67.271 0 122 54.729 122 122 0 2.761-2.239 5-5 5z" fill="#d2deff"/><g fill="#fff"><path d="m228.906 283.535c-1.279 0-2.56-.488-3.535-1.464l-12.035-12.035c-1.953-1.953-1.953-5.119 0-7.071l12.035-12.035c1.951-1.952 5.119-1.952 7.07 0 1.953 1.953 1.953 5.119 0 7.071l-8.499 8.5 8.499 8.5c1.953 1.953 1.953 5.119 0 7.071-.976.975-2.256 1.463-3.535 1.463z"/><path d="m275.667 283.535c-1.279 0-2.56-.488-3.535-1.464-1.953-1.953-1.953-5.119 0-7.071l8.499-8.5-8.499-8.5c-1.953-1.953-1.953-5.119 0-7.071 1.951-1.952 5.119-1.952 7.07 0l12.035 12.035c1.953 1.953 1.953 5.119 0 7.071l-12.035 12.035c-.975.977-2.255 1.465-3.535 1.465z"/><path d="m245.486 283.536c-.833 0-1.677-.208-2.453-.647-2.405-1.358-3.254-4.408-1.896-6.813l13.592-24.07c1.357-2.404 4.408-3.253 6.812-1.896 2.405 1.358 3.254 4.408 1.896 6.812l-13.592 24.07c-.92 1.629-2.614 2.544-4.359 2.544z"/><path d="m164.874 189.494h-122.322c-5.536 0-10.024-4.488-10.024-10.024v-97.278c0-5.536 4.488-10.024 10.024-10.024h122.322c5.536 0 10.024 4.488 10.024 10.024v97.278c0 5.536-4.487 10.024-10.024 10.024z"/></g><path d="m447.287 285.204v-37.408c0-3.425-2.272-6.434-5.565-7.372l-38.709-11.024c-3.791-15.451-9.886-29.996-17.916-43.241l19.578-35.171c1.666-2.992 1.144-6.726-1.277-9.148l-26.451-26.451c-2.422-2.422-6.156-2.943-9.148-1.277l-35.171 19.578c-13.245-8.03-27.79-14.125-43.241-17.916l-11.025-38.708c-.938-3.294-3.947-5.565-7.372-5.565h-37.407c-3.425 0-6.434 2.272-7.372 5.565l-11.025 38.708c-15.451 3.791-29.996 9.886-43.241 17.916l-35.171-19.578c-2.992-1.666-6.726-1.144-9.148 1.277l-26.451 26.451c-2.422 2.422-2.943 6.156-1.277 9.148l19.578 35.171c-8.03 13.245-14.125 27.79-17.916 43.241l-38.708 11.024c-3.294.938-5.565 3.947-5.565 7.372v37.408c0 3.425 2.272 6.434 5.565 7.372l38.708 11.024c3.791 15.451 9.886 29.996 17.916 43.241l-19.578 35.171c-1.666 2.992-1.144 6.726 1.277 9.148l26.451 26.451c2.422 2.422 6.156 2.943 9.148 1.277l35.171-19.578c13.245 8.03 27.79 14.125 43.241 17.916l11.025 38.708c.938 3.294 3.947 5.565 7.372 5.565h37.407c3.425 0 6.434-2.272 7.372-5.565l11.025-38.708c15.451-3.791 29.996-9.886 43.241-17.916l35.171 19.578c2.992 1.666 6.726 1.144 9.148-1.277l26.451-26.451c2.422-2.422 2.943-6.156 1.277-9.148l-19.578-35.171c8.03-13.245 14.125-27.79 17.916-43.241l38.708-11.025c3.294-.937 5.566-3.947 5.566-7.371z" fill="url(#SVGID_2_)"/><path d="m164.874 72.168h-34.161v117.326h34.161c5.536 0 10.024-4.488 10.024-10.024v-97.278c0-5.536-4.488-10.024-10.024-10.024z" fill="#dcfdee"/><path d="m174.899 104.913v-22.721c0-5.536-4.488-10.024-10.024-10.024h-122.323c-5.536 0-10.024 4.488-10.024 10.024v22.721z" fill="#01eca5"/><path d="m110.571 166.089h-49.715c-2.768 0-5.011-2.244-5.011-5.011s2.243-5.011 5.011-5.011h49.716c2.768 0 5.011 2.244 5.011 5.011-.001 2.768-2.244 5.011-5.012 5.011z" fill="#b7c5ff"/><path d="m83.507 145.285h-22.651c-2.768 0-5.011-2.244-5.011-5.011s2.243-5.011 5.011-5.011h22.651c2.768 0 5.011 2.244 5.011 5.011s-2.243 5.011-5.011 5.011z" fill="#b7c5ff"/><path d="m469.448 438.271h-152.322c-5.536 0-10.024-4.488-10.024-10.024v-97.278c0-5.536 4.488-10.024 10.024-10.024h152.322c5.536 0 10.024 4.488 10.024 10.024v97.278c0 5.536-4.488 10.024-10.024 10.024z" fill="#fff"/><path d="m479.472 353.69v-22.721c0-5.536-4.488-10.024-10.024-10.024h-152.322c-5.536 0-10.024 4.488-10.024 10.024v22.721z" fill="#02ffb3"/><g fill="#6583fe"><path d="m343.115 410.99c-.152 0-.305-.007-.458-.021-1.988-.182-3.677-1.529-4.297-3.427l-6.86-21.01c-.857-2.625.576-5.448 3.201-6.305s5.448.576 6.305 3.201l3.26 9.983 1.827-3.357c.875-1.608 2.56-2.61 4.392-2.61s3.517 1.001 4.392 2.61l1.827 3.357 3.26-9.983c.856-2.625 3.679-4.059 6.305-3.201 2.625.857 4.059 3.68 3.201 6.305l-6.86 21.01c-.62 1.898-2.309 3.245-4.296 3.427-1.986.185-3.894-.835-4.848-2.589l-2.98-5.476-2.98 5.476c-.881 1.618-2.572 2.61-4.391 2.61z"/><path d="m385.917 410.99c-.152 0-.305-.007-.458-.021-1.988-.182-3.677-1.529-4.297-3.427l-6.86-21.01c-.857-2.625.576-5.448 3.201-6.305s5.448.576 6.305 3.201l3.26 9.983 1.827-3.357c.875-1.608 2.56-2.61 4.392-2.61s3.517 1.001 4.392 2.61l1.827 3.357 3.26-9.983c.856-2.625 3.679-4.059 6.305-3.201 2.625.857 4.059 3.68 3.201 6.305l-6.86 21.01c-.62 1.898-2.309 3.245-4.296 3.427-1.988.185-3.895-.835-4.848-2.589l-2.98-5.476-2.98 5.476c-.882 1.618-2.573 2.61-4.391 2.61z"/><path d="m443.458 410.99c-1.818 0-3.51-.992-4.39-2.61l-2.98-5.476-2.98 5.476c-.954 1.753-2.856 2.773-4.848 2.589-1.988-.182-3.677-1.529-4.296-3.427l-6.86-21.01c-.857-2.625.576-5.448 3.201-6.305s5.448.576 6.305 3.201l3.26 9.983 1.827-3.357c.875-1.608 2.56-2.61 4.392-2.61s3.517 1.001 4.392 2.61l1.827 3.357 3.26-9.983c.856-2.625 3.679-4.059 6.305-3.201 2.625.857 4.059 3.68 3.201 6.305l-6.86 21.01c-.62 1.898-2.309 3.245-4.296 3.427-.155.014-.308.021-.46.021z"/></g></g><g><path d="m442.964 200.767c-1.28 0-2.559-.488-3.536-1.464l-10.994-10.994c-1.953-1.953-1.953-5.119 0-7.071l10.994-10.994c1.953-1.952 5.118-1.952 7.071 0l10.994 10.994c1.953 1.953 1.953 5.119 0 7.071l-10.993 10.993c-.977.976-2.256 1.465-3.536 1.465zm-3.923-15.995 3.923 3.923 3.923-3.923-3.923-3.923z" fill="#ff7eb8"/><path d="m357.31 93.127c-2.761 0-5-2.239-5-5 0-3.322-2.702-6.024-6.023-6.024-2.761 0-5-2.239-5-5s2.239-5 5-5c3.321 0 6.023-2.702 6.023-6.023 0-2.761 2.239-5 5-5s5 2.239 5 5c0 3.321 2.702 6.023 6.023 6.023 2.761 0 5 2.239 5 5s-2.239 5-5 5c-3.321 0-6.023 2.702-6.023 6.024 0 2.762-2.239 5-5 5z" fill="#97ffd2"/><path d="m63.287 353.341c-2.761 0-5-2.239-5-5 0-3.321-2.702-6.023-6.023-6.023-2.761 0-5-2.239-5-5s2.239-5 5-5c3.321 0 6.023-2.702 6.023-6.023 0-2.761 2.239-5 5-5s5 2.239 5 5c0 3.321 2.702 6.023 6.023 6.023 2.761 0 5 2.239 5 5s-2.239 5-5 5c-3.321 0-6.023 2.702-6.023 6.023 0 2.761-2.239 5-5 5z" fill="#6583fe"/><path d="m55.845 407.052c-2.761 0-5-2.239-5-5 0-3.321-2.702-6.023-6.024-6.023-2.761 0-5-2.239-5-5s2.239-5 5-5c3.322 0 6.024-2.702 6.024-6.023 0-2.761 2.239-5 5-5s5 2.239 5 5c0 3.321 2.702 6.023 6.023 6.023 2.761 0 5 2.239 5 5s-2.239 5-5 5c-3.321 0-6.023 2.702-6.023 6.023 0 2.761-2.239 5-5 5z" fill="#97ffd2"/></g></g></svg>