<svg id="Capa_1" enable-background="new 0 0 512 512" height="512" viewBox="0 0 512 512" width="512" xmlns="http://www.w3.org/2000/svg" xmlns:xlink="http://www.w3.org/1999/xlink"><linearGradient id="SVGID_1_" gradientUnits="userSpaceOnUse" x1="24.681" x2="524.971" y1="125.746" y2="370.476"><stop offset=".0485" stop-color="#ffdbed"/><stop offset=".9993" stop-color="#d2deff"/></linearGradient><linearGradient id="SVGID_2_" gradientUnits="userSpaceOnUse" x1="256" x2="256" y1="115.084" y2="399.335"><stop offset=".0028" stop-color="#ff7eb8" stop-opacity="0"/><stop offset="1" stop-color="#ff7eb8" stop-opacity=".6"/></linearGradient><g><g><path d="m505.626 279.484c-11.826-34.61-38.138-60.16-69.852-72.202-16.43-6.239-27.346-21.856-27.587-39.429-.005-.384-.012-.769-.021-1.154-1.507-64.582-55.488-116.33-120.077-115.221-38.094.654-71.788 19.355-92.905 47.92-18.185 24.599-46.49 39.965-77.08 39.949-.898 0-1.797.009-2.7.029-61.917 1.353-114.567 54.477-115.393 116.404-.879 65.932 52.303 119.654 118.032 119.654 50.947 0 94.349-32.277 110.886-77.497 4.327-11.832 17.152-18.174 29.283-14.772.151.042.303.085.455.127 11.099 3.064 18.458 13.64 17.55 25.119-1.217 15.383.581 31.255 5.798 46.796 20.521 61.135 87.188 94.685 148.493 74.68 62.711-20.465 96.379-88.185 75.118-150.403z" fill="url(#SVGID_1_)"/><path d="m312.71 472.043h-113.421l22.682-89.904h68.057z" fill="#9fb0fe"/><path d="m297.928 413.441h-83.857l7.9-31.302h68.057z" fill="#8399fe"/><path d="m456 130.084v254.25c0 8.28-6.72 15-15 15h-370c-8.28 0-15-6.72-15-15v-254.25c0-8.28 6.72-15 15-15h370c8.28 0 15 6.72 15 15z" fill="#fff"/><path d="m335 132.124c0 43.63-35.37 79-79 79s-79-35.37-79-79c0-5.85.64-11.56 1.85-17.04h154.31c1.2 5.48 1.84 11.19 1.84 17.04z" fill="#d2deff"/><g fill="#2d58e0"><path d="m234.063 282.661c0 2.761 2.239 5 5 5h181.937c2.761 0 5-2.239 5-5v-84.793c0-2.761-2.239-5-5-5s-5 2.239-5 5v79.793h-176.937c-2.761 0-5 2.239-5 5z"/><path d="m311 348.947v-32.368c0-2.761-2.239-5-5-5h-97.333v-28.918-7.097-21.523h40.951c2.761 0 5-2.239 5-5s-2.239-5-5-5h-45.951c-2.761 0-5 2.239-5 5v26.523 2.097h-76.667c-2.761 0-5 2.239-5 5s2.239 5 5 5h76.667v28.918c0 2.761 2.239 5 5 5h97.333v27.368c0 2.761 2.239 5 5 5 2.761 0 5-2.238 5-5z"/><path d="m171 313.256h-77.333v-43.453c0-2.761-2.239-5-5-5s-5 2.239-5 5v48.453c0 2.761 2.239 5 5 5h46.666v25.691c0 2.761 2.239 5 5 5 2.762 0 5-2.238 5-5v-25.691h25.667c2.761 0 5-2.239 5-5s-2.239-5-5-5z"/><path d="m117 248.731c0 2.761 2.239 5 5 5h44.333c2.762 0 5-2.239 5-5s-2.239-5-5-5h-39.333v-79.17c0-2.761-2.239-5-5-5s-5 2.239-5 5z"/><path d="m159 219.731h124v29.31c0 1.329.529 2.603 1.47 3.541.937.935 2.207 1.459 3.53 1.459h.015l101-.309c2.756-.008 4.985-2.245 4.985-5v-85.472c0-2.761-2.239-5-5-5s-5 2.239-5 5v80.486l-91 .279v-24.294h58.333c2.761 0 5-2.239 5-5s-2.239-5-5-5h-63.323c-.003 0-.006-.001-.01-.001h-129c-2.761 0-5 2.239-5 5 0 2.762 2.239 5.001 5 5.001z"/><path d="m456 321.524v-9.889c-.184-.02-.363-.056-.553-.056h-115.447c-2.761 0-5 2.239-5 5s2.239 5 5 5h115.447c.19.001.369-.034.553-.055z"/><path d="m88.667 242.524c2.761 0 5-2.239 5-5v-34.125c0-2.761-2.239-5-5-5s-5 2.239-5 5v29.125h-27.667v10z"/></g><path d="m331.934 467.038h-151.868c-2.761 0-5 2.239-5 5s2.239 5 5 5h151.868c2.761 0 5-2.239 5-5s-2.239-5-5-5z" fill="#6583fe"/><path d="m456 130.084v33.18h-400v-33.18c0-8.28 6.72-15 15-15h370c8.28 0 15 6.72 15 15z" fill="#6583fe"/><path d="m335 132.124c0 11.06-2.27 21.59-6.38 31.14h-145.24c-4.11-9.55-6.38-20.08-6.38-31.14 0-5.85.64-11.56 1.85-17.04h154.31c1.2 5.48 1.84 11.19 1.84 17.04z" fill="#4369fd"/><path d="m56 348.947v35.39c0 8.284 6.716 15 15 15h370c8.284 0 15-6.716 15-15v-35.39z" fill="#b7c5ff"/><g fill="#2d58e0"><path d="m94.082 144.247c2.761 0 5-2.239 5-5v-.145c0-2.761-2.239-5-5-5s-5 2.239-5 5v.145c0 2.761 2.239 5 5 5z"/><path d="m113.407 144.247c2.761 0 5-2.239 5-5v-.145c0-2.761-2.239-5-5-5s-5 2.239-5 5v.145c0 2.761 2.239 5 5 5z"/><path d="m132.731 144.247c2.762 0 5-2.239 5-5v-.145c0-2.761-2.239-5-5-5s-5 2.239-5 5v.145c0 2.761 2.239 5 5 5z"/></g><path d="m456 130.084v254.25c0 8.28-6.72 15-15 15h-370c-8.28 0-15-6.72-15-15v-254.25c0-8.28 6.72-15 15-15h370c8.28 0 15 6.72 15 15z" fill="url(#SVGID_2_)"/><circle cx="256" cy="115.089" fill="#02ffb3" r="79"/><ellipse cx="256" cy="115.089" fill="#dcfdee" rx="58.576" ry="58.576" transform="matrix(.707 -.707 .707 .707 -6.4 214.728)"/><path d="m232.619 132.124c-1.279 0-2.56-.488-3.535-1.464l-12.035-12.035c-1.953-1.953-1.953-5.119 0-7.071l12.035-12.035c1.951-1.952 5.119-1.952 7.07 0 1.953 1.953 1.953 5.119 0 7.071l-8.499 8.5 8.499 8.5c1.953 1.953 1.953 5.119 0 7.071-.975.974-2.256 1.463-3.535 1.463z" fill="#01eca5"/><path d="m279.381 132.124c-1.279 0-2.56-.488-3.535-1.464-1.953-1.953-1.953-5.119 0-7.071l8.499-8.5-8.499-8.5c-1.953-1.953-1.953-5.119 0-7.071 1.951-1.952 5.119-1.952 7.07 0l12.035 12.035c1.953 1.953 1.953 5.119 0 7.071l-12.035 12.035c-.976.976-2.256 1.465-3.535 1.465z" fill="#01eca5"/><path d="m249.199 132.125c-.833 0-1.677-.208-2.453-.647-2.405-1.358-3.254-4.408-1.896-6.813l13.592-24.07c1.357-2.404 4.408-3.253 6.812-1.896 2.405 1.358 3.254 4.408 1.896 6.813l-13.592 24.07c-.919 1.628-2.614 2.543-4.359 2.543z" fill="#01eca5"/></g><g><path d="m374.533 462.196c-1.326 0-2.598-.527-3.536-1.464l-11.024-11.024c-.938-.938-1.464-2.209-1.464-3.536s.527-2.598 1.464-3.536l11.024-11.023c1.954-1.952 5.119-1.951 7.071 0l11.023 11.023c1.953 1.953 1.953 5.119 0 7.071l-11.023 11.024c-.937.938-2.209 1.465-3.535 1.465zm-3.953-16.024 3.953 3.953 3.953-3.953-3.953-3.953z" fill="#6583fe"/><path d="m152.462 452.257c-2.761 0-5-2.239-5-5 0-3.309-2.692-6-6-6-2.761 0-5-2.239-5-5s2.239-5 5-5c3.309 0 6-2.692 6-6 0-2.761 2.239-5 5-5s5 2.239 5 5c0 3.309 2.691 6 6 6 2.761 0 5 2.239 5 5s-2.239 5-5 5c-3.309 0-6 2.692-6 6 0 2.761-2.238 5-5 5z" fill="#97ffd2"/><g fill="#ff7eb8"><path d="m357.342 66.962c-2.761 0-5-2.239-5-5 0-3.309-2.691-6-6-6-2.761 0-5-2.239-5-5s2.239-5 5-5c3.309 0 6-2.692 6-6 0-2.761 2.239-5 5-5s5 2.239 5 5c0 3.309 2.692 6 6 6 2.761 0 5 2.239 5 5s-2.239 5-5 5c-3.309 0-6 2.692-6 6 0 2.762-2.238 5-5 5z"/><path d="m412 85.196c-2.761 0-5-2.239-5-5 0-3.309-2.692-6-6-6-2.761 0-5-2.239-5-5s2.239-5 5-5c3.309 0 6-2.692 6-6 0-2.761 2.239-5 5-5s5 2.239 5 5c0 3.309 2.691 6 6 6 2.761 0 5 2.239 5 5s-2.239 5-5 5c-3.309 0-6 2.692-6 6 0 2.761-2.238 5-5 5z"/></g></g></g></svg>