<svg id="Capa_1" enable-background="new 0 0 512 512" height="512" viewBox="0 0 512 512" width="512" xmlns="http://www.w3.org/2000/svg" xmlns:xlink="http://www.w3.org/1999/xlink"><linearGradient id="SVGID_1_" gradientUnits="userSpaceOnUse" x1="29.861" x2="527.987" y1="157.3" y2="358.716"><stop offset=".0485" stop-color="#ffdbed"/><stop offset=".9993" stop-color="#d2deff"/></linearGradient><linearGradient id="SVGID_2_" gradientUnits="userSpaceOnUse" x1="256" x2="256" y1="113.488" y2="397.738"><stop offset=".0028" stop-color="#ff7eb8" stop-opacity="0"/><stop offset="1" stop-color="#ff7eb8" stop-opacity=".6"/></linearGradient><g><g><path d="m408.228 154.265c-23.697-9.236-43.717-26.089-55.961-48.381-20.59-37.487-60.43-62.898-106.221-62.898-47.53 0-88.646 27.377-108.477 67.219-12.146 24.401-32.814 43.56-58.09 53.761-37.348 15.075-68.702 49.524-78.652 103.383-1.092 5.91-1.108 11.986-.016 17.896 15.448 83.572 82.399 120.435 143.334 110.66 34.126-5.474 68.672 5.909 93.967 29.462 51.434 47.892 133.884 62.907 213.923 11.57 9.377-6.014 21.957-18.634 27.966-28.015 68.966-107.67 17.878-219.715-71.773-254.657z" fill="url(#SVGID_1_)"/><path d="m312.71 470.441h-113.421l22.682-89.904h68.057z" fill="#9fb0fe"/><path d="m297.928 411.84h-83.857l7.9-31.302h68.057z" fill="#8399fe"/><path d="m456 128.488v254.25c0 8.28-6.72 15-15 15h-370c-8.28 0-15-6.72-15-15v-254.25c0-8.28 6.72-15 15-15h370c8.28 0 15 6.72 15 15z" fill="#fff"/><path d="m456 205.509v-77.021c0-8.28-6.72-15-15-15h-370c-8.28 0-15 6.72-15 15v77.021z" fill="#97ffd2"/><path d="m227.5 207.464h57v139.88h-57z" fill="#9fb0fe"/><path d="m284.5 207.464v42.98c-8.87 3.35-18.47 5.17-28.5 5.17-10.01 0-19.62-1.87-28.5-5.27v-42.88z" fill="#8399fe"/><path d="m456 161.66v-33.171c0-8.284-6.716-15-15-15h-370c-8.284 0-15 6.716-15 15v33.171z" fill="#ff7eb8"/><path d="m56 347.346v35.39c0 8.284 6.716 15 15 15h370c8.284 0 15-6.716 15-15v-35.39z" fill="#b7c5ff"/><path d="m337 160.745c0 44.739-36.259 80.999-80.998 81-44.763.001-81.573-37.307-80.996-82.066.333-25.829 12.762-48.751 31.88-63.347 6.605-5.042 16.123-.395 16.123 7.914v34.498c0 5.523 4.477 10 10 10h45.98c5.523 0 10-4.477 10-10v-34.501c0-8.326 9.534-12.946 16.15-7.891 19.367 14.798 31.861 38.141 31.861 64.393z" fill="#9fb0fe"/><path d="m160.798 244.942h-14.981c-2.829 0-5.123-2.294-5.123-5.123s2.293-5.123 5.123-5.123h14.981c2.829 0 5.123 2.294 5.123 5.123s-2.293 5.123-5.123 5.123z" fill="#b7c5ff"/><path d="m186.684 244.942h-6.577c-2.829 0-5.123-2.294-5.123-5.123s2.293-5.123 5.123-5.123h6.577c2.829 0 5.123 2.294 5.123 5.123s-2.293 5.123-5.123 5.123z" fill="#ffa8cf"/><path d="m186.684 265.26h-40.866c-2.829 0-5.123-2.294-5.123-5.123s2.293-5.123 5.123-5.123h40.866c2.829 0 5.123 2.294 5.123 5.123s-2.293 5.123-5.123 5.123z" fill="#b7c5ff"/><path d="m99.504 260.512c-1.326 0-2.598-.527-3.535-1.464l-6.978-6.978c-1.953-1.953-1.953-5.119 0-7.071 1.951-1.952 5.119-1.952 7.07 0l3.442 3.442 12.28-12.28c1.951-1.952 5.119-1.952 7.07 0 1.953 1.953 1.953 5.119 0 7.071l-15.815 15.816c-.936.936-2.208 1.464-3.534 1.464z" fill="#4369fd"/><path d="m160.798 299.794h-14.981c-2.829 0-5.123-2.294-5.123-5.123s2.293-5.123 5.123-5.123h14.981c2.829 0 5.123 2.294 5.123 5.123s-2.293 5.123-5.123 5.123z" fill="#b7c5ff"/><path d="m186.684 299.794h-6.577c-2.829 0-5.123-2.294-5.123-5.123s2.293-5.123 5.123-5.123h6.577c2.829 0 5.123 2.294 5.123 5.123s-2.293 5.123-5.123 5.123z" fill="#ffa8cf"/><path d="m186.684 320.113h-40.866c-2.829 0-5.123-2.294-5.123-5.123s2.293-5.123 5.123-5.123h40.866c2.829 0 5.123 2.294 5.123 5.123 0 2.83-2.293 5.123-5.123 5.123z" fill="#b7c5ff"/><path d="m99.504 315.364c-1.326 0-2.598-.527-3.535-1.464l-6.978-6.978c-1.953-1.953-1.953-5.119 0-7.071 1.951-1.952 5.119-1.952 7.07 0l3.442 3.442 12.28-12.28c1.951-1.952 5.119-1.952 7.07 0 1.953 1.953 1.953 5.119 0 7.071l-15.815 15.816c-.936.937-2.208 1.464-3.534 1.464z" fill="#4369fd"/><path d="m393.465 244.942h-14.981c-2.829 0-5.123-2.294-5.123-5.123s2.293-5.123 5.123-5.123h14.981c2.829 0 5.123 2.294 5.123 5.123s-2.294 5.123-5.123 5.123z" fill="#b7c5ff"/><path d="m419.351 244.942h-6.577c-2.829 0-5.123-2.294-5.123-5.123s2.293-5.123 5.123-5.123h6.577c2.829 0 5.123 2.294 5.123 5.123s-2.294 5.123-5.123 5.123z" fill="#ffa8cf"/><path d="m419.351 265.26h-40.866c-2.829 0-5.123-2.294-5.123-5.123s2.293-5.123 5.123-5.123h40.866c2.829 0 5.123 2.294 5.123 5.123s-2.294 5.123-5.123 5.123z" fill="#b7c5ff"/><path d="m332.171 260.512c-1.326 0-2.598-.527-3.535-1.464l-6.978-6.978c-1.953-1.953-1.953-5.119 0-7.071 1.951-1.952 5.119-1.952 7.07 0l3.442 3.442 12.28-12.28c1.951-1.952 5.119-1.952 7.07 0 1.953 1.953 1.953 5.119 0 7.071l-15.815 15.816c-.937.936-2.208 1.464-3.534 1.464z" fill="#4369fd"/><path d="m393.465 299.794h-14.981c-2.829 0-5.123-2.294-5.123-5.123s2.293-5.123 5.123-5.123h14.981c2.829 0 5.123 2.294 5.123 5.123s-2.294 5.123-5.123 5.123z" fill="#b7c5ff"/><path d="m419.351 299.794h-6.577c-2.829 0-5.123-2.294-5.123-5.123s2.293-5.123 5.123-5.123h6.577c2.829 0 5.123 2.294 5.123 5.123s-2.294 5.123-5.123 5.123z" fill="#ffa8cf"/><path d="m419.351 320.113h-40.866c-2.829 0-5.123-2.294-5.123-5.123s2.293-5.123 5.123-5.123h40.866c2.829 0 5.123 2.294 5.123 5.123 0 2.83-2.294 5.123-5.123 5.123z" fill="#b7c5ff"/><path d="m332.171 315.364c-1.326 0-2.598-.527-3.535-1.464l-6.978-6.978c-1.953-1.953-1.953-5.119 0-7.071 1.951-1.952 5.119-1.952 7.07 0l3.442 3.442 12.28-12.28c1.951-1.952 5.119-1.952 7.07 0 1.953 1.953 1.953 5.119 0 7.071l-15.815 15.816c-.937.937-2.208 1.464-3.534 1.464z" fill="#4369fd"/><path d="m456 128.488v254.25c0 8.28-6.72 15-15 15h-370c-8.28 0-15-6.72-15-15v-254.25c0-8.28 6.72-15 15-15h370c8.28 0 15 6.72 15 15z" fill="url(#SVGID_2_)"/><g><g fill="#fe2c8f"><path d="m94.082 142.647c2.762 0 5-2.238 5-5v-.146c0-2.762-2.238-5-5-5s-5 2.238-5 5v.146c0 2.762 2.238 5 5 5z"/><path d="m113.407 142.647c2.762 0 5-2.238 5-5v-.146c0-2.762-2.238-5-5-5s-5 2.238-5 5v.146c0 2.762 2.239 5 5 5z"/><path d="m132.731 142.647c2.762 0 5-2.238 5-5v-.146c0-2.762-2.238-5-5-5s-5 2.238-5 5v.146c0 2.762 2.239 5 5 5z"/></g><path d="m331.933 465.437h-151.867c-2.762 0-5 2.238-5 5s2.238 5 5 5h151.867c2.762 0 5-2.238 5-5s-2.238-5-5-5z" fill="#6583fe"/></g></g><g><path d="m366.204 463.293c-2.762 0-5-2.238-5-5 0-3.317-2.698-6.016-6.016-6.016-2.762 0-5-2.238-5-5s2.238-5 5-5c3.317 0 6.016-2.698 6.016-6.016 0-2.762 2.238-5 5-5s5 2.238 5 5c0 3.317 2.698 6.016 6.016 6.016 2.762 0 5 2.238 5 5s-2.238 5-5 5c-3.317 0-6.016 2.698-6.016 6.016 0 2.76-2.238 5-5 5z" fill="#6583fe"/><path d="m342.949 89.622c-2.762 0-5-2.238-5-5 0-3.317-2.698-6.016-6.016-6.016-2.762 0-5-2.238-5-5s2.238-5 5-5c3.317 0 6.016-2.698 6.016-6.016 0-2.762 2.238-5 5-5s5 2.238 5 5c0 3.317 2.698 6.016 6.016 6.016 2.762 0 5 2.238 5 5s-2.238 5-5 5c-3.317 0-6.016 2.698-6.016 6.016 0 2.761-2.238 5-5 5z" fill="#97ffd2"/><g fill="#ff7eb8"><path d="m273.484 68.596c-2.762 0-5-2.238-5-5 0-3.317-2.698-6.016-6.016-6.016-2.762 0-5-2.238-5-5s2.238-5 5-5c3.317 0 6.016-2.698 6.016-6.016 0-2.762 2.238-5 5-5s5 2.238 5 5c0 3.317 2.698 6.016 6.016 6.016 2.762 0 5 2.238 5 5s-2.238 5-5 5c-3.317 0-6.016 2.698-6.016 6.016 0 2.762-2.238 5-5 5z"/><path d="m164.937 446.522c-2.762 0-5-2.238-5-5 0-3.317-2.698-6.017-6.016-6.017-2.762 0-5-2.238-5-5s2.238-5 5-5c3.317 0 6.016-2.698 6.016-6.016 0-2.762 2.238-5 5-5s5 2.238 5 5c0 3.317 2.698 6.016 6.016 6.016 2.762 0 5 2.238 5 5s-2.238 5-5 5c-3.317 0-6.016 2.699-6.016 6.017 0 2.762-2.239 5-5 5z"/></g></g></g></svg>