<svg id="Capa_1" enable-background="new 0 0 512 512" height="512" viewBox="0 0 512 512" width="512" xmlns="http://www.w3.org/2000/svg" xmlns:xlink="http://www.w3.org/1999/xlink"><linearGradient id="SVGID_1_" gradientUnits="userSpaceOnUse" x1="-7.105" x2="535.131" y1="141.945" y2="338.229"><stop offset=".0485" stop-color="#d2deff"/><stop offset=".9993" stop-color="#dcfdee"/></linearGradient><linearGradient id="SVGID_2_" gradientUnits="userSpaceOnUse" x1="256.001" x2="256.001" y1="194.868" y2="455.634"><stop offset=".0028" stop-color="#ff7eb8" stop-opacity="0"/><stop offset="1" stop-color="#ff7eb8" stop-opacity=".6"/></linearGradient><g><g><path d="m505.626 284.39c-11.826-34.61-38.138-60.16-69.852-72.202-16.43-6.239-27.346-21.856-27.587-39.429-.005-.384-.012-.769-.021-1.154-1.507-64.582-55.488-116.33-120.077-115.221-38.094.654-71.788 19.355-92.905 47.92-18.185 24.599-46.49 39.965-77.08 39.949-.898 0-1.797.009-2.7.029-61.917 1.354-114.567 54.478-115.393 116.403-.879 65.932 52.303 119.654 118.032 119.654 50.947 0 94.349-32.277 110.886-77.497 4.327-11.832 17.152-18.174 29.283-14.772.151.042.303.085.455.127 11.099 3.064 18.458 13.64 17.55 25.119-1.217 15.383.581 31.255 5.798 46.796 20.521 61.135 87.188 94.685 148.493 74.68 62.711-20.465 96.379-88.184 75.118-150.402z" fill="url(#SVGID_1_)"/><path d="m440.937 252.532c-1.193-44.576-18.304-87.004-48.499-119.956-21.107-23.035-47.359-40.116-76.317-50.056h120.725l.001-10.001h-166.067v11.114l5-.001c41.913 4.716 80.611 24.408 109.285 55.7 28.5 31.104 44.676 71.132 45.866 113.2l.039 5.125 10.128-.127z" fill="#2626bc"/><path d="m241.22 72.519h-165.713v10h120.371c-28.959 9.939-55.211 27.022-76.319 50.058-30.194 32.952-47.304 75.379-48.497 119.954v5h10.186l-.179-5c1.19-42.067 17.365-82.096 45.865-113.198 28.674-31.294 67.373-50.985 109.287-55.701l5 .001v-11.114z" fill="#2626bc"/><g fill="#ff7eb8"><path d="m444.633 287.091h-17.244c-3.401 0-6.158-2.757-6.158-6.158v-17.244c0-3.401 2.757-6.158 6.158-6.158h17.244c3.401 0 6.158 2.757 6.158 6.158v17.244c.001 3.401-2.757 6.158-6.158 6.158z"/><path d="m84.611 287.091h-17.244c-3.401 0-6.158-2.757-6.158-6.158v-17.244c0-3.401 2.757-6.158 6.158-6.158h17.244c3.401 0 6.158 2.757 6.158 6.158v17.244c0 3.401-2.757 6.158-6.158 6.158z"/><path d="m264.622 92.3h-17.244c-3.401 0-6.158-2.757-6.158-6.158v-17.245c0-3.401 2.757-6.158 6.158-6.158h17.244c3.401 0 6.158 2.757 6.158 6.158v17.244c0 3.401-2.757 6.159-6.158 6.159z"/><path d="m264.622 92.3h-17.244c-3.401 0-6.158-2.757-6.158-6.158v-17.245c0-3.401 2.757-6.158 6.158-6.158h17.244c3.401 0 6.158 2.757 6.158 6.158v17.244c0 3.401-2.757 6.159-6.158 6.159z"/><ellipse cx="450.792" cy="77.519" rx="15.208" ry="15.208" transform="matrix(.924 -.383 .383 .924 4.65 178.412)"/><circle cx="61.208" cy="77.519" r="15.208"/></g><path d="m382.659 307.813-25.876-7.368c-2.534-10.33-6.613-20.059-11.982-28.912l13.092-23.516c1.11-1.999.762-4.5-.856-6.118l-17.685-17.685c-1.618-1.618-4.119-1.966-6.118-.856l-23.516 13.092c-8.853-5.369-18.581-9.448-28.912-11.982l-7.368-25.876c-.629-2.206-2.641-3.724-4.934-3.724h-25.007c-2.293 0-4.306 1.518-4.934 3.724l-7.368 25.876c-10.33 2.534-20.059 6.613-28.912 11.982l-23.516-13.092c-1.999-1.11-4.5-.762-6.118.856l-17.685 17.685c-1.618 1.618-1.966 4.119-.856 6.118l13.092 23.516c-5.369 8.853-9.448 18.581-11.982 28.912l-25.876 7.368c-2.206.629-3.724 2.641-3.724 4.935v25.007c0 2.293 1.518 4.306 3.724 4.934l25.876 7.368c2.534 10.33 6.613 20.059 11.982 28.912l-13.092 23.516c-1.11 1.999-.762 4.5.856 6.118l17.685 17.685c1.618 1.618 4.119 1.966 6.118.856l23.516-13.092c8.853 5.369 18.581 9.448 28.912 11.982l7.368 25.876c.629 2.206 2.641 3.724 4.934 3.724h25.007c2.293 0 4.306-1.518 4.934-3.724l7.368-25.876c10.33-2.534 20.059-6.613 28.912-11.982l23.516 13.092c1.999 1.11 4.5.762 6.118-.856l17.685-17.685c1.618-1.618 1.966-4.119.856-6.118l-13.092-23.516c5.369-8.853 9.448-18.581 11.982-28.912l25.876-7.368c2.206-.629 3.724-2.641 3.724-4.934v-25.007c0-2.294-1.518-4.307-3.724-4.935zm-126.659 71.063c-29.614 0-53.625-24.011-53.625-53.625s24.011-53.625 53.625-53.625 53.625 24.011 53.625 53.625-24.011 53.625-53.625 53.625z" fill="#9fb0fe"/><path d="m382.659 307.813-25.876-7.368c-2.534-10.33-6.613-20.059-11.982-28.912l13.092-23.516c1.11-1.999.762-4.5-.856-6.118l-17.685-17.685c-1.618-1.618-4.119-1.966-6.118-.856l-23.516 13.092c-8.853-5.369-18.581-9.448-28.912-11.982l-7.368-25.876c-.629-2.206-2.641-3.724-4.934-3.724h-25.007c-2.293 0-4.306 1.518-4.934 3.724l-7.368 25.876c-10.33 2.534-20.059 6.613-28.912 11.982l-23.516-13.092c-1.999-1.11-4.5-.762-6.118.856l-17.685 17.685c-1.618 1.618-1.966 4.119-.856 6.118l13.092 23.516c-5.369 8.853-9.448 18.581-11.982 28.912l-25.876 7.368c-2.206.629-3.724 2.641-3.724 4.935v25.007c0 2.293 1.518 4.306 3.724 4.934l25.876 7.368c2.534 10.33 6.613 20.059 11.982 28.912l-13.092 23.516c-1.11 1.999-.762 4.5.856 6.118l17.685 17.685c1.618 1.618 4.119 1.966 6.118.856l23.516-13.092c8.853 5.369 18.581 9.448 28.912 11.982l7.368 25.876c.629 2.206 2.641 3.724 4.934 3.724h25.007c2.293 0 4.306-1.518 4.934-3.724l7.368-25.876c10.33-2.534 20.059-6.613 28.912-11.982l23.516 13.092c1.999 1.11 4.5.762 6.118-.856l17.685-17.685c1.618-1.618 1.966-4.119.856-6.118l-13.092-23.516c5.369-8.853 9.448-18.581 11.982-28.912l25.876-7.368c2.206-.629 3.724-2.641 3.724-4.934v-25.007c0-2.294-1.518-4.307-3.724-4.935zm-126.659 71.063c-29.614 0-53.625-24.011-53.625-53.625s24.011-53.625 53.625-53.625 53.625 24.011 53.625 53.625-24.011 53.625-53.625 53.625z" fill="url(#SVGID_2_)"/><path d="m287.029 177.316v191.677c-8.758 6.226-19.468 9.879-31.029 9.879-11.571 0-22.271-3.663-31.029-9.899v-191.657c0-2.913.631-5.795 1.862-8.438l20.099-43.2c3.583-7.717 14.564-7.717 18.147 0l20.089 43.2c1.22 2.643 1.861 5.525 1.861 8.438z" fill="#ff7eb8"/><path d="m256 183.071v195.801c-11.571 0-22.271-3.663-31.029-9.899v-185.902z" fill="#97ffd2"/><path d="m246.929 125.681-20.094 43.192c-1.231 2.645-1.868 5.527-1.868 8.445v12.758c3.574 1.922 7.668 3.013 12.012 3.013 5.016 0 9.694-1.46 13.628-3.978 3.319-2.124 7.588-2.019 10.92.084 3.907 2.466 8.534 3.894 13.5 3.894 4.344 0 8.429-1.091 12.002-3.013v-12.76c0-2.916-.637-5.797-1.867-8.442l-20.086-43.194c-3.582-7.717-14.564-7.717-18.147.001z" fill="#ffc4df"/><path d="m246.929 125.681-10.991 23.644c5.476 4.475 12.453 7.167 20.06 7.167 7.618 0 14.605-2.693 20.07-7.177l-10.991-23.634c-3.583-7.718-14.565-7.718-18.148 0z" fill="#4369fd"/></g><g><path d="m58.292 154.188c-2.762 0-5-2.238-5-5 0-3.306-2.689-5.995-5.995-5.995-2.762 0-5-2.238-5-5s2.238-5 5-5c3.306 0 5.995-2.689 5.995-5.995 0-2.762 2.238-5 5-5s5 2.238 5 5c0 3.306 2.689 5.995 5.995 5.995 2.762 0 5 2.238 5 5s-2.238 5-5 5c-3.306 0-5.995 2.689-5.995 5.995 0 2.762-2.238 5-5 5z" fill="#97ffd2"/><path d="m345.519 182.074c-2.762 0-5-2.238-5-5 0-3.306-2.689-5.995-5.996-5.995-2.762 0-5-2.238-5-5s2.238-5 5-5c3.307 0 5.996-2.689 5.996-5.995 0-2.762 2.238-5 5-5s5 2.238 5 5c0 3.306 2.689 5.995 5.995 5.995 2.762 0 5 2.238 5 5s-2.238 5-5 5c-3.306 0-5.995 2.689-5.995 5.995 0 2.761-2.239 5-5 5z" fill="#6583fe"/><g fill="#ff7eb8"><path d="m101.764 432.96c-1.279 0-2.56-.488-3.535-1.465l-10.994-10.994c-1.953-1.952-1.953-5.118 0-7.07l10.994-10.994c1.951-1.953 5.119-1.953 7.07 0l10.994 10.994c1.953 1.952 1.953 5.118 0 7.07l-10.994 10.994c-.976.977-2.256 1.465-3.535 1.465zm-3.923-15.994 3.923 3.923 3.923-3.923-3.923-3.923z"/><path d="m432.58 353.452c-1.279 0-2.56-.488-3.535-1.465l-10.994-10.994c-1.953-1.952-1.953-5.118 0-7.07l10.994-10.994c1.951-1.953 5.119-1.953 7.07 0l10.994 10.994c1.953 1.952 1.953 5.118 0 7.07l-10.994 10.994c-.975.976-2.256 1.465-3.535 1.465zm-3.923-15.995 3.923 3.923 3.923-3.923-3.923-3.923z"/></g></g></g></svg>