<svg id="Capa_1" enable-background="new 0 0 512 512" height="512" viewBox="0 0 512 512" width="512" xmlns="http://www.w3.org/2000/svg" xmlns:xlink="http://www.w3.org/1999/xlink"><linearGradient id="SVGID_1_" gradientUnits="userSpaceOnUse" x1="43.655" x2="519.646" y1="141.596" y2="391.859"><stop offset="0" stop-color="#ffdbed"/><stop offset="1" stop-color="#dcfdee"/></linearGradient><linearGradient id="SVGID_2_" gradientUnits="userSpaceOnUse" x1="256" x2="256" y1="99.666" y2="413.916"><stop offset=".0028" stop-color="#ff7eb8" stop-opacity="0"/><stop offset="1" stop-color="#ff7eb8" stop-opacity=".6"/></linearGradient><g><g><path d="m505.626 291.918c-11.826-34.61-38.138-60.16-69.852-72.202-16.43-6.239-27.346-21.856-27.587-39.429-.005-.384-.012-.769-.021-1.154-1.507-64.582-55.488-116.33-120.077-115.221-38.094.654-71.788 19.355-92.905 47.92-18.185 24.599-46.49 39.965-77.08 39.949-.898 0-1.797.009-2.7.029-61.917 1.354-114.567 54.478-115.393 116.403-.879 65.932 52.303 119.654 118.032 119.654 50.947 0 94.349-32.277 110.886-77.497 4.327-11.832 17.152-18.174 29.283-14.772.151.042.303.085.455.127 11.099 3.064 18.458 13.64 17.55 25.119-1.217 15.383.581 31.255 5.798 46.796 20.521 61.135 87.188 94.685 148.493 74.68 62.711-20.465 96.379-88.184 75.118-150.402z" fill="url(#SVGID_1_)"/><path d="m456 114.666v284.25c0 8.28-6.72 15-15 15h-370c-8.28 0-15-6.72-15-15v-284.25c0-8.28 6.72-15 15-15h370c8.28 0 15 6.72 15 15z" fill="#fff"/><path d="m92.437 147.837h327.127v210.347h-327.127z" fill="#d2deff"/><path d="m456 147.837v-33.171c0-8.284-6.716-15-15-15h-370c-8.284 0-15 6.716-15 15v33.171z" fill="#6583fe"/><path d="m133.149 380.013h-16c-1.657 0-3-1.343-3-3v-90.866c0-1.657 1.343-3 3-3h16c1.657 0 3 1.343 3 3v90.866c0 1.657-1.343 3-3 3z" fill="#02ffb3"/><path d="m100.437 380.013h-16c-1.657 0-3-1.343-3-3v-37.657c0-1.657 1.343-3 3-3h16c1.657 0 3 1.343 3 3v37.657c0 1.657-1.343 3-3 3z" fill="#97ffd2"/><path d="m165.862 380.013h-16c-1.657 0-3-1.343-3-3v-48.34c0-1.657 1.343-3 3-3h16c1.657 0 3 1.343 3 3v48.34c0 1.657-1.343 3-3 3z" fill="#02ffb3"/><path d="m198.575 380.013h-16c-1.657 0-3-1.343-3-3v-96.866c0-1.657 1.343-3 3-3h16c1.657 0 3 1.343 3 3v96.866c0 1.657-1.343 3-3 3z" fill="#01eca5"/><path d="m231.287 380.013h-16c-1.657 0-3-1.343-3-3v-84.34c0-1.657 1.343-3 3-3h16c1.657 0 3 1.343 3 3v84.34c0 1.657-1.343 3-3 3z" fill="#00d890"/><path d="m264 380.013h-16c-1.657 0-3-1.343-3-3v-120.866c0-1.657 1.343-3 3-3h16c1.657 0 3 1.343 3 3v120.866c0 1.657-1.343 3-3 3z" fill="#ffc4df"/><path d="m296.713 380.013h-16c-1.657 0-3-1.343-3-3v-78.34c0-1.657 1.343-3 3-3h16c1.657 0 3 1.343 3 3v78.34c0 1.657-1.343 3-3 3z" fill="#ffa8cf"/><path d="m329.425 380.013h-16c-1.657 0-3-1.343-3-3v-126.866c0-1.657 1.343-3 3-3h16c1.657 0 3 1.343 3 3v126.866c0 1.657-1.343 3-3 3z" fill="#ff7eb8"/><path d="m362.138 380.013h-16c-1.657 0-3-1.343-3-3v-114.34c0-1.657 1.343-3 3-3h16c1.657 0 3 1.343 3 3v114.34c0 1.657-1.343 3-3 3z" fill="#ff5ba8"/><path d="m394.851 380.013h-16c-1.657 0-3-1.343-3-3v-138.34c0-1.657 1.343-3 3-3h16c1.657 0 3 1.343 3 3v138.34c0 1.657-1.343 3-3 3z" fill="#9fb0fe"/><path d="m427.563 380.013h-16c-1.657 0-3-1.343-3-3v-186.866c0-1.657 1.343-3 3-3h16c1.657 0 3 1.343 3 3v186.866c0 1.657-1.343 3-3 3z" fill="#6583fe"/><path d="m149.342 194.367c0-9.159-7.452-16.611-16.611-16.611s-16.611 7.452-16.611 16.611c0 4.517 1.818 8.613 4.753 11.611-2.936 2.998-4.753 7.094-4.753 11.611 0 2.762 2.239 5 5 5s5-2.238 5-5c0-3.646 2.966-6.611 6.611-6.611s6.611 2.966 6.611 6.611c0 2.762 2.239 5 5 5s5-2.238 5-5c0-4.517-1.818-8.614-4.753-11.611 2.936-2.998 4.753-7.094 4.753-11.611zm-16.611-6.611c3.645 0 6.611 2.966 6.611 6.611s-2.966 6.61-6.611 6.61-6.611-2.966-6.611-6.61c.001-3.645 2.966-6.611 6.611-6.611z" fill="#4369fd"/><path d="m224.953 196.866h89.981c2.829 0 5.123-2.294 5.123-5.123s-2.293-5.123-5.123-5.123h-89.981c-2.829 0-5.123 2.294-5.123 5.123s2.293 5.123 5.123 5.123z" fill="#b7c5ff"/><path d="m175.067 196.866h24.577c2.829 0 5.123-2.294 5.123-5.123s-2.293-5.123-5.123-5.123h-24.577c-2.829 0-5.123 2.294-5.123 5.123s2.293 5.123 5.123 5.123z" fill="#ffa8cf"/><path d="m175.067 217.185h139.866c2.829 0 5.123-2.294 5.123-5.123s-2.293-5.123-5.123-5.123h-139.866c-2.829 0-5.123 2.294-5.123 5.123 0 2.83 2.293 5.123 5.123 5.123z" fill="#b7c5ff"/><g fill="#ffa8cf"><circle cx="122.589" cy="242.447" r="5.59"/><circle cx="139.5" cy="242.447" r="5.59"/><circle cx="156.411" cy="242.447" r="5.59"/></g><path d="m456 114.666v284.25c0 8.28-6.72 15-15 15h-370c-8.28 0-15-6.72-15-15v-284.25c0-8.28 6.72-15 15-15h370c8.28 0 15 6.72 15 15z" fill="url(#SVGID_2_)"/><path d="m89.082 123.679v.146c0 2.762 2.239 5 5 5s5-2.238 5-5v-.146c0-2.762-2.239-5-5-5s-5 2.238-5 5z" fill="#2d58e0"/><path d="m108.407 123.679v.146c0 2.762 2.239 5 5 5s5-2.238 5-5v-.146c0-2.762-2.239-5-5-5s-5 2.238-5 5z" fill="#2d58e0"/><path d="m127.731 123.679v.146c0 2.762 2.239 5 5 5s5-2.238 5-5v-.146c0-2.762-2.239-5-5-5s-5 2.238-5 5z" fill="#2d58e0"/></g><g><path d="m380.851 83.309c-2.761 0-5-2.238-5-5 0-3.317-2.699-6.016-6.016-6.016-2.761 0-5-2.238-5-5s2.239-5 5-5c3.317 0 6.016-2.698 6.016-6.016 0-2.762 2.239-5 5-5s5 2.238 5 5c0 3.317 2.699 6.016 6.016 6.016 2.761 0 5 2.238 5 5s-2.239 5-5 5c-3.317 0-6.016 2.698-6.016 6.016 0 2.761-2.239 5-5 5z" fill="#6583fe"/><path d="m185.882 69.686c-2.761 0-5-2.238-5-5 0-3.317-2.699-6.016-6.016-6.016-2.761 0-5-2.238-5-5s2.239-5 5-5c3.317 0 6.016-2.698 6.016-6.016 0-2.762 2.239-5 5-5s5 2.238 5 5c0 3.317 2.699 6.016 6.016 6.016 2.761 0 5 2.238 5 5s-2.239 5-5 5c-3.317 0-6.016 2.698-6.016 6.016 0 2.761-2.238 5-5 5z" fill="#97ffd2"/><path d="m288.713 464.213c-1.326 0-2.598-.526-3.536-1.465l-10.995-10.995c-1.953-1.952-1.953-5.118 0-7.07l10.995-10.995c.938-.938 2.209-1.465 3.536-1.465 1.326 0 2.598.526 3.536 1.465l10.995 10.995c1.953 1.952 1.953 5.118 0 7.07l-10.995 10.995c-.938.939-2.21 1.465-3.536 1.465zm-3.924-15.995 3.924 3.924 3.924-3.924-3.924-3.924z" fill="#ff7eb8"/><path d="m240.287 474.346c-1.28 0-2.559-.488-3.536-1.465l-10.995-10.994c-.938-.938-1.464-2.209-1.464-3.535s.527-2.598 1.464-3.535l10.995-10.995c.938-.938 2.209-1.465 3.536-1.465s2.598.526 3.536 1.465l10.995 10.995c.938.938 1.464 2.209 1.464 3.535s-.527 2.598-1.465 3.536l-10.995 10.994c-.976.975-2.256 1.464-3.535 1.464zm-3.923-15.994 3.923 3.923 3.924-3.923-3.924-3.924z" fill="#6583fe"/></g></g></svg>