<svg id="Capa_1" enable-background="new 0 0 512 512" height="512" viewBox="0 0 512 512" width="512" xmlns="http://www.w3.org/2000/svg" xmlns:xlink="http://www.w3.org/1999/xlink"><linearGradient id="SVGID_1_" gradientUnits="userSpaceOnUse" x1="-25.431" x2="524.167" y1="191.628" y2="329.027"><stop offset=".0485" stop-color="#d2deff"/><stop offset=".9993" stop-color="#dcfdee"/></linearGradient><linearGradient id="SVGID_2_" gradientUnits="userSpaceOnUse" x1="281.069" x2="281.069" y1="47.535" y2="421.707"><stop offset=".0028" stop-color="#ff7eb8" stop-opacity="0"/><stop offset="1" stop-color="#ff7eb8" stop-opacity=".6"/></linearGradient><g><g><path d="m382.606 166.688c-.192-.001-.385-.002-.577-.002-32.034-.05-62.385-13.844-83.44-37.986-31.366-35.964-77.6-58.622-129.121-58.393-93.512.415-170.663 78.981-169.454 172.485 1.203 92.986 76.955 167.995 170.227 167.995 26.343 0 51.286-5.987 73.547-16.672 19.194-9.213 42.065-6.784 58.968 6.161 21.863 16.745 49.19 26.713 78.846 26.763 71.382.119 129.981-58.02 130.396-129.401.418-72.05-57.442-130.526-129.392-130.95z" fill="url(#SVGID_1_)"/><path d="m349.118 111.63v344.179c0 8.278-6.719 14.997-14.997 14.997h-219.955c-8.278 0-14.997-6.719-14.997-14.997v-344.179c0-8.278 6.719-14.997 14.997-14.997h219.954c8.279 0 14.998 6.718 14.998 14.997z" fill="#b7c5ff"/><path d="m324.653 343.151v-123.975c0-1.657-1.343-2.999-2.999-2.999h-195.02c-1.657 0-2.999 1.343-2.999 2.999v123.974c0 1.656 1.343 2.999 2.999 2.999h195.02c1.656.001 2.999-1.342 2.999-2.998z" fill="#8399fe"/><path d="m349.118 250.78v187.531h-178.024c-8.278 0-14.997-6.719-14.997-14.997v-172.534z" fill="#b7c5ff"/><path d="m349.12 144.792v-33.165c0-8.283-6.714-14.997-14.997-14.997h-219.954c-8.283 0-14.997 6.714-14.997 14.997v33.165z" fill="#4369fd"/><path d="m406.043 62.532v344.178c0 8.278-6.719 14.997-14.997 14.997h-219.954c-8.278 0-14.997-6.719-14.997-14.997v-344.178c0-8.278 6.719-14.997 14.997-14.997h219.954c8.279 0 14.997 6.719 14.997 14.997z" fill="#fff"/><path d="m156.095 219.176v187.533c0 8.278 6.719 14.997 14.997 14.997h219.954c8.278 0 14.997-6.719 14.997-14.997v-187.533z" fill="#dcfdee"/><path d="m406.043 95.696v-33.164c0-8.283-6.714-14.997-14.997-14.997h-219.954c-8.283 0-14.997 6.714-14.997 14.997v33.165h249.948z" fill="#6583fe"/><path d="m256.028 241.013h-15.997c-1.657 0-2.999-1.343-2.999-2.999v-60.853c0-1.657 1.343-2.999 2.999-2.999h15.997c1.656 0 2.999 1.343 2.999 2.999v60.853c.001 1.657-1.342 2.999-2.999 2.999z" fill="#02ffb3"/><path d="m223.323 241.013h-15.997c-1.657 0-2.999-1.343-2.999-2.999v-37.649c0-1.657 1.343-2.999 2.999-2.999h15.997c1.657 0 2.999 1.343 2.999 2.999v37.649c0 1.657-1.343 2.999-2.999 2.999z" fill="#97ffd2"/><path d="m288.734 241.013h-15.997c-1.656 0-2.999-1.343-2.999-2.999v-78.324c0-1.657 1.343-2.999 2.999-2.999h15.997c1.656 0 2.999 1.343 2.999 2.999v78.324c.001 1.657-1.342 2.999-2.999 2.999z" fill="#ffa8cf"/><path d="m321.44 241.013h-15.997c-1.656 0-2.999-1.343-2.999-2.999v-96.846c0-1.657 1.343-2.999 2.999-2.999h15.997c1.656 0 2.999 1.343 2.999 2.999v96.846c.001 1.657-1.342 2.999-2.999 2.999z" fill="#ff7eb8"/><path d="m354.146 241.013h-15.997c-1.656 0-2.999-1.343-2.999-2.999v-114.315c0-1.657 1.343-2.999 2.999-2.999h15.997c1.656 0 2.999 1.343 2.999 2.999v114.316c.001 1.656-1.342 2.998-2.999 2.998z" fill="#ff5ba8"/><path d="m376.716 301.775h-191.96c-1.657 0-2.999-1.343-2.999-2.999v-29.432c0-1.657 1.343-2.999 2.999-2.999h191.96c1.657 0 2.999 1.343 2.999 2.999v29.432c.001 1.656-1.342 2.999-2.999 2.999z" fill="#6583fe"/><path d="m233.349 357.869h-46.586c-2.766 0-5.007-2.242-5.007-5.007s2.241-5.007 5.007-5.007h46.586c2.766 0 5.007 2.242 5.007 5.007s-2.241 5.007-5.007 5.007z" fill="#b7c5ff"/><path d="m233.349 331.086h-46.586c-2.766 0-5.007-2.242-5.007-5.007s2.241-5.007 5.007-5.007h46.586c2.766 0 5.007 2.242 5.007 5.007s-2.241 5.007-5.007 5.007z" fill="#ff7eb8"/><path d="m233.349 375.655h-46.586c-2.766 0-5.007-2.242-5.007-5.007s2.241-5.007 5.007-5.007h46.586c2.766 0 5.007 2.242 5.007 5.007s-2.241 5.007-5.007 5.007z" fill="#b7c5ff"/><path d="m233.349 393.44h-46.586c-2.766 0-5.007-2.242-5.007-5.007s2.241-5.007 5.007-5.007h46.586c2.766 0 5.007 2.242 5.007 5.007s-2.241 5.007-5.007 5.007z" fill="#b7c5ff"/><path d="m304.029 357.869h-46.586c-2.766 0-5.007-2.242-5.007-5.007s2.241-5.007 5.007-5.007h46.586c2.766 0 5.007 2.242 5.007 5.007s-2.241 5.007-5.007 5.007z" fill="#b7c5ff"/><path d="m304.029 331.086h-46.586c-2.766 0-5.007-2.242-5.007-5.007s2.241-5.007 5.007-5.007h46.586c2.766 0 5.007 2.242 5.007 5.007s-2.241 5.007-5.007 5.007z" fill="#02ffb3"/><path d="m304.029 375.655h-46.586c-2.766 0-5.007-2.242-5.007-5.007s2.241-5.007 5.007-5.007h46.586c2.766 0 5.007 2.242 5.007 5.007s-2.241 5.007-5.007 5.007z" fill="#b7c5ff"/><path d="m304.029 393.44h-46.586c-2.766 0-5.007-2.242-5.007-5.007s2.241-5.007 5.007-5.007h46.586c2.766 0 5.007 2.242 5.007 5.007s-2.241 5.007-5.007 5.007z" fill="#b7c5ff"/><path d="m374.708 357.869h-46.586c-2.766 0-5.007-2.242-5.007-5.007s2.241-5.007 5.007-5.007h46.586c2.766 0 5.007 2.242 5.007 5.007s-2.241 5.007-5.007 5.007z" fill="#b7c5ff"/><path d="m374.708 331.086h-46.586c-2.766 0-5.007-2.242-5.007-5.007s2.241-5.007 5.007-5.007h46.586c2.766 0 5.007 2.242 5.007 5.007s-2.241 5.007-5.007 5.007z" fill="#6583fe"/><path d="m374.708 375.655h-46.586c-2.766 0-5.007-2.242-5.007-5.007s2.241-5.007 5.007-5.007h46.586c2.766 0 5.007 2.242 5.007 5.007s-2.241 5.007-5.007 5.007z" fill="#b7c5ff"/><path d="m374.708 393.44h-46.586c-2.766 0-5.007-2.242-5.007-5.007s2.241-5.007 5.007-5.007h46.586c2.766 0 5.007 2.242 5.007 5.007s-2.241 5.007-5.007 5.007z" fill="#b7c5ff"/><path d="m231.935 132.365c0-9.159-7.452-16.611-16.611-16.611s-16.611 7.452-16.611 16.611c0 4.517 1.818 8.613 4.753 11.611-2.936 2.997-4.753 7.094-4.753 11.611 0 2.761 2.239 5 5 5s5-2.239 5-5c0-3.645 2.966-6.611 6.611-6.611s6.611 2.966 6.611 6.611c0 2.761 2.239 5 5 5s5-2.239 5-5c0-4.517-1.818-8.613-4.753-11.611 2.935-2.998 4.753-7.094 4.753-11.611zm-16.611-6.611c3.645 0 6.611 2.966 6.611 6.611s-2.966 6.611-6.611 6.611-6.611-2.966-6.611-6.611 2.966-6.611 6.611-6.611z" fill="#ff7eb8"/><path d="m406.043 62.532v344.178c0 8.278-6.719 14.997-14.997 14.997h-219.954c-8.278 0-14.997-6.719-14.997-14.997v-344.178c0-8.278 6.719-14.997 14.997-14.997h219.954c8.279 0 14.997 6.719 14.997 14.997z" fill="url(#SVGID_2_)"/><g fill="#2d58e0"><path d="m137.246 115.639c-2.761 0-5 2.239-5 5v.146c0 2.761 2.239 5 5 5s5-2.239 5-5v-.146c0-2.762-2.239-5-5-5z"/><path d="m194.169 66.543c-2.761 0-5 2.239-5 5v.146c0 2.761 2.239 5 5 5s5-2.239 5-5v-.146c0-2.761-2.239-5-5-5z"/><path d="m213.49 66.543c-2.761 0-5 2.239-5 5v.146c0 2.761 2.239 5 5 5s5-2.239 5-5v-.146c0-2.761-2.239-5-5-5z"/><path d="m232.811 66.543c-2.761 0-5 2.239-5 5v.146c0 2.761 2.239 5 5 5s5-2.239 5-5v-.146c0-2.761-2.239-5-5-5z"/></g></g><g><path d="m449.984 165.796c-1.28 0-2.559-.488-3.536-1.464l-11.016-11.016c-1.953-1.953-1.953-5.119 0-7.071l11.016-11.016c1.953-1.952 5.118-1.952 7.071 0l11.016 11.016c1.953 1.953 1.953 5.119 0 7.071l-11.016 11.016c-.976.976-2.255 1.464-3.535 1.464zm-3.944-16.015 3.944 3.944 3.944-3.944-3.944-3.944z" fill="#97ffd2"/><path d="m62.015 326.432c-1.28 0-2.559-.488-3.536-1.464l-11.016-11.016c-1.953-1.953-1.953-5.119 0-7.071l11.016-11.016c1.953-1.952 5.118-1.952 7.071 0l11.016 11.016c1.953 1.953 1.953 5.119 0 7.071l-11.016 11.016c-.975.976-2.255 1.464-3.535 1.464zm-3.944-16.016 3.944 3.944 3.944-3.944-3.944-3.944z" fill="#ff7eb8"/><g fill="#6583fe"><path d="m438.969 240.489c-2.761 0-5-2.239-5-5 0-3.317-2.699-6.016-6.016-6.016-2.761 0-5-2.239-5-5s2.239-5 5-5c3.317 0 6.016-2.699 6.016-6.016 0-2.761 2.239-5 5-5s5 2.239 5 5c0 3.317 2.699 6.016 6.016 6.016 2.761 0 5 2.239 5 5s-2.239 5-5 5c-3.317 0-6.016 2.699-6.016 6.016 0 2.761-2.239 5-5 5z"/><path d="m123.634 73.227c-2.761 0-5-2.239-5-5 0-3.317-2.699-6.016-6.016-6.016-2.761 0-5-2.239-5-5s2.239-5 5-5c3.317 0 6.016-2.699 6.016-6.016 0-2.761 2.239-5 5-5s5 2.239 5 5c0 3.317 2.699 6.016 6.016 6.016 2.761 0 5 2.239 5 5s-2.239 5-5 5c-3.317 0-6.016 2.699-6.016 6.016 0 2.761-2.239 5-5 5z"/></g></g></g></svg>