<svg id="Capa_1" enable-background="new 0 0 512 512" height="512" viewBox="0 0 512 512" width="512" xmlns="http://www.w3.org/2000/svg" xmlns:xlink="http://www.w3.org/1999/xlink"><linearGradient id="SVGID_1_" gradientUnits="userSpaceOnUse" x1="35.587" x2="520.173" y1="133.183" y2="399.977"><stop offset=".0485" stop-color="#d2deff"/><stop offset=".9993" stop-color="#dcfdee"/></linearGradient><linearGradient id="SVGID_2_" gradientUnits="userSpaceOnUse" x1="256.001" x2="256.001" y1="109.474" y2="393.732"><stop offset=".0028" stop-color="#ff7eb8" stop-opacity="0"/><stop offset="1" stop-color="#ff7eb8" stop-opacity=".6"/></linearGradient><g><g><path d="m505.626 291.92c-11.826-34.61-38.138-60.16-69.852-72.202-16.43-6.239-27.346-21.856-27.587-39.429-.005-.384-.012-.769-.021-1.154-1.507-64.582-55.488-116.33-120.077-115.221-38.094.654-71.788 19.355-92.905 47.92-18.185 24.599-46.49 39.965-77.08 39.949-.898 0-1.797.009-2.7.029-61.917 1.355-114.567 54.478-115.393 116.404-.88 65.932 52.302 119.654 118.032 119.654 50.947 0 94.349-32.277 110.886-77.497 4.327-11.832 17.152-18.174 29.283-14.772.151.042.303.085.455.127 11.099 3.064 18.458 13.64 17.55 25.119-1.217 15.383.581 31.255 5.798 46.796 20.521 61.135 87.188 94.685 148.493 74.68 62.711-20.465 96.379-88.184 75.118-150.403z" fill="url(#SVGID_1_)"/><path d="m312.711 466.438h-113.424l22.683-89.907h68.059z" fill="#9fb0fe"/><path d="m297.929 407.834h-83.859l7.9-31.303h68.059z" fill="#8399fe"/><path d="m456.006 124.474v254.258c0 8.28-6.72 15-15 15h-370.011c-8.28 0-15-6.72-15-15v-254.258c0-8.28 6.72-15 15-15h370.011c8.28 0 15 6.72 15 15z" fill="#ffdbed"/><path d="m369.711 220.512-11.202-11.202c-1.876-1.875-4.419-2.929-7.072-2.929h-23.358c-1.261-7.034-3.52-13.716-6.635-19.9l13.369-13.369h11.7c2.761 0 5.262-1.12 7.071-2.929 1.81-1.81 2.929-4.31 2.929-7.071 0-5.523-4.478-10-10.001-10.001h-15.843c-2.652 0-5.196 1.054-7.071 2.929l-13.724 13.724c-13.386-14.527-32.565-23.635-53.876-23.635s-40.49 9.108-53.876 23.635l-13.722-13.724c-1.876-1.876-4.419-2.929-7.071-2.929h-15.843c-5.523 0-10 4.478-10.001 10.001 0 2.761 1.12 5.262 2.929 7.071 1.81 1.81 4.31 2.929 7.071 2.929h11.7l13.369 13.369c-3.115 6.184-5.375 12.866-6.635 19.9h-23.358c-2.652 0-5.196 1.054-7.071 2.929l-11.202 11.202c-3.905 3.905-3.905 10.238 0 14.143 1.953 1.952 4.512 2.929 7.071 2.929s5.119-.977 7.072-2.929l8.273-8.274h18.383c1.049 11.064 4.559 21.408 9.977 30.485-.042.04-.087.075-.128.116l-15.75 15.75h-11.7c-2.761 0-5.262 1.12-7.071 2.929-1.81 1.81-2.929 4.31-2.929 7.071 0 5.523 4.478 10 10.001 10.001h15.843c2.652 0 5.196-1.054 7.071-2.929l17.247-17.247c13.128 12.435 30.843 20.078 50.353 20.078s37.225-7.642 50.353-20.078l17.247 17.247c1.876 1.876 4.419 2.929 7.071 2.929h15.843c5.523 0 10-4.478 10.001-10.001 0-2.761-1.12-5.262-2.929-7.071-1.81-1.81-4.31-2.929-7.071-2.929h-11.7l-15.75-15.75c-.041-.041-.086-.076-.128-.116 5.418-9.077 8.928-19.421 9.977-30.485h18.383l8.273 8.274c1.953 1.952 4.512 2.929 7.072 2.929 2.559 0 5.119-.977 7.072-2.929 3.901-3.905 3.901-10.238-.004-14.143z" fill="#ffc4df"/><g fill="#9fb0fe"><path d="m145.926 192.619h270.094c2.833 0 5.129-2.296 5.129-5.129 0-2.832-2.296-5.129-5.129-5.129h-270.094c-2.833 0-5.129 2.296-5.129 5.129 0 2.832 2.296 5.129 5.129 5.129z"/><path d="m95.98 192.619h24.607c2.833 0 5.129-2.296 5.129-5.129 0-2.832-2.296-5.129-5.129-5.129h-24.607c-2.833 0-5.129 2.296-5.129 5.129 0 2.832 2.296 5.129 5.129 5.129z"/><path d="m95.98 212.963h320.04c2.833 0 5.129-2.296 5.129-5.129 0-2.832-2.296-5.129-5.129-5.129h-320.04c-2.833 0-5.129 2.296-5.129 5.129 0 2.832 2.296 5.129 5.129 5.129z"/><path d="m421.145 239.033c0 2.83-2.29 5.13-5.12 5.13h-270.098c-2.83 0-5.13-2.3-5.13-5.13 0-1.61.74-3.04 1.9-3.98.88-.72 2.01-1.15 3.23-1.15h270.098c2.83 0 5.12 2.3 5.12 5.13z"/></g><path d="m145.927 233.903h11.25l-.75.75c-1.95 1.95-4.51 2.93-7.07 2.93-2.38 0-4.77-.85-6.66-2.53.88-.72 2.01-1.15 3.23-1.15z" fill="#8399fe"/><path d="m370.393 233.903c-.21.26-.44.51-.68.75-1.95 1.95-4.51 2.93-7.07 2.93s-5.12-.98-7.07-2.93l-.75-.75z" fill="#8399fe"/><path d="m95.98 244.159h24.607c2.833 0 5.129-2.296 5.129-5.129 0-2.832-2.296-5.129-5.129-5.129h-24.607c-2.833 0-5.129 2.296-5.129 5.129s2.296 5.129 5.129 5.129z" fill="#9fb0fe"/><path d="m95.98 264.503h320.04c2.833 0 5.129-2.296 5.129-5.129 0-2.832-2.296-5.129-5.129-5.129h-320.04c-2.833 0-5.129 2.296-5.129 5.129s2.296 5.129 5.129 5.129z" fill="#9fb0fe"/><path d="m421.145 290.574c0 2.83-2.29 5.12-5.12 5.12h-270.098c-2.83 0-5.13-2.29-5.13-5.12 0-2.84 2.3-5.13 5.13-5.13h270.098c2.83 0 5.12 2.29 5.12 5.13z" fill="#9fb0fe"/><path d="m157.287 285.444h32.471l-1.36 1.36c-1.87 1.88-4.42 2.93-7.07 2.93h-15.84c-3.401 0-6.401-1.7-8.201-4.29z" fill="#8399fe"/><path d="m231.549 285.444h48.901c-7.64 2.71-15.87 4.19-24.451 4.19-8.579 0-16.81-1.48-24.45-4.19z" fill="#8399fe"/><path d="m354.713 285.444c-1.8 2.59-4.8 4.29-8.2 4.29h-15.84c-2.65 0-5.2-1.05-7.07-2.93l-1.36-1.36z" fill="#8399fe"/><path d="m95.98 295.699h24.607c2.833 0 5.129-2.296 5.129-5.129s-2.296-5.129-5.129-5.129h-24.607c-2.833 0-5.129 2.296-5.129 5.129s2.296 5.129 5.129 5.129z" fill="#9fb0fe"/><path d="m95.98 316.044h320.04c2.833 0 5.129-2.296 5.129-5.129 0-2.832-2.296-5.129-5.129-5.129h-320.04c-2.833 0-5.129 2.296-5.129 5.129 0 2.832 2.296 5.129 5.129 5.129z" fill="#9fb0fe"/><path d="m456.006 157.647v-33.172c0-8.285-6.716-15-15-15h-370.011c-8.285 0-15 6.716-15 15v33.172z" fill="#6583fe"/><path d="m456.006 343.336v35.391c0 8.29-6.72 15-15 15h-370.011c-8.28 0-15-6.71-15-15v-35.391z" fill="#b7c5ff"/><path d="m456.006 343.336v34.261h-91.263c-3.83 0-6.19-4.16-4.24-7.45l15.95-26.811z" fill="#9fb0fe"/><path d="m147.257 377.597h-91.263v-34.261h79.552l15.95 26.811c1.951 3.29-.409 7.45-4.239 7.45z" fill="#9fb0fe"/><path d="m456.006 124.474v254.258c0 8.28-6.72 15-15 15h-370.011c-8.28 0-15-6.72-15-15v-254.258c0-8.28 6.72-15 15-15h370.011c8.28 0 15 6.72 15 15z" fill="url(#SVGID_2_)"/><g fill="#ff5ba8"><path d="m362.64 225.583c-2.559 0-5.119-.977-7.071-2.929l-8.273-8.274h-22.274c-5.523 0-10-4.478-10-10 0-5.523 4.477-10 10-10h26.416c2.652 0 5.196 1.054 7.071 2.929l11.202 11.202c3.905 3.905 3.905 10.238 0 14.143-1.953 1.953-4.512 2.929-7.071 2.929z"/><path d="m149.36 225.583c2.559 0 5.119-.977 7.072-2.929l8.273-8.274h22.274c5.523 0 10-4.478 10-10 0-5.523-4.477-10-10-10h-26.416c-2.652 0-5.196 1.054-7.072 2.929l-11.202 11.202c-3.905 3.905-3.905 10.238 0 14.143 1.953 1.953 4.512 2.929 7.071 2.929z"/><path d="m353.585 158.183c-1.81 1.81-4.31 2.929-7.071 2.929h-11.7l-15.75 15.75c-3.905 3.905-10.237 3.905-14.143 0-3.905-3.905-3.905-10.237 0-14.143l18.679-18.679c1.876-1.876 4.419-2.929 7.071-2.929h15.843c5.523 0 10 4.478 10.001 10.001-.001 2.76-1.12 5.261-2.93 7.071z"/><path d="m158.415 158.183c1.81 1.81 4.31 2.929 7.071 2.929h11.7l15.75 15.75c3.905 3.905 10.237 3.905 14.143 0 3.905-3.905 3.905-10.237 0-14.143l-18.679-18.679c-1.876-1.876-4.419-2.929-7.071-2.929h-15.843c-5.523 0-10 4.478-10.001 10.001.001 2.76 1.12 5.261 2.93 7.071z"/><path d="m158.415 263.661c1.81-1.81 4.31-2.929 7.071-2.929h11.7l15.75-15.75c3.905-3.905 10.237-3.905 14.143 0 3.905 3.905 3.905 10.237 0 14.143l-18.679 18.679c-1.876 1.876-4.419 2.929-7.071 2.929h-15.843c-5.523 0-10-4.478-10.001-10.001.001-2.761 1.12-5.261 2.93-7.071z"/><path d="m353.585 263.661c-1.81-1.81-4.31-2.929-7.071-2.929h-11.7l-15.75-15.75c-3.905-3.905-10.237-3.905-14.143 0-3.905 3.905-3.905 10.237 0 14.143l18.679 18.679c1.876 1.876 4.419 2.929 7.071 2.929h15.843c5.523 0 10-4.478 10.001-10.001-.001-2.761-1.12-5.261-2.93-7.071z"/></g><ellipse cx="256" cy="122.95" fill="#ffc4df" rx="31.501" ry="31.501" transform="matrix(.924 -.383 .383 .924 -27.564 107.326)"/><ellipse cx="256" cy="207.381" fill="#02ffb3" rx="73.253" ry="73.253" transform="matrix(.16 -.987 .987 .16 10.29 426.857)"/><path d="m364.743 365.599h115.817c3.825 0 6.194-4.166 4.239-7.453l-57.909-97.348c-1.912-3.214-6.565-3.214-8.477 0l-57.909 97.348c-1.955 3.287.414 7.453 4.239 7.453z" fill="#02ffb3"/><path d="m422.652 332.767c-2.761 0-5-2.238-5-5v-29.391c0-2.762 2.239-5 5-5s5 2.238 5 5v29.391c0 2.761-2.239 5-5 5z" fill="#fff"/><path d="m422.652 348.61c-2.761 0-5-2.238-5-5v-.115c0-2.762 2.239-5 5-5s5 2.238 5 5v.115c0 2.762-2.239 5-5 5z" fill="#fff"/><path d="m31.44 365.599h115.818c3.825 0 6.194-4.166 4.239-7.453l-57.909-97.348c-1.912-3.214-6.565-3.214-8.477 0l-57.909 97.348c-1.957 3.287.412 7.453 4.238 7.453z" fill="#02ffb3"/><path d="m89.348 332.767c-2.761 0-5-2.238-5-5v-29.391c0-2.762 2.239-5 5-5s5 2.238 5 5v29.391c0 2.761-2.239 5-5 5z" fill="#fff"/><path d="m89.348 348.61c-2.761 0-5-2.238-5-5v-.115c0-2.762 2.239-5 5-5s5 2.238 5 5v.115c0 2.762-2.239 5-5 5z" fill="#fff"/><path d="m94.077 138.633c2.761 0 5-2.238 5-5v-.146c0-2.762-2.239-5-5-5s-5 2.238-5 5v.146c0 2.762 2.239 5 5 5z" fill="#2d58e0"/><path d="m113.402 138.633c2.761 0 5-2.238 5-5v-.146c0-2.762-2.239-5-5-5s-5 2.238-5 5v.146c0 2.762 2.239 5 5 5z" fill="#2d58e0"/><path d="m132.728 138.633c2.761 0 5-2.238 5-5v-.146c0-2.762-2.239-5-5-5s-5 2.238-5 5v.146c0 2.762 2.239 5 5 5z" fill="#2d58e0"/><path d="m331.937 461.432h-151.872c-2.761 0-5 2.238-5 5s2.239 5 5 5h151.872c2.761 0 5-2.238 5-5s-2.239-5-5-5z" fill="#6583fe"/><path d="m240.074 90.112s4.95 5.121 15.926 5.121 15.924-5.121 15.924-5.121c2.67-2.343 5.039-5.276 6.966-8.725 1.347-2.411.484-5.457-1.927-6.804-2.411-1.345-5.457-.483-6.804 1.927-3.528 6.316-8.689 9.938-14.16 9.938s-10.632-3.622-14.16-9.938c-1.346-2.41-4.392-3.272-6.804-1.927-2.411 1.347-3.273 4.393-1.927 6.804 1.926 3.448 4.296 6.382 6.966 8.725z" fill="#ff7eb8"/><path d="m311.285 159.353h-110.57c-2.711 3.117-5.177 6.453-7.335 10h57.343v111.071c1.745.124 3.5.21 5.277.21 1.589 0 3.16-.068 4.724-.168v-111.113h57.896c-2.159-3.547-4.625-6.883-7.335-10z" fill="#00d890"/></g><g><path d="m160.932 448.132c-1.28 0-2.559-.488-3.536-1.465l-10.995-10.995c-1.953-1.952-1.953-5.118 0-7.07l10.995-10.995c1.953-1.953 5.118-1.953 7.071 0l10.995 10.995c1.953 1.952 1.953 5.118 0 7.07l-10.995 10.995c-.976.977-2.255 1.465-3.535 1.465zm-3.924-15.995 3.924 3.924 3.924-3.924-3.924-3.924z" fill="#6583fe"/><path d="m113.402 464.211c-1.326 0-2.598-.527-3.536-1.465l-10.994-10.996c-1.953-1.952-1.953-5.118 0-7.07l10.995-10.995c1.953-1.953 5.118-1.953 7.071 0l10.996 10.995c.938.938 1.464 2.209 1.464 3.535s-.527 2.598-1.464 3.535l-10.996 10.996c-.938.939-2.209 1.465-3.536 1.465zm-3.924-15.996 3.924 3.925 3.924-3.925-3.924-3.924z" fill="#ff7eb8"/><path d="m362.608 72.559c-1.28 0-2.559-.488-3.536-1.465l-10.996-10.995c-.938-.938-1.464-2.209-1.464-3.535s.527-2.598 1.464-3.535l10.996-10.996c.938-.938 2.209-1.465 3.536-1.465 1.326 0 2.598.527 3.536 1.465l10.995 10.996c1.953 1.952 1.953 5.118 0 7.07l-10.995 10.995c-.977.976-2.256 1.465-3.536 1.465zm-3.924-15.996 3.924 3.924 3.924-3.924-3.924-3.925z" fill="#ff7eb8"/><path d="m188.269 80.205c-2.761 0-5-2.238-5-5 0-3.318-2.7-6.019-6.018-6.019-2.761 0-5-2.238-5-5s2.239-5 5-5c3.318 0 6.018-2.7 6.018-6.019 0-2.762 2.239-5 5-5s5 2.238 5 5c0 3.318 2.7 6.019 6.019 6.019 2.761 0 5 2.238 5 5s-2.239 5-5 5c-3.319 0-6.019 2.7-6.019 6.019 0 2.762-2.239 5-5 5z" fill="#97ffd2"/></g></g></svg>