<svg id="Capa_1" enable-background="new 0 0 512 512" height="512" viewBox="0 0 512 512" width="512" xmlns="http://www.w3.org/2000/svg" xmlns:xlink="http://www.w3.org/1999/xlink"><linearGradient id="SVGID_1_" gradientUnits="userSpaceOnUse" x1="-24.497" x2="527.556" y1="185.444" y2="332.658"><stop offset=".0485" stop-color="#d2deff"/><stop offset=".9993" stop-color="#dcfdee"/></linearGradient><linearGradient id="SVGID_2_" gradientUnits="userSpaceOnUse" x1="256" x2="256" y1="53.5" y2="458.5"><stop offset=".0028" stop-color="#ff7eb8" stop-opacity="0"/><stop offset="1" stop-color="#ff7eb8" stop-opacity=".6"/></linearGradient><g><g><g><path d="m382.606 163.516c-.192-.001-.385-.002-.577-.002-32.034-.05-62.385-13.844-83.44-37.986-31.366-35.964-77.6-58.622-129.121-58.393-93.512.414-170.663 78.98-169.454 172.485 1.203 92.986 76.955 167.995 170.227 167.995 26.343 0 51.286-5.987 73.547-16.672 19.194-9.213 42.065-6.784 58.968 6.161 21.863 16.745 49.19 26.713 78.846 26.763 71.382.119 129.981-58.02 130.396-129.401.418-72.049-57.442-130.527-129.392-130.95z" fill="url(#SVGID_1_)"/><path d="m396.259 68.527v374.946c0 8.289-6.738 15.027-15.027 15.027h-250.464c-8.289 0-15.027-6.738-15.027-15.027v-374.946c0-8.289 6.738-15.027 15.027-15.027h250.465c8.288 0 15.026 6.737 15.026 15.027z" fill="#fff"/><path d="m115.74 100.782h280.52v130.217h-280.52z" fill="#dcfdee"/><path d="m329.343 230.891c4.207-6.568 6.656-14.371 6.656-22.75 0-23.334-18.916-42.25-42.25-42.25s-42.25 18.916-42.25 42.25c0 8.379 2.449 16.182 6.656 22.75z" fill="#02ffb3"/><path d="m396.26 208.62v22.38h-280.52v-31.2l93.66-39.367c2.896-1.217 6.196-1.003 8.91.579l77.189 44.988 43.276-26.323c3.207-1.95 7.235-1.941 10.433.024z" fill="#ff7eb8"/><path d="m396.257 101.763v-33.232c0-8.299-6.728-15.028-15.028-15.028h-250.459c-8.299 0-15.028 6.728-15.028 15.028v33.232z" fill="#6583fe"/><path d="m190.931 324.847h-35.077c-2.765 0-5.007 2.242-5.007 5.007s2.242 5.007 5.007 5.007h35.292c2.928 0 5.269-2.513 4.984-5.499-.249-2.603-2.584-4.515-5.199-4.515z" fill="#b7c5ff"/><circle cx="173.5" cy="284.547" fill="#ffa8cf" r="25.966"/><path d="m167.517 299.535c-.733 0-1.475-.183-2.158-.569-2.116-1.195-2.863-3.878-1.668-5.993l11.958-21.176c1.194-2.115 3.878-2.862 5.992-1.668 2.116 1.195 2.863 3.878 1.668 5.993l-11.958 21.176c-.808 1.432-2.299 2.237-3.834 2.237z" fill="#fff"/><path d="m273.431 324.847h-35.077c-2.765 0-5.007 2.242-5.007 5.007s2.242 5.007 5.007 5.007h35.292c2.928 0 5.269-2.513 4.984-5.499-.249-2.603-2.584-4.515-5.199-4.515z" fill="#b7c5ff"/><g fill="#02ffb3"><path d="m210.552 120.12h-65.077c-2.765 0-5.007 2.242-5.007 5.007s2.242 5.007 5.007 5.007h65.292c2.928 0 5.269-2.513 4.984-5.499-.248-2.604-2.584-4.515-5.199-4.515z"/><path d="m181.978 140.638h-23.077c-2.765 0-5.007 2.242-5.007 5.007s2.242 5.007 5.007 5.007h23.292c2.928 0 5.269-2.513 4.984-5.499-.248-2.604-2.584-4.515-5.199-4.515z"/><path d="m359.244 139.623h-35.077c-2.765 0-5.007 2.242-5.007 5.007s2.242 5.007 5.007 5.007h35.292c2.928 0 5.269-2.513 4.984-5.499-.249-2.603-2.584-4.515-5.199-4.515z"/></g><circle cx="256" cy="284.547" fill="#ffa8cf" r="25.966"/><path d="m250.017 299.535c-.733 0-1.475-.183-2.158-.569-2.116-1.195-2.863-3.878-1.668-5.993l11.958-21.176c1.194-2.115 3.878-2.862 5.993-1.668 2.116 1.195 2.863 3.878 1.668 5.993l-11.959 21.176c-.808 1.432-2.299 2.237-3.834 2.237z" fill="#fff"/><path d="m355.931 324.847h-35.077c-2.765 0-5.007 2.242-5.007 5.007s2.242 5.007 5.007 5.007h35.292c2.928 0 5.269-2.513 4.984-5.499-.249-2.603-2.584-4.515-5.199-4.515z" fill="#b7c5ff"/><ellipse cx="338.5" cy="284.547" fill="#ffa8cf" rx="25.966" ry="25.966" transform="matrix(.16 -.987 .987 .16 3.405 573.097)"/><path d="m332.517 299.535c-.733 0-1.475-.183-2.158-.569-2.116-1.195-2.863-3.878-1.668-5.993l11.957-21.176c1.194-2.115 3.878-2.862 5.993-1.668 2.116 1.195 2.863 3.878 1.668 5.993l-11.958 21.176c-.808 1.432-2.299 2.237-3.834 2.237z" fill="#fff"/><path d="m291.047 380.769h-119.98c-2.829 0-5.123-2.294-5.123-5.123s2.293-5.123 5.123-5.123h119.981c2.829 0 5.123 2.294 5.123 5.123-.001 2.829-2.294 5.123-5.124 5.123z" fill="#b7c5ff"/><path d="m340.933 380.769h-24.577c-2.829 0-5.123-2.294-5.123-5.123s2.293-5.123 5.123-5.123h24.577c2.829 0 5.123 2.294 5.123 5.123s-2.294 5.123-5.123 5.123z" fill="#ffa8cf"/><path d="m340.933 401.089h-169.866c-2.829 0-5.123-2.294-5.123-5.123s2.293-5.123 5.123-5.123h169.866c2.829 0 5.123 2.294 5.123 5.123s-2.294 5.123-5.123 5.123z" fill="#b7c5ff"/><path d="m340.933 421.408h-169.866c-2.829 0-5.123-2.294-5.123-5.123s2.293-5.123 5.123-5.123h169.866c2.829 0 5.123 2.294 5.123 5.123 0 2.83-2.294 5.123-5.123 5.123z" fill="#b7c5ff"/><path d="m396.259 68.527v374.946c0 8.289-6.738 15.027-15.027 15.027h-250.464c-8.289 0-15.027-6.738-15.027-15.027v-374.946c0-8.289 6.738-15.027 15.027-15.027h250.465c8.288 0 15.026 6.737 15.026 15.027z" fill="url(#SVGID_2_)"/></g><g><path d="m455.009 352.852c-2.761 0-5-2.239-5-5 0-3.313-2.696-6.009-6.009-6.009-2.761 0-5-2.239-5-5s2.239-5 5-5c3.313 0 6.009-2.696 6.009-6.009 0-2.761 2.239-5 5-5s5 2.239 5 5c0 3.313 2.695 6.009 6.009 6.009 2.761 0 5 2.239 5 5s-2.239 5-5 5c-3.313 0-6.009 2.695-6.009 6.009 0 2.761-2.239 5-5 5z" fill="#6583fe"/><path d="m56.991 249.136c-2.761 0-5-2.239-5-5 0-3.313-2.696-6.009-6.009-6.009-2.761 0-5-2.239-5-5s2.239-5 5-5c3.313 0 6.009-2.695 6.009-6.009 0-2.761 2.239-5 5-5s5 2.239 5 5c0 3.313 2.695 6.009 6.009 6.009 2.761 0 5 2.239 5 5s-2.239 5-5 5c-3.313 0-6.009 2.696-6.009 6.009 0 2.761-2.239 5-5 5z" fill="#ff7eb8"/><path d="m80.009 189.316c-2.761 0-5-2.239-5-5 0-3.313-2.696-6.009-6.009-6.009-2.761 0-5-2.239-5-5s2.239-5 5-5c3.313 0 6.009-2.696 6.009-6.009 0-2.761 2.239-5 5-5s5 2.239 5 5c0 3.313 2.695 6.009 6.009 6.009 2.761 0 5 2.239 5 5s-2.239 5-5 5c-3.313 0-6.009 2.695-6.009 6.009 0 2.761-2.239 5-5 5z" fill="#6583fe"/><path d="m432 155.179c-1.28 0-2.559-.488-3.536-1.464l-11.016-11.016c-1.953-1.953-1.953-5.119 0-7.071l11.016-11.016c1.953-1.952 5.118-1.952 7.071 0l11.016 11.016c1.953 1.953 1.953 5.119 0 7.071l-11.016 11.016c-.976.976-2.255 1.464-3.535 1.464zm-3.944-16.016 3.944 3.945 3.944-3.944-3.944-3.945z" fill="#97ffd2"/></g></g><g fill="#2d58e0"><path d="m153.894 82.706c-2.761 0-5-2.239-5-5v-.146c0-2.761 2.239-5 5-5s5 2.239 5 5v.146c0 2.762-2.238 5-5 5z"/><path d="m173.255 82.706c-2.761 0-5-2.239-5-5v-.146c0-2.761 2.239-5 5-5s5 2.239 5 5v.146c0 2.762-2.239 5-5 5z"/><path d="m192.615 82.706c-2.761 0-5-2.239-5-5v-.146c0-2.761 2.239-5 5-5s5 2.239 5 5v.146c0 2.762-2.239 5-5 5z"/></g></g></svg>