<svg id="Capa_1" enable-background="new 0 0 512 512" height="512" viewBox="0 0 512 512" width="512" xmlns="http://www.w3.org/2000/svg" xmlns:xlink="http://www.w3.org/1999/xlink"><linearGradient id="SVGID_1_" gradientUnits="userSpaceOnUse" x1="-7.851" x2="518.431" y1="175.08" y2="359.17"><stop offset=".0485" stop-color="#d2deff"/><stop offset=".9993" stop-color="#dcfdee"/></linearGradient><linearGradient id="SVGID_2_" gradientUnits="userSpaceOnUse" x1="255.999" x2="255.999" y1="55.503" y2="456.5"><stop offset=".0028" stop-color="#ff7eb8" stop-opacity="0"/><stop offset="1" stop-color="#ff7eb8" stop-opacity=".6"/></linearGradient><g><g><path d="m382.606 163.517c-.192-.001-.385-.002-.577-.002-32.034-.05-62.385-13.844-83.44-37.986-31.366-35.964-77.6-58.622-129.121-58.393-93.512.415-170.663 78.981-169.454 172.485 1.203 92.986 76.955 167.995 170.227 167.995 26.343 0 51.286-5.987 73.547-16.672 19.194-9.213 42.065-6.784 58.968 6.161 21.863 16.745 49.19 26.713 78.846 26.763 71.382.119 129.981-58.02 130.396-129.401.418-72.049-57.442-130.526-129.392-130.95z" fill="url(#SVGID_1_)"/><path d="m375.727 73.522v364.959c0 9.951-8.069 18.019-18.019 18.019h-203.417c-9.951 0-18.019-8.069-18.019-18.019v-364.959c0-9.951 8.069-18.019 18.019-18.019h203.417c9.95-.001 18.019 8.068 18.019 18.019z" fill="#fff"/><path d="m136.272 379.176v59.305c0 9.951 8.069 18.019 18.019 18.019h203.417c9.951 0 18.019-8.069 18.019-18.019v-59.305z" fill="#ffc4df"/><path d="m327.382 80.343 8.004-24.843h-158.772l8.004 24.843c1.159 3.598 4.477 6.032 8.22 6.032h126.324c3.743.001 7.061-2.434 8.22-6.032z" fill="#b7c5ff"/><path d="m289.184 320.002h-66.368c-2.82 0-5.106-2.311-5.106-5.161s2.286-5.161 5.106-5.161h66.368c2.82 0 5.106 2.311 5.106 5.161s-2.286 5.161-5.106 5.161z" fill="#02ffb3"/><path d="m271.243 339.145h-30.486c-2.82 0-5.106-2.311-5.106-5.161s2.286-5.161 5.106-5.161h30.486c2.82 0 5.106 2.311 5.106 5.161s-2.286 5.161-5.106 5.161z" fill="#b7c5ff"/><path d="m271.243 358.288h-30.486c-2.82 0-5.106-2.311-5.106-5.161s2.286-5.161 5.106-5.161h30.486c2.82 0 5.106 2.311 5.106 5.161s-2.286 5.161-5.106 5.161z" fill="#b7c5ff"/><g fill="#ff7eb8"><ellipse cx="272.855" cy="412.814" rx="5.572" ry="5.632"/><ellipse cx="256" cy="412.814" rx="5.572" ry="5.632"/><ellipse cx="239.145" cy="412.814" rx="5.572" ry="5.632"/></g><path d="m256.002 136.341-86.123 72.737h20.029c1.659 0 3.004 1.345 3.004 3.004v76.962c0 1.659 1.345 3.004 3.004 3.004h120.172c1.659 0 3.004-1.345 3.004-3.004v-76.962c0-1.659 1.345-3.004 3.004-3.004h20.029z" fill="#ffa8cf"/><path d="m342.122 214.078c-1.14 0-2.285-.388-3.224-1.18l-82.897-70.013-82.897 70.013c-2.109 1.78-5.264 1.516-7.046-.594s-1.516-5.265.594-7.047l86.124-72.737c1.863-1.572 4.589-1.572 6.452 0l86.123 72.737c2.11 1.782 2.375 4.937.594 7.047-.989 1.172-2.401 1.774-3.823 1.774z" fill="#ff7eb8"/><g fill="#6583fe"><path d="m260.341 292.049h-42.06v-67.762c0-2.765 2.242-5.007 5.007-5.007h32.046c2.765 0 5.007 2.242 5.007 5.007z"/><circle cx="285.305" cy="231.964" r="12.685"/><path d="m198.138 129.084c0-9.17-7.46-16.63-16.63-16.63s-16.63 7.46-16.63 16.63c0 4.525 1.822 8.628 4.764 11.63-2.942 3.001-4.764 7.105-4.764 11.63 0 2.762 2.239 5 5 5s5-2.238 5-5c0-3.655 2.974-6.63 6.63-6.63s6.63 2.975 6.63 6.63c0 2.762 2.239 5 5 5s5-2.238 5-5c0-4.525-1.822-8.628-4.764-11.63 2.942-3.001 4.764-7.105 4.764-11.63zm-16.63-6.63c3.656 0 6.63 2.975 6.63 6.63s-2.974 6.63-6.63 6.63-6.63-2.975-6.63-6.63 2.974-6.63 6.63-6.63z"/></g><path d="m375.727 73.522v364.959c0 9.951-8.069 18.019-18.019 18.019h-203.417c-9.951 0-18.019-8.069-18.019-18.019v-364.959c0-9.951 8.069-18.019 18.019-18.019h203.417c9.95-.001 18.019 8.068 18.019 18.019z" fill="url(#SVGID_2_)"/></g><g><path d="m413.5 162.522c-2.761 0-5-2.238-5-5 0-3.326-2.706-6.032-6.031-6.032-2.761 0-5-2.238-5-5s2.239-5 5-5c3.326 0 6.031-2.706 6.031-6.031 0-2.762 2.239-5 5-5s5 2.238 5 5c0 3.325 2.706 6.031 6.031 6.031 2.761 0 5 2.238 5 5s-2.239 5-5 5c-3.326 0-6.031 2.706-6.031 6.032 0 2.761-2.238 5-5 5z" fill="#97ffd2"/><path d="m92.7 329.132c-2.761 0-5-2.238-5-5 0-3.325-2.706-6.031-6.032-6.031-2.761 0-5-2.238-5-5s2.239-5 5-5c3.326 0 6.032-2.706 6.032-6.032 0-2.762 2.239-5 5-5s5 2.238 5 5c0 3.326 2.706 6.032 6.031 6.032 2.761 0 5 2.238 5 5s-2.239 5-5 5c-3.326 0-6.031 2.706-6.031 6.031 0 2.762-2.239 5-5 5z" fill="#6583fe"/><path d="m419.322 227.2c-1.28 0-2.559-.488-3.536-1.465l-11.01-11.01c-1.953-1.952-1.953-5.118 0-7.07l11.01-11.01c1.953-1.953 5.118-1.953 7.071 0l11.01 11.01c1.953 1.952 1.953 5.118 0 7.07l-11.01 11.01c-.976.977-2.255 1.465-3.535 1.465zm-3.938-16.009 3.938 3.938 3.938-3.938-3.938-3.938z" fill="#ff7eb8"/><path d="m101.979 273.529c-2.761 0-5-2.238-5-5 0-3.326-2.706-6.032-6.031-6.032-2.761 0-5-2.238-5-5s2.239-5 5-5c3.326 0 6.031-2.706 6.031-6.031 0-2.762 2.239-5 5-5s5 2.238 5 5c0 3.325 2.706 6.031 6.032 6.031 2.761 0 5 2.238 5 5s-2.239 5-5 5c-3.326 0-6.032 2.706-6.032 6.032 0 2.762-2.239 5-5 5z" fill="#6583fe"/></g></g></svg>