<svg id="Capa_1" enable-background="new 0 0 512 512" height="512" viewBox="0 0 512 512" width="512" xmlns="http://www.w3.org/2000/svg" xmlns:xlink="http://www.w3.org/1999/xlink"><linearGradient id="SVGID_1_" gradientUnits="userSpaceOnUse" x1="-14.47" x2="533.47" y1="276.266" y2="241.614"><stop offset=".0485" stop-color="#ffdbed"/><stop offset=".9993" stop-color="#d2deff"/></linearGradient><linearGradient id="SVGID_2_" gradientUnits="userSpaceOnUse" x1="255.998" x2="255.998" y1="111.059" y2="395.309"><stop offset=".0028" stop-color="#ff7eb8" stop-opacity="0"/><stop offset="1" stop-color="#ff7eb8" stop-opacity=".6"/></linearGradient><g><g><path d="m482.969 143.723c-34.945-35.948-89.48-40.907-129.831-14.878-11.48 7.405-25.381 9.888-38.717 6.927-31.565-7.009-64.584-2.222-92.707 13.042-18.907 10.261-41.936 8.477-59.579-3.83-11.712-8.169-25.312-14.023-40.257-16.777-55.438-10.216-109.337 26.553-119.994 81.908-10.899 56.609 26.628 111.013 83.196 121.088 13.821 2.462 27.488 2.047 40.388-.816 20.936-4.646 42.81 3.122 56.321 19.776 8.528 10.512 18.812 19.894 30.757 27.689 61.731 40.28 144.427 22.89 184.707-38.84.043-.065.085-.131.128-.196 7.377-11.349 18.851-19.44 32.12-22.119 19.353-3.907 37.801-13.404 52.756-28.495 39.373-39.731 39.701-104.369.712-144.479z" fill="url(#SVGID_1_)"/><path d="m312.712 468.016h-113.421l22.682-89.904h68.057z" fill="#9fb0fe"/><path d="m297.93 409.414h-83.857l7.9-31.302h68.057z" fill="#8399fe"/><path d="m455.998 126.059v254.25c0 8.28-6.72 15-15 15h-370c-8.28 0-15-6.72-15-15v-254.25c0-8.28 6.72-15 15-15h370c8.28 0 15 6.719 15 15z" fill="#fff"/><path d="m440.998 111.059h-68.72v284.25h68.72c8.28 0 15-6.72 15-15v-254.25c0-8.281-6.72-15-15-15z" fill="#ffc4df"/><path d="m256.002 198.553-86 72.633h20c1.657 0 3 1.343 3 3v79.852h126v-79.852c0-1.657 1.343-3 3-3h20z" fill="#ffa8cf"/><path d="m342 276.185c-1.14 0-2.285-.388-3.224-1.18l-82.774-69.908-82.774 69.908c-2.109 1.781-5.265 1.517-7.046-.594-1.782-2.11-1.516-5.265.594-7.047l86-72.633c1.863-1.572 4.589-1.572 6.452 0l86 72.633c2.11 1.782 2.375 4.937.594 7.047-.989 1.172-2.401 1.774-3.822 1.774z" fill="#ff7eb8"/><path d="m260.335 354.038h-42v-67.665c0-2.761 2.239-5 5-5h32c2.761 0 5 2.239 5 5z" fill="#6583fe"/><circle cx="285.263" cy="294.039" fill="#6583fe" r="12.667"/><path d="m456.002 159.234v-33.171c0-8.284-6.716-15-15-15h-370c-8.284 0-15 6.716-15 15v33.171z" fill="#6583fe"/><path d="m56.002 344.919v35.39c0 8.284 6.716 15 15 15h370c8.284 0 15-6.716 15-15v-35.39z" fill="#b7c5ff"/><path d="m124.295 219.266h-34.586c-2.766 0-5.007-2.242-5.007-5.007s2.241-5.007 5.007-5.007h34.586c2.766 0 5.007 2.242 5.007 5.007s-2.242 5.007-5.007 5.007z" fill="#b7c5ff"/><g fill="#ffa8cf"><path d="m429.295 254.835h-34.586c-2.766 0-5.007-2.242-5.007-5.007s2.241-5.007 5.007-5.007h34.586c2.766 0 5.007 2.242 5.007 5.007 0 2.766-2.242 5.007-5.007 5.007z"/><path d="m429.295 276.193h-34.586c-2.766 0-5.007-2.242-5.007-5.007s2.241-5.007 5.007-5.007h34.586c2.766 0 5.007 2.242 5.007 5.007s-2.242 5.007-5.007 5.007z"/><path d="m429.295 297.549h-34.586c-2.766 0-5.007-2.242-5.007-5.007s2.241-5.007 5.007-5.007h34.586c2.766 0 5.007 2.242 5.007 5.007s-2.242 5.007-5.007 5.007z"/></g><path d="m166.295 192.482h-76.586c-2.766 0-5.007-2.242-5.007-5.007s2.241-5.007 5.007-5.007h76.586c2.766 0 5.007 2.242 5.007 5.007s-2.242 5.007-5.007 5.007z" fill="#02ffb3"/><path d="m124.295 237.051h-34.586c-2.766 0-5.007-2.242-5.007-5.007s2.241-5.007 5.007-5.007h34.586c2.766 0 5.007 2.242 5.007 5.007s-2.242 5.007-5.007 5.007z" fill="#ffa8cf"/><path d="m124.295 254.835h-34.586c-2.766 0-5.007-2.242-5.007-5.007s2.241-5.007 5.007-5.007h34.586c2.766 0 5.007 2.242 5.007 5.007 0 2.766-2.242 5.007-5.007 5.007z" fill="#ffa8cf"/><circle cx="395.175" cy="186.699" fill="#ff7eb8" r="5.603"/><circle cx="395.175" cy="206.648" fill="#ff7eb8" r="5.603"/><circle cx="395.175" cy="226.598" fill="#ff7eb8" r="5.603"/><path d="m118.409 292.514c0-9.16-7.453-16.613-16.613-16.613s-16.613 7.453-16.613 16.613c0 4.518 1.818 8.615 4.755 11.613-2.936 2.998-4.755 7.095-4.755 11.613 0 2.762 2.239 5 5 5s5-2.238 5-5c0-3.646 2.967-6.613 6.613-6.613s6.613 2.967 6.613 6.613c0 2.762 2.239 5 5 5s5-2.238 5-5c0-4.518-1.818-8.615-4.755-11.613 2.937-2.998 4.755-7.094 4.755-11.613zm-16.614-6.613c3.646 0 6.613 2.967 6.613 6.613s-2.967 6.613-6.613 6.613-6.613-2.967-6.613-6.613 2.967-6.613 6.613-6.613z" fill="#6583fe"/><path d="m455.998 126.059v254.25c0 8.28-6.72 15-15 15h-370c-8.28 0-15-6.72-15-15v-254.25c0-8.28 6.72-15 15-15h370c8.28 0 15 6.719 15 15z" fill="url(#SVGID_2_)"/><g><g fill="#2d58e0"><path d="m94.084 140.221c2.761 0 5-2.238 5-5v-.146c0-2.762-2.239-5-5-5s-5 2.238-5 5v.146c0 2.761 2.239 5 5 5z"/><path d="m113.409 140.221c2.761 0 5-2.238 5-5v-.146c0-2.762-2.239-5-5-5s-5 2.238-5 5v.146c0 2.761 2.238 5 5 5z"/><path d="m132.733 140.221c2.761 0 5-2.238 5-5v-.146c0-2.762-2.239-5-5-5s-5 2.238-5 5v.146c0 2.761 2.239 5 5 5z"/></g><path d="m331.936 463.01h-151.868c-2.761 0-5 2.238-5 5s2.239 5 5 5h151.868c2.761 0 5-2.238 5-5s-2.239-5-5-5z" fill="#6583fe"/></g></g><g><path d="m400.778 71.021c-2.761 0-5-2.238-5-5 0-3.317-2.699-6.016-6.016-6.016-2.761 0-5-2.238-5-5s2.239-5 5-5c3.317 0 6.016-2.698 6.016-6.016 0-2.762 2.239-5 5-5s5 2.238 5 5c0 3.317 2.699 6.016 6.016 6.016 2.761 0 5 2.238 5 5s-2.239 5-5 5c-3.317 0-6.016 2.698-6.016 6.016 0 2.763-2.238 5-5 5z" fill="#97ffd2"/><path d="m165.445 441.027c-2.761 0-5-2.238-5-5 0-3.317-2.699-6.016-6.016-6.016-2.761 0-5-2.238-5-5s2.239-5 5-5c3.317 0 6.016-2.698 6.016-6.016 0-2.762 2.239-5 5-5s5 2.238 5 5c0 3.317 2.699 6.016 6.016 6.016 2.761 0 5 2.238 5 5s-2.239 5-5 5c-3.317 0-6.016 2.698-6.016 6.016 0 2.762-2.239 5-5 5z" fill="#6583fe"/><path d="m107.002 455.706c-2.761 0-5-2.238-5-5 0-3.317-2.699-6.016-6.016-6.016-2.761 0-5-2.238-5-5s2.239-5 5-5c3.317 0 6.016-2.698 6.016-6.016 0-2.762 2.239-5 5-5s5 2.238 5 5c0 3.317 2.699 6.016 6.016 6.016 2.761 0 5 2.238 5 5s-2.239 5-5 5c-3.317 0-6.016 2.698-6.016 6.016 0 2.76-2.239 5-5 5z" fill="#6583fe"/><path d="m346.284 83.995c-1.28 0-2.559-.488-3.536-1.465l-10.994-10.994c-1.953-1.952-1.953-5.118 0-7.07l10.994-10.994c1.953-1.953 5.118-1.953 7.071 0l10.994 10.994c1.953 1.952 1.953 5.118 0 7.07l-10.993 10.995c-.977.976-2.256 1.464-3.536 1.464zm-3.923-15.995 3.923 3.923 3.923-3.923-3.923-3.923z" fill="#ff7eb8"/></g></g></svg>