<svg id="Capa_1" enable-background="new 0 0 512 512" height="512" viewBox="0 0 512 512" width="512" xmlns="http://www.w3.org/2000/svg" xmlns:xlink="http://www.w3.org/1999/xlink"><linearGradient id="SVGID_1_" gradientUnits="userSpaceOnUse" x1="29.532" x2="478.534" y1="126.752" y2="443.261"><stop offset="0" stop-color="#ffdbed"/><stop offset="1" stop-color="#dcfdee"/></linearGradient><linearGradient id="SVGID_2_" gradientUnits="userSpaceOnUse" x1="216.656" x2="216.656" y1="137.11" y2="391.838"><stop offset=".0028" stop-color="#ff7eb8" stop-opacity="0"/><stop offset="1" stop-color="#ff7eb8" stop-opacity=".6"/></linearGradient><g><g><path d="m382.606 174.018c-.192-.001-.385-.002-.577-.002-32.034-.05-62.385-13.844-83.44-37.986-31.366-35.964-77.6-58.622-129.121-58.393-93.512.415-170.663 78.981-169.454 172.486 1.203 92.986 76.955 167.995 170.227 167.995 26.343 0 51.286-5.987 73.547-16.672 19.194-9.213 42.065-6.784 58.968 6.161 21.863 16.745 49.19 26.713 78.846 26.763 71.382.119 129.981-58.02 130.396-129.401.418-72.05-57.442-130.527-129.392-130.951z" fill="url(#SVGID_1_)"/><path d="m267.477 456.994h-101.642l13.247-52.516 7.079-28.052h60.99l7.079 28.052z" fill="#9fb0fe"/><path d="m254.23 404.478h-75.148l7.079-28.052h60.99z" fill="#8399fe"/><path d="m370.88 391.838h-308.447c-9.357 0-16.942-7.585-16.942-16.941v-220.846c0-9.357 7.585-16.941 16.942-16.941h308.447c9.357 0 16.942 7.585 16.942 16.941v220.846c0 9.356-7.585 16.941-16.942 16.941z" fill="#fff"/><path d="m370.88 137.109h-110.889v254.729h110.889c9.357 0 16.942-7.585 16.942-16.942v-220.845c0-9.357-7.585-16.942-16.942-16.942z" fill="#ffc4df"/><path d="m165.704 333.452h-29.981c-2.829 0-5.123-2.294-5.123-5.123s2.293-5.123 5.123-5.123h29.981c2.829 0 5.123 2.294 5.123 5.123s-2.294 5.123-5.123 5.123z" fill="#b7c5ff"/><path d="m203.589 333.452h-12.577c-2.829 0-5.123-2.294-5.123-5.123s2.293-5.123 5.123-5.123h12.577c2.829 0 5.123 2.294 5.123 5.123s-2.293 5.123-5.123 5.123z" fill="#ffa8cf"/><path d="m203.589 353.772h-67.866c-2.829 0-5.123-2.294-5.123-5.123s2.293-5.123 5.123-5.123h67.866c2.829 0 5.123 2.294 5.123 5.123s-2.293 5.123-5.123 5.123z" fill="#b7c5ff"/><path d="m89.409 349.023c-1.326 0-2.598-.527-3.535-1.464l-6.978-6.978c-1.953-1.953-1.953-5.119 0-7.071 1.951-1.952 5.119-1.952 7.07 0l3.442 3.442 12.28-12.28c1.951-1.952 5.119-1.952 7.07 0 1.953 1.953 1.953 5.119 0 7.071l-15.815 15.816c-.936.937-2.208 1.464-3.534 1.464z" fill="#4369fd"/><path d="m387.822 180.278v-26.227c0-9.357-7.585-16.942-16.942-16.942h-308.447c-9.356 0-16.942 7.585-16.942 16.942v26.227z" fill="#6583fe"/><path d="m45.491 346.681v28.215c0 9.357 7.585 16.941 16.942 16.941h308.447c9.356 0 16.942-7.585 16.942-16.941v-28.215z" fill="#b7c5ff"/><path d="m165.704 215.731h-29.981c-2.829 0-5.123-2.294-5.123-5.123s2.293-5.123 5.123-5.123h29.981c2.829 0 5.123 2.294 5.123 5.123-.001 2.829-2.294 5.123-5.123 5.123z" fill="#b7c5ff"/><path d="m203.589 215.731h-12.577c-2.829 0-5.123-2.294-5.123-5.123s2.293-5.123 5.123-5.123h12.577c2.829 0 5.123 2.294 5.123 5.123s-2.293 5.123-5.123 5.123z" fill="#ffa8cf"/><path d="m203.589 236.05h-67.866c-2.829 0-5.123-2.294-5.123-5.123s2.293-5.123 5.123-5.123h67.866c2.829 0 5.123 2.294 5.123 5.123s-2.293 5.123-5.123 5.123z" fill="#b7c5ff"/><path d="m89.409 231.301c-1.326 0-2.598-.527-3.535-1.464l-6.978-6.978c-1.953-1.953-1.953-5.119 0-7.071 1.951-1.952 5.119-1.952 7.07 0l3.442 3.442 12.28-12.28c1.951-1.952 5.119-1.952 7.07 0 1.953 1.953 1.953 5.119 0 7.071l-15.815 15.816c-.936.937-2.208 1.464-3.534 1.464z" fill="#4369fd"/><path d="m165.704 274.591h-29.981c-2.829 0-5.123-2.294-5.123-5.123s2.293-5.123 5.123-5.123h29.981c2.829 0 5.123 2.294 5.123 5.123-.001 2.83-2.294 5.123-5.123 5.123z" fill="#b7c5ff"/><path d="m203.589 274.591h-12.577c-2.829 0-5.123-2.294-5.123-5.123s2.293-5.123 5.123-5.123h12.577c2.829 0 5.123 2.294 5.123 5.123 0 2.83-2.293 5.123-5.123 5.123z" fill="#ffa8cf"/><path d="m203.589 294.911h-67.866c-2.829 0-5.123-2.294-5.123-5.123s2.293-5.123 5.123-5.123h67.866c2.829 0 5.123 2.294 5.123 5.123s-2.293 5.123-5.123 5.123z" fill="#b7c5ff"/><path d="m89.409 290.162c-1.326 0-2.598-.527-3.535-1.464l-6.978-6.978c-1.953-1.953-1.953-5.119 0-7.071 1.951-1.952 5.119-1.952 7.07 0l3.442 3.442 12.28-12.28c1.951-1.952 5.119-1.952 7.07 0 1.953 1.953 1.953 5.119 0 7.071l-15.815 15.816c-.936.937-2.208 1.464-3.534 1.464z" fill="#4369fd"/><path d="m248.473 218.482h23.038c1.66 0 3.005 1.345 3.005 3.005v85.973c0 1.66-1.345 3.005-3.005 3.005h-23.038c-1.66 0-3.005-1.345-3.005-3.005v-85.973c0-1.66 1.345-3.005 3.005-3.005z" fill="#97ffd2"/><path d="m370.88 391.838h-308.447c-9.357 0-16.942-7.585-16.942-16.941v-220.846c0-9.357 7.585-16.941 16.942-16.941h308.447c9.357 0 16.942 7.585 16.942 16.941v220.846c0 9.356-7.585 16.941-16.942 16.941z" fill="url(#SVGID_2_)"/><path d="m413.217 218.437v135.19c0 7.98-8.88 12.75-15.53 8.34l-16.28-10.8c-3.35-2.22-7.7-2.22-11.05 0l-16.29 10.8c-6.64 4.41-15.52-.36-15.52-8.34v-135.19z" fill="#ff7eb8"/><path d="m413.217 218.437v32.94c-11.42 5.06-24.06 7.87-37.34 7.87-13.27 0-25.9-2.81-37.33-7.87v-32.94z" fill="#ff5ba8"/><path d="m375.88 318.007c2.762 0 5-2.239 5-5v-67.154h-10v67.155c0 2.76 2.238 4.999 5 4.999z" fill="#fe2c8f"/><ellipse cx="375.88" cy="166.639" fill="#97ffd2" rx="79.612" ry="79.612" transform="matrix(.707 -.707 .707 .707 -7.739 314.595)"/><ellipse cx="375.88" cy="166.639" fill="#dcfdee" rx="58.625" ry="58.625" transform="matrix(.707 -.707 .707 .707 -7.739 314.595)"/><path d="m367.538 186.67h-5.331c-6.508 0-11.803-5.295-11.803-11.803v-16.457c0-6.508 5.295-11.802 11.803-11.802h5.331c6.508 0 11.803 5.294 11.803 11.802v16.457c0 6.508-5.295 11.803-11.803 11.803zm-5.331-30.062c-.994 0-1.803.809-1.803 1.802v16.457c0 .994.809 1.803 1.803 1.803h5.331c.994 0 1.803-.809 1.803-1.803v-16.457c0-.994-.809-1.802-1.803-1.802z" fill="#ff7eb8"/><path d="m396.355 186.67c-2.762 0-5-2.239-5-5v-25.062h-.444c-2.762 0-5-2.239-5-5s2.238-5 5-5h5.444c2.762 0 5 2.239 5 5v30.062c0 2.761-2.238 5-5 5z" fill="#ff7eb8"/><g fill="#2d58e0"><path d="m79.619 163.759c-2.762 0-5-2.239-5-5v-.13c0-2.761 2.238-5 5-5s5 2.239 5 5v.13c0 2.761-2.238 5-5 5z"/><path d="m96.936 163.759c-2.762 0-5-2.239-5-5v-.13c0-2.761 2.238-5 5-5s5 2.239 5 5v.13c0 2.761-2.238 5-5 5z"/><path d="m114.255 163.759c-2.762 0-5-2.239-5-5v-.13c0-2.761 2.238-5 5-5s5 2.239 5 5v.13c0 2.761-2.239 5-5 5z"/></g><path d="m284.705 451.989h-136.097c-2.762 0-5 2.239-5 5s2.238 5 5 5h136.097c2.762 0 5-2.239 5-5s-2.238-5-5-5z" fill="#6583fe"/><path d="m296.651 275.187c-1.279 0-2.559-.488-3.535-1.464-1.953-1.953-1.953-5.118-.001-7.071l2.306-2.305-2.306-2.306c-1.952-1.953-1.952-5.119.001-7.071s5.118-1.953 7.071 0l5.84 5.841c1.952 1.953 1.952 5.118 0 7.07l-5.84 5.84c-.976.978-2.256 1.466-3.536 1.466z" fill="#ff5ba8"/></g><g><path d="m267.477 96.211c-1.279 0-2.559-.488-3.535-1.464l-11.019-11.018c-.938-.938-1.465-2.209-1.465-3.536s.526-2.598 1.465-3.536l11.019-11.018c.938-.938 2.209-1.464 3.535-1.464s2.598.527 3.535 1.464l11.018 11.018c1.953 1.953 1.953 5.119 0 7.071l-11.018 11.018c-.975.976-2.255 1.465-3.535 1.465zm-3.947-16.018 3.947 3.947 3.946-3.947-3.946-3.947z" fill="#ff7eb8"/><path d="m110.224 461.99c-1.326 0-2.598-.527-3.535-1.464l-11.018-11.018c-1.953-1.953-1.953-5.119 0-7.071l11.018-11.018c.938-.938 2.209-1.464 3.535-1.464s2.598.527 3.535 1.464l11.019 11.018c.938.938 1.465 2.209 1.465 3.536s-.526 2.598-1.465 3.536l-11.019 11.018c-.937.936-2.208 1.463-3.535 1.463zm-3.946-16.018 3.946 3.947 3.947-3.947-3.947-3.947z" fill="#ff7eb8"/><path d="m455.491 260.055c-2.762 0-5-2.239-5-5 0-3.318-2.699-6.017-6.017-6.017-2.762 0-5-2.239-5-5s2.238-5 5-5c3.317 0 6.017-2.699 6.017-6.017 0-2.761 2.238-5 5-5s5 2.239 5 5c0 3.318 2.699 6.017 6.018 6.017 2.762 0 5 2.239 5 5s-2.238 5-5 5c-3.318 0-6.018 2.699-6.018 6.017 0 2.761-2.238 5-5 5z" fill="#6583fe"/><path d="m221.999 82.044c-2.762 0-5-2.239-5-5 0-3.318-2.699-6.017-6.018-6.017-2.762 0-5-2.239-5-5s2.238-5 5-5c3.318 0 6.018-2.699 6.018-6.017 0-2.761 2.238-5 5-5s5 2.239 5 5c0 3.318 2.699 6.017 6.017 6.017 2.762 0 5 2.239 5 5s-2.238 5-5 5c-3.317 0-6.017 2.699-6.017 6.017 0 2.761-2.238 5-5 5z" fill="#97ffd2"/></g></g></svg>