<svg id="Capa_1" enable-background="new 0 0 512 512" height="512" viewBox="0 0 512 512" width="512" xmlns="http://www.w3.org/2000/svg" xmlns:xlink="http://www.w3.org/1999/xlink"><linearGradient id="SVGID_1_" gradientUnits="userSpaceOnUse" x1="73.405" x2="407.089" y1="19.896" y2="488.525"><stop offset=".0485" stop-color="#ffdbed"/><stop offset=".9993" stop-color="#d2deff"/></linearGradient><linearGradient id="SVGID_2_" gradientUnits="userSpaceOnUse" x1="256" x2="256" y1="67.704" y2="472.236"><stop offset=".0028" stop-color="#ff7eb8" stop-opacity="0"/><stop offset="1" stop-color="#ff7eb8" stop-opacity=".6"/></linearGradient><g><g><path d="m310.075 89.353c-21.43-52.669-73.271-89.723-133.726-89.35-77.124.475-140.536 62.684-142.407 139.786-.923 38.04 12.978 72.821 36.334 98.983 18.619 20.856 27.963 48.325 27.021 76.268-.125 3.714-.144 7.455-.052 11.22 2.464 101.4 89.087 185.801 190.517 185.74 105.133-.063 190.34-85.31 190.34-190.457 0-77.074-45.784-143.448-111.637-173.423-25.667-11.683-45.762-32.647-56.39-58.767z" fill="url(#SVGID_1_)"/><path d="m454.99 97.725h-94.917v344.491h94.917c8.286 0 15.01-6.725 15.01-15.01v-314.47c0-8.287-6.725-15.011-15.01-15.011z" fill="#fff"/><path d="m432.123 326.009h-72.05v116.206h72.05c1.658 0 3.002-1.344 3.002-3.002v-110.202c0-1.658-1.344-3.002-3.002-3.002z" fill="#ffa8cf"/><path d="m432.123 183.553h-72.05v116.206h72.05c1.658 0 3.002-1.344 3.002-3.002v-110.202c0-1.658-1.344-3.002-3.002-3.002z" fill="#97ffd2"/><path d="m454.99 97.725h-94.917v48.205h109.927v-33.195c0-8.29-6.721-15.01-15.01-15.01z" fill="#02ffb3"/><path d="m148.925 97.725h-91.916c-8.286 0-15.01 6.725-15.01 15.01v314.47c0 8.286 6.725 15.01 15.01 15.01h91.915v-344.49z" fill="#fff"/><path d="m148.925 399.799v-132.092h-77.054c-1.658 0-3.002 1.344-3.002 3.002v126.088c0 1.658 1.344 3.002 3.002 3.002z" fill="#ffa8cf"/><path d="m148.925 241.826v-42.029h-77.054c-1.658 0-3.002 1.344-3.002 3.002v36.025c0 1.658 1.344 3.002 3.002 3.002z" fill="#9fb0fe"/><path d="m148.925 97.725h-91.915c-8.29 0-15.01 6.72-15.01 15.01v33.195h106.925z" fill="#ff7eb8"/><path d="m396.098 82.714v374.512c0 8.286-6.725 15.01-15.01 15.01h-250.175c-8.286 0-15.01-6.725-15.01-15.01v-374.512c0-8.286 6.725-15.01 15.01-15.01h250.175c8.285 0 15.01 6.724 15.01 15.01z" fill="#fff"/><path d="m115.902 146.033h280.196v135.094h-280.196z" fill="#ffa8cf"/><path d="m396.098 146.033v105.374c-11.588 4.823-24.307 7.475-37.636 7.475-54.278 0-98.279-44.011-98.279-98.289 0-4.943.37-9.807 1.071-14.56z" fill="#ff7eb8"/><path d="m396.098 115.909v-33.195c0-8.29-6.72-15.01-15.01-15.01h-250.175c-8.29 0-15.01 6.72-15.01 15.01v33.195z" fill="#6583fe"/><circle cx="239.078" cy="262.841" fill="#4369fd" r="5.594"/><circle cx="256" cy="262.841" fill="#ff5ba8" r="5.594"/><circle cx="272.922" cy="262.841" fill="#ff5ba8" r="5.594"/><path d="m199.406 359.104h-62.71c-1.658 0-3.002-1.344-3.002-3.002v-44.698c0-1.658 1.344-3.002 3.002-3.002h62.71c1.658 0 3.002 1.344 3.002 3.002v44.698c0 1.658-1.344 3.002-3.002 3.002z" fill="#6583fe"/><path d="m188.983 359.103h-24.017v-29.423c0-1.658 1.344-3.002 3.002-3.002h18.013c1.658 0 3.002 1.344 3.002 3.002z" fill="#9fb0fe"/><path d="m185.434 384.665h-34.767c-2.768 0-5.012-2.244-5.012-5.012s2.243-5.012 5.012-5.012h34.767c2.768 0 5.012 2.244 5.012 5.012s-2.244 5.012-5.012 5.012z" fill="#ff7eb8"/><path d="m199.902 420.647h-61.197c-2.768 0-5.012-2.244-5.012-5.012s2.243-5.012 5.012-5.012h61.197c2.768 0 5.012 2.244 5.012 5.012s-2.244 5.012-5.012 5.012z" fill="#b7c5ff"/><path d="m199.902 440.16h-61.197c-2.768 0-5.012-2.244-5.012-5.012s2.243-5.012 5.012-5.012h61.197c2.768 0 5.012 2.244 5.012 5.012s-2.244 5.012-5.012 5.012z" fill="#b7c5ff"/><path d="m286.102 359.104h-62.71c-1.658 0-3.002-1.344-3.002-3.002v-44.698c0-1.658 1.344-3.002 3.002-3.002h62.71c1.658 0 3.002 1.344 3.002 3.002v44.698c0 1.658-1.344 3.002-3.002 3.002z" fill="#6583fe"/><path d="m275.68 359.103h-24.017v-29.423c0-1.658 1.344-3.002 3.002-3.002h18.013c1.658 0 3.002 1.344 3.002 3.002z" fill="#9fb0fe"/><path d="m272.13 384.665h-34.767c-2.768 0-5.012-2.244-5.012-5.012s2.243-5.012 5.012-5.012h34.767c2.768 0 5.012 2.244 5.012 5.012s-2.243 5.012-5.012 5.012z" fill="#ff7eb8"/><path d="m286.599 420.647h-61.197c-2.768 0-5.012-2.244-5.012-5.012s2.243-5.012 5.012-5.012h61.197c2.768 0 5.012 2.244 5.012 5.012s-2.244 5.012-5.012 5.012z" fill="#b7c5ff"/><path d="m286.599 440.16h-61.197c-2.768 0-5.012-2.244-5.012-5.012s2.243-5.012 5.012-5.012h61.197c2.768 0 5.012 2.244 5.012 5.012s-2.244 5.012-5.012 5.012z" fill="#b7c5ff"/><path d="m372.799 359.104h-62.71c-1.658 0-3.002-1.344-3.002-3.002v-44.698c0-1.658 1.344-3.002 3.002-3.002h62.71c1.658 0 3.002 1.344 3.002 3.002v44.698c0 1.658-1.344 3.002-3.002 3.002z" fill="#6583fe"/><path d="m362.376 359.103h-24.016v-29.423c0-1.658 1.344-3.002 3.002-3.002h18.013c1.658 0 3.002 1.344 3.002 3.002v29.423z" fill="#9fb0fe"/><path d="m358.827 384.665h-34.767c-2.768 0-5.012-2.244-5.012-5.012s2.243-5.012 5.012-5.012h34.767c2.768 0 5.012 2.244 5.012 5.012s-2.244 5.012-5.012 5.012z" fill="#ff7eb8"/><path d="m373.295 420.647h-61.197c-2.768 0-5.012-2.244-5.012-5.012s2.243-5.012 5.012-5.012h61.197c2.768 0 5.012 2.244 5.012 5.012s-2.244 5.012-5.012 5.012z" fill="#b7c5ff"/><path d="m373.295 440.16h-61.197c-2.768 0-5.012-2.244-5.012-5.012s2.243-5.012 5.012-5.012h61.197c2.768 0 5.012 2.244 5.012 5.012s-2.244 5.012-5.012 5.012z" fill="#b7c5ff"/><path d="m396.098 82.714v374.512c0 8.286-6.725 15.01-15.01 15.01h-250.175c-8.286 0-15.01-6.725-15.01-15.01v-374.512c0-8.286 6.725-15.01 15.01-15.01h250.175c8.285 0 15.01 6.724 15.01 15.01z" fill="url(#SVGID_2_)"/><path d="m80.108 116.755c-2.761 0-5 2.238-5 5v.145c0 2.762 2.239 5 5 5s5-2.238 5-5v-.145c0-2.762-2.238-5-5-5z" fill="#fe2c8f"/><path d="m99.447 116.755c-2.761 0-5 2.238-5 5v.145c0 2.762 2.239 5 5 5s5-2.238 5-5v-.145c0-2.762-2.239-5-5-5z" fill="#fe2c8f"/><g fill="#2d58e0"><path d="m154.011 96.879c2.761 0 5-2.238 5-5v-.146c0-2.762-2.239-5-5-5s-5 2.238-5 5v.146c0 2.762 2.239 5 5 5z"/><path d="m173.349 96.879c2.761 0 5-2.238 5-5v-.146c0-2.762-2.239-5-5-5s-5 2.238-5 5v.146c0 2.762 2.239 5 5 5z"/><path d="m192.688 96.879c2.761 0 5-2.238 5-5v-.146c0-2.762-2.239-5-5-5s-5 2.238-5 5v.146c0 2.762 2.238 5 5 5z"/></g><path d="m361.997 198.428c-1.953-1.952-5.118-1.951-7.071-.001-1.953 1.953-1.953 5.119 0 7.071l2.312 2.313-2.312 2.313c-1.953 1.952-1.953 5.118 0 7.071.976.976 2.255 1.464 3.535 1.464s2.56-.488 3.536-1.465l5.847-5.848c1.953-1.952 1.953-5.118 0-7.07z" fill="#fe2c8f"/><path d="m157.074 198.427c-1.952-1.951-5.119-1.952-7.071.001l-5.847 5.848c-1.953 1.952-1.953 5.118 0 7.07l5.847 5.848c.977.977 2.256 1.465 3.536 1.465 1.279 0 2.559-.488 3.535-1.464 1.953-1.953 1.953-5.119 0-7.071l-2.312-2.313 2.312-2.313c1.953-1.952 1.953-5.118 0-7.071z" fill="#fe2c8f"/></g><g><g fill="#6583fe"><path d="m422.884 78.704c-1.326 0-2.598-.526-3.536-1.465l-11.018-11.019c-.938-.938-1.464-2.209-1.464-3.535s.527-2.598 1.464-3.535l11.018-11.018c1.953-1.953 5.118-1.953 7.071 0l11.018 11.018c.938.938 1.464 2.209 1.464 3.535s-.527 2.598-1.464 3.535l-11.017 11.019c-.938.939-2.21 1.465-3.536 1.465zm-3.946-16.018 3.947 3.947 3.947-3.947-3.947-3.946z"/><path d="m85.691 492.515c-1.326 0-2.598-.526-3.536-1.465l-11.018-11.019c-.938-.938-1.464-2.209-1.464-3.535s.527-2.598 1.464-3.535l11.018-11.018c1.953-1.953 5.118-1.953 7.071 0l11.018 11.018c.938.938 1.464 2.209 1.464 3.535s-.527 2.598-1.464 3.535l-11.017 11.019c-.937.938-2.209 1.465-3.536 1.465zm-3.946-16.019 3.947 3.947 3.947-3.947-3.947-3.946z"/><path d="m375.801 50.539c-1.28 0-2.559-.488-3.536-1.465l-11.018-11.018c-.938-.938-1.464-2.209-1.464-3.535s.527-2.598 1.464-3.535l11.018-11.018c1.954-1.953 5.119-1.952 7.071 0l11.018 11.018c1.953 1.952 1.953 5.118 0 7.07l-11.018 11.018c-.976.977-2.255 1.465-3.535 1.465zm-3.947-16.018 3.947 3.946 3.946-3.946-3.946-3.946z"/></g><path d="m442.049 493.496c-2.761 0-5-2.238-5-5 0-3.318-2.7-6.018-6.018-6.018-2.761 0-5-2.238-5-5s2.239-5 5-5c3.318 0 6.018-2.699 6.018-6.018 0-2.762 2.239-5 5-5s5 2.238 5 5c0 3.318 2.7 6.018 6.018 6.018 2.761 0 5 2.238 5 5s-2.239 5-5 5c-3.318 0-6.018 2.699-6.018 6.018 0 2.762-2.239 5-5 5z" fill="#97ffd2"/></g></g></svg>