<svg id="Capa_1" enable-background="new 0 0 512 512" height="512" viewBox="0 0 512 512" width="512" xmlns="http://www.w3.org/2000/svg" xmlns:xlink="http://www.w3.org/1999/xlink"><linearGradient id="SVGID_1_" gradientUnits="userSpaceOnUse" x1="13.415" x2="509.034" y1="107.795" y2="431.665"><stop offset="0" stop-color="#ffdbed"/><stop offset="1" stop-color="#dcfdee"/></linearGradient><linearGradient id="SVGID_2_" gradientUnits="userSpaceOnUse" x1="256.001" x2="256.001" y1="100.612" y2="384.861"><stop offset=".0028" stop-color="#ff7eb8" stop-opacity="0"/><stop offset="1" stop-color="#ff7eb8" stop-opacity=".6"/></linearGradient><g><g><g><path d="m408.229 154.261c-23.697-9.236-43.717-26.089-55.961-48.381-20.59-37.487-60.43-62.898-106.221-62.898-47.53 0-88.646 27.377-108.477 67.219-12.146 24.401-32.814 43.56-58.09 53.761-37.349 15.074-68.703 49.524-78.653 103.382-1.092 5.91-1.108 11.986-.016 17.896 15.448 83.572 82.399 120.435 143.334 110.66 34.126-5.474 68.672 5.909 93.967 29.462 51.434 47.892 133.884 62.907 213.923 11.57 9.377-6.014 21.957-18.634 27.966-28.015 68.966-107.67 17.879-219.713-71.772-254.656z" fill="url(#SVGID_1_)"/><path d="m312.711 457.565h-113.421l14.782-58.602 7.9-31.302h68.057l7.9 31.302z" fill="#9fb0fe"/><path d="m297.929 398.963h-83.857l7.9-31.302h68.057z" fill="#8399fe"/><path d="m456.001 115.612v254.25c0 8.28-6.72 15-15 15h-370c-8.28 0-15-6.72-15-15v-254.25c0-8.28 6.72-15 15-15h370c8.28 0 15 6.72 15 15z" fill="#fff"/><path d="m123.831 100.612h264.34v128.871h-264.34z" fill="#dcfdee"/><path d="m456.001 148.784v-33.171c0-8.284-6.716-15-15-15h-370c-8.284 0-15 6.716-15 15v33.171z" fill="#ff7eb8"/><path d="m56.001 334.469v35.39c0 8.284 6.716 15 15 15h370c8.284 0 15-6.716 15-15v-35.39z" fill="#b7c5ff"/><path d="m129.31 195.035-4.253-7.094c-.542-.904-1.519-1.458-2.573-1.458h-17.301c-1.657 0-3 1.343-3 3v48h74.407v-37.991c0-1.657-1.343-3-3-3h-41.707c-1.054 0-2.031-.553-2.573-1.457z" fill="#01eca5"/><path d="m173.59 251.983h-68.407c-1.657 0-3-1.343-3-3v-39c0-1.657 1.343-3 3-3h68.407c1.657 0 3 1.343 3 3v39c0 1.657-1.343 3-3 3z" fill="#97ffd2"/><path d="m174.029 281.868h-66.586c-2.829 0-5.123-2.294-5.123-5.123s2.293-5.123 5.123-5.123h66.586c2.829 0 5.123 2.294 5.123 5.123s-2.293 5.123-5.123 5.123z" fill="#b7c5ff"/><path d="m156.029 300.868h-30.586c-2.829 0-5.123-2.294-5.123-5.123s2.293-5.123 5.123-5.123h30.586c2.829 0 5.123 2.294 5.123 5.123s-2.293 5.123-5.123 5.123z" fill="#6583fe"/><path d="m244.643 195.035-4.253-7.094c-.542-.904-1.519-1.458-2.573-1.458h-17.301c-1.657 0-3 1.343-3 3v48h74.407v-37.991c0-1.657-1.343-3-3-3h-41.707c-1.054 0-2.031-.553-2.573-1.457z" fill="#01eca5"/><path d="m288.924 251.983h-68.407c-1.657 0-3-1.343-3-3v-39c0-1.657 1.343-3 3-3h68.407c1.657 0 3 1.343 3 3v39c0 1.657-1.343 3-3 3z" fill="#97ffd2"/><path d="m289.362 281.868h-66.586c-2.829 0-5.123-2.294-5.123-5.123s2.293-5.123 5.123-5.123h66.586c2.829 0 5.123 2.294 5.123 5.123s-2.293 5.123-5.123 5.123z" fill="#b7c5ff"/><path d="m271.362 300.868h-30.586c-2.829 0-5.123-2.294-5.123-5.123s2.293-5.123 5.123-5.123h30.586c2.829 0 5.123 2.294 5.123 5.123s-2.293 5.123-5.123 5.123z" fill="#6583fe"/><path d="m359.977 195.035-4.253-7.094c-.542-.904-1.519-1.458-2.573-1.458h-17.301c-1.657 0-3 1.343-3 3v48h74.407v-37.991c0-1.657-1.343-3-3-3h-41.707c-1.055 0-2.031-.553-2.573-1.457z" fill="#01eca5"/><path d="m404.257 251.983h-68.407c-1.657 0-3-1.343-3-3v-39c0-1.657 1.343-3 3-3h68.407c1.657 0 3 1.343 3 3v39c0 1.657-1.343 3-3 3z" fill="#97ffd2"/><path d="m404.696 281.868h-66.586c-2.829 0-5.123-2.294-5.123-5.123s2.293-5.123 5.123-5.123h66.586c2.829 0 5.123 2.294 5.123 5.123s-2.294 5.123-5.123 5.123z" fill="#b7c5ff"/><path d="m386.696 300.868h-30.586c-2.829 0-5.123-2.294-5.123-5.123s2.293-5.123 5.123-5.123h30.586c2.829 0 5.123 2.294 5.123 5.123s-2.294 5.123-5.123 5.123z" fill="#6583fe"/><path d="m456.001 115.612v254.25c0 8.28-6.72 15-15 15h-370c-8.28 0-15-6.72-15-15v-254.25c0-8.28 6.72-15 15-15h370c8.28 0 15 6.72 15 15z" fill="url(#SVGID_2_)"/></g><g><path d="m382.051 442.771c-1.326 0-2.598-.527-3.535-1.464l-11.018-11.018c-1.953-1.953-1.953-5.119 0-7.071l11.018-11.018c.938-.938 2.209-1.464 3.535-1.464s2.598.527 3.535 1.464l11.019 11.018c.938.938 1.465 2.209 1.465 3.536s-.526 2.598-1.465 3.536l-11.019 11.018c-.938.936-2.209 1.463-3.535 1.463zm-3.946-16.018 3.946 3.947 3.947-3.947-3.947-3.947z" fill="#6583fe"/><path d="m139.387 448.935c-2.761 0-5-2.239-5-5 0-3.318-2.7-6.018-6.018-6.018-2.761 0-5-2.239-5-5s2.239-5 5-5c3.318 0 6.018-2.7 6.018-6.018 0-2.761 2.239-5 5-5s5 2.239 5 5c0 3.318 2.7 6.018 6.018 6.018 2.761 0 5 2.239 5 5s-2.239 5-5 5c-3.318 0-6.018 2.7-6.018 6.018 0 2.762-2.239 5-5 5z" fill="#97ffd2"/><path d="m430.983 473.583c-2.762 0-5-2.239-5-5 0-3.318-2.7-6.018-6.019-6.018-2.762 0-5-2.239-5-5s2.238-5 5-5c3.318 0 6.019-2.7 6.019-6.018 0-2.761 2.238-5 5-5s5 2.239 5 5c0 3.318 2.699 6.018 6.018 6.018 2.762 0 5 2.239 5 5s-2.238 5-5 5c-3.318 0-6.018 2.7-6.018 6.018 0 2.761-2.238 5-5 5z" fill="#ff7eb8"/><path d="m350.987 70.452c-1.326 0-2.598-.527-3.535-1.464l-11.018-11.018c-1.953-1.953-1.953-5.119 0-7.071l11.018-11.018c1.951-1.952 5.119-1.952 7.07 0l11.018 11.018c1.953 1.953 1.953 5.119 0 7.071l-11.018 11.018c-.937.937-2.208 1.464-3.535 1.464zm-3.946-16.019 3.946 3.947 3.946-3.947-3.946-3.946z" fill="#97ffd2"/></g></g><g><g fill="#fe2c8f"><path d="m94.083 119.625c-2.761 0-5 2.239-5 5v.145c0 2.761 2.239 5 5 5s5-2.239 5-5v-.145c0-2.761-2.239-5-5-5z"/><path d="m113.408 119.625c-2.761 0-5 2.239-5 5v.145c0 2.761 2.239 5 5 5s5-2.239 5-5v-.145c0-2.761-2.239-5-5-5z"/><path d="m132.732 119.625c-2.761 0-5 2.239-5 5v.145c0 2.761 2.239 5 5 5s5-2.239 5-5v-.145c0-2.761-2.238-5-5-5z"/></g><path d="m331.935 452.559h-151.868c-2.761 0-5 2.239-5 5s2.239 5 5 5h151.868c2.762 0 5-2.239 5-5s-2.238-5-5-5z" fill="#6583fe"/></g></g></svg>