<svg id="Capa_1" enable-background="new 0 0 512 512" height="512" viewBox="0 0 512 512" width="512" xmlns="http://www.w3.org/2000/svg" xmlns:xlink="http://www.w3.org/1999/xlink"><linearGradient id="SVGID_1_" gradientUnits="userSpaceOnUse" x1="90.978" x2="406.775" y1="10.527" y2="508.724"><stop offset=".0485" stop-color="#ffdbed"/><stop offset=".9993" stop-color="#d2deff"/></linearGradient><linearGradient id="lg1"><stop offset=".0028" stop-color="#ff7eb8" stop-opacity="0"/><stop offset="1" stop-color="#ff7eb8" stop-opacity=".6"/></linearGradient><linearGradient id="SVGID_2_" gradientUnits="userSpaceOnUse" x1="137.34" x2="137.34" xlink:href="#lg1" y1="81.404" y2="430.597"/><linearGradient id="SVGID_3_" gradientUnits="userSpaceOnUse" x1="374.661" x2="374.661" xlink:href="#lg1" y1="81.404" y2="430.597"/><g><g><path d="m310.075 89.353c-21.431-52.669-73.272-89.723-133.727-89.35-77.124.475-140.535 62.684-142.407 139.786-.923 38.04 12.978 72.821 36.334 98.983 18.619 20.856 27.963 48.325 27.021 76.268-.125 3.714-.144 7.455-.052 11.22 2.464 101.4 89.087 185.801 190.517 185.74 105.133-.063 190.34-85.31 190.34-190.457 0-77.074-45.784-143.448-111.637-173.423-25.666-11.683-45.761-32.647-56.389-58.767z" fill="url(#SVGID_1_)"/><path d="m461.594 430.597h-173.867c-9.91 0-17.944-8.034-17.944-17.944v-313.305c0-9.91 8.034-17.944 17.944-17.944h173.867c9.91 0 17.944 8.034 17.944 17.944v313.305c0 9.91-8.034 17.944-17.944 17.944z" fill="#97ffd2"/><path d="m479.54 294.67v117.98c0 9.91-8.04 17.95-17.95 17.95h-173.86c-9.91 0-17.95-8.04-17.95-17.95v-117.98z" fill="#dcfdee"/><path d="m316.21 294.67v61.38c0 4.15-3.37 7.52-7.53 7.52h-38.9v-68.9z" fill="#97ffd2"/><path d="m431.132 106.011 8.014-24.608h-128.971l8.014 24.608c1.161 3.563 4.482 5.975 8.23 5.975h96.482c3.748 0 7.07-2.412 8.231-5.975z" fill="#b7c5ff"/><path d="m224.272 430.597h-173.866c-9.91 0-17.944-8.034-17.944-17.944v-313.305c0-9.91 8.034-17.944 17.944-17.944h173.867c9.91 0 17.944 8.034 17.944 17.944v313.305c0 9.91-8.034 17.944-17.945 17.944z" fill="#8399fe"/><path d="m242.22 294.67v117.98c0 9.91-8.04 17.95-17.95 17.95h-173.86c-9.91 0-17.95-8.04-17.95-17.95v-117.98z" fill="#d2deff"/><path d="m195.79 294.67h46.43v68.9h-38.91c-4.15 0-7.52-3.37-7.52-7.52z" fill="#9fb0fe"/><circle cx="137.339" cy="190.714" fill="#fff" r="54.973"/><circle cx="374.66" cy="190.714" fill="#fff" r="54.973"/><path d="m193.81 106.011 8.014-24.608h-128.97l8.014 24.608c1.161 3.563 4.482 5.975 8.23 5.975h96.482c3.748 0 7.07-2.412 8.23-5.975z" fill="#b7c5ff"/><g fill="#ff7eb8"><path d="m129.374 210.745h-5.332c-6.508 0-11.802-5.294-11.802-11.802v-16.457c0-6.508 5.294-11.803 11.802-11.803h5.332c6.508 0 11.803 5.295 11.803 11.803v16.457c0 6.508-5.295 11.802-11.803 11.802zm-5.331-30.062c-.994 0-1.802.809-1.802 1.803v16.457c0 .994.809 1.802 1.802 1.802h5.332c.994 0 1.803-.809 1.803-1.802v-16.457c0-.994-.809-1.803-1.803-1.803z"/><path d="m158.191 210.745c-2.761 0-5-2.239-5-5v-25.062h-.444c-2.761 0-5-2.239-5-5s2.239-5 5-5h5.444c2.761 0 5 2.239 5 5v30.062c0 2.761-2.239 5-5 5z"/><path d="m359.987 210.745h-5.331c-6.508 0-11.803-5.294-11.803-11.802v-16.457c0-6.508 5.295-11.803 11.803-11.803h5.331c6.508 0 11.803 5.295 11.803 11.803v16.457c0 6.508-5.295 11.802-11.803 11.802zm-5.331-30.062c-.994 0-1.803.809-1.803 1.803v16.457c0 .994.809 1.802 1.803 1.802h5.331c.994 0 1.803-.809 1.803-1.802v-16.457c0-.994-.809-1.803-1.803-1.803z"/><path d="m401.468 210.305h-18.108c-2.122 0-4.012-1.339-4.716-3.341s-.068-4.23 1.586-5.559c5.043-4.049 12.846-11.451 14.406-15.227.6-1.451.505-3.052-.247-4.177-.585-.875-1.455-1.318-2.587-1.318-1.898 0-3.442 1.544-3.442 3.442 0 2.761-2.238 5-5 5s-5-2.239-5-5c0-7.412 6.03-13.442 13.442-13.442 4.479 0 8.452 2.099 10.899 5.76 2.624 3.923 3.063 8.99 1.177 13.555-1.354 3.274-4.398 6.996-7.594 10.307h5.184c2.762 0 5 2.239 5 5s-2.239 5-5 5z"/></g><path d="m190.632 298.49h-106.586c-2.766 0-5.007-2.242-5.007-5.007s2.241-5.007 5.007-5.007h106.586c2.766 0 5.007 2.242 5.007 5.007s-2.241 5.007-5.007 5.007z" fill="#6583fe"/><path d="m160.632 271.706h-46.586c-2.766 0-5.007-2.242-5.007-5.007s2.241-5.007 5.007-5.007h46.586c2.766 0 5.007 2.242 5.007 5.007s-2.241 5.007-5.007 5.007z" fill="#fff"/><path d="m190.632 316.275h-106.586c-2.766 0-5.007-2.242-5.007-5.007s2.241-5.007 5.007-5.007h106.586c2.766 0 5.007 2.242 5.007 5.007s-2.241 5.007-5.007 5.007z" fill="#6583fe"/><path d="m190.632 334.06h-106.586c-2.766 0-5.007-2.242-5.007-5.007s2.241-5.007 5.007-5.007h106.586c2.766 0 5.007 2.242 5.007 5.007s-2.241 5.007-5.007 5.007z" fill="#6583fe"/><path d="m427.953 298.49h-106.585c-2.766 0-5.007-2.242-5.007-5.007s2.241-5.007 5.007-5.007h106.586c2.766 0 5.007 2.242 5.007 5.007s-2.242 5.007-5.008 5.007z" fill="#02ffb3"/><path d="m397.953 271.706h-46.586c-2.766 0-5.007-2.242-5.007-5.007s2.241-5.007 5.007-5.007h46.586c2.766 0 5.007 2.242 5.007 5.007s-2.241 5.007-5.007 5.007z" fill="#fff"/><path d="m427.953 316.275h-106.585c-2.766 0-5.007-2.242-5.007-5.007s2.241-5.007 5.007-5.007h106.586c2.766 0 5.007 2.242 5.007 5.007s-2.242 5.007-5.008 5.007z" fill="#02ffb3"/><path d="m427.953 334.06h-106.585c-2.766 0-5.007-2.242-5.007-5.007s2.241-5.007 5.007-5.007h106.586c2.766 0 5.007 2.242 5.007 5.007s-2.242 5.007-5.008 5.007z" fill="#02ffb3"/><path d="m131.505 408.667c-1.28 0-2.559-.488-3.536-1.465-1.953-1.953-1.953-5.118 0-7.071l5.834-5.833c1.953-1.952 5.119-1.952 7.071 0l5.833 5.833c1.953 1.953 1.953 5.119 0 7.071s-5.118 1.952-7.071 0l-2.298-2.298-2.299 2.298c-.975.976-2.255 1.465-3.534 1.465z" fill="#ff5ba8"/><path d="m380.494 408.667c-1.279 0-2.56-.488-3.536-1.465l-2.297-2.297-2.299 2.298c-1.951 1.952-5.118 1.953-7.071 0-1.952-1.953-1.952-5.118.001-7.071l5.834-5.833c.938-.938 2.209-1.464 3.535-1.464s2.598.527 3.536 1.465l5.833 5.833c1.952 1.953 1.952 5.118-.001 7.071-.976.974-2.256 1.463-3.535 1.463z" fill="#ff5ba8"/><path d="m224.272 430.597h-173.866c-9.91 0-17.944-8.034-17.944-17.944v-313.305c0-9.91 8.034-17.944 17.944-17.944h173.867c9.91 0 17.944 8.034 17.944 17.944v313.305c0 9.91-8.034 17.944-17.945 17.944z" fill="url(#SVGID_2_)"/><path d="m461.594 430.597h-173.867c-9.91 0-17.944-8.034-17.944-17.944v-313.305c0-9.91 8.034-17.944 17.944-17.944h173.867c9.91 0 17.944 8.034 17.944 17.944v313.305c0 9.91-8.034 17.944-17.944 17.944z" fill="url(#SVGID_3_)"/><path d="m308.685 349.433h-105.37c-4.154 0-7.522-3.368-7.522-7.522v-79.542c0-4.154 3.368-7.522 7.522-7.522h105.37c4.154 0 7.522 3.368 7.522 7.522v79.542c0 4.154-3.368 7.522-7.522 7.522z" fill="#ff7eb8"/><g fill="#fff"><path d="m221.654 287.403h55.406c1.228 0 2.226.998 2.226 2.225v2.346c-1.606-.348-3.349.093-4.598 1.341-1.952 1.953-1.952 5.118.001 7.071l6.062 6.061c.937.938 2.209 1.464 3.535 1.464s2.598-.527 3.536-1.465l6.061-6.061c1.952-1.953 1.952-5.118-.001-7.071-1.248-1.248-2.99-1.689-4.596-1.342v-2.345c0-6.741-5.484-12.225-12.226-12.225h-55.406c-2.761 0-5 2.239-5 5s2.238 5.001 5 5.001z"/><path d="m290.345 316.876h-55.405c-1.227 0-2.225-.998-2.225-2.225v-2.345c.35.076.704.123 1.061.123 1.279 0 2.559-.488 3.535-1.464 1.953-1.953 1.953-5.118 0-7.071l-6.061-6.062c-.938-.938-2.209-1.465-3.536-1.465s-2.598.527-3.536 1.465l-6.061 6.062c-1.953 1.953-1.953 5.118 0 7.071 1.248 1.248 2.99 1.689 4.596 1.341v2.345c0 6.741 5.484 12.225 12.225 12.225h55.406c2.762 0 5-2.239 5-5s-2.237-5-4.999-5z"/></g></g><g><path d="m233.776 58.978c-2.761 0-5-2.239-5-5 0-3.306-2.689-5.995-5.995-5.995-2.761 0-5-2.239-5-5s2.239-5 5-5c3.306 0 5.995-2.689 5.995-5.995 0-2.761 2.239-5 5-5s5 2.239 5 5c0 3.306 2.689 5.995 5.995 5.995 2.761 0 5 2.239 5 5s-2.239 5-5 5c-3.306 0-5.995 2.689-5.995 5.995 0 2.761-2.239 5-5 5z" fill="#ff7eb8"/><path d="m245 485.013c-2.761 0-5-2.239-5-5 0-3.306-2.689-5.995-5.996-5.995-2.761 0-5-2.239-5-5s2.239-5 5-5c3.306 0 5.996-2.689 5.996-5.995 0-2.761 2.239-5 5-5s5 2.239 5 5c0 3.306 2.689 5.995 5.995 5.995 2.762 0 5 2.239 5 5s-2.238 5-5 5c-3.306 0-5.995 2.689-5.995 5.995 0 2.761-2.239 5-5 5z" fill="#6583fe"/><path d="m327.356 474.018c-2.762 0-5-2.239-5-5 0-3.306-2.689-5.995-5.996-5.995-2.762 0-5-2.239-5-5s2.238-5 5-5c3.307 0 5.996-2.689 5.996-5.995 0-2.761 2.238-5 5-5s5 2.239 5 5c0 3.306 2.688 5.995 5.994 5.995 2.762 0 5 2.239 5 5s-2.238 5-5 5c-3.306 0-5.994 2.689-5.994 5.995 0 2.761-2.238 5-5 5z" fill="#ff7eb8"/><path d="m380.185 64.965c-1.121 0-2.249-.375-3.182-1.145l-11.987-9.902c-1.022-.845-1.667-2.061-1.793-3.381s.278-2.636 1.123-3.659l9.902-11.987c1.758-2.128 4.908-2.43 7.039-.67l11.987 9.902c1.022.845 1.667 2.061 1.793 3.381s-.278 2.636-1.123 3.659l-9.902 11.987c-.988 1.196-2.416 1.815-3.857 1.815zm-4.945-15.572 4.277 3.533 3.534-4.278-4.277-3.533z" fill="#97ffd2"/></g></g></svg>