<svg id="Capa_1" enable-background="new 0 0 512 512" height="512" viewBox="0 0 512 512" width="512" xmlns="http://www.w3.org/2000/svg" xmlns:xlink="http://www.w3.org/1999/xlink"><linearGradient id="SVGID_1_" gradientUnits="userSpaceOnUse" x1="53.345" x2="510.706" y1="143.154" y2="409.948"><stop offset=".0485" stop-color="#ffdbed"/><stop offset=".9993" stop-color="#d2deff"/></linearGradient><linearGradient id="SVGID_2_" gradientUnits="userSpaceOnUse" x1="256.001" x2="256.001" y1="105.542" y2="389.792"><stop offset=".0028" stop-color="#ff7eb8" stop-opacity="0"/><stop offset="1" stop-color="#ff7eb8" stop-opacity=".6"/></linearGradient><g><g><path d="m408.229 154.262c-23.697-9.236-43.717-26.089-55.961-48.381-20.59-37.487-60.43-62.898-106.221-62.898-47.53 0-88.646 27.377-108.477 67.219-12.146 24.401-32.814 43.56-58.09 53.761-37.349 15.074-68.703 49.524-78.653 103.382-1.092 5.91-1.108 11.986-.016 17.896 15.448 83.572 82.399 120.435 143.334 110.66 34.126-5.474 68.672 5.909 93.967 29.462 51.434 47.892 133.884 62.907 213.923 11.57 9.377-6.014 21.957-18.634 27.966-28.015 68.966-107.67 17.879-219.714-71.772-254.656z" fill="url(#SVGID_1_)"/><path d="m312.711 462.495h-113.421l22.682-89.904h68.057z" fill="#9fb0fe"/><path d="m297.929 403.893h-83.857l7.9-31.302h68.057z" fill="#8399fe"/><path d="m456.001 120.542v254.25c0 8.28-6.72 15-15 15h-370c-8.28 0-15-6.72-15-15v-254.25c0-8.28 6.72-15 15-15h370c8.28 0 15 6.72 15 15z" fill="#ffa8cf"/><path d="m109.871 153.713h292.26v185.686h-292.26z" fill="#ffc4df"/><path d="m456.001 153.713v-33.171c0-8.284-6.716-15-15-15h-370c-8.284 0-15 6.716-15 15v33.171z" fill="#6583fe"/><path d="m56.001 339.399v35.39c0 8.284 6.716 15 15 15h370c8.284 0 15-6.716 15-15v-35.39z" fill="#b7c5ff"/><g fill="#4369fd"><path d="m408.983 309.083c-1.28 0-2.56-.488-3.536-1.465-1.135-1.135-2.643-1.759-4.247-1.759s-3.112.624-4.247 1.759c-1.952 1.953-5.119 1.952-7.071.001-.977-.977-1.465-2.256-1.465-3.536 0-1.279.488-2.559 1.464-3.535 2.342-2.343 2.342-6.153 0-8.496-.977-.977-1.464-2.256-1.464-3.535 0-1.28.488-2.56 1.465-3.536 1.953-1.951 5.12-1.951 7.071.001 1.135 1.135 2.643 1.759 4.247 1.759s3.112-.624 4.247-1.759c1.952-1.953 5.119-1.952 7.071-.001.977.977 1.465 2.256 1.465 3.536 0 1.279-.488 2.559-1.464 3.535-2.342 2.343-2.342 6.153 0 8.496.977.977 1.464 2.256 1.464 3.535 0 1.28-.488 2.56-1.465 3.536-.976.976-2.256 1.464-3.535 1.464z"/><path d="m408.983 273.22c-1.28 0-2.56-.488-3.536-1.465-1.135-1.135-2.643-1.76-4.247-1.76s-3.112.625-4.247 1.76c-1.952 1.953-5.119 1.952-7.071.001-.977-.977-1.465-2.256-1.465-3.536 0-1.279.488-2.559 1.464-3.535 1.135-1.135 1.759-2.644 1.759-4.248s-.625-3.112-1.759-4.246c-.977-.977-1.465-2.256-1.465-3.536 0-1.279.488-2.559 1.464-3.535 1.952-1.953 5.119-1.952 7.071-.001 2.343 2.342 6.152 2.342 8.495 0 1.953-1.951 5.12-1.951 7.071.001.977.977 1.464 2.256 1.464 3.535 0 1.28-.488 2.56-1.465 3.536-1.134 1.134-1.759 2.642-1.759 4.246s.625 3.113 1.759 4.248c.977.977 1.464 2.256 1.464 3.535 0 1.28-.488 2.56-1.465 3.536-.973.975-2.253 1.464-3.532 1.464z"/><path d="m118.584 246.792c-1.28 0-2.559-.488-3.535-1.464-2.343-2.342-6.152-2.342-8.495 0-1.952 1.952-5.118 1.952-7.071-.001-.977-.977-1.464-2.256-1.464-3.535 0-1.28.488-2.56 1.465-3.536 1.134-1.134 1.759-2.643 1.759-4.246 0-1.604-.625-3.113-1.759-4.247-.977-.977-1.465-2.256-1.465-3.536 0-1.279.488-2.559 1.464-3.535 1.952-1.953 5.119-1.952 7.071-.001 2.343 2.342 6.152 2.342 8.495 0 1.953-1.951 5.119-1.951 7.071.001.977.977 1.464 2.256 1.464 3.535 0 1.28-.488 2.56-1.465 3.536-1.134 1.134-1.759 2.643-1.759 4.247s.625 3.112 1.759 4.246c.977.977 1.465 2.256 1.465 3.536 0 1.279-.488 2.559-1.464 3.535-.976.977-2.256 1.465-3.536 1.465z"/><path d="m118.584 210.929c-1.28 0-2.559-.488-3.535-1.464-2.343-2.342-6.152-2.342-8.495 0-1.952 1.952-5.118 1.952-7.071-.001-.977-.977-1.464-2.256-1.464-3.535 0-1.28.488-2.56 1.465-3.536 1.134-1.134 1.759-2.642 1.759-4.246s-.625-3.113-1.759-4.248c-.977-.977-1.464-2.256-1.464-3.535 0-1.28.488-2.56 1.465-3.536 1.953-1.951 5.119-1.951 7.071.001 1.135 1.135 2.643 1.759 4.247 1.759s3.112-.624 4.247-1.759c1.952-1.953 5.119-1.952 7.071-.001.977.977 1.465 2.256 1.465 3.536 0 1.279-.488 2.559-1.464 3.535-1.135 1.135-1.759 2.644-1.759 4.248s.625 3.112 1.759 4.246c.977.977 1.465 2.256 1.465 3.536 0 1.279-.488 2.559-1.464 3.535-.979.976-2.259 1.465-3.539 1.465z"/></g><path d="m309.324 287.503c-.541.541-1.012 1.124-1.426 1.734l-42.681-42.681 42.681-42.681c.414.61.886 1.193 1.427 1.734 4.616 4.616 12.1 4.616 16.716 0s4.616-12.1 0-16.716c-2.457-2.457-5.725-3.592-8.942-3.434.158-3.217-.977-6.485-3.434-8.941-4.616-4.616-12.1-4.616-16.716 0s-4.616 12.1 0 16.716c.541.541 1.124 1.012 1.734 1.426l-42.682 42.681-42.681-42.681c.61-.414 1.194-.886 1.734-1.426 4.616-4.616 4.616-12.1 0-16.716s-12.1-4.616-16.715 0c-2.457 2.457-3.592 5.725-3.434 8.941-3.217-.158-6.485.977-8.942 3.434-4.616 4.616-4.616 12.1 0 16.716s12.1 4.616 16.715 0c.541-.541 1.012-1.124 1.427-1.734l42.681 42.681-42.681 42.681c-.414-.61-.886-1.194-1.426-1.734-4.616-4.616-12.1-4.616-16.715 0-4.616 4.616-4.616 12.1 0 16.715 2.457 2.457 5.725 3.592 8.942 3.434-.158 3.217.977 6.485 3.434 8.942 4.616 4.616 12.1 4.616 16.715 0 4.616-4.616 4.616-12.1 0-16.715-.541-.541-1.124-1.012-1.734-1.427l42.68-42.681 42.681 42.681c-.61.414-1.194.886-1.734 1.427-4.616 4.616-4.616 12.1 0 16.715 4.616 4.616 12.1 4.616 16.716 0 2.457-2.457 3.592-5.725 3.434-8.942 3.217.158 6.485-.977 8.942-3.434 4.616-4.616 4.616-12.1 0-16.715-4.617-4.616-12.101-4.616-16.716 0z" fill="#d2deff"/><path d="m293.967 260.794c6.101-8.392 9.501-18.874 8.879-30.18-1.318-23.992-20.967-43.312-44.977-44.243-26.763-1.039-48.786 20.35-48.786 46.881 0 10.296 3.329 19.806 8.952 27.542l-6.049 6.049c-1.018 1.018-1.018 2.668 0 3.686l4.724 4.724c3.046 3.046 4.758 7.178 4.758 11.486 0 2.399 1.945 4.344 4.344 4.344h9.122c2.399 0 4.344-1.945 4.344-4.344v-4.356c0-2.514 2.367-4.391 4.799-3.754.026.007.053.014.079.021 1.722.448 2.941 1.974 2.941 3.753v11.092c0 2.399 1.945 4.344 4.344 4.344h9.122c2.399 0 4.344-1.945 4.344-4.344v-11.092c0-1.779 1.22-3.305 2.941-3.753.026-.007.053-.014.079-.021 2.432-.638 4.799 1.24 4.799 3.754v4.356c0 2.399 1.945 4.344 4.344 4.344h9.122c2.399 0 4.344-1.945 4.344-4.344 0-4.308 1.711-8.44 4.758-11.486l4.724-4.724c1.018-1.018 1.018-2.668 0-3.686z" fill="#fff"/><ellipse cx="238.046" cy="234.831" fill="#b7c5ff" rx="11.523" ry="11.523" transform="matrix(.16 -.987 .987 .16 -31.884 432.187)"/><path d="m299.17 256.617c-.685 0-1.381-.142-2.046-.44-38.002-17.078-60.108-63.169-61.031-65.123-1.179-2.497-.11-5.478 2.387-6.656 2.494-1.178 5.476-.112 6.655 2.384.211.446 21.493 44.727 56.088 60.274 2.519 1.132 3.643 4.092 2.511 6.61-.833 1.853-2.656 2.951-4.564 2.951z" fill="#8399fe"/><path d="m262.119 225.436c-1.428 0-2.64 1.133-2.643 2.561v.026c0 9.596 7.779 17.375 17.375 17.375s17.375-7.779 17.375-17.375c0-.009 0-.018 0-.026-.003-1.428-1.215-2.561-2.643-2.561z" fill="#ff7eb8"/><path d="m253.797 250.832-4.61 7.294c-1.097 1.735.15 3.999 2.203 3.999h9.219c2.053 0 3.3-2.263 2.203-3.999l-4.61-7.294c-1.021-1.619-3.382-1.619-4.405 0z" fill="#b7c5ff"/><path d="m456.001 120.542v254.25c0 8.28-6.72 15-15 15h-370c-8.28 0-15-6.72-15-15v-254.25c0-8.28 6.72-15 15-15h370c8.28 0 15 6.72 15 15z" fill="url(#SVGID_2_)"/><path d="m94.083 124.555c-2.761 0-5 2.238-5 5v.146c0 2.762 2.239 5 5 5s5-2.238 5-5v-.146c0-2.762-2.239-5-5-5z" fill="#2d58e0"/><path d="m113.408 124.555c-2.761 0-5 2.238-5 5v.146c0 2.762 2.239 5 5 5s5-2.238 5-5v-.146c0-2.762-2.239-5-5-5z" fill="#2d58e0"/><path d="m132.732 124.555c-2.761 0-5 2.238-5 5v.146c0 2.762 2.239 5 5 5s5-2.238 5-5v-.146c0-2.762-2.238-5-5-5z" fill="#2d58e0"/><path d="m331.935 457.49h-151.868c-2.761 0-5 2.238-5 5s2.239 5 5 5h151.868c2.761 0 5-2.238 5-5s-2.239-5-5-5z" fill="#6583fe"/></g><g><path d="m132.732 460.512c-1.326 0-2.598-.526-3.536-1.465l-10.995-10.995c-.938-.938-1.464-2.209-1.464-3.535s.527-2.598 1.464-3.535l10.995-10.994c1.953-1.953 5.119-1.952 7.071-.001l10.995 10.994c.938.938 1.465 2.21 1.465 3.536s-.527 2.598-1.464 3.535l-10.995 10.995c-.938.938-2.209 1.465-3.536 1.465zm-3.923-15.995 3.923 3.924 3.924-3.924-3.924-3.923z" fill="#6583fe"/><path d="m93.205 439.538c-1.326 0-2.598-.526-3.536-1.465l-10.995-10.995c-.938-.938-1.464-2.209-1.464-3.535s.527-2.598 1.464-3.535l10.995-10.994c1.953-1.953 5.119-1.952 7.071-.001l10.995 10.994c.938.938 1.465 2.21 1.465 3.536s-.527 2.598-1.464 3.535l-10.995 10.995c-.938.939-2.21 1.465-3.536 1.465zm-3.923-15.995 3.923 3.924 3.924-3.924-3.924-3.923z" fill="#ff7eb8"/><path d="m413.027 466.512c-1.28 0-2.559-.488-3.536-1.465l-10.995-10.995c-.938-.938-1.464-2.209-1.464-3.535s.527-2.598 1.465-3.536l10.995-10.994c1.952-1.951 5.118-1.951 7.07 0l10.995 10.994c.938.938 1.465 2.21 1.465 3.536s-.527 2.598-1.464 3.535l-10.995 10.995c-.977.976-2.256 1.465-3.536 1.465zm-3.923-15.995 3.924 3.924 3.924-3.924-3.924-3.924z" fill="#6583fe"/><path d="m360.446 75.169c-2.761 0-5-2.238-5-5 0-3.323-2.704-6.027-6.028-6.027-2.761 0-5-2.238-5-5s2.239-5 5-5c3.324 0 6.028-2.704 6.028-6.027 0-2.762 2.239-5 5-5s5 2.238 5 5c0 3.323 2.704 6.027 6.027 6.027 2.761 0 5 2.238 5 5s-2.239 5-5 5c-3.323 0-6.027 2.704-6.027 6.027 0 2.762-2.238 5-5 5z" fill="#97ffd2"/></g></g></svg>