<svg id="Capa_1" enable-background="new 0 0 512 512" height="512" viewBox="0 0 512 512" width="512" xmlns="http://www.w3.org/2000/svg" xmlns:xlink="http://www.w3.org/1999/xlink"><linearGradient id="SVGID_1_" gradientUnits="userSpaceOnUse" x1="46.861" x2="522.851" y1="153.62" y2="367.08"><stop offset="0" stop-color="#ffdbed"/><stop offset="1" stop-color="#dcfdee"/></linearGradient><linearGradient id="SVGID_2_" gradientUnits="userSpaceOnUse" x1="285.192" x2="285.192" y1="50.543" y2="424.492"><stop offset=".0028" stop-color="#ff7eb8" stop-opacity="0"/><stop offset="1" stop-color="#ff7eb8" stop-opacity=".6"/></linearGradient><g><g><path d="m408.228 149.822c-23.697-9.236-43.717-26.089-55.961-48.381-20.59-37.487-60.43-62.898-106.221-62.898-47.53 0-88.646 27.377-108.477 67.219-12.146 24.401-32.814 43.56-58.09 53.761-37.348 15.075-68.702 49.524-78.652 103.383-1.092 5.91-1.108 11.986-.016 17.896 15.448 83.572 82.399 120.435 143.334 110.66 34.126-5.474 68.672 5.909 93.967 29.462 51.434 47.892 133.884 62.907 213.923 11.57 9.377-6.014 21.957-18.634 27.966-28.015 68.966-107.67 17.878-219.715-71.773-254.657z" fill="url(#SVGID_1_)"/><path d="m353.2 114.6v343.97c0 8.28-6.72 14.99-14.99 14.99h-219.82c-8.27 0-14.99-6.71-14.99-14.99v-343.97c0-8.27 6.72-14.99 14.99-14.99h219.82c8.27 0 14.99 6.72 14.99 14.99z" fill="#d2deff"/><path d="m191.24 376.35v72.472c0 4.15-3.37 7.51-7.52 7.51h-80.32v-87.502h80.32c4.15 0 7.52 3.37 7.52 7.52z" fill="#9fb0fe"/><path d="m328.749 299.146v-123.9c0-1.656-1.342-2.998-2.998-2.998h-194.902c-1.656 0-2.998 1.342-2.998 2.998v123.9c0 1.656 1.342 2.998 2.998 2.998h194.903c1.655 0 2.997-1.342 2.997-2.998z" fill="#9fb0fe"/><path d="m353.199 253.668v187.419h-177.916c-8.273 0-14.988-6.715-14.988-14.988v-172.431z" fill="#9fb0fe"/><path d="m353.202 147.742v-33.144c0-8.278-6.71-14.988-14.988-14.988h-219.823c-8.278 0-14.988 6.71-14.988 14.988v33.145h249.799z" fill="#4369fd"/><path d="m410.091 65.531v343.973c0 8.273-6.715 14.988-14.988 14.988h-219.823c-8.273 0-14.988-6.715-14.988-14.988v-343.974c0-8.273 6.715-14.988 14.988-14.988h219.823c8.274.001 14.988 6.715 14.988 14.989z" fill="#9fb0fe"/><path d="m160.292 385.813v23.691c0 8.273 6.715 14.988 14.988 14.988h219.823c8.273 0 14.988-6.714 14.988-14.988v-23.691z" fill="#b7c5ff"/><path d="m214.831 50.544h-39.551c-8.273 0-14.988 6.714-14.988 14.988v343.973c0 8.273 6.715 14.988 14.988 14.988h39.551z" fill="#fff"/><path d="m410.091 98.676v-33.146c0-8.278-6.71-14.988-14.988-14.988h-219.823c-8.278 0-14.988 6.71-14.988 14.988v33.145h249.799z" fill="#ff7eb8"/><path d="m290.146 211.216h-15.731c-2.615 0-4.95 1.912-5.199 4.515-.285 2.986 2.055 5.499 4.984 5.499h15.946c2.765 0 5.007-2.242 5.007-5.007s-2.241-5.007-5.007-5.007z" fill="#d2deff"/><path d="m350.57 211.216h-37.41c-2.765 0-5.007 2.242-5.007 5.007s2.242 5.007 5.007 5.007h37.625c2.928 0 5.269-2.513 4.984-5.499-.248-2.603-2.584-4.515-5.199-4.515z" fill="#97ffd2"/><path d="m326.146 232.181h-51.731c-2.615 0-4.95 1.912-5.199 4.515-.285 2.986 2.055 5.5 4.984 5.5h51.946c2.765 0 5.007-2.242 5.007-5.007 0-2.767-2.241-5.008-5.007-5.008z" fill="#d2deff"/><path d="m380.57 232.181h-31.41c-2.765 0-5.007 2.242-5.007 5.007s2.242 5.007 5.007 5.007h31.625c2.928 0 5.269-2.513 4.984-5.5-.248-2.603-2.584-4.514-5.199-4.514z" fill="#97ffd2"/><path d="m311.146 253.145h-36.731c-2.615 0-4.95 1.912-5.199 4.515-.285 2.986 2.055 5.5 4.984 5.5h36.946c2.765 0 5.007-2.242 5.007-5.007 0-2.767-2.241-5.008-5.007-5.008z" fill="#d2deff"/><path d="m350.57 253.145h-16.41c-2.765 0-5.007 2.242-5.007 5.007s2.242 5.007 5.007 5.007h16.625c2.928 0 5.269-2.513 4.984-5.5-.248-2.603-2.584-4.514-5.199-4.514z" fill="#97ffd2"/><path d="m380.571 274.109h-61.41c-2.765 0-5.007 2.242-5.007 5.007s2.242 5.007 5.007 5.007h61.625c2.928 0 5.269-2.513 4.984-5.499-.249-2.603-2.584-4.516-5.199-4.515z" fill="#97ffd2"/><path d="m296.146 274.109h-21.731c-2.615 0-4.95 1.912-5.199 4.515-.285 2.986 2.056 5.499 4.984 5.499h21.946c2.765 0 5.007-2.242 5.007-5.007s-2.241-5.007-5.007-5.007z" fill="#d2deff"/><path d="m261.146 176.365h-16.731c-2.615 0-4.95 1.912-5.199 4.515-.285 2.986 2.055 5.499 4.984 5.499h16.946c2.765 0 5.007-2.242 5.007-5.007s-2.241-5.007-5.007-5.007z" fill="#fff"/><path d="m350.571 176.365h-65.077c-2.765 0-5.007 2.242-5.007 5.007s2.242 5.007 5.007 5.007h65.292c2.928 0 5.269-2.513 4.984-5.499-.249-2.603-2.584-4.515-5.199-4.515z" fill="#fff"/><path d="m261.146 311.93h-16.731c-2.615 0-4.95 1.912-5.199 4.515-.285 2.986 2.055 5.499 4.984 5.499h16.946c2.765 0 5.007-2.242 5.007-5.007 0-2.766-2.241-5.007-5.007-5.007z" fill="#fff"/><path d="m350.571 311.93h-65.077c-2.765 0-5.007 2.242-5.007 5.007s2.242 5.007 5.007 5.007h65.292c2.928 0 5.269-2.513 4.984-5.499-.249-2.604-2.584-4.515-5.199-4.515z" fill="#fff"/><g fill="#9fb0fe"><path d="m195.534 181.227c0-2.761-2.239-5-5-5s-5 2.239-5 5v.146c0 2.761 2.239 5 5 5s5-2.239 5-5z"/><path d="m195.534 226.56c0-2.761-2.239-5-5-5s-5 2.239-5 5v.145c0 2.761 2.239 5 5 5s5-2.239 5-5z"/><path d="m195.534 271.894c0-2.761-2.239-5-5-5s-5 2.239-5 5v.145c0 2.761 2.239 5 5 5s5-2.239 5-5z"/><path d="m190.534 312.227c-2.761 0-5 2.239-5 5v.146c0 2.761 2.239 5 5 5s5-2.239 5-5v-.146c0-2.761-2.239-5-5-5z"/></g><path d="m410.091 65.531v343.973c0 8.273-6.715 14.988-14.988 14.988h-219.823c-8.273 0-14.988-6.715-14.988-14.988v-343.974c0-8.273 6.715-14.988 14.988-14.988h219.823c8.274.001 14.988 6.715 14.988 14.989z" fill="url(#SVGID_2_)"/><path d="m136.455 123.603v.145c0 2.761 2.239 5 5 5s5-2.239 5-5v-.145c0-2.761-2.239-5-5-5s-5 2.239-5 5z" fill="#2d58e0"/><path d="m198.344 69.537c-2.761 0-5 2.239-5 5v.145c0 2.761 2.239 5 5 5s5-2.239 5-5v-.145c0-2.762-2.239-5-5-5z" fill="#fe2c8f"/><path d="m217.653 69.537c-2.761 0-5 2.239-5 5v.145c0 2.761 2.239 5 5 5s5-2.239 5-5v-.145c0-2.762-2.239-5-5-5z" fill="#fe2c8f"/><path d="m236.962 69.537c-2.761 0-5 2.239-5 5v.145c0 2.761 2.239 5 5 5s5-2.239 5-5v-.145c0-2.762-2.238-5-5-5z" fill="#fe2c8f"/><path d="m183.721 443.14h-108.316c-4.152 0-7.518-3.366-7.518-7.518v-70.507c0-4.152 3.366-7.518 7.518-7.518h108.316c4.152 0 7.518 3.366 7.518 7.518v70.507c.001 4.152-3.365 7.518-7.518 7.518z" fill="#ff7eb8"/><path d="m106.192 417.397c-1.279 0-2.559-.488-3.534-1.464l-12.03-12.03c-1.952-1.952-1.952-5.117 0-7.068l12.03-12.03c1.95-1.951 5.117-1.951 7.067 0 1.952 1.952 1.952 5.117 0 7.068l-8.496 8.496 8.496 8.496c1.952 1.952 1.952 5.117 0 7.068-.974.976-2.254 1.464-3.533 1.464z" fill="#fff"/><path d="m152.935 383.34c1.279 0 2.559.488 3.534 1.464l12.03 12.03c1.952 1.952 1.952 5.117 0 7.068l-12.03 12.03c-1.95 1.951-5.117 1.951-7.067 0-1.952-1.952-1.952-5.117 0-7.068l8.496-8.496-8.496-8.496c-1.952-1.952-1.952-5.117 0-7.068.974-.976 2.254-1.464 3.533-1.464z" fill="#fff"/><path d="m122.765 417.398c-.833 0-1.676-.208-2.452-.647-2.404-1.357-3.253-4.406-1.895-6.81l13.586-24.061c1.357-2.403 4.406-3.252 6.809-1.895 2.404 1.357 3.253 4.406 1.895 6.81l-13.586 24.061c-.919 1.627-2.612 2.542-4.357 2.542z" fill="#fff"/></g><g><path d="m67.887 136.187c-2.761 0-5-2.239-5-5 0-3.313-2.696-6.009-6.009-6.009-2.761 0-5-2.239-5-5s2.239-5 5-5c3.313 0 6.009-2.695 6.009-6.009 0-2.761 2.239-5 5-5s5 2.239 5 5c0 3.313 2.695 6.009 6.009 6.009 2.761 0 5 2.239 5 5s-2.239 5-5 5c-3.313 0-6.009 2.696-6.009 6.009 0 2.762-2.239 5-5 5z" fill="#6583fe"/><path d="m399.153 477.594c-1.28 0-2.559-.488-3.536-1.464l-11.016-11.016c-1.953-1.953-1.953-5.119 0-7.071l11.016-11.016c1.953-1.952 5.118-1.952 7.071 0l11.016 11.016c1.953 1.953 1.953 5.119 0 7.071l-11.016 11.016c-.976.975-2.255 1.464-3.535 1.464zm-3.944-16.016 3.944 3.944 3.944-3.944-3.944-3.944z" fill="#ff7eb8"/><path d="m114.339 66.439c-2.761 0-5-2.239-5-5 0-3.317-2.699-6.016-6.016-6.016-2.761 0-5-2.239-5-5s2.239-5 5-5c3.317 0 6.016-2.699 6.016-6.016 0-2.761 2.239-5 5-5s5 2.239 5 5c0 3.317 2.699 6.016 6.016 6.016 2.761 0 5 2.239 5 5s-2.239 5-5 5c-3.317 0-6.016 2.699-6.016 6.016 0 2.761-2.239 5-5 5z" fill="#97ffd2"/><path d="m444.106 136.115c-2.761 0-5-2.239-5-5 0-3.317-2.699-6.016-6.016-6.016-2.761 0-5-2.239-5-5s2.239-5 5-5c3.317 0 6.016-2.699 6.016-6.016 0-2.761 2.239-5 5-5s5 2.239 5 5c0 3.317 2.699 6.016 6.016 6.016 2.761 0 5 2.239 5 5s-2.239 5-5 5c-3.317 0-6.016 2.699-6.016 6.016 0 2.761-2.238 5-5 5z" fill="#6583fe"/></g></g></svg>