<svg id="Capa_1" enable-background="new 0 0 512 512" height="512" viewBox="0 0 512 512" width="512" xmlns="http://www.w3.org/2000/svg" xmlns:xlink="http://www.w3.org/1999/xlink"><linearGradient id="SVGID_1_" gradientUnits="userSpaceOnUse" x1="-23.934" x2="528.119" y1="185.738" y2="362.395"><stop offset=".0485" stop-color="#d2deff"/><stop offset=".9993" stop-color="#dcfdee"/></linearGradient><linearGradient id="SVGID_2_" gradientUnits="userSpaceOnUse" x1="242.869" x2="242.869" y1="94.045" y2="417.954"><stop offset=".0028" stop-color="#ff7eb8" stop-opacity="0"/><stop offset="1" stop-color="#ff7eb8" stop-opacity=".6"/></linearGradient><g><g><path d="m382.606 174.016c-.192-.001-.385-.002-.577-.002-32.034-.05-62.385-13.844-83.44-37.986-31.366-35.964-77.6-58.622-129.121-58.393-93.512.414-170.663 78.98-169.454 172.485 1.203 92.986 76.955 167.995 170.227 167.995 26.343 0 51.286-5.987 73.547-16.672 19.194-9.213 42.065-6.784 58.968 6.161 21.863 16.745 49.19 26.713 78.846 26.763 71.382.119 129.981-58.02 130.396-129.401.418-72.049-57.442-130.527-129.392-130.95z" fill="url(#SVGID_1_)"/><path d="m118.29 99.042v66.781c0 2.76 2.237 4.997 4.997 4.997h20.891c2.301 0 4.305-1.572 4.853-3.807l9.388-38.27c.548-2.235 2.552-3.807 4.853-3.807h54.657c2.76 0 4.997 2.237 4.997 4.997v244.17c0 2.359-1.65 4.397-3.957 4.888l-53.141 11.311c-2.307.491-3.957 2.529-3.957 4.888v17.767c0 2.76 2.237 4.997 4.997 4.997h152.001c2.76 0 4.997-2.237 4.997-4.997v-17.767c0-2.359-1.65-4.397-3.957-4.888l-53.141-11.311c-2.307-.491-3.957-2.529-3.957-4.888v-244.17c0-2.76 2.237-4.997 4.997-4.997h54.657c2.301 0 4.305 1.572 4.853 3.807l9.388 38.27c.548 2.235 2.552 3.807 4.853 3.807h20.891c2.76 0 4.997-2.237 4.997-4.997v-66.781c0-2.76-2.237-4.997-4.997-4.997h-239.162c-2.76 0-4.998 2.237-4.998 4.997z" fill="#ffa8cf"/><path d="m118.29 99.042v66.781c0 2.76 2.237 4.997 4.997 4.997h20.891c2.301 0 4.305-1.572 4.853-3.807l9.388-38.27c.548-2.235 2.552-3.807 4.853-3.807h54.657c2.76 0 4.997 2.237 4.997 4.997v244.17c0 2.359-1.65 4.397-3.957 4.888l-53.141 11.311c-2.307.491-3.957 2.529-3.957 4.888v17.767c0 2.76 2.237 4.997 4.997 4.997h152.001c2.76 0 4.997-2.237 4.997-4.997v-17.767c0-2.359-1.65-4.397-3.957-4.888l-53.141-11.311c-2.307-.491-3.957-2.529-3.957-4.888v-244.17c0-2.76 2.237-4.997 4.997-4.997h54.657c2.301 0 4.305 1.572 4.853 3.807l9.388 38.27c.548 2.235 2.552 3.807 4.853 3.807h20.891c2.76 0 4.997-2.237 4.997-4.997v-66.781c0-2.76-2.237-4.997-4.997-4.997h-239.162c-2.76 0-4.998 2.237-4.998 4.997z" fill="url(#SVGID_2_)"/><path d="m436.916 136.822h9.983c4.113 0 6.465-4.691 4.005-7.986l-21.962-29.425c-1.999-2.678-6.011-2.678-8.01 0l-21.962 29.425c-2.46 3.296-.108 7.986 4.005 7.986h9.983v238.356h-9.983c-4.113 0-6.465 4.691-4.005 7.986l21.962 29.425c1.999 2.678 6.011 2.678 8.01 0l21.962-29.425c2.46-3.296.108-7.986-4.005-7.986h-9.983z" fill="#9fb0fe"/><path d="m288.744 352.839c-2.762 0-5-2.239-5-5v-152.806c0-2.761 2.238-5 5-5s5 2.239 5 5v152.807c0 2.76-2.238 4.999-5 4.999z" fill="#6583fe"/><path d="m220.781 63h-160.791c-2.762 0-5-2.239-5-5s2.238-5 5-5h160.791c2.762 0 5 2.239 5 5s-2.238 5-5 5z" fill="#97ffd2"/><path d="m367.454 459h-307.464c-2.762 0-5-2.239-5-5s2.238-5 5-5h307.464c2.762 0 5 2.239 5 5s-2.238 5-5 5z" fill="#97ffd2"/><path d="m78.48 99.045c2.762 0 5-2.239 5-5s-2.238-5-5-5h-18.49c-2.762 0-5 2.239-5 5v323.909c0 2.761 2.238 5 5 5h18.49c2.762 0 5-2.239 5-5s-2.238-5-5-5h-13.49v-42.013h13.49c2.762 0 5-2.239 5-5s-2.238-5-5-5h-13.49v-44.971h13.49c2.762 0 5-2.239 5-5s-2.238-5-5-5h-13.49v-44.97h13.49c2.762 0 5-2.239 5-5s-2.238-5-5-5h-13.49v-44.971h13.49c2.762 0 5-2.239 5-5s-2.238-5-5-5h-13.49v-44.971h13.49c2.762 0 5-2.239 5-5s-2.238-5-5-5h-13.49v-42.013z" fill="#2d58e0"/></g><g><path d="m140.268 352.839c-2.762 0-5-2.239-5-5 0-3.305-2.688-5.994-5.994-5.994-2.762 0-5-2.239-5-5s2.238-5 5-5c3.306 0 5.994-2.689 5.994-5.994 0-2.761 2.238-5 5-5s5 2.239 5 5c0 3.305 2.688 5.994 5.994 5.994 2.762 0 5 2.239 5 5s-2.238 5-5 5c-3.306 0-5.994 2.689-5.994 5.994 0 2.761-2.238 5-5 5z" fill="#6583fe"/><path d="m356.46 236.013c-2.762 0-5-2.239-5-5 0-3.305-2.688-5.994-5.994-5.994-2.762 0-5-2.239-5-5s2.238-5 5-5c3.306 0 5.994-2.689 5.994-5.994 0-2.761 2.238-5 5-5s5 2.239 5 5c0 3.305 2.688 5.994 5.994 5.994 2.762 0 5 2.239 5 5s-2.238 5-5 5c-3.306 0-5.994 2.689-5.994 5.994 0 2.761-2.238 5-5 5z" fill="#6583fe"/><path d="m170.807 282.988c-1.279 0-2.56-.488-3.535-1.464l-10.994-10.994c-1.953-1.953-1.953-5.119 0-7.071l10.994-10.994c1.951-1.952 5.119-1.952 7.07 0l10.994 10.994c1.953 1.953 1.953 5.119 0 7.071l-10.994 10.994c-.975.976-2.255 1.464-3.535 1.464zm-3.922-15.994 3.923 3.923 3.923-3.923-3.923-3.923z" fill="#ff7eb8"/><path d="m393.009 90.985c-2.762 0-5-2.239-5-5 0-3.305-2.688-5.994-5.994-5.994-2.762 0-5-2.239-5-5s2.238-5 5-5c3.306 0 5.994-2.689 5.994-5.995 0-2.761 2.238-5 5-5s5 2.239 5 5c0 3.306 2.688 5.995 5.994 5.995 2.762 0 5 2.239 5 5s-2.238 5-5 5c-3.306 0-5.994 2.689-5.994 5.994 0 2.761-2.239 5-5 5z" fill="#97ffd2"/></g></g></svg>