<svg id="Capa_1" enable-background="new 0 0 512 512" height="512" viewBox="0 0 512 512" width="512" xmlns="http://www.w3.org/2000/svg" xmlns:xlink="http://www.w3.org/1999/xlink"><linearGradient id="SVGID_1_" gradientUnits="userSpaceOnUse" x1=".856" x2="538.187" y1="156.147" y2="342.618"><stop offset=".0485" stop-color="#ffdbed"/><stop offset=".9993" stop-color="#d2deff"/></linearGradient><linearGradient id="SVGID_2_" gradientUnits="userSpaceOnUse" x1="216.843" x2="216.843" y1="132.068" y2="381.107"><stop offset=".0028" stop-color="#ff7eb8" stop-opacity="0"/><stop offset="1" stop-color="#ff7eb8" stop-opacity=".6"/></linearGradient><g><g><g><path d="m408.229 154.262c-23.697-9.236-43.717-26.089-55.961-48.381-20.59-37.487-60.43-62.898-106.221-62.898-47.53 0-88.646 27.377-108.477 67.219-12.146 24.401-32.814 43.56-58.09 53.761-37.349 15.074-68.703 49.524-78.653 103.382-1.092 5.91-1.108 11.986-.016 17.896 15.448 83.572 82.399 120.435 143.334 110.66 34.126-5.474 68.672 5.909 93.967 29.462 51.434 47.892 133.884 62.907 213.923 11.57 9.377-6.014 21.957-18.634 27.966-28.015 68.966-107.67 17.879-219.714-71.772-254.656z" fill="url(#SVGID_1_)"/><path d="m266.528 444.808h-99.372l12.952-51.344 6.921-27.424h59.627l6.921 27.424z" fill="#9fb0fe"/><path d="m253.577 393.464h-73.469l6.921-27.424h59.627z" fill="#8399fe"/><path d="m367.622 381.107h-301.558c-9.148 0-16.563-7.416-16.563-16.563v-215.913c0-9.148 7.416-16.563 16.563-16.563h301.558c9.148 0 16.563 7.416 16.563 16.563v215.913c0 9.148-7.416 16.563-16.563 16.563z" fill="#fff"/><path d="m403.081 320.281h-105.37c-4.154 0-7.522-3.368-7.522-7.522v-64.542c0-4.154 3.368-7.522 7.522-7.522h105.37c4.154 0 7.522 3.368 7.522 7.522v64.542c0 4.155-3.367 7.522-7.522 7.522z" fill="#d2deff"/><path d="m384.185 242.221v-93.59c0-9.148-7.416-16.563-16.563-16.563h-301.558c-9.148 0-16.563 7.416-16.563 16.563v93.59z" fill="#97ffd2"/><path d="m367.622 132.068h-111.954v110.153h128.517v-93.59c0-9.148-7.416-16.563-16.563-16.563z" fill="#02ffb3"/><path d="m367.622 132.068h-28.621v110.153h45.184v-93.59c0-9.148-7.416-16.563-16.563-16.563z" fill="#01eca5"/><path d="m384.185 174.273v-25.642c0-9.148-7.416-16.563-16.563-16.563h-301.558c-9.147 0-16.563 7.416-16.563 16.563v25.642z" fill="#ff7eb8"/><g fill="#b7c5ff"><path d="m49.501 336.959v27.585c0 9.147 7.416 16.563 16.563 16.563h301.558c9.147 0 16.563-7.416 16.563-16.563v-27.585z"/><path d="m223.871 291.246h-136.742c-2.766 0-5.008-2.242-5.008-5.008s2.242-5.008 5.008-5.008h136.742c2.766 0 5.008 2.242 5.008 5.008s-2.242 5.008-5.008 5.008z"/><path d="m223.871 311.112h-136.742c-2.766 0-5.008-2.242-5.008-5.008s2.242-5.008 5.008-5.008h136.742c2.766 0 5.008 2.242 5.008 5.008s-2.242 5.008-5.008 5.008z"/></g><path d="m117.822 242.221c4.699-3.935 7.697-9.838 7.697-16.432 0-11.817-9.614-21.432-21.432-21.432s-21.432 9.614-21.432 21.432c0 6.594 2.998 12.498 7.697 16.432-4.699 3.935-7.697 9.838-7.697 16.432 0 2.761 2.239 5 5 5s5-2.239 5-5c0-6.304 5.128-11.432 11.432-11.432s11.432 5.128 11.432 11.432c0 2.761 2.239 5 5 5s5-2.239 5-5c0-6.594-2.998-12.497-7.697-16.432zm-25.167-16.432c0-6.303 5.128-11.432 11.432-11.432s11.432 5.128 11.432 11.432-5.128 11.432-11.432 11.432-11.432-5.128-11.432-11.432z" fill="#ff7eb8"/><circle cx="264.023" cy="294.647" fill="#ff5ba8" r="5.59"/><circle cx="264.023" cy="277.737" fill="#ff5ba8" r="5.59"/><path d="m264.023 255.237c3.087 0 5.59 2.503 5.59 5.59s-2.503 5.59-5.59 5.59-5.59-2.503-5.59-5.59 2.503-5.59 5.59-5.59z" fill="#ff5ba8"/><path d="m367.622 381.107h-301.558c-9.148 0-16.563-7.416-16.563-16.563v-215.913c0-9.148 7.416-16.563 16.563-16.563h301.558c9.148 0 16.563 7.416 16.563 16.563v215.913c0 9.148-7.416 16.563-16.563 16.563z" fill="url(#SVGID_2_)"/><path d="m451.459 444.803h-81.711c-6.098 0-11.042-4.944-11.042-11.042v-153.485c0-6.098 4.944-11.042 11.042-11.042h81.711c6.098 0 11.042 4.944 11.042 11.042v153.485c0 6.098-4.944 11.042-11.042 11.042z" fill="#fff"/><path d="m433.826 400.499h-46.446c-2.766 0-5.008-2.242-5.008-5.008s2.242-5.008 5.008-5.008h46.446c2.766 0 5.008 2.242 5.008 5.008s-2.242 5.008-5.008 5.008z" fill="#b7c5ff"/><path d="m433.826 420.365h-46.446c-2.766 0-5.008-2.242-5.008-5.008s2.242-5.008 5.008-5.008h46.446c2.766 0 5.008 2.242 5.008 5.008s-2.242 5.008-5.008 5.008z" fill="#b7c5ff"/><path d="m462.501 280.273v72.76h-103.8v-72.76c0-6.09 4.95-11.04 11.05-11.04h81.71c6.1 0 11.04 4.95 11.04 11.04z" fill="#97ffd2"/><path d="m410.601 269.233v43.53c0 4.15-3.37 7.52-7.52 7.52h-44.38v-40.01c0-6.09 4.95-11.04 11.05-11.04z" fill="#02ffb3"/><path d="m431.624 284.931 5.112-15.696h-52.265l5.112 15.696c.74 2.273 2.859 3.811 5.25 3.811h31.542c2.39 0 4.509-1.538 5.249-3.811z" fill="#b7c5ff"/><path d="m403.081 308.236h-105.37c-4.154 0-7.522-3.368-7.522-7.522v-79.542c0-4.154 3.368-7.522 7.522-7.522h105.37c4.154 0 7.522 3.368 7.522 7.522v79.542c0 4.154-3.367 7.522-7.522 7.522z" fill="#ff7eb8"/><path d="m316.05 246.206h55.406c1.228 0 2.226.998 2.226 2.225v2.346c-1.606-.348-3.349.093-4.598 1.341-1.952 1.953-1.952 5.118.001 7.071l6.062 6.061c.938.938 2.209 1.464 3.535 1.464s2.598-.527 3.536-1.465l6.061-6.061c1.952-1.953 1.952-5.118-.001-7.071-1.248-1.248-2.99-1.689-4.596-1.341v-2.345c0-6.741-5.484-12.225-12.226-12.225h-55.406c-2.762 0-5 2.239-5 5s2.238 5 5 5z" fill="#fff"/><path d="m384.742 275.679h-55.406c-1.227 0-2.225-.998-2.225-2.225v-2.345c.35.076.704.123 1.061.123 1.279 0 2.56-.488 3.535-1.464 1.953-1.953 1.953-5.118.001-7.071l-6.061-6.061c-.938-.938-2.21-1.465-3.536-1.465s-2.598.527-3.535 1.464l-6.062 6.061c-1.953 1.953-1.953 5.118-.001 7.071 1.249 1.249 2.992 1.69 4.598 1.342v2.345c0 6.741 5.484 12.225 12.225 12.225h55.406c2.762 0 5-2.239 5-5s-2.238-5-5-5z" fill="#fff"/><path d="m427.214 340.509c0-9.161-7.453-16.613-16.613-16.613s-16.613 7.453-16.613 16.613c0 4.518 1.818 8.615 4.755 11.613-2.936 2.998-4.755 7.095-4.755 11.613 0 2.761 2.238 5 5 5s5-2.239 5-5c0-3.646 2.967-6.613 6.613-6.613s6.613 2.967 6.613 6.613c0 2.761 2.238 5 5 5s5-2.239 5-5c0-4.518-1.818-8.615-4.755-11.613 2.937-2.997 4.755-7.095 4.755-11.613zm-16.613-6.613c3.646 0 6.613 2.967 6.613 6.613s-2.967 6.613-6.613 6.613-6.613-2.967-6.613-6.613 2.966-6.613 6.613-6.613z" fill="#ff7eb8"/></g><g><path d="m120.519 94.228c-1.28 0-2.559-.488-3.536-1.464l-11.018-11.018c-1.953-1.953-1.953-5.119 0-7.071l11.018-11.018c1.953-1.952 5.118-1.952 7.071 0l11.018 11.018c1.953 1.953 1.953 5.119 0 7.071l-11.018 11.018c-.976.976-2.255 1.464-3.535 1.464zm-3.947-16.018 3.947 3.947 3.947-3.947-3.947-3.947z" fill="#ff7eb8"/><path d="m392.987 113.034c-1.326 0-2.598-.527-3.535-1.464l-11.018-11.018c-1.953-1.953-1.953-5.119 0-7.071l11.018-11.018c.938-.938 2.209-1.464 3.535-1.464s2.598.527 3.535 1.464l11.019 11.017c.938.938 1.465 2.209 1.465 3.536s-.526 2.598-1.465 3.536l-11.019 11.018c-.937.937-2.208 1.464-3.535 1.464zm-3.946-16.018 3.946 3.947 3.947-3.947-3.947-3.947z" fill="#6583fe"/><g fill="#97ffd2"><path d="m105.71 440.808c-2.761 0-5-2.239-5-5 0-3.318-2.7-6.018-6.018-6.018-2.761 0-5-2.239-5-5s2.239-5 5-5c3.318 0 6.018-2.7 6.018-6.018 0-2.761 2.239-5 5-5s5 2.239 5 5c0 3.318 2.7 6.018 6.018 6.018 2.761 0 5 2.239 5 5s-2.239 5-5 5c-3.318 0-6.018 2.7-6.018 6.018 0 2.761-2.238 5-5 5z"/><path d="m427.816 151.188c-2.762 0-5-2.239-5-5 0-3.318-2.699-6.018-6.018-6.018-2.762 0-5-2.239-5-5s2.238-5 5-5c3.318 0 6.018-2.7 6.018-6.018 0-2.761 2.238-5 5-5s5 2.239 5 5c0 3.318 2.699 6.018 6.018 6.018 2.762 0 5 2.239 5 5s-2.238 5-5 5c-3.318 0-6.018 2.7-6.018 6.018 0 2.762-2.238 5-5 5z"/></g></g></g><g><g fill="#fe2c8f"><path d="m82.866 158.234c2.761 0 5-2.239 5-5v-.127c0-2.761-2.239-5-5-5s-5 2.239-5 5v.127c0 2.761 2.239 5 5 5z"/><path d="m99.797 158.234c2.761 0 5-2.239 5-5v-.127c0-2.761-2.239-5-5-5s-5 2.239-5 5v.127c0 2.761 2.239 5 5 5z"/><path d="m116.728 158.234c2.761 0 5-2.239 5-5v-.127c0-2.761-2.239-5-5-5s-5 2.239-5 5v.127c0 2.761 2.239 5 5 5z"/></g><path d="m283.371 439.802h-133.056c-2.761 0-5 2.239-5 5s2.239 5 5 5h133.056c2.762 0 5-2.239 5-5s-2.238-5-5-5z" fill="#6583fe"/></g></g></svg>