<svg id="Capa_1" enable-background="new 0 0 512 512" height="512" viewBox="0 0 512 512" width="512" xmlns="http://www.w3.org/2000/svg" xmlns:xlink="http://www.w3.org/1999/xlink"><linearGradient id="SVGID_1_" gradientUnits="userSpaceOnUse" x1="-15.209" x2="512.307" y1="178.009" y2="376.748"><stop offset="0" stop-color="#ffdbed"/><stop offset="1" stop-color="#dcfdee"/></linearGradient><linearGradient id="SVGID_2_" gradientUnits="userSpaceOnUse" x1="216.841" x2="216.841" y1="132.737" y2="381.776"><stop offset=".0028" stop-color="#ff7eb8" stop-opacity="0"/><stop offset="1" stop-color="#ff7eb8" stop-opacity=".6"/></linearGradient><g><g><g><path d="m382.606 174.018c-.192-.001-.385-.002-.577-.002-32.034-.05-62.385-13.844-83.44-37.986-31.366-35.964-77.6-58.622-129.121-58.393-93.512.415-170.663 78.981-169.454 172.486 1.203 92.986 76.955 167.995 170.227 167.995 26.343 0 51.286-5.987 73.547-16.672 19.194-9.213 42.065-6.784 58.968 6.161 21.863 16.745 49.19 26.713 78.846 26.763 71.382.119 129.981-58.02 130.396-129.401.418-72.05-57.442-130.527-129.392-130.951z" fill="url(#SVGID_1_)"/><path d="m266.527 445.477h-99.372l12.951-51.343 6.922-27.425h59.627l6.921 27.425z" fill="#9fb0fe"/><path d="m253.576 394.134h-73.47l6.922-27.425h59.627z" fill="#8399fe"/><path d="m367.621 381.776h-301.558c-9.148 0-16.563-7.416-16.563-16.563v-215.913c0-9.148 7.416-16.563 16.563-16.563h301.557c9.148 0 16.563 7.416 16.563 16.563v215.913c.001 9.148-7.415 16.563-16.562 16.563z" fill="#fff"/><path d="m367.621 132.737h-79.405v249.039h79.405c9.147 0 16.563-7.416 16.563-16.563v-215.913c0-9.147-7.416-16.563-16.563-16.563z" fill="#ffa8cf"/><path d="m384.184 174.942v-25.642c0-9.148-7.416-16.563-16.563-16.563h-301.558c-9.147 0-16.563 7.416-16.563 16.563v25.642z" fill="#6583fe"/><path d="m49.5 337.628v27.585c0 9.148 7.416 16.563 16.563 16.563h301.558c9.147 0 16.563-7.416 16.563-16.563v-27.585z" fill="#b7c5ff"/><circle cx="114.481" cy="233.397" fill="#ff7eb8" r="32.362"/><circle cx="114.481" cy="233.397" fill="#ff7eb8" r="32.362"/><path d="m121.563 233.397 5.724-5.724c1.956-1.956 1.956-5.127 0-7.083-1.954-1.955-5.127-1.955-7.082 0l-5.724 5.724-5.724-5.724c-1.954-1.955-5.127-1.955-7.082 0-1.956 1.956-1.956 5.127 0 7.083l5.724 5.724-5.724 5.724c-1.956 1.956-1.956 5.127 0 7.083.977.978 2.26 1.467 3.541 1.467s2.564-.489 3.541-1.467l5.724-5.724 5.724 5.724c.977.978 2.26 1.467 3.541 1.467s2.564-.489 3.541-1.467c1.956-1.956 1.956-5.127 0-7.083z" fill="#fff"/><circle cx="410.602" cy="359.702" fill="#ff7eb8" r="32.362"/><g fill="#b7c5ff"><path d="m223.87 291.915h-136.742c-2.766 0-5.008-2.242-5.008-5.008s2.242-5.008 5.008-5.008h136.742c2.766 0 5.008 2.242 5.008 5.008s-2.242 5.008-5.008 5.008z"/><path d="m223.87 258.513h-46.595c-2.766 0-5.008-2.242-5.008-5.008s2.242-5.008 5.008-5.008h46.595c2.766 0 5.008 2.242 5.008 5.008s-2.242 5.008-5.008 5.008z"/><path d="m223.87 240.724h-46.595c-2.766 0-5.008-2.242-5.008-5.008s2.242-5.008 5.008-5.008h46.595c2.766 0 5.008 2.242 5.008 5.008 0 2.765-2.242 5.008-5.008 5.008z"/><path d="m223.87 311.781h-136.742c-2.766 0-5.008-2.242-5.008-5.008s2.242-5.008 5.008-5.008h136.742c2.766 0 5.008 2.242 5.008 5.008s-2.242 5.008-5.008 5.008z"/></g><path d="m276.697 205.651h23.038c1.66 0 3.005 1.345 3.005 3.005v85.973c0 1.66-1.345 3.005-3.005 3.005h-23.038c-1.66 0-3.005-1.345-3.005-3.005v-85.973c0-1.66 1.345-3.005 3.005-3.005z" fill="#97ffd2"/><path d="m367.621 381.776h-301.558c-9.148 0-16.563-7.416-16.563-16.563v-215.913c0-9.148 7.416-16.563 16.563-16.563h301.557c9.148 0 16.563 7.416 16.563 16.563v215.913c.001 9.148-7.415 16.563-16.562 16.563z" fill="url(#SVGID_2_)"/><path d="m451.458 445.472h-81.711c-6.098 0-11.042-4.944-11.042-11.042v-153.484c0-6.098 4.944-11.042 11.042-11.042h81.711c6.098 0 11.042 4.944 11.042 11.042v153.484c0 6.099-4.944 11.042-11.042 11.042z" fill="#fff"/><path d="m431.623 285.6 5.112-15.696h-52.266l5.112 15.696c.74 2.273 2.859 3.811 5.25 3.811h31.542c2.391 0 4.51-1.538 5.25-3.811z" fill="#b7c5ff"/><circle cx="410.602" cy="359.702" fill="#ff7eb8" r="32.362"/><path d="m417.685 359.702 5.724-5.724c1.956-1.956 1.956-5.127 0-7.083-1.954-1.955-5.127-1.955-7.082 0l-5.724 5.724-5.724-5.724c-1.954-1.955-5.127-1.955-7.082 0-1.956 1.956-1.956 5.127 0 7.083l5.724 5.724-5.724 5.724c-1.956 1.956-1.956 5.127 0 7.083.977.978 2.26 1.467 3.541 1.467s2.564-.489 3.541-1.467l5.724-5.724 5.724 5.724c.977.978 2.26 1.467 3.541 1.467s2.564-.489 3.541-1.467c1.956-1.956 1.956-5.127 0-7.083z" fill="#fff"/></g><g><path d="m426.773 238.397c-1.326 0-2.598-.527-3.535-1.464l-11.019-11.018c-.938-.938-1.465-2.209-1.465-3.536s.526-2.598 1.465-3.536l11.019-11.018c.938-.938 2.209-1.464 3.535-1.464s2.598.527 3.535 1.464l11.018 11.018c1.953 1.953 1.953 5.119 0 7.071l-11.018 11.018c-.937.938-2.209 1.465-3.535 1.465zm-3.947-16.018 3.947 3.947 3.946-3.947-3.946-3.947z" fill="#ff7eb8"/><path d="m286.098 93.563c-1.326 0-2.598-.527-3.535-1.464l-11.018-11.018c-1.953-1.953-1.953-5.119 0-7.071l11.018-11.018c.938-.938 2.209-1.464 3.535-1.464s2.598.527 3.535 1.464l11.019 11.018c.938.938 1.465 2.209 1.465 3.536s-.526 2.598-1.465 3.536l-11.019 11.018c-.937.936-2.208 1.463-3.535 1.463zm-3.946-16.018 3.946 3.947 3.947-3.947-3.947-3.947z" fill="#6583fe"/><path d="m71.536 435.984c-2.762 0-5-2.239-5-5 0-3.318-2.7-6.018-6.019-6.018-2.762 0-5-2.239-5-5s2.238-5 5-5c3.318 0 6.019-2.7 6.019-6.018 0-2.761 2.238-5 5-5s5 2.239 5 5c0 3.318 2.699 6.018 6.018 6.018 2.762 0 5 2.239 5 5s-2.238 5-5 5c-3.318 0-6.018 2.7-6.018 6.018 0 2.761-2.238 5-5 5z" fill="#6583fe"/><path d="m421.62 169.794c-2.762 0-5-2.239-5-5 0-3.318-2.699-6.018-6.018-6.018-2.762 0-5-2.239-5-5s2.238-5 5-5c3.318 0 6.018-2.7 6.018-6.018 0-2.761 2.238-5 5-5s5 2.239 5 5c0 3.318 2.7 6.018 6.019 6.018 2.762 0 5 2.239 5 5s-2.238 5-5 5c-3.318 0-6.019 2.7-6.019 6.018 0 2.761-2.238 5-5 5z" fill="#97ffd2"/></g></g><g><g fill="#2d58e0"><path d="m82.865 148.776c-2.762 0-5 2.239-5 5v.127c0 2.761 2.238 5 5 5s5-2.239 5-5v-.127c0-2.761-2.238-5-5-5z"/><path d="m99.796 148.776c-2.762 0-5 2.239-5 5v.127c0 2.761 2.238 5 5 5s5-2.239 5-5v-.127c0-2.761-2.239-5-5-5z"/><path d="m116.727 148.776c-2.762 0-5 2.239-5 5v.127c0 2.761 2.238 5 5 5s5-2.239 5-5v-.127c0-2.761-2.238-5-5-5z"/></g><path d="m283.37 440.472h-133.057c-2.762 0-5 2.239-5 5s2.238 5 5 5h133.057c2.762 0 5-2.239 5-5s-2.238-5-5-5z" fill="#6583fe"/><path d="m320.893 262.883c.977.977 2.257 1.465 3.536 1.465s2.56-.488 3.535-1.464l5.844-5.843c.938-.938 1.465-2.209 1.465-3.536s-.526-2.598-1.465-3.536l-5.844-5.843c-1.953-1.952-5.118-1.953-7.071 0-1.952 1.953-1.952 5.118.001 7.071l2.308 2.308-2.308 2.308c-1.953 1.952-1.953 5.118-.001 7.07z" fill="#ff5ba8"/></g></g></svg>