<svg id="Capa_1" enable-background="new 0 0 512 512" height="512" viewBox="0 0 512 512" width="512" xmlns="http://www.w3.org/2000/svg" xmlns:xlink="http://www.w3.org/1999/xlink"><linearGradient id="SVGID_1_" gradientUnits="userSpaceOnUse" x1="-31.206" x2="525.753" y1="268.626" y2="290.708"><stop offset=".0485" stop-color="#ffdbed"/><stop offset=".9993" stop-color="#d2deff"/></linearGradient><linearGradient id="SVGID_2_" gradientUnits="userSpaceOnUse" x1="270.396" x2="270.396" y1="141.968" y2="367.564"><stop offset=".0028" stop-color="#ff7eb8" stop-opacity="0"/><stop offset="1" stop-color="#ff7eb8" stop-opacity=".6"/></linearGradient><g><g><g><path d="m482.969 171.336c-34.945-35.948-89.48-40.907-129.831-14.878-11.48 7.405-25.381 9.888-38.717 6.927-31.565-7.009-64.584-2.222-92.707 13.042-18.907 10.261-41.936 8.477-59.579-3.83-11.712-8.169-25.312-14.023-40.257-16.777-55.438-10.217-109.337 26.553-119.994 81.907-10.899 56.609 26.628 111.012 83.196 121.089 13.821 2.462 27.488 2.047 40.388-.816 20.936-4.646 42.81 3.122 56.321 19.776 8.528 10.512 18.812 19.894 30.757 27.689 61.731 40.28 144.427 22.89 184.707-38.84.043-.065.085-.131.128-.196 7.377-11.349 18.851-19.44 32.12-22.119 19.353-3.907 37.801-13.404 52.756-28.495 39.373-39.732 39.701-104.371.712-144.479z" fill="url(#SVGID_1_)"/><path d="m315.41 425.263h-90.03l11.79-46.7 6.22-24.65h54.01l6.22 24.65z" fill="#9fb0fe"/><path d="m303.62 378.563h-66.45l6.22-24.65h54.01z" fill="#8399fe"/><path d="m406.981 367.563h-273.17c-8.286 0-15.004-6.717-15.004-15.004v-195.588c0-8.286 6.717-15.004 15.004-15.004h273.17c8.286 0 15.004 6.717 15.004 15.004v195.588c0 8.286-6.718 15.004-15.004 15.004z" fill="#fff"/><path d="m380.896 255.493h-221c-1.657 0-3-1.343-3-3v-72.294h227v72.295c0 1.656-1.343 2.999-3 2.999z" fill="#ffa8cf"/><path d="m291.65 278.889h-106.52c-2.762 0-5-2.239-5-5s2.238-5 5-5h106.52c2.762 0 5 2.239 5 5s-2.239 5-5 5z" fill="#b7c5ff"/><path d="m291.65 298.889h-106.52c-2.762 0-5-2.239-5-5s2.238-5 5-5h106.52c2.762 0 5 2.239 5 5s-2.239 5-5 5z" fill="#b7c5ff"/><path d="m344.65 298.889h-16.52c-2.762 0-5-2.239-5-5s2.238-5 5-5h16.52c2.762 0 5 2.239 5 5s-2.239 5-5 5z" fill="#ffa8cf"/><path d="m421.985 180.199v-23.228c0-8.286-6.718-15.004-15.004-15.004h-273.17c-8.286 0-15.004 6.717-15.004 15.004v23.228z" fill="#6583fe"/><path d="m118.807 327.571v24.988c0 8.286 6.718 15.004 15.004 15.004h273.17c8.286 0 15.004-6.717 15.004-15.004v-24.988z" fill="#b7c5ff"/><path d="m363.333 230.606c3.087 0 5.59 2.503 5.59 5.59s-2.503 5.59-5.59 5.59-5.59-2.503-5.59-5.59 2.503-5.59 5.59-5.59z" fill="#ff5ba8"/><path d="m363.333 213.696c3.087 0 5.59 2.503 5.59 5.59s-2.503 5.59-5.59 5.59-5.59-2.503-5.59-5.59 2.503-5.59 5.59-5.59z" fill="#ff5ba8"/><path d="m363.333 196.786c3.087 0 5.59 2.503 5.59 5.59s-2.503 5.59-5.59 5.59-5.59-2.503-5.59-5.59 2.503-5.59 5.59-5.59z" fill="#ff5ba8"/><path d="m406.981 367.563h-273.17c-8.286 0-15.004-6.717-15.004-15.004v-195.588c0-8.286 6.717-15.004 15.004-15.004h273.17c8.286 0 15.004 6.717 15.004 15.004v195.588c0 8.286-6.718 15.004-15.004 15.004z" fill="url(#SVGID_2_)"/><path d="m470.997 425.263h-74.019c-5.524 0-10.003-4.478-10.003-10.003v-139.036c0-5.524 4.478-10.003 10.003-10.003h74.019c5.524 0 10.003 4.478 10.003 10.003v139.036c0 5.524-4.478 10.003-10.003 10.003z" fill="#ff7eb8"/><path d="m386.976 363.282v51.978c0 5.524 4.478 10.003 10.002 10.003h74.019c5.524 0 10.003-4.478 10.003-10.003v-51.978z" fill="#fff"/><path d="m453.03 280.44 4.631-14.219h-47.346l4.631 14.219c.671 2.059 2.59 3.453 4.755 3.453h28.573c2.166 0 4.085-1.394 4.756-3.453z" fill="#b7c5ff"/><path d="m175.038 425.263h-134.035c-5.524 0-10.003-4.478-10.003-10.003v-169.044c0-5.524 4.478-10.003 10.003-10.003h134.035c5.524 0 10.003 4.478 10.003 10.003v169.044c-.001 5.524-4.479 10.003-10.003 10.003z" fill="#fff"/><path d="m185.04 268.889v-22.673c0-5.524-4.478-10.003-10.003-10.003h-134.034c-5.524 0-10.003 4.478-10.003 10.003v22.673z" fill="#02ffb3"/><g fill="#ffa8cf"><path d="m88.52 405.115h-31c-1.657 0-3-1.343-3-3v-107.5c0-1.657 1.343-3 3-3h31c1.657 0 3 1.343 3 3v107.5c0 1.657-1.343 3-3 3z"/><path d="m158.52 328.615h-50c-1.657 0-3-1.343-3-3v-31c0-1.657 1.343-3 3-3h50c1.657 0 3 1.343 3 3v31c0 1.657-1.343 3-3 3z"/><path d="m158.52 405.115h-50c-1.657 0-3-1.343-3-3v-56.552c0-1.657 1.343-3 3-3h50c1.657 0 3 1.343 3 3v56.552c0 1.657-1.343 3-3 3z"/></g><path d="m424 401.948h-14c-1.657 0-3-1.343-3-3v-85.833c0-1.657 1.343-3 3-3h14c1.657 0 3 1.343 3 3v85.833c0 1.657-1.343 3-3 3z" fill="#97ffd2"/></g><g><path d="m397.896 113.735c-2.762 0-5-2.239-5-5 0-3.309-2.691-6-6-6-2.762 0-5-2.239-5-5s2.238-5 5-5c3.309 0 6-2.691 6-6 0-2.761 2.238-5 5-5s5 2.239 5 5c0 3.309 2.691 6 6 6 2.762 0 5 2.239 5 5s-2.238 5-5 5c-3.309 0-6 2.691-6 6 0 2.762-2.239 5-5 5z" fill="#97ffd2"/><path d="m457.661 243.346c-2.762 0-5-2.239-5-5 0-3.309-2.692-6-6.001-6-2.762 0-5-2.239-5-5s2.238-5 5-5c3.309 0 6.001-2.691 6.001-6 0-2.761 2.238-5 5-5s5 2.239 5 5c0 3.309 2.691 6 5.999 6 2.762 0 5 2.239 5 5s-2.238 5-5 5c-3.308 0-5.999 2.691-5.999 6 0 2.761-2.238 5-5 5z" fill="#6583fe"/><g fill="#ff7eb8"><path d="m443.66 135.911c-1.279 0-2.56-.488-3.535-1.464l-11-11c-1.953-1.953-1.953-5.119 0-7.071l11-11c1.951-1.952 5.119-1.952 7.07 0l11 11c1.953 1.953 1.953 5.119 0 7.071l-11 11c-.975.976-2.256 1.464-3.535 1.464zm-3.929-16 3.929 3.929 3.929-3.929-3.929-3.929z"/><path d="m73.021 208.335c-1.279 0-2.56-.488-3.535-1.464l-11-11c-1.953-1.953-1.953-5.119 0-7.071l11-11c1.951-1.952 5.119-1.952 7.07 0l11 11c1.953 1.953 1.953 5.119 0 7.071l-11 11c-.976.976-2.256 1.464-3.535 1.464zm-3.929-16 3.929 3.929 3.929-3.929-3.929-3.929z"/></g></g></g><g><g fill="#2d58e0"><path d="m149.03 156.025c-2.762 0-5 2.239-5 5v.115c0 2.761 2.238 5 5 5s5-2.239 5-5v-.115c0-2.761-2.238-5-5-5z"/><path d="m164.368 156.025c-2.762 0-5 2.239-5 5v.115c0 2.761 2.238 5 5 5s5-2.239 5-5v-.115c0-2.761-2.238-5-5-5z"/><path d="m179.705 156.025c-2.762 0-5 2.239-5 5v.115c0 2.761 2.238 5 5 5s5-2.239 5-5v-.115c0-2.761-2.238-5-5-5z"/></g><path d="m330.661 420.264h-109.172-11.359c-2.762 0-5 2.239-5 5s2.238 5 5 5h120.531c2.762 0 5-2.239 5-5s-2.238-5-5-5z" fill="#6583fe"/><path d="m57.174 257.609c2.762 0 5-2.239 5-5v-.115c0-2.761-2.238-5-5-5s-5 2.239-5 5v.115c0 2.761 2.238 5 5 5z" fill="#00d890"/><path d="m72.511 257.609c2.762 0 5-2.239 5-5v-.115c0-2.761-2.238-5-5-5s-5 2.239-5 5v.115c0 2.761 2.238 5 5 5z" fill="#00d890"/><path d="m87.848 257.609c2.762 0 5-2.239 5-5v-.115c0-2.761-2.238-5-5-5s-5 2.239-5 5v.115c0 2.761 2.238 5 5 5z" fill="#00d890"/><path d="m268.097 215.15 2.299-2.298 2.299 2.298c.977.976 2.256 1.464 3.535 1.464s2.56-.488 3.536-1.465c1.952-1.953 1.952-5.118-.001-7.071l-5.834-5.833c-1.951-1.952-5.119-1.952-7.07 0l-5.834 5.833c-1.953 1.953-1.953 5.118-.001 7.071 1.953 1.954 5.12 1.954 7.071.001z" fill="#ff5ba8"/></g></g></svg>