<svg id="Capa_1" enable-background="new 0 0 512 512" height="512" viewBox="0 0 512 512" width="512" xmlns="http://www.w3.org/2000/svg" xmlns:xlink="http://www.w3.org/1999/xlink"><linearGradient id="SVGID_1_" gradientUnits="userSpaceOnUse" x1="256" x2="256" y1="512" y2="0"><stop offset="0" stop-color="#ffe59a"/><stop offset="1" stop-color="#ffffd5"/></linearGradient><linearGradient id="SVGID_2_" gradientUnits="userSpaceOnUse" x1="256" x2="256" y1="113.982" y2="398.018"><stop offset="0" stop-color="#fd5900"/><stop offset="1" stop-color="#ffde00"/></linearGradient><g><g><circle cx="256" cy="256" fill="url(#SVGID_1_)" r="256"/></g><g><g><path d="m193.824 273.665h-35.529v17.765h35.529zm158.268 6.089-2.238-.954-1.483 1.969c-4.988 6.67-12.959 10.661-21.312 10.661s-16.325-3.99-21.33-10.678l-1.466-1.952-2.273.963c-3.305 1.423-6.835 2.151-10.47 2.151-4.675 0-9.299-1.24-13.35-3.6-7.2-4.172-12.092-11.597-13.098-19.846l-.295-2.463-2.437-.295c-8.275-1.006-15.7-5.898-19.873-13.098-3.914-6.775-4.504-14.939-1.916-22.241h-126.67c-4.91 0-8.882 3.973-8.882 8.882v159.882c0 4.91 3.973 8.882 8.882 8.882h248.706c4.91 0 8.882-3.973 8.882-8.882v-108.964c-2.871 1.022-5.834 1.735-8.891 1.735-3.624-.001-7.155-.721-10.486-2.152zm-211.563-14.971c0-4.91 3.973-8.882 8.882-8.882h53.294c4.91 0 8.882 3.973 8.882 8.882v35.529c0 4.91-3.973 8.882-8.882 8.882h-53.294c-4.91 0-8.882-3.973-8.882-8.882zm26.647 97.705h-17.765c-4.91 0-8.882-3.973-8.882-8.882 0-4.91 3.973-8.882 8.882-8.882h17.765c4.91 0 8.882 3.973 8.882 8.882.001 4.91-3.972 8.882-8.882 8.882zm53.295 0h-17.765c-4.91 0-8.882-3.973-8.882-8.882 0-4.91 3.973-8.882 8.882-8.882h17.765c4.91 0 8.882 3.973 8.882 8.882 0 4.91-3.973 8.882-8.882 8.882zm53.294 0h-17.765c-4.91 0-8.882-3.973-8.882-8.882 0-4.91 3.973-8.882 8.882-8.882h17.765c4.91 0 8.882 3.973 8.882 8.882 0 4.91-3.973 8.882-8.882 8.882zm53.294 0h-17.765c-4.91 0-8.882-3.973-8.882-8.882 0-4.91 3.973-8.882 8.882-8.882h17.765c4.91 0 8.882 3.973 8.882 8.882 0 4.91-3.973 8.882-8.882 8.882zm76.385-175.868-13.124-9.845 6.445-15.093c1.093-2.568.919-5.508-.477-7.928-1.405-2.42-3.86-4.042-6.636-4.38l-16.281-1.96-1.96-16.281c-.338-2.776-1.96-5.231-4.38-6.636-2.403-1.388-5.343-1.587-7.928-.477l-15.093 6.445-9.845-13.124c-3.348-4.476-10.86-4.476-14.208 0l-9.845 13.124-15.093-6.445c-2.576-1.102-5.499-.919-7.928.477-2.42 1.405-4.042 3.86-4.38 6.636l-1.96 16.281-16.281 1.96c-2.776.338-5.231 1.96-6.636 4.38-1.397 2.42-1.57 5.361-.477 7.928l6.445 15.093-13.124 9.845c-2.238 1.674-3.556 4.311-3.556 7.104s1.318 5.43 3.556 7.104l13.124 9.845-6.445 15.093c-1.093 2.568-.919 5.508.477 7.928 1.405 2.42 3.86 4.042 6.636 4.38l16.281 1.96 1.96 16.281c.338 2.776 1.96 5.231 4.38 6.636s5.343 1.587 7.928.477l15.093-6.445 9.845 13.124c1.674 2.238 4.311 3.556 7.104 3.556s5.43-1.318 7.104-3.556l9.845-13.124 15.093 6.445c2.568 1.102 5.508.919 7.928-.477 2.42-1.405 4.042-3.86 4.38-6.636l1.96-16.281 16.281-1.96c2.776-.338 5.231-1.96 6.636-4.38 1.397-2.42 1.57-5.361.477-7.928l-6.445-15.093 13.124-9.845c2.238-1.674 3.556-4.311 3.556-7.104s-1.318-5.43-3.556-7.104zm-94.15-19.543c4.905 0 8.882 3.977 8.882 8.882s-3.977 8.882-8.882 8.882-8.882-3.977-8.882-8.882 3.977-8.882 8.882-8.882zm35.53 53.294c-4.905 0-8.882-3.977-8.882-8.882s3.977-8.882 8.882-8.882 8.882 3.977 8.882 8.882-3.977 8.882-8.882 8.882zm6.28-38.132-35.529 35.529c-3.47 3.47-9.091 3.47-12.56 0s-3.47-9.091 0-12.56l35.529-35.529c3.47-3.47 9.091-3.47 12.56 0s3.469 9.09 0 12.56z" fill="url(#SVGID_2_)"/></g></g></g></svg>