<svg id="Capa_1" enable-background="new 0 0 512 512" height="512" viewBox="0 0 512 512" width="512" xmlns="http://www.w3.org/2000/svg" xmlns:xlink="http://www.w3.org/1999/xlink"><linearGradient id="SVGID_1_" gradientUnits="userSpaceOnUse" x1="256" x2="256" y1="512" y2="0"><stop offset="0" stop-color="#c3ffe8"/><stop offset=".9973" stop-color="#f0fff4"/></linearGradient><linearGradient id="SVGID_2_" gradientUnits="userSpaceOnUse" x1="256" x2="256" y1="105" y2="407"><stop offset="0" stop-color="#00b59c"/><stop offset="1" stop-color="#9cffac"/></linearGradient><g><g><circle cx="256" cy="256" fill="url(#SVGID_1_)" r="256"/></g><g><g><path d="m399.219 371.411-284.235-35.659c-2.481-.296-5.074.47-6.983 2.159-1.908 1.698-3.001 4.127-3.001 6.686v53.489c0 4.927 3.973 8.915 8.882 8.915h284.235c4.91 0 8.882-3.987 8.882-8.915v-17.83c.001-4.493-3.339-8.288-7.78-8.845zm-51.091-60.175-177.647-22.287c-15.88-1.978-29.952 10.429-29.952 26.535v5.501l230.941 28.977v-12.191c.001-13.459-10.035-24.872-23.342-26.535zm-125.012-143.107-35.243-4.44-2.212 17.69 35.243 4.44zm-92.571 96.165 211.52 26.614c5.019.6 9.315-2.962 9.915-7.739l17.678-141.531c.607-4.884-2.836-9.341-7.711-9.951l-211.52-26.614c-2.351-.305-4.693.357-6.549 1.802-1.865 1.454-3.071 3.587-3.366 5.937l-17.678 141.531c-.607 4.884 2.837 9.341 7.711 9.951zm190.598-20.946c-.591 4.725-4.837 8.333-9.915 7.74l-22.909-2.882c-4.866-.609-8.318-5.067-7.711-9.951s5.048-8.279 9.915-7.74l22.909 2.882c4.866.609 8.318 5.067 7.711 9.951zm-44.039-77.421c.607-4.867 4.91-8.358 9.923-7.731l35.252 4.44c4.866.609 8.31 5.067 7.703 9.959-.587 4.685-4.79 8.316-9.923 7.731l-35.252-4.44c-4.866-.609-8.31-5.067-7.703-9.959zm-14.121 70.116c-.587 4.685-4.79 8.316-9.923 7.731l-22.917-2.89c-4.866-.618-8.319-5.076-7.703-9.959.607-4.867 4.953-8.253 9.923-7.731l22.917 2.89c4.866.618 8.319 5.075 7.703 9.959zm-96.058-48.03 4.424-35.389c.616-4.875 5.066-8.305 9.915-7.731l52.878 6.651c2.342.296 4.467 1.506 5.916 3.378 1.44 1.863 2.09 4.231 1.796 6.573l-4.424 35.389c-.588 4.693-4.816 8.326-9.915 7.731l-52.878-6.651c-4.916-.621-8.321-5.116-7.712-9.951zm-4.415 35.372c.607-4.867 4.91-8.253 9.923-7.731l24.669 3.108c4.875.609 8.319 5.067 7.711 9.959-.588 4.694-4.816 8.326-9.915 7.731l-24.678-3.108c-4.874-.609-8.317-5.066-7.71-9.959z" fill="url(#SVGID_2_)"/></g></g></g></svg>