<svg id="Capa_1" enable-background="new 0 0 512 512" height="512" viewBox="0 0 512 512" width="512" xmlns="http://www.w3.org/2000/svg" xmlns:xlink="http://www.w3.org/1999/xlink"><linearGradient id="SVGID_1_" gradientUnits="userSpaceOnUse" x1="256" x2="256" y1="512" y2="0"><stop offset="0" stop-color="#ffe59a"/><stop offset="1" stop-color="#ffffd5"/></linearGradient><linearGradient id="SVGID_2_" gradientUnits="userSpaceOnUse" x1="256" x2="256" y1="105" y2="407"><stop offset="0" stop-color="#fd5900"/><stop offset="1" stop-color="#ffde00"/></linearGradient><g><g><g><circle cx="256" cy="256" fill="url(#SVGID_1_)" r="256"/></g></g><g><g><path d="m256 371.471c-4.91 0-8.882 3.973-8.882 8.882v17.765c0 4.91 3.973 8.882 8.882 8.882s8.882-3.973 8.882-8.882v-17.765c0-4.91-3.972-8.882-8.882-8.882zm0-53.295c-4.91 0-8.882 3.973-8.882 8.882v17.765c0 4.91 3.973 8.882 8.882 8.882s8.882-3.973 8.882-8.882v-17.765c0-4.909-3.972-8.882-8.882-8.882zm0-53.294c-4.91 0-8.882 3.973-8.882 8.882v17.765c0 4.91 3.973 8.882 8.882 8.882s8.882-3.973 8.882-8.882v-17.765c0-4.909-3.972-8.882-8.882-8.882zm0-53.294c-4.91 0-8.882 3.973-8.882 8.882v17.765c0 4.91 3.973 8.882 8.882 8.882s8.882-3.973 8.882-8.882v-17.765c0-4.909-3.972-8.882-8.882-8.882zm0-53.294c-4.91 0-8.882 3.973-8.882 8.882v17.765c0 4.91 3.973 8.882 8.882 8.882s8.882-3.973 8.882-8.882v-17.765c0-4.909-3.972-8.882-8.882-8.882zm0-53.294c-4.91 0-8.882 3.973-8.882 8.882v17.765c0 4.91 3.973 8.882 8.882 8.882s8.882-3.973 8.882-8.882v-17.765c0-4.909-3.972-8.882-8.882-8.882zm-35.529 53.294h-106.589c-4.91 0-8.882 3.973-8.882 8.882v17.765h124.353v-17.765c0-4.909-3.973-8.882-8.882-8.882zm-115.471 71.059h124.353v-26.647h-124.353zm0 97.706c0 4.91 3.973 8.882 8.882 8.882h106.588c4.91 0 8.882-3.973 8.882-8.882v-79.941h-124.352zm44.412-44.412h35.529c4.91 0 8.882 3.973 8.882 8.882 0 4.91-3.973 8.882-8.882 8.882h-35.529c-4.91 0-8.882-3.973-8.882-8.882-.001-4.909 3.972-8.882 8.882-8.882zm248.706-124.353h-106.589c-4.91 0-8.882 3.973-8.882 8.882v17.765h124.353v-17.765c0-4.909-3.973-8.882-8.882-8.882zm-115.471 71.059h124.353v-26.647h-124.353zm0 97.706c0 4.91 3.973 8.882 8.882 8.882h106.588c4.91 0 8.882-3.973 8.882-8.882v-79.941h-124.352z" fill="url(#SVGID_2_)"/></g></g></g></svg>