<svg id="Capa_1" enable-background="new 0 0 512 512" height="512" viewBox="0 0 512 512" width="512" xmlns="http://www.w3.org/2000/svg" xmlns:xlink="http://www.w3.org/1999/xlink"><linearGradient id="SVGID_1_" gradientUnits="userSpaceOnUse" x1="256" x2="256" y1="512" y2="0"><stop offset="0" stop-color="#c3ffe8"/><stop offset=".9973" stop-color="#f0fff4"/></linearGradient><linearGradient id="SVGID_2_" gradientUnits="userSpaceOnUse" x1="256" x2="256" y1="105" y2="407"><stop offset="0" stop-color="#00b59c"/><stop offset="1" stop-color="#9cffac"/></linearGradient><g><g><circle cx="256" cy="256" fill="url(#SVGID_1_)" r="256"/></g><g><g><path d="m229.353 309.294h-35.53v17.765h35.53zm53.294-124.353v-79.941h-133.235c-4.909 0-8.882 3.973-8.882 8.882v133.235h230.941v-53.294h-79.941c-4.906 0-8.883-3.977-8.883-8.882zm-97.706-44.412h71.059c4.91 0 8.882 3.973 8.882 8.882 0 4.91-3.973 8.882-8.882 8.882h-71.059c-4.909 0-8.882-3.973-8.882-8.882s3.973-8.882 8.882-8.882zm0 35.53h71.059c4.91 0 8.882 3.973 8.882 8.882s-3.973 8.882-8.882 8.882h-71.059c-4.909 0-8.882-3.973-8.882-8.882s3.973-8.882 8.882-8.882zm151 44.412c0 4.91-3.973 8.882-8.882 8.882h-142.118c-4.909 0-8.882-3.973-8.882-8.882 0-4.91 3.973-8.882 8.882-8.882h142.118c4.909-.001 8.882 3.972 8.882 8.882zm-195.412 177.647c0 4.91 3.973 8.882 8.882 8.882h213.177c4.909 0 8.882-3.973 8.882-8.882v-133.236h-230.941zm186.53-17.765h-23.091c-4.91 0-8.882-3.973-8.882-8.882 0-4.91 3.973-8.882 8.882-8.882h23.091c4.909 0 8.882 3.973 8.882 8.882s-3.973 8.882-8.882 8.882zm-35.53-88.824h35.53c4.909 0 8.882 3.973 8.882 8.882 0 4.91-3.973 8.882-8.882 8.882h-35.53c-4.909 0-8.882-3.973-8.882-8.882s3.973-8.882 8.882-8.882zm-14.208 79.942c0 4.91-3.973 8.882-8.882 8.882h-23.099c-4.909 0-8.882-3.973-8.882-8.882 0-4.91 3.973-8.882 8.882-8.882h23.099c4.909-.001 8.882 3.972 8.882 8.882zm-101.262-71.059c0-4.91 3.973-8.882 8.882-8.882h53.294c4.91 0 8.882 3.973 8.882 8.882v35.529c0 4.91-3.973 8.882-8.882 8.882h-53.294c-4.909 0-8.882-3.973-8.882-8.882zm8.882 62.176h24.869c4.91 0 8.882 3.973 8.882 8.882 0 4.91-3.973 8.882-8.882 8.882h-24.869c-4.909 0-8.882-3.973-8.882-8.882s3.973-8.882 8.882-8.882zm177.647-257.588h-49.616l58.499 58.499v-49.616c0-4.91-3.973-8.883-8.883-8.883zm-62.176 12.56v58.499h58.499z" fill="url(#SVGID_2_)"/></g></g></g></svg>