<svg id="Capa_1" enable-background="new 0 0 512 512" height="512" viewBox="0 0 512 512" width="512" xmlns="http://www.w3.org/2000/svg" xmlns:xlink="http://www.w3.org/1999/xlink"><linearGradient id="SVGID_1_" gradientUnits="userSpaceOnUse" x1="256" x2="256" y1="512" y2="0"><stop offset="0" stop-color="#ffc8d1"/><stop offset="1" stop-color="#fff6f7"/></linearGradient><linearGradient id="SVGID_2_" gradientUnits="userSpaceOnUse" x1="256" x2="256" y1="105" y2="407"><stop offset="0" stop-color="#fd3a84"/><stop offset="1" stop-color="#ffa68d"/></linearGradient><g><circle cx="256" cy="256" fill="url(#SVGID_1_)" r="256"/><g><g><path d="m335.941 176.059c-9.793 0-17.765 7.972-17.765 17.765v142.118h-35.53c0-9.793-7.971-17.765-17.765-17.765h-17.765v-53.294c0-9.793-7.972-17.765-17.765-17.765h-8.882c-4.91 0-8.882 3.973-8.882 8.882v79.941c0 19.595 15.934 35.529 35.529 35.529v26.647c0 4.91 3.973 8.882 8.882 8.882h53.294c4.909 0 8.882-3.973 8.882-8.882v-26.647c19.595 0 35.529-15.934 35.529-35.529v-142.118c.003-9.793-7.969-17.764-17.762-17.764zm-106.588 53.294c19.622 0 35.529 15.907 35.529 35.529v35.529c13.124 0 24.609 7.156 30.759 17.765h4.771v-204.294c0-4.905-3.977-8.882-8.882-8.882h-124.353c-4.905 0-8.882 3.977-8.882 8.882v195.412c0 4.905 3.977 8.882 8.882 8.882h26.647v-62.176c0-14.717 11.93-26.647 26.647-26.647zm26.647-88.824c0-4.91 3.973-8.882 8.882-8.882s8.882 3.973 8.882 8.882v23.091c0 4.91-3.973 8.882-8.882 8.882s-8.882-3.972-8.882-8.882zm0 58.62c0-4.91 3.973-8.882 8.882-8.882s8.882 3.973 8.882 8.882v23.099c0 4.91-3.973 8.882-8.882 8.882s-8.882-3.972-8.882-8.881zm-62.177 3.557c-4.909 0-8.882-3.973-8.882-8.882v-53.294c0-4.91 3.973-8.882 8.882-8.882h35.53c4.909 0 8.882 3.973 8.882 8.882v53.294c0 4.91-3.973 8.882-8.882 8.882zm8.883-17.765h17.765v-35.529h-17.765z" fill="url(#SVGID_2_)"/></g></g></g></svg>