<svg id="Capa_1" enable-background="new 0 0 512 512" height="512" viewBox="0 0 512 512" width="512" xmlns="http://www.w3.org/2000/svg" xmlns:xlink="http://www.w3.org/1999/xlink"><linearGradient id="SVGID_1_" gradientUnits="userSpaceOnUse" x1="256" x2="256" y1="512" y2="0"><stop offset="0" stop-color="#ffbef9"/><stop offset="1" stop-color="#fff1ff"/></linearGradient><linearGradient id="SVGID_2_" gradientUnits="userSpaceOnUse" x1="256" x2="256" y1="131.647" y2="380.353"><stop offset="0" stop-color="#a93aff"/><stop offset="1" stop-color="#ff81ff"/></linearGradient><g><g><circle cx="256" cy="256" fill="url(#SVGID_1_)" r="256"/></g><g><g><path d="m105 371.471c0 4.91 3.973 8.882 8.882 8.882h133.235v-71.059h-142.117zm159.882 8.882h133.235c4.91 0 8.882-3.973 8.882-8.882v-62.176h-142.117zm44.412-44.412h53.294c4.91 0 8.882 3.973 8.882 8.882 0 4.91-3.973 8.882-8.882 8.882h-53.294c-4.91 0-8.882-3.973-8.882-8.882s3.973-8.882 8.882-8.882zm88.824-151h-55.372c7.076-7.621 11.289-16.678 11.289-25.407 0-14.708-11.263-27.887-35.859-27.887-23.412 0-49.518 30.209-62.176 46.934-12.659-16.725-38.765-46.934-62.176-46.934-24.573 0-35.859 13.174-35.859 27.887 0 8.728 4.214 17.785 11.289 25.407h-55.372c-4.91 0-8.882 3.973-8.882 8.882v97.706h142.118v-87.187c-10.317 3.679-17.765 13.446-17.765 25.011v17.765c0 14.694-11.953 26.647-26.647 26.647-4.91 0-8.882-3.973-8.882-8.882 0-4.91 3.973-8.882 8.882-8.882 4.901 0 8.882-3.981 8.882-8.882v-17.765c0-24.487 19.925-44.412 44.412-44.412s44.412 19.925 44.412 44.412v17.765c0 4.901 3.981 8.882 8.882 8.882 4.91 0 8.882 3.973 8.882 8.882 0 4.91-3.973 8.882-8.882 8.882-14.694 0-26.647-11.953-26.647-26.647v-17.765c0-11.565-7.448-21.332-17.765-25.011v87.187h142.118v-97.706c0-4.909-3.973-8.882-8.882-8.882zm-186.53 0c-21.894 0-35.859-15.05-35.859-25.407 0-8.176 9.884-10.123 18.094-10.123 12.413 0 30.966 18.38 44.605 35.529h-26.84zm88.824 0h-26.814c14.072-17.622 32.678-35.529 44.579-35.529 8.207 0 18.094 1.945 18.094 10.123 0 10.356-13.966 25.406-35.859 25.406z" fill="url(#SVGID_2_)"/></g></g></g></svg>