<svg id="Capa_1" enable-background="new 0 0 512 512" height="512" viewBox="0 0 512 512" width="512" xmlns="http://www.w3.org/2000/svg" xmlns:xlink="http://www.w3.org/1999/xlink"><linearGradient id="SVGID_1_" gradientUnits="userSpaceOnUse" x1="256" x2="256" y1="512" y2="0"><stop offset="0" stop-color="#ffc8d1"/><stop offset="1" stop-color="#fff6f7"/></linearGradient><linearGradient id="SVGID_2_" gradientUnits="userSpaceOnUse" x1="256" x2="256" y1="105" y2="407"><stop offset="0" stop-color="#fd3a84"/><stop offset="1" stop-color="#ffa68d"/></linearGradient><g><circle cx="256" cy="256" fill="url(#SVGID_1_)" r="256"/><g><g><path d="m344.823 193.823h-8.882-8.882c-34.339 0-62.177 27.838-62.177 62.177 0 4.905 3.977 8.882 8.882 8.882h124.353c4.905 0 8.882-3.977 8.882-8.882.001-34.339-27.837-62.177-62.176-62.177zm26.648-44.411c0-24.528-15.907-44.412-35.529-44.412s-35.529 19.883-35.529 44.412 15.907 44.412 35.529 44.412 35.529-19.884 35.529-44.412zm-213.177 151h53.294v-17.765h-53.294zm88.824-44.412c0-9.389 1.925-18.271 4.911-26.647h-138.147c-4.91 0-8.882 3.973-8.882 8.882v159.882c0 4.91 3.973 8.882 8.882 8.882h248.706c4.91 0 8.882-3.973 8.882-8.882v-115.47h-97.706c-14.693 0-26.646-11.953-26.646-26.647zm-79.941 115.471h-17.765c-4.91 0-8.882-3.973-8.882-8.882s3.973-8.882 8.882-8.882h17.765c4.91 0 8.882 3.973 8.882 8.882s-3.973 8.882-8.882 8.882zm53.294 0h-17.765c-4.909 0-8.882-3.973-8.882-8.882s3.973-8.882 8.882-8.882h17.765c4.91 0 8.882 3.973 8.882 8.882s-3.973 8.882-8.882 8.882zm8.882-62.177c0 4.91-3.973 8.882-8.882 8.882h-71.059c-4.91 0-8.882-3.973-8.882-8.882v-35.529c0-4.91 3.973-8.882 8.882-8.882h71.059c4.91 0 8.882 3.973 8.882 8.882zm79.941 44.412h17.765c4.91 0 8.882 3.973 8.882 8.882 0 4.91-3.973 8.882-8.882 8.882h-17.765c-4.91 0-8.882-3.973-8.882-8.882s3.973-8.882 8.882-8.882zm-26.647 8.882c0 4.91-3.973 8.882-8.882 8.882h-17.765c-4.91 0-8.882-3.973-8.882-8.882s3.973-8.882 8.882-8.882h17.765c4.909 0 8.882 3.973 8.882 8.882z" fill="url(#SVGID_2_)"/></g></g></g></svg>