<svg id="Capa_1" enable-background="new 0 0 512 512" height="512" viewBox="0 0 512 512" width="512" xmlns="http://www.w3.org/2000/svg" xmlns:xlink="http://www.w3.org/1999/xlink"><linearGradient id="SVGID_1_" gradientUnits="userSpaceOnUse" x1="256" x2="256" y1="512" y2="0"><stop offset="0" stop-color="#ffbef9"/><stop offset="1" stop-color="#fff1ff"/></linearGradient><linearGradient id="SVGID_2_" gradientUnits="userSpaceOnUse" x1="256" x2="256" y1="113.882" y2="398.118"><stop offset="0" stop-color="#a93aff"/><stop offset="1" stop-color="#ff81ff"/></linearGradient><g><g><circle cx="256" cy="256" fill="url(#SVGID_1_)" r="256"/></g><g><g><path d="m158.294 291.529h53.294v-17.765h-53.294zm96.353-71.058h-140.765c-4.91 0-8.882 3.973-8.882 8.882v159.882c0 4.909 3.973 8.882 8.882 8.882h248.706c4.909 0 8.882-3.973 8.882-8.882v-123c-10.9 4.785-22.885 7.529-35.53 7.529-36.328.001-67.548-21.98-81.293-53.293zm-87.47 142.117h-17.765c-4.909 0-8.882-3.973-8.882-8.882 0-4.91 3.973-8.882 8.882-8.882h17.765c4.909 0 8.882 3.973 8.882 8.882s-3.973 8.882-8.882 8.882zm53.294 0h-17.765c-4.909 0-8.882-3.973-8.882-8.882 0-4.91 3.973-8.882 8.882-8.882h17.765c4.909 0 8.882 3.973 8.882 8.882s-3.973 8.882-8.882 8.882zm8.882-62.176c0 4.91-3.973 8.882-8.882 8.882h-71.059c-4.909 0-8.882-3.973-8.882-8.882v-35.529c0-4.91 3.973-8.882 8.882-8.882h71.059c4.909 0 8.882 3.973 8.882 8.882zm44.412 62.176h-17.765c-4.91 0-8.882-3.973-8.882-8.882 0-4.91 3.973-8.882 8.882-8.882h17.765c4.91 0 8.882 3.973 8.882 8.882s-3.973 8.882-8.882 8.882zm53.294 0h-17.765c-4.91 0-8.883-3.973-8.883-8.882 0-4.91 3.973-8.882 8.883-8.882h17.765c4.909 0 8.882 3.973 8.882 8.882s-3.973 8.882-8.882 8.882zm8.882-248.706c-39.245 0-71.059 31.814-71.059 71.059s31.814 71.059 71.059 71.059c39.246 0 71.059-31.814 71.059-71.059s-31.813-71.059-71.059-71.059zm17.765 79.941h-17.765c-4.909 0-8.882-3.973-8.882-8.882v-35.529c0-4.91 3.973-8.882 8.882-8.882 4.91 0 8.882 3.973 8.882 8.882v26.647h8.882c4.91 0 8.883 3.973 8.883 8.882s-3.973 8.882-8.882 8.882z" fill="url(#SVGID_2_)"/></g></g></g></svg>