<svg id="Capa_1" enable-background="new 0 0 512 512" height="512" viewBox="0 0 512 512" width="512" xmlns="http://www.w3.org/2000/svg" xmlns:xlink="http://www.w3.org/1999/xlink"><linearGradient id="SVGID_1_" gradientUnits="userSpaceOnUse" x1="256" x2="256" y1="512" y2="0"><stop offset="0" stop-color="#c3ffe8"/><stop offset=".9973" stop-color="#f0fff4"/></linearGradient><linearGradient id="SVGID_2_" gradientUnits="userSpaceOnUse" x1="256" x2="256" y1="113.882" y2="398.118"><stop offset="0" stop-color="#00b59c"/><stop offset="1" stop-color="#9cffac"/></linearGradient><g><g><circle cx="256" cy="256" fill="url(#SVGID_1_)" r="256"/></g><g><g><path d="m398.118 167.176h-204.295v-8.882c0-24.487-19.925-44.412-44.412-44.412h-35.529c-4.91 0-8.882 3.973-8.882 8.882 0 4.91 3.973 8.882 8.882 8.882h35.529c14.694 0 26.647 11.953 26.647 26.647v152.637c-10.317 3.679-17.765 13.446-17.765 25.011 0 14.694 11.953 26.647 26.647 26.647h10.519c-.995 2.792-1.636 5.753-1.636 8.882 0 14.694 11.953 26.647 26.647 26.647s26.647-11.953 26.647-26.647c0-3.129-.641-6.09-1.636-8.882h74.331c-.995 2.792-1.636 5.753-1.636 8.882 0 14.694 11.953 26.647 26.647 26.647s26.647-11.953 26.647-26.647c0-3.129-.641-6.09-1.636-8.882h10.519c4.909 0 8.882-3.973 8.882-8.882 0-4.91-3.973-8.882-8.882-8.882h-195.412c-4.901 0-8.882-3.981-8.882-8.882s3.981-8.882 8.882-8.882h213.177c4.91 0 8.882-3.973 8.882-8.882v-142.119c0-4.91-3.973-8.883-8.882-8.883zm-186.53 44.412c0-4.91 3.973-8.882 8.882-8.882h53.294c4.91 0 8.882 3.973 8.882 8.882v35.529c0 4.91-3.973 8.882-8.882 8.882h-53.294c-4.91 0-8.882-3.973-8.882-8.882zm33.751 79.941h-24.869c-4.91 0-8.882-3.973-8.882-8.882 0-4.91 3.973-8.882 8.882-8.882h24.869c4.91 0 8.882 3.973 8.882 8.882.001 4.91-3.972 8.882-8.882 8.882zm58.629 0h-23.099c-4.91 0-8.882-3.973-8.882-8.882 0-4.91 3.973-8.882 8.882-8.882h23.099c4.909 0 8.882 3.973 8.882 8.882.001 4.91-3.972 8.882-8.882 8.882zm58.62 0h-23.091c-4.91 0-8.882-3.973-8.882-8.882 0-4.91 3.973-8.882 8.882-8.882h23.091c4.909 0 8.882 3.973 8.882 8.882.001 4.91-3.972 8.882-8.882 8.882zm0-71.058h-35.53c-4.91 0-8.882-3.973-8.882-8.882 0-4.91 3.973-8.882 8.882-8.882h35.53c4.909 0 8.882 3.973 8.882 8.882.001 4.909-3.972 8.882-8.882 8.882zm-97.706 0h-35.529v17.765h35.529z" fill="url(#SVGID_2_)"/></g></g></g></svg>