<svg id="Capa_1" enable-background="new 0 0 512 512" height="512" viewBox="0 0 512 512" width="512" xmlns="http://www.w3.org/2000/svg" xmlns:xlink="http://www.w3.org/1999/xlink"><linearGradient id="SVGID_1_" gradientUnits="userSpaceOnUse" x1="256" x2="256" y1="512" y2="0"><stop offset="0" stop-color="#ffc8d1"/><stop offset="1" stop-color="#fff6f7"/></linearGradient><linearGradient id="SVGID_2_" gradientUnits="userSpaceOnUse" x1="256" x2="256" y1="105" y2="407"><stop offset="0" stop-color="#fd3a84"/><stop offset="1" stop-color="#ffa68d"/></linearGradient><g><g><circle cx="256" cy="256" fill="url(#SVGID_1_)" r="256"/></g><g><g><path d="m264.882 113.882c0-4.975-3.908-8.882-8.882-8.882s-8.882 3.908-8.882 8.882v8.882h17.765v-8.882zm106.589 0c0-4.975-3.908-8.882-8.882-8.882-4.975 0-8.882 3.908-8.882 8.882v8.882h17.765v-8.882zm-186.53 195.412h-35.529v17.765h35.529zm124.353-44.412h-195.412c-4.91 0-8.882 3.973-8.882 8.882v124.353c0 4.91 3.973 8.882 8.882 8.882h195.412c4.91 0 8.882-3.973 8.882-8.882v-124.352c0-4.91-3.972-8.883-8.882-8.883zm-177.647 35.53c0-4.91 3.973-8.882 8.882-8.882h53.294c4.91 0 8.882 3.973 8.882 8.882v35.529c0 4.91-3.973 8.882-8.882 8.882h-53.294c-4.91 0-8.882-3.973-8.882-8.882zm33.751 79.941h-24.869c-4.91 0-8.882-3.973-8.882-8.882s3.973-8.882 8.882-8.882h24.869c4.91 0 8.882 3.973 8.882 8.882s-3.972 8.882-8.882 8.882zm58.629 0h-23.099c-4.91 0-8.882-3.973-8.882-8.882s3.973-8.882 8.882-8.882h23.099c4.91 0 8.882 3.973 8.882 8.882s-3.972 8.882-8.882 8.882zm58.62 0h-23.091c-4.91 0-8.882-3.973-8.882-8.882s3.973-8.882 8.882-8.882h23.091c4.91 0 8.882 3.973 8.882 8.882s-3.972 8.882-8.882 8.882zm0-71.059h-35.529c-4.91 0-8.882-3.973-8.882-8.882s3.973-8.882 8.882-8.882h35.529c4.91 0 8.882 3.973 8.882 8.882s-3.972 8.882-8.882 8.882zm115.471-186.529h-26.647v26.647c0 4.975-3.908 8.882-8.882 8.882-4.975 0-8.882-3.908-8.882-8.882v-26.647h-88.824v26.647c0 4.975-3.908 8.882-8.882 8.882s-8.882-3.908-8.882-8.882v-26.647h-26.647c-4.975 0-8.882 3.908-8.882 8.882v115.471h97.706c14.745 0 26.647 11.902 26.647 26.647v26.647h62.177c4.975 0 8.882-3.909 8.882-8.882v-159.883c-.002-4.975-3.91-8.882-8.884-8.882zm-142.118 106.588c-4.975 0-8.882-3.909-8.882-8.882 0-4.975 3.908-8.882 8.882-8.882s8.882 3.908 8.882 8.882c0 4.973-3.907 8.882-8.882 8.882zm0-35.53c-4.975 0-8.882-3.909-8.882-8.882 0-4.975 3.908-8.882 8.882-8.882s8.882 3.908 8.882 8.882-3.907 8.882-8.882 8.882zm35.529 35.53c-4.975 0-8.882-3.909-8.882-8.882 0-4.975 3.908-8.882 8.882-8.882 4.975 0 8.882 3.908 8.882 8.882.001 4.973-3.907 8.882-8.882 8.882zm0-35.53c-4.975 0-8.882-3.909-8.882-8.882 0-4.975 3.908-8.882 8.882-8.882 4.975 0 8.882 3.908 8.882 8.882.001 4.974-3.907 8.882-8.882 8.882zm35.53 35.53c-4.975 0-8.882-3.909-8.882-8.882 0-4.975 3.908-8.882 8.882-8.882 4.975 0 8.882 3.908 8.882 8.882 0 4.973-3.908 8.882-8.882 8.882zm0-35.53c-4.975 0-8.882-3.909-8.882-8.882 0-4.975 3.908-8.882 8.882-8.882 4.975 0 8.882 3.908 8.882 8.882s-3.908 8.882-8.882 8.882zm35.529 71.059c-4.975 0-8.882-3.909-8.882-8.882 0-4.975 3.908-8.882 8.882-8.882 4.975 0 8.882 3.908 8.882 8.882.001 4.974-3.907 8.882-8.882 8.882zm0-35.529c-4.975 0-8.882-3.909-8.882-8.882 0-4.975 3.908-8.882 8.882-8.882 4.975 0 8.882 3.908 8.882 8.882.001 4.973-3.907 8.882-8.882 8.882zm0-35.53c-4.975 0-8.882-3.909-8.882-8.882 0-4.975 3.908-8.882 8.882-8.882 4.975 0 8.882 3.908 8.882 8.882.001 4.974-3.907 8.882-8.882 8.882z" fill="url(#SVGID_2_)"/></g></g></g></svg>