<svg id="Capa_1" enable-background="new 0 0 512 512" height="512" viewBox="0 0 512 512" width="512" xmlns="http://www.w3.org/2000/svg" xmlns:xlink="http://www.w3.org/1999/xlink"><linearGradient id="SVGID_1_" gradientUnits="userSpaceOnUse" x1="256" x2="256" y1="512" y2="0"><stop offset="0" stop-color="#ffe59a"/><stop offset="1" stop-color="#ffffd5"/></linearGradient><linearGradient id="SVGID_2_" gradientUnits="userSpaceOnUse" x1="256" x2="256" y1="113.882" y2="398.118"><stop offset="0" stop-color="#fd5900"/><stop offset="1" stop-color="#ffde00"/></linearGradient><g><g><circle cx="256" cy="256" fill="url(#SVGID_1_)" r="256"/></g><g><g><path d="m158.294 291.529h53.294v-17.765h-53.294zm96.353-71.058h-140.765c-4.91 0-8.882 3.973-8.882 8.882v159.882c0 4.909 3.973 8.882 8.882 8.882h248.706c4.91 0 8.882-3.973 8.882-8.882v-123c-10.9 4.785-22.885 7.529-35.529 7.529-36.329.001-67.549-21.98-81.294-53.293zm-87.471 142.117h-17.765c-4.91 0-8.882-3.973-8.882-8.882 0-4.91 3.973-8.882 8.882-8.882h17.765c4.91 0 8.882 3.973 8.882 8.882.001 4.909-3.972 8.882-8.882 8.882zm53.295 0h-17.765c-4.91 0-8.882-3.973-8.882-8.882 0-4.91 3.973-8.882 8.882-8.882h17.765c4.91 0 8.882 3.973 8.882 8.882s-3.973 8.882-8.882 8.882zm8.882-62.176c0 4.91-3.973 8.882-8.882 8.882h-71.059c-4.91 0-8.882-3.973-8.882-8.882v-35.529c0-4.91 3.973-8.882 8.882-8.882h71.059c4.91 0 8.882 3.973 8.882 8.882zm44.412 62.176h-17.765c-4.91 0-8.882-3.973-8.882-8.882 0-4.91 3.973-8.882 8.882-8.882h17.765c4.91 0 8.882 3.973 8.882 8.882s-3.973 8.882-8.882 8.882zm53.294 0h-17.765c-4.91 0-8.882-3.973-8.882-8.882 0-4.91 3.973-8.882 8.882-8.882h17.765c4.91 0 8.882 3.973 8.882 8.882s-3.973 8.882-8.882 8.882zm11.458-188.16-2.576-5.152-2.576 5.152c-1.292 2.585-3.765 4.381-6.627 4.814l-5.699.859 4.112 4.042c2.056 2.03 3.001 4.936 2.524 7.79l-.945 5.682 5.118-2.654c1.284-.668 2.689-.998 4.094-.998s2.81.33 4.094.998l5.118 2.654-.945-5.682c-.477-2.854.468-5.76 2.524-7.79l4.112-4.042-5.699-.859c-2.864-.433-5.336-2.229-6.629-4.814zm-2.576-60.546c-39.245 0-71.059 31.814-71.059 71.059 0 39.244 31.814 71.059 71.059 71.059s71.059-31.815 71.059-71.059c0-39.245-31.814-71.059-71.059-71.059zm40.031 66.41-13.488 13.271 3.105 18.667c.555 3.322-.815 6.662-3.539 8.64-2.66 1.943-6.263 2.28-9.316.703l-16.793-8.718-16.793 8.718c-3.001 1.544-6.61 1.275-9.316-.703-2.724-1.978-4.094-5.317-3.539-8.64l3.105-18.667-13.488-13.271c-2.394-2.368-3.253-5.881-2.212-9.073 1.041-3.201 3.799-5.543 7.13-6.046l18.71-2.81 8.457-16.923c3.019-6.02 12.872-6.02 15.891 0l8.457 16.923 18.71 2.81c3.331.503 6.089 2.845 7.13 6.046 1.042 3.192.184 6.705-2.211 9.073z" fill="url(#SVGID_2_)"/></g></g></g></svg>