<svg id="Capa_1" enable-background="new 0 0 512 512" height="512" viewBox="0 0 512 512" width="512" xmlns="http://www.w3.org/2000/svg" xmlns:xlink="http://www.w3.org/1999/xlink"><linearGradient id="SVGID_1_" gradientUnits="userSpaceOnUse" x1="256" x2="256" y1="512" y2="0"><stop offset="0" stop-color="#c3ffe8"/><stop offset=".9973" stop-color="#f0fff4"/></linearGradient><linearGradient id="SVGID_2_" gradientUnits="userSpaceOnUse" x1="256" x2="256" y1="105" y2="407"><stop offset="0" stop-color="#00b59c"/><stop offset="1" stop-color="#9cffac"/></linearGradient><g><g><circle cx="256" cy="256" fill="url(#SVGID_1_)" r="256"/></g><g><g><path d="m228.285 167.177h10.016v35.529c0 4.91 3.958 8.882 8.85 8.882h17.699c4.891 0 8.85-3.973 8.85-8.882v-35.529h10.016c3.215 0 6.179-1.752 7.743-4.58 1.556-2.828 1.469-6.28-.242-9.021l-27.715-44.698c-3.232-5.17-11.771-5.17-15.003 0l-27.715 44.698c-1.711 2.741-1.798 6.193-.242 9.021 1.563 2.827 4.528 4.58 7.743 4.58zm-87.329 71.058v53.294c0 4.91 3.958 8.882 8.849 8.882h17.699v-71.059h-17.699c-4.891.001-8.849 3.974-8.849 8.883zm221.239-8.882h-17.699v71.059h17.699c4.891 0 8.849-3.973 8.849-8.882v-53.294c0-4.91-3.958-8.883-8.849-8.883zm-115.045 88.824h-17.699v35.529h17.699zm-61.947 79.941c0 4.91 3.958 8.882 8.85 8.882h123.894c4.891 0 8.85-3.973 8.85-8.882v-168.765h-141.594zm97.346-119.027c0-4.91 3.958-8.882 8.85-8.882s8.849 3.973 8.849 8.882v23.099c0 4.91-3.958 8.882-8.849 8.882s-8.85-3.973-8.85-8.882zm0 58.628c0-4.91 3.958-8.882 8.85-8.882s8.849 3.973 8.849 8.882v24.869c0 4.91-3.958 8.882-8.849 8.882s-8.85-3.973-8.85-8.882zm-70.797-28.425c0-4.91 3.958-8.882 8.849-8.882h35.399c4.891 0 8.85 3.973 8.85 8.882v53.294c0 4.91-3.958 8.882-8.85 8.882h-35.398c-4.891 0-8.849-3.973-8.849-8.882v-53.294z" fill="url(#SVGID_2_)"/></g></g></g></svg>