<svg id="Capa_1" enable-background="new 0 0 512 512" height="512" viewBox="0 0 512 512" width="512" xmlns="http://www.w3.org/2000/svg" xmlns:xlink="http://www.w3.org/1999/xlink"><linearGradient id="SVGID_1_" gradientUnits="userSpaceOnUse" x1="256" x2="256" y1="512" y2="0"><stop offset="0" stop-color="#addcff"/><stop offset=".5028" stop-color="#eaf6ff"/><stop offset="1" stop-color="#eaf6ff"/></linearGradient><linearGradient id="SVGID_2_" gradientUnits="userSpaceOnUse" x1="256" x2="256" y1="105" y2="407"><stop offset="0" stop-color="#5558ff"/><stop offset="1" stop-color="#00c0ff"/></linearGradient><g><g><circle cx="256" cy="256" fill="url(#SVGID_1_)" r="256"/></g><g><g><path d="m149.412 264.882h213.177c4.909 0 8.882-3.973 8.882-8.882v-142.118c0-4.91-3.973-8.882-8.882-8.882h-213.177c-4.909 0-8.882 3.973-8.882 8.882v142.118c-.001 4.91 3.972 8.882 8.882 8.882zm177.647-35.529h-23.091c-4.91 0-8.882-3.973-8.882-8.882s3.973-8.882 8.882-8.882h23.091c4.909 0 8.882 3.973 8.882 8.882s-3.973 8.882-8.882 8.882zm-35.53-88.824h35.53c4.909 0 8.882 3.973 8.882 8.882s-3.973 8.882-8.882 8.882h-35.53c-4.909 0-8.882-3.973-8.882-8.882s3.973-8.882 8.882-8.882zm-14.208 79.942c0 4.91-3.973 8.882-8.882 8.882h-23.099c-4.909 0-8.882-3.973-8.882-8.882s3.973-8.882 8.882-8.882h23.099c4.909-.001 8.882 3.972 8.882 8.882zm-101.262-71.059c0-4.91 3.973-8.882 8.882-8.882h53.294c4.91 0 8.882 3.973 8.882 8.882v35.529c0 4.91-3.973 8.882-8.882 8.882h-53.294c-4.909 0-8.882-3.973-8.882-8.882zm8.882 62.176h24.869c4.91 0 8.882 3.973 8.882 8.882s-3.973 8.882-8.882 8.882h-24.869c-4.909 0-8.882-3.973-8.882-8.882s3.973-8.882 8.882-8.882zm44.412-53.294h-35.53v17.765h35.53zm168.765 124.353h-284.236c-4.91 0-8.882 3.973-8.882 8.882v106.588c0 4.91 3.973 8.882 8.882 8.882h284.235c4.91 0 8.882-3.973 8.882-8.882v-106.588c.001-4.909-3.972-8.882-8.881-8.882zm-204.295 71.059h-8.882v8.882c0 4.91-3.973 8.882-8.882 8.882-4.91 0-8.882-3.973-8.882-8.882v-8.882h-8.882c-4.91 0-8.883-3.973-8.883-8.882 0-4.91 3.973-8.882 8.883-8.882h8.882v-8.882c0-4.91 3.973-8.882 8.882-8.882s8.882 3.973 8.882 8.882v8.882h8.882c4.91 0 8.882 3.973 8.882 8.882.001 4.909-3.972 8.882-8.882 8.882zm79.942 0h-8.882v8.882c0 4.91-3.973 8.882-8.882 8.882s-8.882-3.973-8.882-8.882v-8.882h-8.882c-4.91 0-8.882-3.973-8.882-8.882 0-4.91 3.973-8.882 8.882-8.882h8.882v-8.882c0-4.91 3.973-8.882 8.882-8.882s8.882 3.973 8.882 8.882v8.882h8.882c4.91 0 8.882 3.973 8.882 8.882s-3.973 8.882-8.882 8.882zm79.941 0h-8.882v8.882c0 4.91-3.973 8.882-8.882 8.882s-8.882-3.973-8.882-8.882v-8.882h-8.882c-4.91 0-8.882-3.973-8.882-8.882 0-4.91 3.973-8.882 8.882-8.882h8.882v-8.882c0-4.91 3.973-8.882 8.882-8.882 4.91 0 8.882 3.973 8.882 8.882v8.882h8.882c4.91 0 8.883 3.973 8.883 8.882-.001 4.909-3.974 8.882-8.883 8.882z" fill="url(#SVGID_2_)"/></g></g></g></svg>