<svg id="Capa_1" enable-background="new 0 0 512 512" height="512" viewBox="0 0 512 512" width="512" xmlns="http://www.w3.org/2000/svg" xmlns:xlink="http://www.w3.org/1999/xlink"><linearGradient id="SVGID_1_" gradientUnits="userSpaceOnUse" x1="256" x2="256" y1="512" y2="0"><stop offset="0" stop-color="#ffc8d1"/><stop offset="1" stop-color="#fff6f7"/></linearGradient><linearGradient id="SVGID_2_" gradientUnits="userSpaceOnUse" x1="256" x2="256" y1="105" y2="407"><stop offset="0" stop-color="#fd3a84"/><stop offset="1" stop-color="#ffa68d"/></linearGradient><g><g><circle cx="256" cy="256" fill="url(#SVGID_1_)" r="256"/></g><g><g><path d="m248.471 207.711c3.244 5.17 11.814 5.17 15.059 0l27.818-44.698c1.718-2.741 1.804-6.193.243-9.021-1.57-2.828-4.545-4.58-7.772-4.58h-10.053v-35.529c0-4.91-3.973-8.882-8.882-8.882h-17.765c-4.91 0-8.882 3.973-8.882 8.882v35.529h-10.053c-3.227 0-6.202 1.752-7.772 4.58-1.561 2.828-1.475 6.28.243 9.021zm-107.942 30.524v53.294c0 4.91 3.973 8.882 8.882 8.882h17.765v-71.059h-17.765c-4.909.001-8.882 3.974-8.882 8.883zm222.059-8.882h-17.765v71.059h17.765c4.909 0 8.882-3.973 8.882-8.882v-53.294c.001-4.91-3.972-8.883-8.882-8.883zm-115.47 88.824h-17.765v35.529h17.765zm-62.177 79.941c0 4.91 3.973 8.882 8.882 8.882h124.353c4.909 0 8.882-3.973 8.882-8.882v-168.765h-142.117zm97.706-119.027c0-4.91 3.973-8.882 8.882-8.882 4.91 0 8.882 3.973 8.882 8.882v23.099c0 4.91-3.973 8.882-8.882 8.882s-8.882-3.973-8.882-8.882zm0 58.628c0-4.91 3.973-8.882 8.882-8.882 4.91 0 8.882 3.973 8.882 8.882v24.869c0 4.91-3.973 8.882-8.882 8.882s-8.882-3.973-8.882-8.882zm-71.059-28.425c0-4.91 3.973-8.882 8.882-8.882h35.53c4.91 0 8.882 3.973 8.882 8.882v53.294c0 4.91-3.973 8.882-8.882 8.882h-35.529c-4.91 0-8.882-3.973-8.882-8.882v-53.294z" fill="url(#SVGID_2_)"/></g></g></g></svg>