<svg id="Capa_1" enable-background="new 0 0 512 512" height="512" viewBox="0 0 512 512" width="512" xmlns="http://www.w3.org/2000/svg" xmlns:xlink="http://www.w3.org/1999/xlink"><linearGradient id="SVGID_1_" gradientUnits="userSpaceOnUse" x1="256" x2="256" y1="512" y2="0"><stop offset="0" stop-color="#addcff"/><stop offset=".5028" stop-color="#eaf6ff"/><stop offset="1" stop-color="#eaf6ff"/></linearGradient><linearGradient id="SVGID_2_" gradientUnits="userSpaceOnUse" x1="256" x2="256" y1="105" y2="407"><stop offset="0" stop-color="#5558ff"/><stop offset="1" stop-color="#00c0ff"/></linearGradient><g><g><circle cx="256" cy="256" fill="url(#SVGID_1_)" r="256"/></g><g><g><path d="m382.142 359.06-24.872-140c-.889-4.797-5.508-7.995-10.305-7.107l-14.569 2.594v-11.832c0-4.91-3.973-8.883-8.883-8.883s-8.883 3.973-8.883 8.883v14.995l-35.533 6.325v40.863c0 9.771 7.995 17.767 17.766 17.767s17.766-7.995 17.766-17.767c0-4.975 3.908-8.883 8.883-8.883s8.883 3.908 8.883 8.883c0 19.543-15.99 35.533-35.533 35.533s-35.533-15.99-35.533-35.533v-37.665l-124.365 22.208c-4.797.888-7.995 5.508-7.107 10.304l25.051 140c.888 4.797 5.508 7.995 10.305 7.107l209.822-37.487c4.797-.889 7.995-5.508 7.107-10.305zm-163.806 2.132-24.518 4.442c-4.619.888-9.417-2.31-10.305-7.107-.71-4.796 2.488-9.416 7.285-10.304l24.517-4.441c4.797-.888 9.417 2.31 10.305 7.106.888 4.974-2.488 9.594-7.284 10.304zm-30.737-30.558c-4.796.888-9.416-2.31-10.304-7.107l-6.219-35c-.888-4.796 2.31-9.416 7.107-10.304l52.589-9.417c4.796-.888 9.416 2.31 10.304 7.107l6.219 35c.888 4.975-2.31 9.417-7.107 10.305zm88.478 20.253-22.742 4.087c-4.796.888-9.416-2.31-10.305-7.107-.888-4.797 2.31-9.416 7.285-10.305l22.741-4.086c4.797-.888 9.417 2.31 10.305 7.107.711 4.796-2.488 9.416-7.284 10.304zm57.741-10.304-22.742 4.086c-4.796.888-9.416-2.31-10.305-7.107-.888-4.974 2.31-9.594 7.107-10.304l22.742-4.087c4.974-.888 9.594 2.31 10.304 7.107.889 4.798-2.31 9.416-7.106 10.305zm-143.701-46.45 3.132 17.498 34.986-6.263-3.132-17.498zm88.98-101.937c10.318-3.679 17.766-13.447 17.766-25.013s-7.449-21.334-17.766-25.013v-28.286c0-4.91-3.973-8.883-8.883-8.883s-8.883 3.973-8.883 8.883v28.286c-10.318 3.679-17.766 13.448-17.766 25.013s7.449 21.334 17.766 25.013v35.038l17.766-3.198z" fill="url(#SVGID_2_)"/></g></g></g></svg>