<svg id="Capa_1" enable-background="new 0 0 512 512" height="512" viewBox="0 0 512 512" width="512" xmlns="http://www.w3.org/2000/svg" xmlns:xlink="http://www.w3.org/1999/xlink"><linearGradient id="SVGID_1_" gradientUnits="userSpaceOnUse" x1="256" x2="256" y1="512" y2="0"><stop offset="0" stop-color="#c3ffe8"/><stop offset=".9973" stop-color="#f0fff4"/></linearGradient><linearGradient id="SVGID_2_" gradientUnits="userSpaceOnUse" x1="256" x2="256" y1="113.882" y2="398.118"><stop offset="0" stop-color="#00b59c"/><stop offset="1" stop-color="#9cffac"/></linearGradient><g><g><circle cx="256" cy="256" fill="url(#SVGID_1_)" r="256"/></g><g><g><path d="m158.294 291.529h53.294v-17.765h-53.294zm96.353-71.058h-140.765c-4.91 0-8.882 3.973-8.882 8.882v159.882c0 4.909 3.973 8.882 8.882 8.882h248.706c4.91 0 8.882-3.973 8.882-8.882v-123c-10.9 4.785-22.885 7.529-35.529 7.529-36.329.001-67.549-21.98-81.294-53.293zm-87.47 142.117h-17.765c-4.91 0-8.882-3.973-8.882-8.882s3.973-8.882 8.882-8.882h17.765c4.91 0 8.882 3.973 8.882 8.882s-3.973 8.882-8.882 8.882zm53.294 0h-17.765c-4.909 0-8.882-3.973-8.882-8.882s3.973-8.882 8.882-8.882h17.765c4.91 0 8.882 3.973 8.882 8.882s-3.973 8.882-8.882 8.882zm8.882-62.176c0 4.91-3.973 8.883-8.882 8.883h-71.059c-4.91 0-8.882-3.973-8.882-8.883v-35.529c0-4.91 3.973-8.882 8.882-8.882h71.059c4.91 0 8.882 3.973 8.882 8.882zm44.412 62.176h-17.765c-4.91 0-8.882-3.973-8.882-8.882s3.973-8.882 8.882-8.882h17.765c4.91 0 8.882 3.973 8.882 8.882s-3.973 8.882-8.882 8.882zm53.294 0h-17.765c-4.91 0-8.882-3.973-8.882-8.882s3.973-8.882 8.882-8.882h17.765c4.91 0 8.882 3.973 8.882 8.882s-3.973 8.882-8.882 8.882zm8.882-248.706c-39.245 0-71.059 31.813-71.059 71.059 0 39.244 31.814 71.059 71.059 71.059s71.059-31.815 71.059-71.059c0-39.245-31.814-71.059-71.059-71.059zm35.842 56.66-42.885 42.885c-1.735 1.735-4.007 2.602-6.28 2.602s-4.545-.867-6.28-2.602l-20.679-20.679c-3.47-3.47-3.47-9.091 0-12.56s9.09-3.47 12.56 0l14.399 14.399 36.605-36.605c3.47-3.47 9.091-3.47 12.56 0 3.469 3.469 3.469 9.09 0 12.56z" fill="url(#SVGID_2_)"/></g></g></g></svg>