<svg id="Capa_1" enable-background="new 0 0 512 512" height="512" viewBox="0 0 512 512" width="512" xmlns="http://www.w3.org/2000/svg" xmlns:xlink="http://www.w3.org/1999/xlink"><linearGradient id="SVGID_1_" gradientUnits="userSpaceOnUse" x1="256" x2="256" y1="512" y2="0"><stop offset="0" stop-color="#ffc8d1"/><stop offset="1" stop-color="#fff6f7"/></linearGradient><linearGradient id="SVGID_2_" gradientUnits="userSpaceOnUse" x1="256" x2="256" y1="105" y2="407"><stop offset="0" stop-color="#fd3a84"/><stop offset="1" stop-color="#ffa68d"/></linearGradient><g><g><circle cx="256" cy="256" fill="url(#SVGID_1_)" r="256"/></g><g><g><path d="m327.059 176.059c-44.082 0-79.941 35.859-79.941 79.941 0 18.838 6.82 35.944 17.76 49.621l-13.319 13.319-6.28-6.28c-3.47-3.47-9.091-3.47-12.56 0l-48.627 48.627c-5.178 5.057-8.032 11.823-8.032 19.066 0 14.694 11.953 26.647 26.647 26.647 7.243 0 14.009-2.854 19.066-8.032l48.627-48.627c3.469-3.47 3.469-9.091 0-12.56l-6.28-6.28 13.319-13.319c13.677 10.94 30.782 17.76 49.621 17.76 44.081-.001 79.94-35.86 79.94-79.942s-35.859-79.941-79.941-79.941zm-133.236-17.765h-35.529v17.765h35.529zm35.53 97.706c0-9.264 1.38-18.197 3.8-26.696-.086.002-.157.049-.244.049h-23.099c-4.91 0-8.882-3.973-8.882-8.882 0-4.91 3.973-8.883 8.882-8.883h30.535c16.221-31.537 48.876-53.294 86.714-53.294 2.998 0 5.953.184 8.882.45v-44.862c0-4.91-3.973-8.882-8.882-8.882h-213.177c-4.91 0-8.882 3.973-8.882 8.882v142.118c0 4.91 3.973 8.882 8.882 8.882h115.921c-.266-2.929-.45-5.884-.45-8.882zm26.647-115.471h35.529c4.91 0 8.882 3.973 8.882 8.882 0 4.91-3.973 8.883-8.882 8.883h-35.529c-4.91 0-8.882-3.973-8.882-8.883 0-4.909 3.972-8.882 8.882-8.882zm-115.471 8.883c0-4.909 3.973-8.882 8.882-8.882h53.294c4.91 0 8.883 3.973 8.883 8.882v35.53c0 4.91-3.973 8.882-8.883 8.882h-53.294c-4.909 0-8.882-3.973-8.882-8.882zm33.752 79.941h-24.869c-4.909 0-8.882-3.973-8.882-8.882 0-4.91 3.973-8.883 8.882-8.883h24.869c4.909 0 8.882 3.973 8.882 8.883 0 4.909-3.973 8.882-8.882 8.882z" fill="url(#SVGID_2_)"/></g></g></g></svg>