<svg id="Capa_1" enable-background="new 0 0 512 512" height="512" viewBox="0 0 512 512" width="512" xmlns="http://www.w3.org/2000/svg" xmlns:xlink="http://www.w3.org/1999/xlink"><linearGradient id="SVGID_1_" gradientUnits="userSpaceOnUse" x1="256" x2="256" y1="512" y2="0"><stop offset="0" stop-color="#ffe59a"/><stop offset="1" stop-color="#ffffd5"/></linearGradient><linearGradient id="SVGID_2_" gradientUnits="userSpaceOnUse" x1="256" x2="256" y1="122.765" y2="389.235"><stop offset="0" stop-color="#fd5900"/><stop offset="1" stop-color="#ffde00"/></linearGradient><g><g><circle cx="256" cy="256" fill="url(#SVGID_1_)" r="256"/></g><g><g><path d="m158.294 335.941h195.412v-124.353h-195.412zm168.765-17.764h-23.091c-4.91 0-8.882-3.973-8.882-8.882 0-4.91 3.973-8.883 8.882-8.883h23.091c4.909 0 8.882 3.973 8.882 8.883 0 4.909-3.973 8.882-8.882 8.882zm-35.53-88.824h35.53c4.909 0 8.882 3.973 8.882 8.882s-3.973 8.882-8.882 8.882h-35.53c-4.909 0-8.882-3.973-8.882-8.882s3.973-8.882 8.882-8.882zm-14.208 79.941c0 4.909-3.973 8.882-8.882 8.882h-23.099c-4.909 0-8.882-3.973-8.882-8.882 0-4.91 3.973-8.883 8.882-8.883h23.099c4.909.001 8.882 3.974 8.882 8.883zm-101.262-71.059c0-4.91 3.973-8.882 8.882-8.882h53.294c4.91 0 8.882 3.973 8.882 8.882v35.529c0 4.91-3.973 8.882-8.882 8.882h-53.294c-4.909 0-8.882-3.973-8.882-8.882zm8.882 62.177h24.869c4.91 0 8.882 3.973 8.882 8.883 0 4.909-3.973 8.882-8.882 8.882h-24.869c-4.909 0-8.882-3.973-8.882-8.882 0-4.91 3.973-8.883 8.882-8.883zm44.412-53.294h-35.53v17.765h35.53zm168.765-88.824h-79.941v-17.765h8.882c4.909 0 8.882-3.973 8.882-8.882s-3.973-8.882-8.882-8.882h-142.118c-4.909 0-8.882 3.973-8.882 8.882 0 4.91 3.973 8.882 8.882 8.882h8.882v17.765h-79.941c-4.91 0-8.882 3.973-8.882 8.882v213.177c0 4.909 3.973 8.882 8.882 8.882h284.235c4.91 0 8.882-3.973 8.882-8.882v-213.176c.001-4.91-3.972-8.883-8.881-8.883zm-186.53-17.765h88.823v17.765h-88.823zm159.883 204.294c0 4.91-3.973 8.882-8.882 8.882h-213.177c-4.909 0-8.882-3.973-8.882-8.882v-142.117c0-4.909 3.973-8.882 8.882-8.882h213.177c4.909 0 8.882 3.973 8.882 8.882z" fill="url(#SVGID_2_)"/></g></g></g></svg>