<svg id="Capa_1" enable-background="new 0 0 512 512" height="512" viewBox="0 0 512 512" width="512" xmlns="http://www.w3.org/2000/svg" xmlns:xlink="http://www.w3.org/1999/xlink"><linearGradient id="SVGID_1_" gradientUnits="userSpaceOnUse" x1="256" x2="256" y1="512" y2="0"><stop offset="0" stop-color="#addcff"/><stop offset=".5028" stop-color="#eaf6ff"/><stop offset="1" stop-color="#eaf6ff"/></linearGradient><linearGradient id="SVGID_2_" gradientUnits="userSpaceOnUse" x1="256" x2="256" y1="105" y2="407"><stop offset="0" stop-color="#5558ff"/><stop offset="1" stop-color="#00c0ff"/></linearGradient><g><g><circle cx="256" cy="256" fill="url(#SVGID_1_)" r="256"/></g><g><g><path d="m229.353 149.412h-35.529v17.765h35.529zm-71.059 97.706h195.412c4.91 0 8.882-3.973 8.882-8.882v-124.354c0-4.91-3.973-8.882-8.882-8.882h-195.412c-4.91 0-8.882 3.973-8.882 8.882v124.353c0 4.91 3.973 8.883 8.882 8.883zm168.765-26.647h-23.091c-4.91 0-8.882-3.973-8.882-8.883 0-4.909 3.973-8.882 8.882-8.882h23.091c4.91 0 8.882 3.973 8.882 8.882 0 4.91-3.973 8.883-8.882 8.883zm-35.53-88.824h35.529c4.91 0 8.882 3.973 8.882 8.882 0 4.91-3.973 8.882-8.882 8.882h-35.529c-4.91 0-8.882-3.973-8.882-8.882s3.973-8.882 8.882-8.882zm-14.208 79.941c0 4.91-3.973 8.883-8.882 8.883h-23.099c-4.91 0-8.882-3.973-8.882-8.883 0-4.909 3.973-8.882 8.882-8.882h23.099c4.909 0 8.882 3.973 8.882 8.882zm-101.262-71.059c0-4.909 3.973-8.882 8.882-8.882h53.294c4.91 0 8.882 3.973 8.882 8.882v35.53c0 4.909-3.973 8.882-8.882 8.882h-53.294c-4.91 0-8.882-3.973-8.882-8.882zm8.882 62.177h24.869c4.91 0 8.882 3.973 8.882 8.882 0 4.91-3.973 8.883-8.882 8.883h-24.869c-4.91 0-8.882-3.973-8.882-8.883 0-4.909 3.973-8.882 8.882-8.882zm99.498 168.765h-56.879l-14.48 21.72c-1.813 2.724-1.986 6.228-.442 9.116 1.544 2.889 4.554 4.693 7.833 4.693h71.059c3.279 0 6.289-1.804 7.833-4.693 1.544-2.888 1.371-6.393-.442-9.116zm113.679-230.942h-17.765v97.706c0 14.694-11.953 26.647-26.647 26.647h-195.412c-14.694 0-26.647-11.953-26.647-26.647v-97.706h-17.765c-4.91 0-8.882 3.973-8.882 8.882v195.412c0 4.91 3.973 8.882 8.882 8.882h284.235c4.91 0 8.882-3.973 8.882-8.882v-195.411c.001-4.91-3.972-8.883-8.881-8.883zm-88.824 159.883h-106.588c-4.91 0-8.882-3.973-8.882-8.882s3.973-8.882 8.882-8.882h106.588c4.91 0 8.882 3.973 8.882 8.882s-3.972 8.882-8.882 8.882z" fill="url(#SVGID_2_)"/></g></g></g></svg>