<svg id="Capa_1" enable-background="new 0 0 512 512" height="512" viewBox="0 0 512 512" width="512" xmlns="http://www.w3.org/2000/svg" xmlns:xlink="http://www.w3.org/1999/xlink"><linearGradient id="SVGID_1_" gradientUnits="userSpaceOnUse" x1="256" x2="256" y1="512" y2="0"><stop offset="0" stop-color="#ffc8d1"/><stop offset="1" stop-color="#fff6f7"/></linearGradient><linearGradient id="SVGID_2_" gradientUnits="userSpaceOnUse" x1="256" x2="256" y1="114.913" y2="397.088"><stop offset="0" stop-color="#fd3a84"/><stop offset="1" stop-color="#ffa68d"/></linearGradient><g><g><circle cx="256" cy="256" fill="url(#SVGID_1_)" r="256"/></g><g><g><path d="m327.719 251.641v-59.456h-26.232c1.993 30.071 13.546 52.131 26.232 59.456zm79.281-77.273c-2.612-20.702-13.789-38.709-30.224-49.943 7.115 13.527 11.666 30.699 12.781 49.943zm-35.232 17.818h-26.231v59.456c12.687-7.326 24.239-29.386 26.231-59.456zm-44.049-77.273c-12.687 7.325-24.239 29.385-26.232 59.456h26.232zm49.057 127.214c16.433-11.234 27.611-29.24 30.224-49.941h-17.442c-1.116 19.243-5.667 36.413-12.782 49.941zm-80.296 0c-7.114-13.527-11.666-30.698-12.781-49.941h-17.442c2.611 20.7 13.79 38.707 30.223 49.941zm49.057-127.214v59.456h26.231c-1.992-30.071-13.544-52.131-26.231-59.456zm-49.057 9.512c-16.434 11.234-27.612 29.242-30.224 49.943h17.442c1.116-19.244 5.666-36.416 12.782-49.943zm-41.388 94.487h-141.183c-4.924 0-8.909 3.984-8.909 8.909v160.358c0 4.924 3.985 8.909 8.909 8.909h249.446c4.924 0 8.909-3.985 8.909-8.909v-123.366c-10.933 4.799-22.953 7.552-35.635 7.552-36.439 0-67.751-22.046-81.537-53.453zm-87.731 142.54h-17.818c-4.924 0-8.909-3.985-8.909-8.909s3.985-8.909 8.909-8.909h17.818c4.924 0 8.909 3.985 8.909 8.909 0 4.925-3.984 8.909-8.909 8.909zm53.453 0h-17.818c-4.924 0-8.909-3.985-8.909-8.909s3.985-8.909 8.909-8.909h17.818c4.924 0 8.909 3.985 8.909 8.909 0 4.925-3.985 8.909-8.909 8.909zm8.909-62.361c0 4.924-3.985 8.909-8.909 8.909h-71.27c-4.924 0-8.909-3.985-8.909-8.909v-35.635c0-4.924 3.985-8.909 8.909-8.909h71.27c4.924 0 8.909 3.985 8.909 8.909zm44.544 62.361h-17.818c-4.924 0-8.909-3.985-8.909-8.909s3.985-8.909 8.909-8.909h17.818c4.924 0 8.909 3.985 8.909 8.909-.001 4.925-3.985 8.909-8.909 8.909zm53.452 0h-17.818c-4.924 0-8.909-3.985-8.909-8.909s3.985-8.909 8.909-8.909h17.818c4.924 0 8.909 3.985 8.909 8.909 0 4.925-3.985 8.909-8.909 8.909zm-169.266-71.27h53.453v-17.817h-53.453z" fill="url(#SVGID_2_)"/></g></g></g></svg>