<svg id="Capa_1" enable-background="new 0 0 512 512" height="512" viewBox="0 0 512 512" width="512" xmlns="http://www.w3.org/2000/svg" xmlns:xlink="http://www.w3.org/1999/xlink"><linearGradient id="SVGID_1_" gradientUnits="userSpaceOnUse" x1="256" x2="256" y1="512" y2="0"><stop offset="0" stop-color="#ffbef9"/><stop offset="1" stop-color="#fff1ff"/></linearGradient><linearGradient id="SVGID_2_" gradientUnits="userSpaceOnUse" x1="255.999" x2="255.999" y1="105" y2="407"><stop offset="0" stop-color="#a93aff"/><stop offset="1" stop-color="#ff81ff"/></linearGradient><g><g><circle cx="256" cy="256" fill="url(#SVGID_1_)" r="256"/></g><g><g><path d="m371.469 113.882c0-4.906-3.977-8.882-8.882-8.882h-248.705c-4.905 0-8.882 3.976-8.882 8.882v8.882h266.469zm0 26.647h-266.469v17.765h266.469zm0 71.059v-35.529h-266.469v97.706c0 4.905 3.977 8.882 8.882 8.882h79.941v-44.412c0-14.694 11.953-26.647 26.647-26.647zm26.647 17.765h-177.646c-4.91 0-8.882 3.973-8.882 8.882v124.352c0 4.91 3.973 8.882 8.882 8.882h102.91l32.927 32.927c2.564 2.564 6.407 3.292 9.68 1.926 3.322-1.371 5.482-4.615 5.482-8.206v-26.647h26.647c4.91 0 8.882-3.973 8.882-8.882v-124.352c.001-4.91-3.972-8.882-8.882-8.882zm-115.47 26.647h53.294c4.91 0 8.882 3.973 8.882 8.882s-3.973 8.882-8.882 8.882h-53.294c-4.91 0-8.882-3.973-8.882-8.882 0-4.91 3.973-8.882 8.882-8.882zm53.294 88.823h-53.294c-4.91 0-8.882-3.973-8.882-8.882s3.973-8.882 8.882-8.882h53.294c4.91 0 8.882 3.973 8.882 8.882.001 4.909-3.972 8.882-8.882 8.882zm35.529-35.53h-124.352c-4.91 0-8.882-3.973-8.882-8.882s3.973-8.882 8.882-8.882h124.352c4.91 0 8.882 3.973 8.882 8.882.001 4.91-3.972 8.882-8.882 8.882z" fill="url(#SVGID_2_)"/></g></g></g></svg>