<svg id="Capa_1" enable-background="new 0 0 512 512" height="512" viewBox="0 0 512 512" width="512" xmlns="http://www.w3.org/2000/svg" xmlns:xlink="http://www.w3.org/1999/xlink"><linearGradient id="SVGID_1_" gradientUnits="userSpaceOnUse" x1="256" x2="256" y1="512" y2="0"><stop offset="0" stop-color="#ffe59a"/><stop offset="1" stop-color="#ffffd5"/></linearGradient><linearGradient id="SVGID_2_" gradientUnits="userSpaceOnUse" x1="256" x2="256" y1="113.882" y2="398.118"><stop offset="0" stop-color="#fd5900"/><stop offset="1" stop-color="#ffde00"/></linearGradient><g><g><circle cx="256" cy="256" fill="url(#SVGID_1_)" r="256"/></g><g><g><path d="m335.941 113.882c-39.245 0-71.059 31.813-71.059 71.059 0 39.244 31.814 71.059 71.059 71.059 39.246 0 71.059-31.815 71.059-71.059 0-39.245-31.813-71.059-71.059-71.059zm8.882 113.835v10.519c0 4.909-3.973 8.882-8.882 8.882s-8.882-3.973-8.882-8.882v-10.606c-4.868-1.743-9.272-4.718-12.43-8.928-2.94-3.929-2.151-9.498 1.77-12.439 3.947-2.923 9.498-2.134 12.439 1.77 1.692 2.264 4.285 3.556 7.104 3.556 4.901 0 8.882-3.981 8.882-8.882s-3.981-8.882-8.882-8.882c-14.694 0-26.647-11.953-26.647-26.647 0-11.565 7.448-21.332 17.765-25.011v-10.519c0-4.909 3.973-8.882 8.882-8.882 4.91 0 8.882 3.973 8.882 8.882v10.606c4.868 1.743 9.272 4.718 12.43 8.928 2.94 3.929 2.151 9.498-1.77 12.439-3.921 2.94-9.481 2.168-12.439-1.77-4.649-6.211-15.995-2.403-15.987 5.326 0 4.901 3.981 8.882 8.882 8.882 14.694 0 26.647 11.953 26.647 26.647.001 11.565-7.447 21.332-17.764 25.011zm-186.529 63.812h53.294v-17.765h-53.294zm96.353-71.058h-140.765c-4.91 0-8.882 3.973-8.882 8.882v159.882c0 4.909 3.973 8.882 8.882 8.882h248.706c4.909 0 8.882-3.973 8.882-8.882v-123c-10.9 4.785-22.885 7.529-35.53 7.529-36.328.001-67.548-21.98-81.293-53.293zm-87.47 142.117h-17.765c-4.909 0-8.882-3.973-8.882-8.882s3.973-8.882 8.882-8.882h17.765c4.909 0 8.882 3.973 8.882 8.882s-3.973 8.882-8.882 8.882zm53.294 0h-17.765c-4.909 0-8.882-3.973-8.882-8.882s3.973-8.882 8.882-8.882h17.765c4.909 0 8.882 3.973 8.882 8.882s-3.973 8.882-8.882 8.882zm8.882-62.176c0 4.91-3.973 8.883-8.882 8.883h-71.059c-4.909 0-8.882-3.973-8.882-8.883v-35.529c0-4.91 3.973-8.882 8.882-8.882h71.059c4.909 0 8.882 3.973 8.882 8.882zm44.412 62.176h-17.765c-4.91 0-8.882-3.973-8.882-8.882s3.973-8.882 8.882-8.882h17.765c4.91 0 8.882 3.973 8.882 8.882s-3.973 8.882-8.882 8.882zm53.294 0h-17.765c-4.91 0-8.883-3.973-8.883-8.882s3.973-8.882 8.883-8.882h17.765c4.909 0 8.882 3.973 8.882 8.882s-3.973 8.882-8.882 8.882z" fill="url(#SVGID_2_)"/></g></g></g></svg>