<svg id="Capa_1" enable-background="new 0 0 512 512" height="512" viewBox="0 0 512 512" width="512" xmlns="http://www.w3.org/2000/svg" xmlns:xlink="http://www.w3.org/1999/xlink"><linearGradient id="SVGID_1_" gradientUnits="userSpaceOnUse" x1="256" x2="256" y1="512" y2="0"><stop offset="0" stop-color="#c3ffe8"/><stop offset=".9973" stop-color="#f0fff4"/></linearGradient><linearGradient id="SVGID_2_" gradientUnits="userSpaceOnUse" x1="256" x2="256" y1="122.765" y2="389.235"><stop offset="0" stop-color="#00b59c"/><stop offset="1" stop-color="#9cffac"/></linearGradient><g><g><circle cx="256" cy="256" fill="url(#SVGID_1_)" r="256"/></g><g><g><path d="m229.353 229.353h-35.53v17.765h35.53zm-88.824-44.412v142.118c0 4.909 3.973 8.882 8.882 8.882h213.177c4.909 0 8.882-3.973 8.882-8.882v-142.118c0-4.91-3.973-8.882-8.882-8.882h-213.176c-4.91 0-8.883 3.972-8.883 8.882zm186.53 115.471h-23.091c-4.91 0-8.882-3.973-8.882-8.882s3.973-8.882 8.882-8.882h23.091c4.909 0 8.882 3.973 8.882 8.882s-3.973 8.882-8.882 8.882zm-35.53-88.824h35.53c4.909 0 8.882 3.973 8.882 8.883 0 4.909-3.973 8.882-8.882 8.882h-35.53c-4.909 0-8.882-3.973-8.882-8.882 0-4.91 3.973-8.883 8.882-8.883zm-14.208 79.941c0 4.91-3.973 8.882-8.882 8.882h-23.099c-4.909 0-8.882-3.973-8.882-8.882s3.973-8.882 8.882-8.882h23.099c4.909 0 8.882 3.973 8.882 8.882zm-101.262-71.058c0-4.91 3.973-8.883 8.882-8.883h53.294c4.91 0 8.882 3.973 8.882 8.883v35.529c0 4.91-3.973 8.882-8.882 8.882h-53.294c-4.909 0-8.882-3.973-8.882-8.882zm8.882 62.176h24.869c4.91 0 8.882 3.973 8.882 8.882 0 4.91-3.973 8.882-8.882 8.882h-24.869c-4.909 0-8.882-3.973-8.882-8.882s3.973-8.882 8.882-8.882zm177.647-142.118h-35.53c-4.91 0-8.882 3.973-8.882 8.882 0 4.91 3.973 8.883 8.882 8.883h35.53c14.694 0 26.647 11.953 26.647 26.647v142.118c0 14.694-11.953 26.647-26.647 26.647h-142.117c-3.591 0-6.835 2.16-8.206 5.482-1.379 3.322-.616 7.139 1.926 9.68l17.765 17.765c3.47 3.469 9.091 3.47 12.56 0s3.47-9.091 0-12.56l-2.602-2.602h120.675c24.487 0 44.412-19.925 44.412-44.412v-142.118c-.001-24.487-19.926-44.412-44.413-44.412zm-192.358 213.177h-20.818c-14.694 0-26.647-11.953-26.647-26.647v-142.118c0-14.694 11.953-26.647 26.647-26.647h142.118c3.591 0 6.835-2.16 8.206-5.482 1.379-3.322.616-7.139-1.926-9.68l-17.765-17.765c-3.47-3.47-9.091-3.47-12.56 0s-3.47 9.091 0 12.56l2.602 2.602h-120.675c-24.487 0-44.412 19.925-44.412 44.412v142.118c0 24.487 19.925 44.412 44.412 44.412h20.818c4.91 0 8.882-3.973 8.882-8.883 0-4.909-3.973-8.882-8.882-8.882z" fill="url(#SVGID_2_)"/></g></g></g></svg>