<svg id="Capa_1" enable-background="new 0 0 512 512" height="512" viewBox="0 0 512 512" width="512" xmlns="http://www.w3.org/2000/svg" xmlns:xlink="http://www.w3.org/1999/xlink"><linearGradient id="SVGID_1_" gradientUnits="userSpaceOnUse" x1="256" x2="256" y1="512" y2="0"><stop offset="0" stop-color="#ffbef9"/><stop offset="1" stop-color="#fff1ff"/></linearGradient><linearGradient id="SVGID_2_" gradientUnits="userSpaceOnUse" x1="256" x2="256" y1="105" y2="407"><stop offset="0" stop-color="#a93aff"/><stop offset="1" stop-color="#ff81ff"/></linearGradient><g><g><circle cx="256" cy="256" fill="url(#SVGID_1_)" r="256"/></g><g><g><path d="m229.353 362.588h17.765v-35.529h-17.765zm88.823-168.765h-124.352c-4.91 0-8.882 3.973-8.882 8.882v195.412c0 4.91 3.973 8.882 8.882 8.882h124.353c4.91 0 8.882-3.973 8.882-8.882v-195.411c0-4.91-3.973-8.883-8.883-8.883zm-106.588 35.53c0-4.91 3.973-8.882 8.882-8.882 4.91 0 8.882 3.973 8.882 8.882v35.529c0 4.91-3.973 8.882-8.882 8.882-4.91 0-8.882-3.973-8.882-8.882zm53.294 142.118c0 4.909-3.973 8.882-8.882 8.882h-35.529c-4.91 0-8.882-3.973-8.882-8.882v-53.294c0-4.91 3.973-8.882 8.882-8.882h35.529c4.91 0 8.882 3.973 8.882 8.882zm35.53 0c0 4.909-3.973 8.882-8.882 8.882-4.91 0-8.882-3.973-8.882-8.882v-24.869c0-4.91 3.973-8.883 8.882-8.883 4.91 0 8.882 3.973 8.882 8.883zm0-60.399c0 4.91-3.973 8.882-8.882 8.882-4.91 0-8.882-3.973-8.882-8.882v-23.099c0-4.909 3.973-8.882 8.882-8.882 4.91 0 8.882 3.973 8.882 8.882zm0-58.628c0 4.909-3.973 8.882-8.882 8.882-4.91 0-8.882-3.973-8.882-8.882v-23.091c0-4.91 3.973-8.882 8.882-8.882 4.91 0 8.882 3.973 8.882 8.882zm70.313-75.639c-4.112-22.119-24.461-39.181-48.437-35.972-14.781-22.258-39.624-35.833-66.288-35.833-20.228 0-39.147 7.503-53.971 21.26-5.43-2.299-11.233-3.496-17.088-3.496-22.145 0-40.56 16.299-43.813 38.375-21.287 7.243-36.128 27.48-36.128 50.449 0 29.388 23.906 53.294 53.294 53.294h8.882v-62.177c0-14.694 11.953-26.647 26.647-26.647h124.353c14.694 0 26.647 11.953 26.647 26.647v62.177h17.765c24.487 0 44.412-19.925 44.412-44.412 0-21.711-15.657-39.831-36.275-43.665z" fill="url(#SVGID_2_)"/></g></g></g></svg>