<svg id="Capa_1" enable-background="new 0 0 512 512" height="512" viewBox="0 0 512 512" width="512" xmlns="http://www.w3.org/2000/svg" xmlns:xlink="http://www.w3.org/1999/xlink"><linearGradient id="SVGID_1_" gradientUnits="userSpaceOnUse" x1="256" x2="256" y1="512" y2="0"><stop offset="0" stop-color="#addcff"/><stop offset=".5028" stop-color="#eaf6ff"/><stop offset="1" stop-color="#eaf6ff"/></linearGradient><linearGradient id="SVGID_2_" gradientUnits="userSpaceOnUse" x1="256" x2="256" y1="125.026" y2="386.974"><stop offset="0" stop-color="#5558ff"/><stop offset="1" stop-color="#00c0ff"/></linearGradient><g><g><circle cx="256" cy="256" fill="url(#SVGID_1_)" r="256"/></g><g><g><path d="m335.941 182.68c-4.901 0-8.882 3.981-8.882 8.882s3.981 8.882 8.882 8.882 8.882-3.981 8.882-8.882-3.981-8.882-8.882-8.882zm70.088-1.805c-.746-4.25-4.528-7.347-8.839-7.347-6.341 0-11.979-3.218-15.093-8.613-3.071-5.309-3.01-12.005.156-17.479 2.212-3.817 1.284-8.683-2.177-11.415-5.448-4.311-11.545-7.798-18.138-10.383-4.12-1.604-8.77.035-10.956 3.877-6.245 10.964-23.837 10.964-30.082 0-2.186-3.825-6.853-5.447-10.955-3.877-6.592 2.585-12.69 6.072-18.138 10.383-3.461 2.732-4.389 7.599-2.177 11.415 3.166 5.473 3.227 12.17.156 17.479-3.114 5.395-8.752 8.613-15.18 8.613-4.311 0-8.006 3.097-8.752 7.347-.659 3.756-.972 7.26-.972 10.687s.312 6.931.972 10.687c.746 4.25 4.528 7.347 8.839 7.347 6.341 0 11.979 3.218 15.093 8.613 3.071 5.309 3.01 12.005-.156 17.479-2.212 3.817-1.284 8.683 2.177 11.415 5.447 4.311 11.545 7.798 18.138 10.383 4.068 1.561 8.752-.043 10.955-3.877 6.245-10.964 23.837-10.964 30.082 0 2.16 3.787 6.779 5.486 10.956 3.877 6.592-2.585 12.69-6.072 18.138-10.383 3.461-2.732 4.389-7.599 2.177-11.415-3.166-5.473-3.227-12.17-.156-17.479 3.114-5.395 8.752-8.613 15.18-8.613 4.311 0 8.006-3.097 8.752-7.347.659-3.756.971-7.26.971-10.687s-.312-6.931-.971-10.687zm-70.088 37.334c-14.694 0-26.647-11.953-26.647-26.647s11.953-26.647 26.647-26.647 26.647 11.953 26.647 26.647-11.953 26.647-26.647 26.647zm-177.647 62.176h53.294v-17.765h-53.294zm177.257-17.981c-5.43 11.308-19.651 16.414-31.973 11.667-8.353-3.279-15.987-7.642-22.796-13.037-10.305-8.136-13.124-22.874-6.523-34.254-.373.017-.746.026-1.119.026-10.704 0-19.785-7.28-23.341-17.479h-135.917c-4.91 0-8.882 3.973-8.882 8.882v159.882c0 4.91 3.973 8.882 8.882 8.882h248.706c4.91 0 8.882-3.973 8.882-8.882v-105.523c-1.036.452-1.989 1.044-3.045 1.459-12.777 4.923-26.526-.476-32.874-11.623zm-168.375 89.04h-17.765c-4.91 0-8.882-3.973-8.882-8.882s3.973-8.882 8.882-8.882h17.765c4.91 0 8.882 3.973 8.882 8.882s-3.972 8.882-8.882 8.882zm53.295 0h-17.765c-4.91 0-8.882-3.973-8.882-8.882s3.973-8.882 8.882-8.882h17.765c4.91 0 8.882 3.973 8.882 8.882s-3.973 8.882-8.882 8.882zm8.882-62.176c0 4.91-3.973 8.883-8.882 8.883h-71.059c-4.91 0-8.882-3.973-8.882-8.883v-35.529c0-4.91 3.973-8.882 8.882-8.882h71.059c4.91 0 8.882 3.973 8.882 8.882zm44.412 62.176h-17.765c-4.91 0-8.882-3.973-8.882-8.882s3.973-8.882 8.882-8.882h17.765c4.91 0 8.882 3.973 8.882 8.882s-3.973 8.882-8.882 8.882zm53.294 0h-17.765c-4.91 0-8.882-3.973-8.882-8.882s3.973-8.882 8.882-8.882h17.765c4.91 0 8.882 3.973 8.882 8.882s-3.973 8.882-8.882 8.882z" fill="url(#SVGID_2_)"/></g></g></g></svg>