<svg id="Capa_1" enable-background="new 0 0 512 512" height="512" viewBox="0 0 512 512" width="512" xmlns="http://www.w3.org/2000/svg" xmlns:xlink="http://www.w3.org/1999/xlink"><linearGradient id="SVGID_1_" gradientUnits="userSpaceOnUse" x1="256" x2="256" y1="512" y2="0"><stop offset="0" stop-color="#ffe59a"/><stop offset="1" stop-color="#ffffd5"/></linearGradient><linearGradient id="SVGID_2_" gradientUnits="userSpaceOnUse" x1="256" x2="256" y1="105" y2="407"><stop offset="0" stop-color="#fd5900"/><stop offset="1" stop-color="#ffde00"/></linearGradient><g><g><circle cx="256" cy="256" fill="url(#SVGID_1_)" r="256"/></g><g><g><path d="m398.118 105c-4.91 0-8.882 3.973-8.882 8.882v8.882h-17.765v-8.882c0-4.91-3.973-8.882-8.882-8.882h-17.765c-4.91 0-8.882 3.973-8.882 8.882v79.941h53.294v8.882c0 4.91 3.973 8.882 8.882 8.882 4.91 0 8.882-3.973 8.882-8.882v-88.823c0-4.909-3.973-8.882-8.882-8.882zm-8.883 71.059h-17.765v-35.53h17.765zm8.883 53.294h-8.882v63.703c0 15.388-4.762 30.949-13.41 43.822-3.246 4.81-7.952 8.178-13.237 10.065v15.645c0 3.833-3.476 8.2-7.633 8.796-3.999.564-13.619 1.77-22.987 1.77-6.506 0-12.89-.581-17.192-2.359-7.165-2.967-10.305-9.03-12.595-13.454-.703-1.362-1.761-3.417-2.325-3.903-1.362.625-6.245 6.479-9.108 12.794-1.44 3.183-4.615 5.239-8.102 5.239h-17.765c-2.359 0-4.615-.937-6.28-2.602l-10.799-10.791c-4.502 5.135-10.166 10.695-15.05 12.716-8.622 3.565-20.827.989-23.186.442-4.771-1.11-7.729-5.881-6.627-10.652 1.119-4.771 5.898-7.72 10.652-6.653 4.103.963 10.201 1.379 12.361.451 2.29-1.067 9.012-8.18 14.07-14.894 1.544-2.056 3.903-3.348 6.471-3.521 2.55-.2 5.083.755 6.905 2.576l15.162 15.162h8.683c4.051-7.017 12.074-17.765 23.169-17.765 10.704 0 14.989 8.284 17.548 13.237 1.206 2.316 2.446 4.719 3.617 5.204 3.212 1.324 13.375 1.208 23.247.286v-7.724c-5.282-1.885-9.985-5.245-13.219-10.032-8.665-12.907-13.427-28.469-13.427-43.856v-63.703h-204.297c-4.91 0-8.882 3.973-8.882 8.882v159.882c0 4.91 3.973 8.882 8.882 8.882h284.235c4.91 0 8.882-3.973 8.882-8.882v-159.881c.001-4.909-3.972-8.882-8.881-8.882zm-248.706 35.529h124.353c4.91 0 8.882 3.973 8.882 8.882s-3.973 8.882-8.882 8.882h-124.353c-4.91 0-8.882-3.973-8.882-8.882s3.972-8.882 8.882-8.882zm-8.883 44.412c0-4.91 3.973-8.883 8.882-8.883h106.589c4.91 0 8.882 3.973 8.882 8.883 0 4.909-3.973 8.882-8.882 8.882h-106.588c-4.91.001-8.883-3.972-8.883-8.882zm213.177 21.607c2.958 0 5.716-1.475 7.373-3.929 6.697-9.967 10.392-22.006 10.392-33.916v-81.468h-35.529v81.468c0 11.91 3.695 23.949 10.392 33.916 1.656 2.455 4.414 3.929 7.372 3.929z" fill="url(#SVGID_2_)"/></g></g></g></svg>