<svg id="Capa_1" enable-background="new 0 0 512 512" height="512" viewBox="0 0 512 512" width="512" xmlns="http://www.w3.org/2000/svg" xmlns:xlink="http://www.w3.org/1999/xlink"><linearGradient id="SVGID_1_" gradientUnits="userSpaceOnUse" x1="256" x2="256" y1="512" y2="0"><stop offset="0" stop-color="#c3ffe8"/><stop offset=".9973" stop-color="#f0fff4"/></linearGradient><linearGradient id="SVGID_2_" gradientUnits="userSpaceOnUse" x1="256" x2="256" y1="105.004" y2="407"><stop offset="0" stop-color="#00b59c"/><stop offset="1" stop-color="#9cffac"/></linearGradient><g><g><circle cx="256" cy="256" fill="url(#SVGID_1_)" r="256"/></g><g><g><path d="m273.765 309.293h-35.529v17.765h35.529zm124.353-44.411h-195.412c-4.909 0-8.882 3.973-8.882 8.882v124.353c0 4.909 3.973 8.882 8.882 8.882h195.412c4.91 0 8.882-3.973 8.882-8.882v-124.353c0-4.91-3.973-8.882-8.882-8.882zm-177.647 35.529c0-4.91 3.973-8.882 8.882-8.882h53.294c4.91 0 8.882 3.973 8.882 8.882v35.53c0 4.909-3.973 8.882-8.882 8.882h-53.294c-4.91 0-8.882-3.973-8.882-8.882zm33.751 79.941h-24.869c-4.91 0-8.882-3.973-8.882-8.882s3.973-8.882 8.882-8.882h24.869c4.91 0 8.882 3.973 8.882 8.882 0 4.91-3.973 8.882-8.882 8.882zm58.629 0h-23.099c-4.91 0-8.882-3.973-8.882-8.882s3.973-8.882 8.882-8.882h23.099c4.91 0 8.882 3.973 8.882 8.882 0 4.91-3.973 8.882-8.882 8.882zm58.62 0h-23.091c-4.91 0-8.882-3.973-8.882-8.882s3.973-8.882 8.882-8.882h23.091c4.909 0 8.882 3.973 8.882 8.882 0 4.91-3.973 8.882-8.882 8.882zm0-71.059h-35.53c-4.909 0-8.882-3.973-8.882-8.882s3.973-8.882 8.882-8.882h35.53c4.909 0 8.882 3.973 8.882 8.882s-3.973 8.882-8.882 8.882zm-168.765-62.176h97.706v-115.471c0-2.698-1.223-5.248-3.331-6.939l-22.206-17.765c-3.244-2.585-7.858-2.585-11.103 0l-16.654 13.332-16.655-13.332c-3.244-2.585-7.858-2.585-11.103 0l-16.654 13.332-16.655-13.332c-3.244-2.585-7.859-2.585-11.103 0l-16.654 13.332-16.655-13.332c-3.244-2.585-7.859-2.585-11.103 0l-22.206 17.765c-2.107 1.692-3.331 4.242-3.331 6.939v248.706c0 2.698 1.223 5.248 3.331 6.939l22.206 17.765c3.244 2.585 7.859 2.585 11.103 0l16.655-13.332 16.654 13.332c.797.637 1.674 1.101 2.585 1.423-.883-2.646-1.475-5.424-1.475-8.362v-124.353c.001-14.694 11.954-26.647 26.648-26.647zm-17.765-71.059h71.059c4.91 0 8.882 3.973 8.882 8.883 0 4.909-3.973 8.882-8.882 8.882h-71.059c-4.909 0-8.882-3.973-8.882-8.882 0-4.91 3.973-8.883 8.882-8.883zm0 35.53h71.059c4.91 0 8.882 3.973 8.882 8.882 0 4.91-3.973 8.882-8.882 8.882h-71.059c-4.909 0-8.882-3.973-8.882-8.882s3.973-8.882 8.882-8.882zm-35.529 88.823c-4.905 0-8.882-3.977-8.882-8.882 0-4.906 3.977-8.882 8.882-8.882s8.883 3.976 8.883 8.882c-.001 4.905-3.978 8.882-8.883 8.882zm0-35.529c-4.905 0-8.882-3.977-8.882-8.882 0-4.906 3.977-8.882 8.882-8.882s8.883 3.976 8.883 8.882c-.001 4.905-3.978 8.882-8.883 8.882zm0-35.53c-4.905 0-8.882-3.977-8.882-8.882 0-4.906 3.977-8.882 8.882-8.882s8.883 3.976 8.883 8.882c-.001 4.905-3.978 8.882-8.883 8.882zm0-35.529c-4.905 0-8.882-3.977-8.882-8.882 0-4.906 3.977-8.883 8.882-8.883s8.883 3.976 8.883 8.883c-.001 4.905-3.978 8.882-8.883 8.882z" fill="url(#SVGID_2_)"/></g></g></g></svg>