<svg id="Capa_1" enable-background="new 0 0 512 512" height="512" viewBox="0 0 512 512" width="512" xmlns="http://www.w3.org/2000/svg" xmlns:xlink="http://www.w3.org/1999/xlink"><linearGradient id="SVGID_1_" gradientUnits="userSpaceOnUse" x1="256" x2="256" y1="512" y2="0"><stop offset="0" stop-color="#ffc8d1"/><stop offset="1" stop-color="#fff6f7"/></linearGradient><linearGradient id="SVGID_2_" gradientUnits="userSpaceOnUse" x1="256" x2="256" y1="167.177" y2="344.824"><stop offset="0" stop-color="#fd3a84"/><stop offset="1" stop-color="#ffa68d"/></linearGradient><g><g><circle cx="256" cy="256" fill="url(#SVGID_1_)" r="256"/></g><g><g><path d="m158.294 238.235h53.294v-17.765h-53.294zm105.539 62.177 14.026-28.052c1.709-3.417 1.041-7.546-1.666-10.253l-11.311-11.311v-74.737c0-4.91-3.973-8.882-8.882-8.882h-142.118c-4.91 0-8.882 3.973-8.882 8.882v159.882c0 4.91 3.973 8.882 8.882 8.882h157.783c3.079 0 5.933-1.596 7.555-4.216s1.77-5.89.39-8.64zm-96.656 8.882h-17.765c-4.909 0-8.882-3.973-8.882-8.883 0-4.909 3.973-8.882 8.882-8.882h17.765c4.909 0 8.882 3.973 8.882 8.882 0 4.91-3.973 8.883-8.882 8.883zm53.294 0h-17.765c-4.909 0-8.882-3.973-8.882-8.883 0-4.909 3.973-8.882 8.882-8.882h17.765c4.909 0 8.882 3.973 8.882 8.882 0 4.91-3.973 8.883-8.882 8.883zm8.882-62.176c0 4.91-3.973 8.882-8.882 8.882h-71.059c-4.909 0-8.882-3.973-8.882-8.882v-35.53c0-4.909 3.973-8.882 8.882-8.882h71.059c4.909 0 8.882 3.973 8.882 8.882zm168.765-79.941h-106.589c-4.909 0-8.882 3.973-8.882 8.882v63.703c0 2.359.937 4.615 2.602 6.28l17.088 17.088-16.654 33.309c-1.249 2.498-1.249 5.447 0 7.946l17.765 35.53c1.509 3.01 4.58 4.909 7.946 4.909h86.724c4.91 0 8.882-3.973 8.882-8.882v-159.883c0-4.91-3.973-8.882-8.882-8.882zm-35.53 142.117h-17.765c-4.909 0-8.882-3.973-8.882-8.883 0-4.909 3.973-8.882 8.882-8.882h17.765c4.909 0 8.882 3.973 8.882 8.882.001 4.91-3.972 8.883-8.882 8.883zm0-88.823h-35.53c-4.91 0-8.882-3.973-8.882-8.883 0-4.909 3.973-8.882 8.882-8.882h35.53c4.909 0 8.882 3.973 8.882 8.882.001 4.91-3.972 8.883-8.882 8.883z" fill="url(#SVGID_2_)"/></g></g></g></svg>