<svg id="Capa_1" enable-background="new 0 0 512 512" height="512" viewBox="0 0 512 512" width="512" xmlns="http://www.w3.org/2000/svg" xmlns:xlink="http://www.w3.org/1999/xlink"><linearGradient id="SVGID_1_" gradientUnits="userSpaceOnUse" x1="256" x2="256" y1="512" y2="0"><stop offset="0" stop-color="#addcff"/><stop offset=".5028" stop-color="#eaf6ff"/><stop offset="1" stop-color="#eaf6ff"/></linearGradient><linearGradient id="SVGID_2_" gradientUnits="userSpaceOnUse" x1="256" x2="256" y1="113.882" y2="398.118"><stop offset="0" stop-color="#5558ff"/><stop offset="1" stop-color="#00c0ff"/></linearGradient><g><g><circle cx="256" cy="256" fill="url(#SVGID_1_)" r="256"/></g><g><g><path d="m399.887 148.7c-13.983-2.854-24.852-13.722-27.705-27.705-.841-4.137-4.476-7.113-8.7-7.113h-55.081c-4.224 0-7.859 2.975-8.7 7.113-2.854 13.983-13.723 24.852-27.705 27.705-4.138.842-7.113 4.476-7.113 8.7v45.305c0 34.853 55.957 63.799 67.182 69.246 1.223.599 2.55.894 3.877.894s2.654-.295 3.877-.894c11.224-5.447 67.181-34.392 67.181-69.245v-45.305c0-4.225-2.975-7.859-7.113-8.701zm-55.063 89.535c0 4.909-3.973 8.882-8.882 8.882-4.91 0-8.882-3.973-8.882-8.882v-88.824c0-4.909 3.973-8.882 8.882-8.882 4.91 0 8.882 3.973 8.882 8.882zm-186.53 53.294h53.294v-17.765h-53.294zm177.647-.919c-4.033 0-8.076-.937-11.684-2.698-19.833-9.627-62.167-33.669-73.948-67.441h-136.427c-4.91 0-8.882 3.973-8.882 8.882v159.882c0 4.91 3.973 8.882 8.882 8.882h248.706c4.91 0 8.882-3.973 8.882-8.882v-114.621c-9.092 5.757-17.626 10.274-23.897 13.316-3.556 1.743-7.598 2.68-11.632 2.68zm-168.765 71.978h-17.765c-4.91 0-8.882-3.973-8.882-8.882 0-4.91 3.973-8.883 8.882-8.883h17.765c4.91 0 8.882 3.973 8.882 8.883.001 4.909-3.972 8.882-8.882 8.882zm53.295 0h-17.765c-4.91 0-8.882-3.973-8.882-8.882 0-4.91 3.973-8.883 8.882-8.883h17.765c4.91 0 8.882 3.973 8.882 8.883 0 4.909-3.973 8.882-8.882 8.882zm8.882-62.176c0 4.91-3.973 8.882-8.882 8.882h-71.059c-4.91 0-8.882-3.973-8.882-8.882v-35.529c0-4.91 3.973-8.882 8.882-8.882h71.059c4.91 0 8.882 3.973 8.882 8.882zm44.412 62.176h-17.765c-4.91 0-8.882-3.973-8.882-8.882 0-4.91 3.973-8.883 8.882-8.883h17.765c4.91 0 8.882 3.973 8.882 8.883 0 4.909-3.973 8.882-8.882 8.882zm53.294 0h-17.765c-4.91 0-8.882-3.973-8.882-8.882 0-4.91 3.973-8.883 8.882-8.883h17.765c4.91 0 8.882 3.973 8.882 8.883 0 4.909-3.973 8.882-8.882 8.882z" fill="url(#SVGID_2_)"/></g></g></g></svg>