<svg id="Capa_1" enable-background="new 0 0 512 512" height="512" viewBox="0 0 512 512" width="512" xmlns="http://www.w3.org/2000/svg" xmlns:xlink="http://www.w3.org/1999/xlink"><linearGradient id="SVGID_1_" gradientUnits="userSpaceOnUse" x1="256" x2="256" y1="512" y2="0"><stop offset="0" stop-color="#ffe59a"/><stop offset="1" stop-color="#ffffd5"/></linearGradient><linearGradient id="SVGID_2_" gradientUnits="userSpaceOnUse" x1="256" x2="256" y1="105" y2="407"><stop offset="0" stop-color="#fd5900"/><stop offset="1" stop-color="#ffde00"/></linearGradient><g><g><circle cx="256" cy="256" fill="url(#SVGID_1_)" r="256"/></g><g><g><path d="m193.824 300.412h-35.529v53.294h35.529zm88.823 0v53.294h35.529v-53.294zm-8.882-151h-35.529v17.765h35.529zm124.353-44.412h-195.412c-4.91 0-8.882 3.973-8.882 8.882v124.353c0 4.909 3.973 8.882 8.882 8.882h195.412c4.91 0 8.882-3.973 8.882-8.882v-124.353c0-4.909-3.973-8.882-8.882-8.882zm-177.647 35.529c0-4.909 3.973-8.882 8.882-8.882h53.294c4.91 0 8.882 3.973 8.882 8.882v35.53c0 4.909-3.973 8.882-8.882 8.882h-53.294c-4.91 0-8.882-3.973-8.882-8.882zm33.751 79.942h-24.869c-4.91 0-8.882-3.973-8.882-8.883 0-4.909 3.973-8.882 8.882-8.882h24.869c4.91 0 8.882 3.973 8.882 8.882 0 4.91-3.973 8.883-8.882 8.883zm58.629 0h-23.099c-4.91 0-8.882-3.973-8.882-8.883 0-4.909 3.973-8.882 8.882-8.882h23.099c4.91 0 8.882 3.973 8.882 8.882 0 4.91-3.973 8.883-8.882 8.883zm58.62 0h-23.091c-4.91 0-8.882-3.973-8.882-8.883 0-4.909 3.973-8.882 8.882-8.882h23.091c4.91 0 8.882 3.973 8.882 8.882 0 4.91-3.973 8.883-8.882 8.883zm0-71.059h-35.529c-4.91 0-8.882-3.973-8.882-8.882s3.973-8.882 8.882-8.882h35.529c4.91 0 8.882 3.973 8.882 8.882s-3.973 8.882-8.882 8.882zm-195.412 88.823v-36.308l-30.143 12.922c-3.27 1.397-5.387 4.606-5.387 8.163v24.105h-26.647c-4.91 0-8.882 3.973-8.882 8.882v17.765c0 4.91 3.973 8.882 8.882 8.882h248.706c4.91 0 8.882-3.973 8.882-8.882v-8.882h-168.764c-14.694 0-26.647-11.953-26.647-26.647zm186.529 151h-8.882v-8.882c0-4.906-3.977-8.882-8.882-8.882h-62.177v17.765h-88.823v-17.765h-62.177c-4.905 0-8.882 3.976-8.882 8.882v8.882h-8.882c-4.91 0-8.882 3.973-8.882 8.882s3.973 8.882 8.882 8.882h248.706c4.91 0 8.882-3.973 8.882-8.882s-3.973-8.882-8.883-8.882z" fill="url(#SVGID_2_)"/></g></g></g></svg>