<svg id="Capa_1" enable-background="new 0 0 512 512" height="512" viewBox="0 0 512 512" width="512" xmlns="http://www.w3.org/2000/svg" xmlns:xlink="http://www.w3.org/1999/xlink"><linearGradient id="SVGID_1_" gradientUnits="userSpaceOnUse" x1="256" x2="256" y1="512" y2="0"><stop offset="0" stop-color="#addcff"/><stop offset=".5028" stop-color="#eaf6ff"/><stop offset="1" stop-color="#eaf6ff"/></linearGradient><linearGradient id="SVGID_2_" gradientUnits="userSpaceOnUse" x1="256" x2="256" y1="140.529" y2="371.471"><stop offset="0" stop-color="#5558ff"/><stop offset="1" stop-color="#00c0ff"/></linearGradient><g><g><circle cx="256" cy="256" fill="url(#SVGID_1_)" r="256"/></g><g><g><path d="m193.823 264.882h-35.529v17.765h35.529zm133.236-53.294h-213.177c-4.91 0-8.882 3.973-8.882 8.883v142.118c0 4.91 3.973 8.882 8.882 8.882h213.177c4.909 0 8.882-3.973 8.882-8.882v-142.118c0-4.91-3.973-8.883-8.882-8.883zm-186.53 44.412c0-4.91 3.973-8.882 8.882-8.882h53.294c4.91 0 8.883 3.973 8.883 8.882v35.529c0 4.91-3.973 8.882-8.883 8.882h-53.294c-4.909 0-8.882-3.973-8.882-8.882zm33.752 79.941h-24.869c-4.909 0-8.882-3.973-8.882-8.883 0-4.909 3.973-8.882 8.882-8.882h24.869c4.909 0 8.882 3.973 8.882 8.882 0 4.91-3.973 8.883-8.882 8.883zm58.628 0h-23.099c-4.91 0-8.882-3.973-8.882-8.883 0-4.909 3.973-8.882 8.882-8.882h23.099c4.909 0 8.882 3.973 8.882 8.882.001 4.91-3.972 8.883-8.882 8.883zm58.62 0h-23.091c-4.909 0-8.882-3.973-8.882-8.883 0-4.909 3.973-8.882 8.882-8.882h23.091c4.91 0 8.882 3.973 8.882 8.882.001 4.91-3.972 8.883-8.882 8.883zm0-71.059h-35.529c-4.91 0-8.882-3.973-8.882-8.882s3.973-8.882 8.882-8.882h35.529c4.91 0 8.882 3.973 8.882 8.882s-3.972 8.882-8.882 8.882zm35.53-124.353c-4.91 0-8.882 3.973-8.882 8.882 0 4.91 3.973 8.883 8.882 8.883 34.28 0 62.177 27.896 62.177 62.177 0 4.909 3.973 8.882 8.882 8.882s8.882-3.973 8.882-8.882c0-44.083-35.859-79.942-79.941-79.942zm0 35.53c-4.91 0-8.882 3.973-8.882 8.882s3.973 8.882 8.882 8.882c14.694 0 26.647 11.953 26.647 26.647 0 4.909 3.973 8.882 8.883 8.882 4.909 0 8.882-3.973 8.882-8.882 0-24.487-19.925-44.411-44.412-44.411z" fill="url(#SVGID_2_)"/></g></g></g></svg>