<svg id="Capa_1" enable-background="new 0 0 512 512" height="512" viewBox="0 0 512 512" width="512" xmlns="http://www.w3.org/2000/svg" xmlns:xlink="http://www.w3.org/1999/xlink"><linearGradient id="SVGID_1_" gradientUnits="userSpaceOnUse" x1="256" x2="256" y1="512" y2="0"><stop offset="0" stop-color="#ffbef9"/><stop offset="1" stop-color="#fff1ff"/></linearGradient><linearGradient id="SVGID_2_" gradientUnits="userSpaceOnUse" x1="256" x2="256" y1="122.765" y2="389.235"><stop offset="0" stop-color="#a93aff"/><stop offset="1" stop-color="#ff81ff"/></linearGradient><g><g><circle cx="256" cy="256" fill="url(#SVGID_1_)" r="256"/></g><g><g><path d="m229.353 211.588h-35.53v17.765h35.53zm-71.059 53.294h62.177c4.909 0 8.882 3.973 8.882 8.882 0 14.694 11.953 26.647 26.647 26.647s26.647-11.953 26.647-26.647c0-4.91 3.973-8.882 8.882-8.882h62.177v-88.823h-195.412zm133.235-71.059h35.53c4.909 0 8.882 3.973 8.882 8.882 0 4.91-3.973 8.882-8.882 8.882h-35.53c-4.909 0-8.882-3.973-8.882-8.882s3.973-8.882 8.882-8.882zm-115.47 8.883c0-4.909 3.973-8.882 8.882-8.882h53.294c4.91 0 8.882 3.973 8.882 8.882v35.53c0 4.909-3.973 8.882-8.882 8.882h-53.294c-4.909 0-8.882-3.973-8.882-8.882zm186.529-79.941h-213.176c-24.487 0-44.412 19.925-44.412 44.412v213.177c0 4.91 3.973 8.882 8.882 8.882h284.235c4.91 0 8.882-3.973 8.882-8.882v-213.177c.001-24.488-19.924-44.412-44.411-44.412zm0 230.941h-35.53c-4.91 0-8.882-3.973-8.882-8.883 0-4.909 3.973-8.882 8.882-8.882h35.53c4.909 0 8.882 3.973 8.882 8.882.001 4.91-3.972 8.883-8.882 8.883zm8.883-79.941c0 4.91-3.973 8.882-8.882 8.882h-63.07c-4.129 20.246-22.067 35.529-43.518 35.529s-39.389-15.284-43.518-35.529h-63.07c-4.909 0-8.882-3.973-8.882-8.882v-106.588c0-4.91 3.973-8.882 8.882-8.882h213.177c4.909 0 8.882 3.973 8.882 8.882v106.588z" fill="url(#SVGID_2_)"/></g></g></g></svg>