<svg id="Capa_1" enable-background="new 0 0 512 512" height="512" viewBox="0 0 512 512" width="512" xmlns="http://www.w3.org/2000/svg" xmlns:xlink="http://www.w3.org/1999/xlink"><linearGradient id="SVGID_1_" gradientUnits="userSpaceOnUse" x1="256" x2="256" y1="512" y2="0"><stop offset="0" stop-color="#ffc8d1"/><stop offset="1" stop-color="#fff6f7"/></linearGradient><linearGradient id="SVGID_2_" gradientUnits="userSpaceOnUse" x1="256" x2="256" y1="105" y2="407"><stop offset="0" stop-color="#fd3a84"/><stop offset="1" stop-color="#ffa68d"/></linearGradient><g><g><circle cx="256" cy="256" fill="url(#SVGID_1_)" r="256"/></g><g><g><path d="m167.177 407h71.059v-35.529h-71.059zm177.646-177.647h17.765v-35.53h-17.765zm44.412-88.824h-79.941v230.941h79.941c4.91 0 8.882-3.973 8.882-8.882v-213.176c.001-4.91-3.972-8.883-8.882-8.883zm-8.882 186.53c0 4.91-3.973 8.883-8.882 8.883s-8.882-3.973-8.882-8.883v-35.529c0-4.91 3.973-8.882 8.882-8.882s8.882 3.973 8.882 8.882zm0-88.824c0 4.91-3.973 8.882-8.882 8.882h-35.529c-4.91 0-8.882-3.973-8.882-8.882v-53.294c0-4.91 3.973-8.883 8.882-8.883h35.529c4.91 0 8.882 3.973 8.882 8.883zm-115.471-133.235h-124.353c-14.694 0-26.647 11.953-26.647 26.647v248.706c0 14.694 11.953 26.647 26.647 26.647h8.882v-44.412c0-4.91 3.973-8.882 8.882-8.882h88.823c4.91 0 8.882 3.973 8.882 8.882v44.412h8.882c14.694 0 26.647-11.953 26.647-26.647v-248.706c.002-14.694-11.951-26.647-26.645-26.647zm-97.705 230.941c-4.905 0-8.882-3.978-8.882-8.883 0-4.906 3.977-8.882 8.882-8.882s8.882 3.976 8.882 8.882-3.977 8.883-8.882 8.883zm0-35.529c-4.905 0-8.882-3.977-8.882-8.882 0-4.906 3.977-8.882 8.882-8.882s8.882 3.976 8.882 8.882c0 4.905-3.977 8.882-8.882 8.882zm0-35.53c-4.905 0-8.882-3.977-8.882-8.882 0-4.906 3.977-8.882 8.882-8.882s8.882 3.976 8.882 8.882c0 4.905-3.977 8.882-8.882 8.882zm35.529 71.059c-4.905 0-8.882-3.978-8.882-8.883 0-4.906 3.977-8.882 8.882-8.882s8.882 3.976 8.882 8.882-3.977 8.883-8.882 8.883zm0-35.529c-4.905 0-8.882-3.977-8.882-8.882 0-4.906 3.977-8.882 8.882-8.882s8.882 3.976 8.882 8.882c0 4.905-3.977 8.882-8.882 8.882zm0-35.53c-4.905 0-8.882-3.977-8.882-8.882 0-4.906 3.977-8.882 8.882-8.882s8.882 3.976 8.882 8.882c0 4.905-3.977 8.882-8.882 8.882zm35.529 71.059c-4.905 0-8.882-3.978-8.882-8.883 0-4.906 3.977-8.882 8.882-8.882s8.882 3.976 8.882 8.882c.001 4.906-3.976 8.883-8.882 8.883zm0-35.529c-4.905 0-8.882-3.977-8.882-8.882 0-4.906 3.977-8.882 8.882-8.882s8.882 3.976 8.882 8.882c.001 4.905-3.976 8.882-8.882 8.882zm0-35.53c-4.905 0-8.882-3.977-8.882-8.882 0-4.906 3.977-8.882 8.882-8.882s8.882 3.976 8.882 8.882c.001 4.905-3.976 8.882-8.882 8.882zm17.765-44.411c0 4.909-3.973 8.882-8.882 8.882h-88.823c-4.91 0-8.882-3.973-8.882-8.882v-53.294c0-4.91 3.973-8.882 8.882-8.882h88.823c4.91 0 8.882 3.973 8.882 8.882zm-88.823-8.883h71.059v-35.53h-71.059z" fill="url(#SVGID_2_)"/></g></g></g></svg>