<svg id="Capa_1" enable-background="new 0 0 512 512" height="512" viewBox="0 0 512 512" width="512" xmlns="http://www.w3.org/2000/svg" xmlns:xlink="http://www.w3.org/1999/xlink"><linearGradient id="SVGID_1_" gradientUnits="userSpaceOnUse" x1="256" x2="256" y1="512" y2="0"><stop offset="0" stop-color="#c3ffe8"/><stop offset=".9973" stop-color="#f0fff4"/></linearGradient><linearGradient id="SVGID_2_" gradientUnits="userSpaceOnUse" x1="256" x2="256" y1="122.765" y2="389.235"><stop offset="0" stop-color="#00b59c"/><stop offset="1" stop-color="#9cffac"/></linearGradient><g><g><circle cx="256" cy="256" fill="url(#SVGID_1_)" r="256"/></g><g><g><path d="m282.647 309.294c-14.442 0-26.647 8.137-26.647 17.765s12.205 17.765 26.647 17.765c14.443 0 26.647-8.136 26.647-17.765 0-9.628-12.204-17.765-26.647-17.765zm115.471-44.412h-230.941c-4.91 0-8.882 3.973-8.882 8.882v106.588c0 4.91 3.973 8.882 8.882 8.882h230.941c4.91 0 8.882-3.973 8.882-8.882v-106.587c0-4.91-3.973-8.883-8.882-8.883zm-186.53 79.941c4.909 0 8.882 3.973 8.882 8.883 0 4.909-3.973 8.882-8.882 8.882h-17.765c-4.909 0-8.882-3.973-8.882-8.882v-53.294c0-4.91 3.973-8.882 8.882-8.882h17.765c4.909 0 8.882 3.973 8.882 8.882s-3.973 8.882-8.882 8.882h-8.883v35.529zm71.059 17.765c-24.487 0-44.412-15.935-44.412-35.53s19.925-35.529 44.412-35.529 44.412 15.935 44.412 35.529c0 19.596-19.925 35.53-44.412 35.53zm97.706-8.882c0 4.909-3.973 8.882-8.882 8.882h-17.765c-4.909 0-8.882-3.973-8.882-8.882 0-4.91 3.973-8.883 8.882-8.883h8.883v-35.529h-8.883c-4.909 0-8.882-3.973-8.882-8.882s3.973-8.882 8.882-8.882h17.765c4.909 0 8.882 3.973 8.882 8.882zm-8.882-222.059c0-4.91-3.973-8.882-8.882-8.882h-248.707c-4.91 0-8.882 3.973-8.882 8.882v17.765h266.471zm0 35.529h-266.471v26.647h266.471zm0 79.942v-35.529h-266.471v79.941c0 4.91 3.973 8.882 8.882 8.882h26.647v-26.647c0-14.694 11.953-26.647 26.647-26.647z" fill="url(#SVGID_2_)"/></g></g></g></svg>