<svg id="Capa_1" enable-background="new 0 0 512 512" height="512" viewBox="0 0 512 512" width="512" xmlns="http://www.w3.org/2000/svg" xmlns:xlink="http://www.w3.org/1999/xlink"><linearGradient id="SVGID_1_" gradientUnits="userSpaceOnUse" x1="256" x2="256" y1="512" y2="0"><stop offset="0" stop-color="#ffe59a"/><stop offset="1" stop-color="#ffffd5"/></linearGradient><linearGradient id="SVGID_2_" gradientUnits="userSpaceOnUse" x1="256" x2="256" y1="105" y2="407"><stop offset="0" stop-color="#fd5900"/><stop offset="1" stop-color="#ffde00"/></linearGradient><g><g><circle cx="256" cy="256" fill="url(#SVGID_1_)" r="256"/></g><g><g><path d="m247.118 211.588v-53.294h-88.824v17.765h26.647c2.359 0 4.615.937 6.28 2.603l32.927 32.927h22.97zm35.529 17.765h-53.294v53.294h53.294zm-71.059-5.205-30.325-30.325h-22.969v53.294h53.294zm159.883 22.97h35.529v-53.294h-35.529zm-17.765-53.295h-22.969l-30.325 30.325v22.969h53.294zm-162.485 139.516c-1.665 1.666-3.921 2.603-6.28 2.603h-26.647v17.765h88.824v-53.294h-22.969zm129.558-154.678c1.665-1.666 3.921-2.603 6.28-2.603h26.647v-17.765h-88.824v53.294h22.969zm-180.25 15.162h-35.529v53.294h35.529zm213.177 142.118h-26.647c-2.359 0-4.615-.937-6.28-2.603l-32.927-32.927h-22.969v53.294h88.824v-17.764zm-213.177 26.647v-26.647h-35.529v26.647c0 24.487 19.925 44.412 44.412 44.412h97.706v-35.529h-97.706c-4.91 0-8.883-3.973-8.883-8.883zm0-97.706h-35.529v53.294h35.529zm0-115.47c0-4.91 3.973-8.882 8.882-8.882h97.706v-35.53h-97.706c-24.486 0-44.411 19.925-44.411 44.412v26.647h35.529zm230.942 213.176c0 4.91-3.973 8.882-8.882 8.882h-97.706v35.53h97.706c24.486 0 44.411-19.925 44.411-44.412v-26.647h-35.529zm-8.883-257.588h-97.706v35.529h97.706c4.91 0 8.882 3.973 8.882 8.882v26.647h35.53v-26.647c0-24.486-19.925-44.411-44.412-44.411zm-204.294 213.176h22.969l30.325-30.325v-22.969h-53.294zm213.177 0h35.529v-53.294h-35.529zm-17.765-53.294h-53.294v22.969l30.325 30.325h22.969z" fill="url(#SVGID_2_)"/></g></g></g></svg>