<svg id="Capa_1" enable-background="new 0 0 512 512" height="512" viewBox="0 0 512 512" width="512" xmlns="http://www.w3.org/2000/svg" xmlns:xlink="http://www.w3.org/1999/xlink"><linearGradient id="SVGID_1_" gradientUnits="userSpaceOnUse" x1="256" x2="256" y1="512" y2="0"><stop offset="0" stop-color="#ffbef9"/><stop offset="1" stop-color="#fff1ff"/></linearGradient><linearGradient id="SVGID_2_" gradientUnits="userSpaceOnUse" x1="256" x2="256" y1="105" y2="407"><stop offset="0" stop-color="#a93aff"/><stop offset="1" stop-color="#ff81ff"/></linearGradient><g><g><circle cx="256" cy="256" fill="url(#SVGID_1_)" r="256"/></g><g><g><path d="m161.686 176.059h99.805l20.22-40.439c1.379-2.75 1.232-6.02-.39-8.639s-4.476-4.216-7.555-4.216c-2.559 0-6.072-3.296-9.472-6.479-5.362-5.032-12.033-11.286-21.618-11.286s-16.255 6.254-21.616 11.285c-3.4 3.184-6.913 6.479-9.472 6.479s-6.072-3.296-9.472-6.479c-5.361-5.031-12.031-11.285-21.616-11.285s-16.255 6.254-21.616 11.285c-3.4 3.184-6.913 6.479-9.472 6.479-3.079 0-5.933 1.596-7.555 4.216s-1.77 5.89-.39 8.639zm41.02 71.059h105.335c-5.982-14.758-14.152-26.938-22.65-37.27 18.831-5.149 32.786-22.232 32.786-42.672 0-4.91-3.973-8.882-8.882-8.882-4.91 0-8.882 3.973-8.882 8.882 0 14.694-11.953 26.647-26.647 26.647h-121.327c-22.091 20.83-47.439 53.455-47.439 106.589v79.941c0 14.694 11.953 26.647 26.647 26.647h46.048c-.995-2.792-1.636-5.753-1.636-8.882v-124.353c0-14.694 11.953-26.647 26.647-26.647zm195.412 17.764h-195.412c-4.91 0-8.882 3.973-8.882 8.882v124.353c0 4.91 3.973 8.882 8.882 8.882h195.412c4.91 0 8.882-3.973 8.882-8.882v-124.352c0-4.91-3.973-8.883-8.882-8.883zm-177.647 35.53c0-4.91 3.973-8.882 8.882-8.882h53.294c4.91 0 8.882 3.973 8.882 8.882v35.53c0 4.909-3.973 8.882-8.882 8.882h-53.294c-4.91 0-8.882-3.973-8.882-8.882zm33.751 79.941h-24.869c-4.91 0-8.882-3.973-8.882-8.882 0-4.91 3.973-8.882 8.882-8.882h24.869c4.91 0 8.882 3.973 8.882 8.882s-3.973 8.882-8.882 8.882zm58.629 0h-23.099c-4.91 0-8.882-3.973-8.882-8.882 0-4.91 3.973-8.882 8.882-8.882h23.099c4.91 0 8.882 3.973 8.882 8.882s-3.973 8.882-8.882 8.882zm58.62 0h-23.091c-4.91 0-8.882-3.973-8.882-8.882 0-4.91 3.973-8.882 8.882-8.882h23.091c4.91 0 8.882 3.973 8.882 8.882s-3.973 8.882-8.882 8.882zm0-71.059h-35.529c-4.91 0-8.882-3.973-8.882-8.882s3.973-8.882 8.882-8.882h35.529c4.91 0 8.882 3.973 8.882 8.882s-3.973 8.882-8.882 8.882zm-97.706 0h-35.529v17.765h35.529z" fill="url(#SVGID_2_)"/></g></g></g></svg>