<svg id="Capa_1" enable-background="new 0 0 512 512" height="512" viewBox="0 0 512 512" width="512" xmlns="http://www.w3.org/2000/svg" xmlns:xlink="http://www.w3.org/1999/xlink"><linearGradient id="SVGID_1_" gradientUnits="userSpaceOnUse" x1="256" x2="256" y1="512" y2="0"><stop offset="0" stop-color="#addcff"/><stop offset=".5028" stop-color="#eaf6ff"/><stop offset="1" stop-color="#eaf6ff"/></linearGradient><linearGradient id="SVGID_2_" gradientUnits="userSpaceOnUse" x1="256" x2="256" y1="149.412" y2="362.588"><stop offset="0" stop-color="#5558ff"/><stop offset="1" stop-color="#00c0ff"/></linearGradient><g><g><circle cx="256" cy="256" fill="url(#SVGID_1_)" r="256"/></g><g><g><path d="m398.118 184.941h-26.647v115.47c0 14.694-11.953 26.647-26.647 26.647h-204.295v26.647c0 4.909 3.973 8.882 8.882 8.882h248.706c4.91 0 8.882-3.973 8.882-8.882v-159.882c.001-4.909-3.972-8.882-8.881-8.882zm-44.412 115.471v-142.118c0-4.909-3.973-8.882-8.882-8.882h-230.942c-4.91 0-8.882 3.973-8.882 8.882v142.118c0 4.91 3.973 8.882 8.882 8.882h230.941c4.91 0 8.883-3.973 8.883-8.882zm-195.412-17.765h-17.765c-4.91 0-8.882-3.973-8.882-8.882s3.973-8.882 8.882-8.882h17.765c4.909 0 8.882 3.973 8.882 8.882s-3.972 8.882-8.882 8.882zm53.294 0h-17.765c-4.91 0-8.882-3.973-8.882-8.882s3.973-8.882 8.882-8.882h17.765c4.91 0 8.882 3.973 8.882 8.882s-3.972 8.882-8.882 8.882zm8.883-62.176c0 4.909-3.973 8.882-8.882 8.882h-71.059c-4.91 0-8.882-3.973-8.882-8.882v-35.529c0-4.91 3.973-8.883 8.882-8.883h71.059c4.91 0 8.882 3.973 8.882 8.883zm44.411 62.176h-17.765c-4.91 0-8.882-3.973-8.882-8.882s3.973-8.882 8.882-8.882h17.765c4.91 0 8.882 3.973 8.882 8.882s-3.972 8.882-8.882 8.882zm53.295 0h-17.765c-4.91 0-8.882-3.973-8.882-8.882s3.973-8.882 8.882-8.882h17.765c4.91 0 8.882 3.973 8.882 8.882s-3.973 8.882-8.882 8.882zm0-88.824h-53.294c-4.91 0-8.882-3.973-8.882-8.882 0-4.91 3.973-8.883 8.882-8.883h53.294c4.91 0 8.882 3.973 8.882 8.883s-3.973 8.882-8.882 8.882zm-168.765 17.765h53.294v-17.765h-53.294z" fill="url(#SVGID_2_)"/></g></g></g></svg>