<svg id="Capa_1" enable-background="new 0 0 512 512" height="512" viewBox="0 0 512 512" width="512" xmlns="http://www.w3.org/2000/svg" xmlns:xlink="http://www.w3.org/1999/xlink"><linearGradient id="SVGID_1_" gradientUnits="userSpaceOnUse" x1="256" x2="256" y1="512" y2="0"><stop offset="0" stop-color="#ffe59a"/><stop offset="1" stop-color="#ffffd5"/></linearGradient><linearGradient id="SVGID_2_" gradientUnits="userSpaceOnUse" x1="256" x2="256" y1="105.25" y2="407"><stop offset="0" stop-color="#fd5900"/><stop offset="1" stop-color="#ffde00"/></linearGradient><g><g><circle cx="256" cy="256" fill="url(#SVGID_1_)" r="256"/></g><g><g><path d="m380.25 211.75h-17.75v-53.25h8.875c4.97 0 8.875-3.906 8.875-8.875v-17.75c0-4.971-3.905-8.875-8.875-8.875h-8.875v-8.875c0-4.971-3.905-8.875-8.875-8.875h-17.75c-4.97 0-8.875 3.904-8.875 8.875v97.625h-17.75c-9.762 0-17.75 7.988-17.75 17.75v35.5c0 9.762 7.988 17.75 17.75 17.75h71c9.762 0 17.75-7.988 17.75-17.75v-35.5c0-9.762-7.988-17.75-17.75-17.75zm-17.75 44.375h-35.5c-4.906 0-8.875-3.97-8.875-8.875s3.969-8.875 8.875-8.875h35.5c4.906 0 8.875 3.97 8.875 8.875s-3.969 8.875-8.875 8.875zm-195.25 44.375h53.25v-17.75h-53.25zm106.5-35.5v-35.5h-150.875c-4.906 0-8.875 3.97-8.875 8.875v159.75c0 4.905 3.969 8.875 8.875 8.875h248.5c4.906 0 8.875-3.97 8.875-8.875v-97.625h-71c-19.579 0-35.5-15.921-35.5-35.5zm-97.625 106.5h-17.75c-4.906 0-8.875-3.97-8.875-8.875s3.969-8.875 8.875-8.875h17.75c4.906 0 8.875 3.97 8.875 8.875s-3.969 8.875-8.875 8.875zm53.25 0h-17.75c-4.906 0-8.875-3.97-8.875-8.875s3.969-8.875 8.875-8.875h17.75c4.906 0 8.875 3.97 8.875 8.875s-3.969 8.875-8.875 8.875zm8.875-62.125c0 4.905-3.969 8.875-8.875 8.875h-71c-4.906 0-8.875-3.97-8.875-8.875v-35.5c0-4.905 3.969-8.875 8.875-8.875h71c4.906 0 8.875 3.97 8.875 8.875zm44.375 62.125h-17.75c-4.906 0-8.875-3.97-8.875-8.875s3.969-8.875 8.875-8.875h17.75c4.906 0 8.875 3.97 8.875 8.875s-3.969 8.875-8.875 8.875zm35.5-17.75h17.75c4.906 0 8.875 3.97 8.875 8.875s-3.969 8.875-8.875 8.875h-17.75c-4.906 0-8.875-3.97-8.875-8.875s3.969-8.875 8.875-8.875z" fill="url(#SVGID_2_)"/></g></g></g></svg>