<svg id="Capa_1" enable-background="new 0 0 512 512" height="512" viewBox="0 0 512 512" width="512" xmlns="http://www.w3.org/2000/svg" xmlns:xlink="http://www.w3.org/1999/xlink"><linearGradient id="SVGID_1_" gradientUnits="userSpaceOnUse" x1="256" x2="256" y1="512" y2="0"><stop offset="0" stop-color="#ffbef9"/><stop offset="1" stop-color="#fff1ff"/></linearGradient><linearGradient id="SVGID_2_" gradientUnits="userSpaceOnUse" x1="256" x2="256" y1="105" y2="407"><stop offset="0" stop-color="#a93aff"/><stop offset="1" stop-color="#ff81ff"/></linearGradient><g><g><circle cx="256" cy="256" fill="url(#SVGID_1_)" r="256"/></g><g><g><path d="m309.294 264.882h-195.412c-4.91 0-8.882 3.973-8.882 8.882v8.882h213.176v-8.882c0-4.909-3.972-8.882-8.882-8.882zm-204.294 133.236c0 4.91 3.973 8.882 8.882 8.882h195.412c4.91 0 8.882-3.973 8.882-8.882v-62.176h-213.176zm35.529-35.53h60.398c4.91 0 8.882 3.973 8.882 8.882s-3.973 8.882-8.882 8.882h-60.398c-4.91 0-8.882-3.973-8.882-8.882s3.973-8.882 8.882-8.882zm-35.529-44.412h213.176v-17.765h-213.176zm20.367-91.426c1.735 1.735 4.008 2.603 6.28 2.603 2.273 0 4.545-.868 6.28-2.603l17.765-17.765c3.47-3.47 3.47-9.09 0-12.56s-9.091-3.47-12.56 0l-2.602 2.602v-31.852c0-4.901 3.981-8.882 8.882-8.882 4.91 0 8.882-3.973 8.882-8.882s-3.973-8.882-8.882-8.882c-14.694 0-26.647 11.953-26.647 26.647v31.852l-2.602-2.602c-3.47-3.47-9.091-3.47-12.56 0s-3.47 9.09 0 12.56zm261.266 58.499c-3.47-3.469-9.091-3.469-12.56 0l-17.765 17.765c-3.47 3.469-3.47 9.09 0 12.56s9.091 3.47 12.56 0l2.602-2.603v31.852c0 4.901-3.981 8.883-8.882 8.883-4.91 0-8.882 3.973-8.882 8.882s3.973 8.882 8.882 8.882c14.694 0 26.647-11.953 26.647-26.647v-31.852l2.602 2.603c3.47 3.47 9.091 3.47 12.56 0s3.47-9.091 0-12.56zm11.485-180.249h-195.412c-4.91 0-8.882 3.973-8.882 8.882v124.353c0 4.91 3.973 8.882 8.882 8.882h195.412c4.91 0 8.882-3.973 8.882-8.882v-124.353c0-4.909-3.973-8.882-8.882-8.882zm-177.647 35.529c0-4.91 3.973-8.882 8.882-8.882h53.294c4.91 0 8.882 3.973 8.882 8.882v35.529c0 4.91-3.973 8.883-8.882 8.883h-53.294c-4.91 0-8.882-3.973-8.882-8.883zm33.751 79.942h-24.869c-4.91 0-8.882-3.973-8.882-8.882s3.973-8.882 8.882-8.882h24.869c4.91 0 8.882 3.973 8.882 8.882s-3.973 8.882-8.882 8.882zm58.629 0h-23.099c-4.91 0-8.882-3.973-8.882-8.882s3.973-8.882 8.882-8.882h23.099c4.91 0 8.882 3.973 8.882 8.882s-3.973 8.882-8.882 8.882zm58.62 0h-23.091c-4.91 0-8.882-3.973-8.882-8.882s3.973-8.882 8.882-8.882h23.091c4.91 0 8.882 3.973 8.882 8.882s-3.973 8.882-8.882 8.882zm0-71.059h-35.529c-4.91 0-8.882-3.973-8.882-8.882s3.973-8.882 8.882-8.882h35.529c4.91 0 8.882 3.973 8.882 8.882s-3.973 8.882-8.882 8.882zm-97.706 0h-35.529v17.765h35.529z" fill="url(#SVGID_2_)"/></g></g></g></svg>