<svg id="Capa_1" enable-background="new 0 0 512 512" height="512" viewBox="0 0 512 512" width="512" xmlns="http://www.w3.org/2000/svg" xmlns:xlink="http://www.w3.org/1999/xlink"><linearGradient id="SVGID_1_" gradientUnits="userSpaceOnUse" x1="256" x2="256" y1="512" y2="0"><stop offset="0" stop-color="#ffc8d1"/><stop offset="1" stop-color="#fff6f7"/></linearGradient><linearGradient id="SVGID_2_" gradientUnits="userSpaceOnUse" x1="256" x2="256" y1="105" y2="407"><stop offset="0" stop-color="#fd3a84"/><stop offset="1" stop-color="#ffa68d"/></linearGradient><g><g><circle cx="256" cy="256" fill="url(#SVGID_1_)" r="256"/></g><g><g><path d="m362.588 176.059c0-14.694-11.953-26.647-26.647-26.647s-26.647 11.953-26.647 26.647 11.953 26.647 26.647 26.647 26.647-11.953 26.647-26.647zm-32.328 102.034c1.648 1.371 3.669 2.056 5.682 2.056 2.012 0 4.034-.685 5.682-2.056 19.654-16.342 65.376-59.002 65.376-102.034 0-39.182-31.878-71.059-71.059-71.059s-71.059 31.877-71.059 71.059c0 43.032 45.722 85.692 65.378 102.034zm-38.731-102.034c0-24.487 19.925-44.412 44.412-44.412s44.412 19.925 44.412 44.412-19.925 44.412-44.412 44.412-44.412-19.925-44.412-44.412zm-133.235 124.353h53.294v-17.765h-53.294zm177.647-2.498c-6.211 0-12.265-2.186-17.045-6.159-16.509-13.731-39.886-35.971-55.427-62.402h-149.587c-4.91 0-8.882 3.973-8.882 8.882v159.882c0 4.91 3.973 8.882 8.882 8.882h248.706c4.91 0 8.882-3.973 8.882-8.882v-123.023c-6.568 6.393-12.927 12.034-18.493 16.661-4.771 3.973-10.825 6.159-17.036 6.159zm-168.765 73.557h-17.765c-4.91 0-8.882-3.973-8.882-8.882s3.973-8.882 8.882-8.882h17.765c4.91 0 8.882 3.973 8.882 8.882s-3.972 8.882-8.882 8.882zm53.295 0h-17.765c-4.91 0-8.882-3.973-8.882-8.882s3.973-8.882 8.882-8.882h17.765c4.91 0 8.882 3.973 8.882 8.882s-3.973 8.882-8.882 8.882zm8.882-62.177c0 4.91-3.973 8.882-8.882 8.882h-71.059c-4.91 0-8.882-3.973-8.882-8.882v-35.529c0-4.91 3.973-8.882 8.882-8.882h71.059c4.91 0 8.882 3.973 8.882 8.882zm44.412 62.177h-17.765c-4.91 0-8.882-3.973-8.882-8.882s3.973-8.882 8.882-8.882h17.765c4.91 0 8.882 3.973 8.882 8.882s-3.973 8.882-8.882 8.882zm53.294 0h-17.765c-4.91 0-8.882-3.973-8.882-8.882s3.973-8.882 8.882-8.882h17.765c4.91 0 8.882 3.973 8.882 8.882s-3.973 8.882-8.882 8.882z" fill="url(#SVGID_2_)"/></g></g></g></svg>