<svg id="Capa_1" enable-background="new 0 0 512 512" height="512" viewBox="0 0 512 512" width="512" xmlns="http://www.w3.org/2000/svg" xmlns:xlink="http://www.w3.org/1999/xlink"><linearGradient id="SVGID_1_" gradientUnits="userSpaceOnUse" x1="256" x2="256" y1="512" y2="0"><stop offset="0" stop-color="#c3ffe8"/><stop offset=".9973" stop-color="#f0fff4"/></linearGradient><linearGradient id="SVGID_2_" gradientUnits="userSpaceOnUse" x1="256" x2="256" y1="105" y2="407"><stop offset="0" stop-color="#00b59c"/><stop offset="1" stop-color="#9cffac"/></linearGradient><g><g><circle cx="256" cy="256" fill="url(#SVGID_1_)" r="256"/></g><g><g><path d="m353.706 238.235h-195.412v124.353h195.412zm-177.647 26.647c0-4.91 3.973-8.882 8.882-8.882h53.294c4.91 0 8.882 3.973 8.882 8.882v35.529c0 4.91-3.973 8.882-8.882 8.882h-53.294c-4.91 0-8.882-3.973-8.882-8.882zm33.751 79.941h-24.869c-4.91 0-8.882-3.973-8.882-8.882 0-4.91 3.973-8.883 8.882-8.883h24.869c4.91 0 8.882 3.973 8.882 8.883s-3.972 8.882-8.882 8.882zm58.629 0h-23.099c-4.909 0-8.882-3.973-8.882-8.882 0-4.91 3.973-8.883 8.882-8.883h23.099c4.91 0 8.882 3.973 8.882 8.883s-3.973 8.882-8.882 8.882zm58.62 0h-23.091c-4.91 0-8.882-3.973-8.882-8.882 0-4.91 3.973-8.883 8.882-8.883h23.091c4.91 0 8.882 3.973 8.882 8.883s-3.973 8.882-8.882 8.882zm0-71.058h-35.529c-4.91 0-8.882-3.973-8.882-8.882s3.972-8.883 8.881-8.883h35.529c4.91 0 8.882 3.973 8.882 8.882s-3.972 8.883-8.881 8.883zm71.059-168.765h-284.236c-4.91 0-8.882 3.973-8.882 8.882v62.176h302v-62.176c0-4.909-3.973-8.882-8.882-8.882zm-248.706 44.412c-4.905 0-8.882-3.977-8.882-8.882 0-4.906 3.977-8.882 8.882-8.882s8.882 3.976 8.882 8.882c0 4.905-3.977 8.882-8.882 8.882zm35.529 0c-4.905 0-8.882-3.977-8.882-8.882 0-4.906 3.977-8.882 8.882-8.882s8.882 3.976 8.882 8.882c0 4.905-3.977 8.882-8.882 8.882zm35.53 0c-4.905 0-8.882-3.977-8.882-8.882 0-4.906 3.977-8.882 8.882-8.882s8.882 3.976 8.882 8.882c0 4.905-3.977 8.882-8.882 8.882zm142.117 0h-71.059c-4.91 0-8.882-3.973-8.882-8.882s3.973-8.882 8.882-8.882h71.059c4.91 0 8.882 3.973 8.882 8.882s-3.972 8.882-8.882 8.882zm-133.235 124.353h-35.53v17.765h35.53zm-124.353 124.353c0 4.91 3.973 8.882 8.882 8.882h284.235c4.91 0 8.882-3.973 8.882-8.882v-204.295h-301.999zm35.529-168.765c0-4.91 3.973-8.882 8.882-8.882h213.177c4.91 0 8.882 3.973 8.882 8.882v142.118c0 4.909-3.973 8.882-8.882 8.882h-213.176c-4.91 0-8.882-3.973-8.882-8.882v-142.118z" fill="url(#SVGID_2_)"/></g></g></g></svg>