<svg id="Capa_1" enable-background="new 0 0 512 512" height="512" viewBox="0 0 512 512" width="512" xmlns="http://www.w3.org/2000/svg" xmlns:xlink="http://www.w3.org/1999/xlink"><linearGradient id="SVGID_1_" gradientUnits="userSpaceOnUse" x1="256" x2="256" y1="512" y2="0"><stop offset="0" stop-color="#addcff"/><stop offset=".5028" stop-color="#eaf6ff"/><stop offset="1" stop-color="#eaf6ff"/></linearGradient><linearGradient id="SVGID_2_" gradientUnits="userSpaceOnUse" x1="256" x2="256" y1="105" y2="407"><stop offset="0" stop-color="#5558ff"/><stop offset="1" stop-color="#00c0ff"/></linearGradient><g><g><circle cx="256" cy="256" fill="url(#SVGID_1_)" r="256"/></g><g><g><path d="m291.529 293.166v-18.502c-17.375 3.541-31.089 17.255-34.63 34.63h18.502c2.683-7.524 8.604-13.445 16.128-16.128zm17.765-18.502v18.502c7.525 2.684 13.445 8.604 16.128 16.128h18.502c-3.541-17.376-17.255-31.089-34.63-34.63zm-8.882 34.63c-4.901 0-8.882 3.981-8.882 8.882s3.981 8.882 8.882 8.882 8.883-3.981 8.883-8.882-3.982-8.882-8.883-8.882zm8.882 33.894v18.502c17.375-3.542 31.089-17.255 34.631-34.631h-18.502c-2.684 7.524-8.604 13.445-16.129 16.129zm71.059-87.188h26.647v-17.765c0-4.91-3.973-8.882-8.882-8.882h-177.647c-4.91 0-8.882 3.973-8.882 8.882v159.882c0 4.91 3.973 8.882 8.882 8.882h177.647c4.91 0 8.882-3.973 8.882-8.882v-17.765h-26.647c-4.91 0-8.882-3.973-8.882-8.882 0-4.91 3.973-8.882 8.882-8.882h26.647v-88.824h-26.647c-4.91 0-8.882-3.973-8.882-8.882s3.972-8.882 8.882-8.882zm-79.941 124.353c-34.28 0-62.176-27.896-62.176-62.177 0-34.28 27.896-62.176 62.176-62.176 34.281 0 62.177 27.896 62.177 62.176-.001 34.281-27.897 62.177-62.177 62.177zm-25.011-53.294h-18.502c3.541 17.375 17.255 31.089 34.63 34.631v-18.502c-7.524-2.684-13.445-8.605-16.128-16.129zm60.54-186.53h-230.941v17.765h230.941zm0 71.059v-35.53h-230.941v79.942c0 4.91 3.973 8.882 8.882 8.882h79.941v-26.647c0-14.694 11.953-26.647 26.647-26.647zm0-97.706c0-4.91-3.973-8.882-8.882-8.882h-213.177c-4.91 0-8.882 3.973-8.882 8.882v8.882h230.941z" fill="url(#SVGID_2_)"/></g></g></g></svg>