<svg id="Capa_1" enable-background="new 0 0 512 512" height="512" viewBox="0 0 512 512" width="512" xmlns="http://www.w3.org/2000/svg" xmlns:xlink="http://www.w3.org/1999/xlink"><linearGradient id="SVGID_1_" gradientUnits="userSpaceOnUse" x1="256" x2="256" y1="512" y2="0"><stop offset="0" stop-color="#ffe59a"/><stop offset="1" stop-color="#ffffd5"/></linearGradient><linearGradient id="SVGID_2_" gradientUnits="userSpaceOnUse" x1="256" x2="256" y1="104.995" y2="407"><stop offset="0" stop-color="#fd5900"/><stop offset="1" stop-color="#ffde00"/></linearGradient><g><g><circle cx="256" cy="256" fill="url(#SVGID_1_)" r="256"/></g><g><g><path d="m261.846 107.194c-3.348-2.932-8.344-2.932-11.693 0l-58.4 51.1h128.493zm-68.023 122.159h35.53v-17.765h-35.53zm210.141 2.194-32.493-28.432v70.649c0 3.825-2.446 7.217-6.072 8.422l-106.588 35.53c-.911.304-1.865.459-2.81.459-.946 0-1.9-.156-2.811-.459l-106.588-35.53c-3.626-1.206-6.072-4.597-6.072-8.422v-70.649l-32.494 28.432c-1.934 1.691-3.036 4.129-3.036 6.688v159.882c0 4.91 3.973 8.882 8.882 8.882h284.236c4.91 0 8.882-3.973 8.882-8.882v-159.882c0-2.559-1.102-4.996-3.036-6.688zm-41.376 139.924h-71.059c-4.91 0-8.882-3.973-8.882-8.882 0-4.91 3.973-8.882 8.882-8.882h71.059c4.91 0 8.883 3.973 8.883 8.882s-3.973 8.882-8.883 8.882zm0-35.53h-35.529c-4.91 0-8.883-3.973-8.883-8.882s3.973-8.882 8.883-8.882h35.529c4.91 0 8.883 3.973 8.883 8.882s-3.973 8.882-8.883 8.882zm-8.882-68.578v-82.422c0-4.906-3.977-8.882-8.882-8.882h-177.648c-4.905 0-8.882 3.976-8.882 8.882v82.422l97.706 32.572zm-62.177-73.54h35.53c4.909 0 8.882 3.973 8.882 8.882s-3.973 8.882-8.882 8.882h-35.53c-4.91 0-8.882-3.973-8.882-8.882s3.973-8.882 8.882-8.882zm-44.412 44.412c0 4.905-3.977 8.882-8.882 8.882h-53.294c-4.905 0-8.882-3.977-8.882-8.882v-35.53c0-4.906 3.977-8.882 8.882-8.882h53.294c4.905 0 8.882 3.976 8.882 8.882z" fill="url(#SVGID_2_)"/></g></g></g></svg>