<svg id="Capa_1" enable-background="new 0 0 512 512" height="512" viewBox="0 0 512 512" width="512" xmlns="http://www.w3.org/2000/svg" xmlns:xlink="http://www.w3.org/1999/xlink"><linearGradient id="SVGID_1_" gradientUnits="userSpaceOnUse" x1="256" x2="256" y1="512" y2="0"><stop offset="0" stop-color="#addcff"/><stop offset=".5028" stop-color="#eaf6ff"/><stop offset="1" stop-color="#eaf6ff"/></linearGradient><linearGradient id="SVGID_2_" gradientUnits="userSpaceOnUse" x1="256" x2="256" y1="105" y2="407"><stop offset="0" stop-color="#5558ff"/><stop offset="1" stop-color="#00c0ff"/></linearGradient><g><g><circle cx="256" cy="256" fill="url(#SVGID_1_)" r="256"/></g><g><g><path d="m202.706 407h106.588v-106.588h-106.588zm17.765-195.412h71.059v-53.294h-71.059zm151-106.588h-230.942c-4.91 0-8.882 3.973-8.882 8.882v284.235c0 4.91 3.973 8.882 8.882 8.882h44.412v-115.47c0-4.91 3.973-8.882 8.882-8.882h124.353c4.91 0 8.882 3.973 8.882 8.882v115.471h44.412c4.91 0 8.882-3.973 8.882-8.882v-284.236c.001-4.909-3.972-8.882-8.881-8.882zm-195.412 124.353c-4.905 0-8.882-3.977-8.882-8.882s3.977-8.882 8.882-8.882 8.882 3.977 8.882 8.882-3.977 8.882-8.882 8.882zm0-35.53c-4.905 0-8.882-3.977-8.882-8.882s3.977-8.882 8.882-8.882 8.882 3.977 8.882 8.882-3.977 8.882-8.882 8.882zm0-35.529c-4.905 0-8.882-3.977-8.882-8.882s3.977-8.882 8.882-8.882 8.882 3.977 8.882 8.882-3.977 8.882-8.882 8.882zm124.353 106.588h-88.823c-4.91 0-8.882-3.973-8.882-8.882 0-4.91 3.973-8.882 8.882-8.882h88.823c4.91 0 8.882 3.973 8.882 8.882 0 4.91-3.973 8.882-8.882 8.882zm8.882-44.411c0 4.91-3.973 8.882-8.882 8.882h-88.823c-4.91 0-8.882-3.973-8.882-8.882v-71.059c0-4.91 3.973-8.882 8.882-8.882h88.823c4.91 0 8.882 3.973 8.882 8.882zm26.647 8.882c-4.905 0-8.882-3.977-8.882-8.882s3.977-8.882 8.882-8.882 8.882 3.977 8.882 8.882c.001 4.905-3.977 8.882-8.882 8.882zm0-35.53c-4.905 0-8.882-3.977-8.882-8.882s3.977-8.882 8.882-8.882 8.882 3.977 8.882 8.882-3.977 8.882-8.882 8.882zm0-35.529c-4.905 0-8.882-3.977-8.882-8.882s3.977-8.882 8.882-8.882 8.882 3.977 8.882 8.882c.001 4.905-3.977 8.882-8.882 8.882z" fill="url(#SVGID_2_)"/></g></g></g></svg>