<svg id="Capa_1" enable-background="new 0 0 512 512" height="512" viewBox="0 0 512 512" width="512" xmlns="http://www.w3.org/2000/svg" xmlns:xlink="http://www.w3.org/1999/xlink"><linearGradient id="SVGID_1_" gradientUnits="userSpaceOnUse" x1="59.221" x2="503.202" y1="135.312" y2="423.358"><stop offset=".0485" stop-color="#d2deff"/><stop offset=".9993" stop-color="#dcfdee"/></linearGradient><linearGradient id="SVGID_2_" gradientUnits="userSpaceOnUse" x1="256.171" x2="256.171" y1="60.141" y2="463.84"><stop offset=".0028" stop-color="#ff7eb8" stop-opacity="0"/><stop offset="1" stop-color="#ff7eb8" stop-opacity=".6"/></linearGradient><g><g><path d="m408.229 151.253c-23.697-9.236-43.717-26.089-55.961-48.381-20.59-37.487-60.43-62.898-106.221-62.898-47.53 0-88.646 27.377-108.477 67.219-12.146 24.401-32.814 43.56-58.09 53.762-37.349 15.074-68.703 49.524-78.653 103.382-1.092 5.91-1.108 11.986-.016 17.896 15.448 83.573 82.399 120.435 143.334 110.66 34.126-5.474 68.672 5.909 93.967 29.462 51.434 47.892 133.884 62.907 213.923 11.57 9.377-6.014 21.957-18.634 27.966-28.015 68.966-107.671 17.879-219.715-71.772-254.657z" fill="url(#SVGID_1_)"/><path d="m430.981 161.061v201.859l-86.73 50.07-88.08 50.85-174.809-100.92v-201.859l174.809-100.92 58.29 33.65 76.09 43.93z" fill="#ffc4df"/><path d="m430.981 293.66v69.26l-86.73 50.07h-43.75c-5.52 0-10-4.48-10-10v-99.33c0-5.53 4.48-10 10-10z" fill="#ffa8cf"/><path d="m110.622 238.86v47.8c0 5.52-4.48 10-10 10h-19.26v-67.8h19.26c5.52 0 10 4.48 10 10z" fill="#ffa8cf"/><path d="m390.551 137.721v3.75c0 5.52-4.48 10-10 10h-56.09c-5.52 0-10-4.48-10-10v-47.68z" fill="#ffa8cf"/><path d="m256.223 369.49-125.195-35.248 1.991-143.353 123.152-75.898 122.619 76.206-37.788 119.771z" fill="#9fb0fe"/><path d="m430.981 161.061v201.859l-86.73 50.07-88.08 50.85-174.809-100.92v-201.859l174.809-100.92 58.29 33.65 76.09 43.93z" fill="url(#SVGID_2_)"/><path d="m100.623 284.657h-56.086c-5.523 0-10.001-4.477-10.001-10.001v-47.796c0-5.523 4.477-10.001 10.001-10.001h56.086c5.523 0 10.001 4.477 10.001 10.001v47.796c0 5.524-4.478 10.001-10.001 10.001z" fill="#ff7eb8"/><path d="m65.779 267.795c-.833 0-1.677-.208-2.453-.647-2.405-1.358-3.254-4.408-1.896-6.813l13.593-24.072c1.358-2.404 4.409-3.253 6.812-1.896 2.405 1.358 3.254 4.408 1.896 6.813l-13.593 24.072c-.919 1.628-2.614 2.543-4.359 2.543z" fill="#fff"/><path d="m380.55 139.471h-56.086c-5.523 0-10.001-4.477-10.001-10.001v-47.796c0-5.523 4.478-10.001 10.001-10.001h56.086c5.523 0 10.001 4.477 10.001 10.001v47.796c0 5.523-4.477 10.001-10.001 10.001z" fill="#6583fe"/><path d="m345.706 122.609c-.833 0-1.677-.209-2.453-.647-2.405-1.358-3.254-4.408-1.896-6.813l13.593-24.072c1.358-2.404 4.409-3.253 6.812-1.896 2.405 1.358 3.254 4.408 1.896 6.813l-13.593 24.072c-.919 1.628-2.614 2.543-4.359 2.543z" fill="#fff"/><ellipse cx="256.171" cy="261.99" fill="#fff" rx="11.232" ry="11.232" transform="matrix(.23 -.973 .973 .23 -57.667 451.115)"/><g fill="#2626bc"><path d="m251.171 195.892c0 2.761 2.238 5 5 5s5-2.239 5-5v-12.018c0-2.761-2.238-5-5-5s-5 2.239-5 5z"/><path d="m256.171 128.785c2.762 0 5-2.239 5-5v-12.018c0-2.761-2.238-5-5-5s-5 2.239-5 5v12.018c0 2.761 2.238 5 5 5z"/><path d="m251.171 159.839c0 2.761 2.238 5 5 5s5-2.239 5-5v-12.018c0-2.761-2.238-5-5-5s-5 2.239-5 5z"/><path d="m256.171 395.196c-2.762 0-5 2.239-5 5v12.018c0 2.761 2.238 5 5 5s5-2.239 5-5v-12.018c0-2.761-2.238-5-5-5z"/><path d="m261.171 328.089c0-2.761-2.238-5-5-5s-5 2.239-5 5v12.018c0 2.761 2.238 5 5 5s5-2.239 5-5z"/><path d="m261.171 292.035c0-2.761-2.238-5-5-5s-5 2.239-5 5v12.018c0 2.761 2.238 5 5 5s5-2.239 5-5z"/><path d="m261.171 364.142c0-2.761-2.238-5-5-5s-5 2.239-5 5v12.018c0 2.761 2.238 5 5 5s5-2.239 5-5z"/><path d="m251.171 231.946c0 2.761 2.238 5 5 5s5-2.239 5-5v-12.018c0-2.761-2.238-5-5-5s-5 2.239-5 5z"/><path d="m122.292 339.286c.926 1.604 2.606 2.501 4.335 2.501.848 0 1.708-.216 2.495-.671l10.28-5.936c2.392-1.381 3.211-4.439 1.83-6.83-1.38-2.391-4.439-3.212-6.83-1.83l-10.28 5.936c-2.392 1.381-3.211 4.438-1.83 6.83z"/><path d="m342.515 217.144c.848 0 1.708-.216 2.495-.671l10.28-5.936c2.392-1.381 3.211-4.438 1.83-6.83-1.38-2.391-4.439-3.212-6.83-1.83l-10.28 5.936c-2.392 1.381-3.211 4.438-1.83 6.83.925 1.604 2.606 2.501 4.335 2.501z"/><path d="m311.673 234.95c.848 0 1.708-.216 2.495-.671l10.28-5.935c2.392-1.38 3.211-4.438 1.83-6.83-1.38-2.391-4.438-3.212-6.83-1.83l-10.28 5.935c-2.392 1.38-3.211 4.438-1.83 6.83.926 1.604 2.606 2.501 4.335 2.501z"/><path d="m280.832 252.756c.848 0 1.708-.216 2.495-.671l10.28-5.935c2.392-1.38 3.211-4.438 1.83-6.83-1.38-2.391-4.439-3.212-6.83-1.83l-10.28 5.935c-2.392 1.38-3.211 4.438-1.83 6.83.926 1.604 2.607 2.501 4.335 2.501z"/><path d="m373.355 199.338c.848 0 1.708-.216 2.495-.671l10.28-5.936c2.392-1.381 3.211-4.439 1.83-6.83-1.38-2.391-4.438-3.212-6.83-1.83l-10.28 5.936c-2.392 1.381-3.211 4.438-1.83 6.83.926 1.604 2.607 2.501 4.335 2.501z"/><path d="m214.814 285.868c.926 1.604 2.606 2.501 4.335 2.501.848 0 1.708-.216 2.495-.671l10.281-5.936c2.392-1.38 3.211-4.438 1.83-6.83-1.38-2.391-4.438-3.212-6.83-1.83l-10.281 5.936c-2.391 1.38-3.21 4.438-1.83 6.83z"/><path d="m153.133 321.48c.926 1.604 2.606 2.501 4.335 2.501.848 0 1.708-.216 2.495-.671l10.28-5.936c2.392-1.381 3.211-4.439 1.83-6.83-1.38-2.391-4.438-3.212-6.83-1.83l-10.28 5.936c-2.392 1.381-3.211 4.438-1.83 6.83z"/><path d="m183.974 303.674c.926 1.604 2.606 2.501 4.335 2.501.848 0 1.708-.216 2.495-.671l10.28-5.936c2.392-1.381 3.211-4.439 1.83-6.83-1.38-2.391-4.438-3.212-6.83-1.83l-10.28 5.936c-2.392 1.38-3.211 4.438-1.83 6.83z"/><path d="m217.604 245.497 10.32 5.958c.788.455 1.647.671 2.495.671 1.729 0 3.409-.897 4.335-2.501 1.381-2.392.562-5.45-1.83-6.83l-10.32-5.958c-2.396-1.382-5.451-.561-6.83 1.83-1.381 2.391-.562 5.45 1.83 6.83z"/><path d="m124.724 191.872 10.32 5.958c.787.455 1.647.671 2.495.671 1.729 0 3.409-.897 4.335-2.501 1.381-2.392.562-5.449-1.83-6.83l-10.32-5.958c-2.393-1.382-5.45-.56-6.83 1.83-1.381 2.392-.562 5.45 1.83 6.83z"/><path d="m186.644 227.622 10.32 5.958c.787.455 1.647.671 2.495.671 1.729 0 3.409-.897 4.335-2.501 1.381-2.392.562-5.449-1.83-6.83l-10.32-5.958c-2.393-1.381-5.45-.561-6.83 1.83-1.381 2.391-.562 5.449 1.83 6.83z"/><path d="m155.684 209.747 10.32 5.958c.788.455 1.647.671 2.495.671 1.729 0 3.409-.897 4.335-2.501 1.381-2.392.562-5.45-1.83-6.83l-10.32-5.958c-2.396-1.381-5.451-.561-6.83 1.83-1.381 2.392-.562 5.45 1.83 6.83z"/><path d="m284.523 272.586c-2.396-1.383-5.451-.561-6.83 1.83-1.381 2.392-.562 5.45 1.83 6.83l12.962 7.891 5.577-8.328z"/><path d="m410.879 166.786-9.187 5.414c-2.392 1.38-3.211 4.438-1.83 6.83.926 1.604 2.606 2.501 4.335 2.501.848 0 1.708-.216 2.495-.671l9.461-5.571z"/><path d="m94.697 174.732 9.386 5.223c.787.455 1.646.671 2.495.671 1.728 0 3.409-.897 4.335-2.5 1.381-2.392.562-5.45-1.83-6.831l-9.373-5.216z"/><path d="m103.56 344.328-8.714 4.596 5.012 8.653 8.702-4.589c2.392-1.38 3.211-4.438 1.83-6.83-1.381-2.391-4.439-3.212-6.83-1.83z"/><path d="m255.68 431.273c-2.6.247-4.51 2.579-4.51 5.191v8.528h10v-8.743c0-2.922-2.508-5.259-5.49-4.976z"/><path d="m251.171 79.911v7.819c0 2.761 2.238 5 5 5s5-2.239 5-5v-7.819z"/><path d="m239.939 261.991c0 8.95 7.281 16.232 16.231 16.232s16.232-7.282 16.232-16.232c0-8.951-7.282-16.232-16.232-16.232s-16.231 7.281-16.231 16.232zm16.232-6.233c3.437 0 6.232 2.796 6.232 6.232s-2.796 6.232-6.232 6.232-6.231-2.795-6.231-6.232 2.795-6.232 6.231-6.232z"/></g><path d="m474.501 397.99h-173.999c-5.523 0-10-4.477-10-10v-99.333c0-5.523 4.477-10 10-10h173.999c5.523 0 10 4.477 10 10v99.333c0 5.523-4.477 10-10 10z" fill="#fff"/><path d="m369.878 315.976h-46.742c-2.766 0-5.008-2.242-5.008-5.008s2.242-5.008 5.008-5.008h46.742c2.766 0 5.008 2.242 5.008 5.008 0 2.765-2.241 5.008-5.008 5.008z" fill="#9fb0fe"/><path d="m429.878 351.841h-106.742c-2.766 0-5.008-2.242-5.008-5.008s2.242-5.008 5.008-5.008h106.742c2.766 0 5.008 2.242 5.008 5.008s-2.242 5.008-5.008 5.008z" fill="#b7c5ff"/><path d="m429.878 372.125h-106.742c-2.766 0-5.008-2.242-5.008-5.008s2.242-5.008 5.008-5.008h106.742c2.766 0 5.008 2.242 5.008 5.008 0 2.765-2.242 5.008-5.008 5.008z" fill="#b7c5ff"/><path d="m412.838 323.745c-1.279 0-2.559-.488-3.535-1.464-2.34-2.339-6.146-2.339-8.486 0-1.951 1.952-5.118 1.953-7.071 0-.976-.976-1.464-2.256-1.464-3.536 0-1.279.488-2.559 1.465-3.535 1.133-1.133 1.757-2.64 1.757-4.242s-.624-3.109-1.757-4.243c-.977-.977-1.465-2.256-1.465-3.536s.488-2.559 1.465-3.536c1.951-1.952 5.119-1.952 7.07 0 2.34 2.34 6.146 2.34 8.486 0 1.951-1.952 5.119-1.952 7.07 0 .977.977 1.465 2.256 1.465 3.536s-.488 2.559-1.465 3.536c-1.133 1.133-1.757 2.64-1.757 4.243s.624 3.109 1.757 4.242c.977.976 1.465 2.256 1.465 3.535 0 1.28-.488 2.56-1.464 3.536-.977.976-2.257 1.464-3.536 1.464z" fill="#ff7eb8"/><path d="m453.504 323.745c-1.279 0-2.559-.488-3.535-1.464-2.34-2.339-6.146-2.339-8.486 0-1.951 1.952-5.118 1.953-7.071 0-.976-.976-1.464-2.256-1.464-3.536 0-1.279.488-2.559 1.465-3.535 1.133-1.133 1.757-2.64 1.757-4.242s-.624-3.109-1.757-4.243c-.977-.977-1.465-2.256-1.465-3.536s.488-2.559 1.465-3.536c1.951-1.952 5.119-1.952 7.07 0 2.34 2.34 6.146 2.34 8.486 0 1.951-1.952 5.119-1.952 7.07 0 .977.977 1.465 2.256 1.465 3.536s-.488 2.559-1.465 3.536c-1.133 1.133-1.757 2.64-1.757 4.243s.624 3.109 1.757 4.242c.977.976 1.465 2.256 1.465 3.535 0 1.28-.488 2.56-1.464 3.536s-2.257 1.464-3.536 1.464z" fill="#ff7eb8"/><g fill="#02ffb3"><ellipse cx="256.171" cy="60.138" rx="21.593" ry="21.593" transform="matrix(.16 -.987 .987 .16 155.775 303.368)"/><ellipse cx="256.171" cy="463.843" rx="21.593" ry="21.593" transform="matrix(.16 -.987 .987 .16 -242.717 642.406)"/><ellipse cx="430.981" cy="161.064" rx="21.593" ry="21.593" transform="matrix(.23 -.973 .973 .23 175.206 543.511)"/><ellipse cx="81.362" cy="161.064" rx="21.593" ry="21.593" transform="matrix(.23 -.973 .973 .23 -94.087 203.245)"/><ellipse cx="81.362" cy="362.917" rx="21.593" ry="21.593" transform="matrix(.707 -.707 .707 .707 -232.791 163.828)"/></g></g><g><path d="m38.518 331.993c-1.326 0-2.598-.527-3.535-1.464l-11.017-11.018c-1.953-1.953-1.953-5.119 0-7.071l11.017-11.017c.938-.938 2.209-1.464 3.535-1.464s2.598.527 3.535 1.464l11.018 11.017c.938.938 1.465 2.209 1.465 3.536s-.526 2.598-1.465 3.536l-11.018 11.017c-.938.937-2.209 1.464-3.535 1.464zm-3.946-16.018 3.945 3.946 3.946-3.946-3.946-3.946z" fill="#6583fe"/><path d="m401.568 447.362c-1.326 0-2.598-.527-3.535-1.464l-11.018-11.017c-.938-.938-1.465-2.209-1.465-3.536s.526-2.598 1.465-3.536l11.018-11.017c.938-.938 2.209-1.464 3.535-1.464s2.598.527 3.535 1.464l11.017 11.017c1.953 1.953 1.953 5.119 0 7.071l-11.017 11.017c-.937.938-2.208 1.465-3.535 1.465zm-3.946-16.017 3.946 3.946 3.945-3.946-3.945-3.946z" fill="#ff7eb8"/><path d="m436.827 103.434c-.848 0-1.708-.216-2.495-.671l-13.493-7.79c-2.392-1.38-3.211-4.438-1.83-6.83l7.79-13.493c1.38-2.391 4.438-3.212 6.83-1.83l13.493 7.79c2.392 1.38 3.211 4.438 1.83 6.83l-7.79 13.493c-.926 1.604-2.606 2.501-4.335 2.501zm-6.658-14.621 4.833 2.79 2.79-4.833-4.833-2.79z" fill="#ff7eb8"/><path d="m407.567 58.598c-2.762 0-5-2.239-5-5 0-3.318-2.699-6.017-6.017-6.017-2.762 0-5-2.239-5-5s2.238-5 5-5c3.317 0 6.017-2.699 6.017-6.017 0-2.761 2.238-5 5-5s5 2.239 5 5c0 3.318 2.699 6.017 6.018 6.017 2.762 0 5 2.239 5 5s-2.238 5-5 5c-3.318 0-6.018 2.699-6.018 6.017 0 2.761-2.238 5-5 5z" fill="#97ffd2"/></g></g></svg>