<svg id="Capa_1" enable-background="new 0 0 512 512" height="512" viewBox="0 0 512 512" width="512" xmlns="http://www.w3.org/2000/svg" xmlns:xlink="http://www.w3.org/1999/xlink"><linearGradient id="SVGID_1_" gradientUnits="userSpaceOnUse" x1="-25.301" x2="529.203" y1="187.191" y2="329.498"><stop offset=".0485" stop-color="#ffdbed"/><stop offset=".9993" stop-color="#d2deff"/></linearGradient><linearGradient id="SVGID_2_" gradientUnits="userSpaceOnUse" x1="340.73" x2="340.73" y1="177.274" y2="481"><stop offset=".0028" stop-color="#ff7eb8" stop-opacity="0"/><stop offset="1" stop-color="#ff7eb8" stop-opacity=".6"/></linearGradient><g><g><path d="m382.606 163.517c-.192-.001-.385-.002-.577-.002-32.034-.05-62.385-13.844-83.44-37.986-31.366-35.964-77.6-58.622-129.121-58.393-93.512.414-170.663 78.98-169.454 172.484 1.203 92.986 76.955 167.995 170.227 167.995 26.343 0 51.286-5.987 73.547-16.672 19.194-9.213 42.065-6.784 58.968 6.161 21.863 16.745 49.19 26.713 78.846 26.763 71.382.119 129.981-58.02 130.396-129.401.418-72.049-57.442-130.526-129.392-130.949z" fill="url(#SVGID_1_)"/><path d="m488.256 308.827-30.139-8.582c-2.952-12.032-7.702-23.364-13.956-33.675l15.249-27.39c1.293-2.329.888-5.241-.997-7.126l-20.599-20.599c-1.885-1.885-4.797-2.29-7.126-.997l-27.39 15.249c-10.311-6.254-21.643-11.004-33.675-13.956l-8.582-30.139c-.732-2.57-3.076-4.338-5.747-4.338h-29.127c-2.671 0-5.015 1.768-5.747 4.338l-8.582 30.139c-12.032 2.952-23.364 7.702-33.675 13.956l-27.39-15.249c-2.329-1.293-5.241-.888-7.126.997l-20.599 20.599c-1.885 1.885-2.29 4.797-.997 7.126l15.249 27.39c-6.254 10.311-11.004 21.642-13.956 33.675l-30.139 8.582c-2.57.732-4.338 3.076-4.338 5.747v29.127c0 2.671 1.768 5.015 4.338 5.747l30.139 8.582c2.952 12.032 7.702 23.364 13.956 33.675l-15.249 27.39c-1.293 2.329-.888 5.241.997 7.126l20.599 20.599c1.885 1.885 4.797 2.29 7.126.997l27.39-15.249c10.311 6.254 21.642 11.004 33.675 13.956l8.582 30.139c.732 2.57 3.076 4.338 5.747 4.338h29.127c2.671 0 5.015-1.768 5.747-4.338l8.582-30.139c12.032-2.952 23.364-7.702 33.675-13.956l27.39 15.249c2.329 1.293 5.241.888 7.126-.997l20.599-20.599c1.885-1.885 2.29-4.797.997-7.126l-15.249-27.39c6.254-10.311 11.004-21.643 13.956-33.675l30.139-8.582c2.57-.732 4.338-3.076 4.338-5.747v-29.127c0-2.672-1.768-5.016-4.338-5.747zm-147.526 95.065c-41.283 0-74.756-33.472-74.756-74.756s33.472-74.756 74.756-74.756 74.756 33.472 74.756 74.756-33.472 74.756-74.756 74.756z" fill="#9fb0fe"/><path d="m488.256 308.827-30.139-8.582c-2.952-12.032-7.702-23.364-13.956-33.675l15.249-27.39c1.293-2.329.888-5.241-.997-7.126l-20.599-20.599c-1.885-1.885-4.797-2.29-7.126-.997l-27.39 15.249c-10.311-6.254-21.643-11.004-33.675-13.956l-8.582-30.139c-.732-2.57-3.076-4.338-5.747-4.338h-29.127c-2.671 0-5.015 1.768-5.747 4.338l-8.582 30.139c-12.032 2.952-23.364 7.702-33.675 13.956l-27.39-15.249c-2.329-1.293-5.241-.888-7.126.997l-20.599 20.599c-1.885 1.885-2.29 4.797-.997 7.126l15.249 27.39c-6.254 10.311-11.004 21.642-13.956 33.675l-30.139 8.582c-2.57.732-4.338 3.076-4.338 5.747v29.127c0 2.671 1.768 5.015 4.338 5.747l30.139 8.582c2.952 12.032 7.702 23.364 13.956 33.675l-15.249 27.39c-1.293 2.329-.888 5.241.997 7.126l20.599 20.599c1.885 1.885 4.797 2.29 7.126.997l27.39-15.249c10.311 6.254 21.642 11.004 33.675 13.956l8.582 30.139c.732 2.57 3.076 4.338 5.747 4.338h29.127c2.671 0 5.015-1.768 5.747-4.338l8.582-30.139c12.032-2.952 23.364-7.702 33.675-13.956l27.39 15.249c2.329 1.293 5.241.888 7.126-.997l20.599-20.599c1.885-1.885 2.29-4.797.997-7.126l-15.249-27.39c6.254-10.311 11.004-21.643 13.956-33.675l30.139-8.582c2.57-.732 4.338-3.076 4.338-5.747v-29.127c0-2.672-1.768-5.016-4.338-5.747zm-147.526 95.065c-41.283 0-74.756-33.472-74.756-74.756s33.472-74.756 74.756-74.756 74.756 33.472 74.756 74.756-33.472 74.756-74.756 74.756z" fill="url(#SVGID_2_)"/><path d="m181.07 262.76-16.274-4.634c-1.594-6.497-4.159-12.616-7.536-18.184l8.234-14.79c.698-1.257.479-2.83-.538-3.848l-11.123-11.123c-1.018-1.018-2.59-1.236-3.848-.538l-14.79 8.234c-5.568-3.377-11.687-5.942-18.184-7.536l-4.634-16.274c-.395-1.388-1.661-2.342-3.104-2.342h-15.728c-1.442 0-2.708.955-3.104 2.342l-4.634 16.274c-6.497 1.594-12.616 4.159-18.184 7.536l-14.79-8.234c-1.257-.698-2.83-.479-3.848.538l-11.123 11.123c-1.018 1.018-1.236 2.59-.538 3.848l8.234 14.79c-3.377 5.568-5.942 11.687-7.536 18.184l-16.274 4.634c-1.388.395-2.342 1.661-2.342 3.103v15.728c0 1.442.955 2.708 2.342 3.103l16.274 4.634c1.594 6.497 4.159 12.616 7.536 18.184l-8.234 14.79c-.698 1.257-.479 2.83.538 3.848l11.123 11.123c1.018 1.018 2.59 1.236 3.848.538l14.79-8.234c5.568 3.377 11.687 5.942 18.184 7.536l4.634 16.274c.395 1.388 1.661 2.342 3.104 2.342h15.728c1.442 0 2.708-.955 3.104-2.342l4.634-16.274c6.497-1.594 12.616-4.159 18.184-7.536l14.79 8.234c1.257.698 2.83.479 3.848-.538l11.123-11.123c1.018-1.018 1.236-2.59.538-3.848l-8.234-14.79c3.377-5.568 5.942-11.686 7.536-18.184l16.274-4.634c1.388-.395 2.342-1.661 2.342-3.103v-15.728c0-1.441-.954-2.708-2.342-3.103zm-79.661 36.761c-14.244 0-25.793-11.549-25.793-25.793s11.549-25.793 25.793-25.793 25.793 11.549 25.793 25.793c0 14.243-11.549 25.793-25.793 25.793z" fill="#ff7eb8"/><path d="m290.498 107.498-17.526-4.991c-1.716-6.997-4.479-13.586-8.115-19.582l8.867-15.927c.752-1.354.516-3.048-.58-4.144l-11.978-11.978c-1.096-1.096-2.79-1.331-4.144-.58l-15.927 8.867c-5.996-3.636-12.585-6.399-19.582-8.115l-4.991-17.526c-.426-1.494-1.789-2.522-3.342-2.522h-16.937c-1.553 0-2.916 1.028-3.342 2.522l-4.991 17.526c-6.997 1.716-13.586 4.479-19.582 8.115l-15.927-8.867c-1.354-.752-3.048-.516-4.144.58l-11.977 11.979c-1.096 1.096-1.331 2.79-.58 4.144l8.867 15.927c-3.636 5.996-6.399 12.585-8.115 19.582l-17.526 4.991c-1.494.426-2.522 1.789-2.522 3.342v16.937c0 1.553 1.028 2.916 2.522 3.342l17.526 4.991c1.716 6.997 4.479 13.586 8.115 19.582l-8.867 15.927c-.752 1.354-.516 3.048.58 4.144l11.978 11.978c1.096 1.096 2.79 1.331 4.144.58l15.927-8.867c5.996 3.637 12.585 6.399 19.582 8.115l4.991 17.526c.426 1.494 1.789 2.522 3.342 2.522h16.937c1.553 0 2.916-1.028 3.342-2.522l4.991-17.526c6.997-1.716 13.586-4.479 19.582-8.115l15.927 8.867c1.354.752 3.048.516 4.144-.58l11.978-11.978c1.096-1.096 1.331-2.79.58-4.144l-8.867-15.927c3.636-5.996 6.399-12.585 8.115-19.582l17.526-4.991c1.494-.426 2.522-1.789 2.522-3.342v-16.937c-.001-1.554-1.029-2.917-2.523-3.343zm-85.786 46.162c-18.97 0-34.351-15.381-34.351-34.351s15.381-34.351 34.351-34.351 34.351 15.381 34.351 34.351-15.381 34.351-34.351 34.351z" fill="#97ffd2"/><g fill="#2d58e0"><path d="m317.387 346.145c-1.277 0-2.555-.487-3.53-1.462l-12.016-12.016c-1.95-1.949-1.95-5.11 0-7.06l12.016-12.016c1.948-1.949 5.111-1.949 7.059 0 1.95 1.95 1.95 5.11 0 7.06l-8.485 8.486 8.485 8.486c1.95 1.95 1.95 5.11 0 7.06-.974.974-2.252 1.462-3.529 1.462z"/><path d="m364.074 346.145c-1.277 0-2.555-.487-3.53-1.462-1.95-1.95-1.95-5.11 0-7.06l8.485-8.486-8.485-8.486c-1.95-1.95-1.95-5.11 0-7.06 1.948-1.949 5.111-1.949 7.059 0l12.016 12.016c1.95 1.95 1.95 5.11 0 7.06l-12.016 12.016c-.974.974-2.252 1.462-3.529 1.462z"/><path d="m333.941 346.145c-.832 0-1.674-.208-2.449-.646-2.401-1.356-3.249-4.401-1.892-6.802l13.57-24.032c1.355-2.4 4.401-3.248 6.801-1.892 2.401 1.356 3.249 4.401 1.892 6.802l-13.57 24.032c-.919 1.625-2.61 2.538-4.352 2.538z"/></g></g><g><path d="m152.971 404.059c-1.28 0-2.559-.488-3.536-1.464l-11-11c-1.953-1.953-1.953-5.119 0-7.071l11-11c.938-.938 2.209-1.464 3.536-1.464s2.598.527 3.536 1.464l11 11c.938.938 1.464 2.209 1.464 3.536s-.527 2.598-1.464 3.536l-11 11c-.977.975-2.257 1.463-3.536 1.463zm-3.93-16 3.929 3.929 3.929-3.929-3.929-3.929z" fill="#6583fe"/><path d="m352.509 140.314c-2.761 0-5-2.239-5-5 0-3.309-2.692-6-6-6-2.761 0-5-2.239-5-5s2.239-5 5-5c3.309 0 6-2.692 6-6 0-2.761 2.239-5 5-5s5 2.239 5 5c0 3.309 2.691 6 6 6 2.761 0 5 2.239 5 5s-2.239 5-5 5c-3.309 0-6 2.691-6 6 0 2.761-2.239 5-5 5z" fill="#97ffd2"/><g fill="#ff7eb8"><path d="m183.412 453.646c-2.761 0-5-2.239-5-5 0-3.309-2.692-6-6-6-2.761 0-5-2.239-5-5s2.239-5 5-5c3.309 0 6-2.691 6-6 0-2.761 2.239-5 5-5s5 2.239 5 5c0 3.309 2.691 6 6 6 2.761 0 5 2.239 5 5s-2.239 5-5 5c-3.309 0-6 2.692-6 6 0 2.761-2.238 5-5 5z"/><path d="m75.616 164.956c-2.761 0-5-2.239-5-5 0-3.309-2.692-6-6-6-2.761 0-5-2.239-5-5s2.239-5 5-5c3.309 0 6-2.692 6-6 0-2.761 2.239-5 5-5s5 2.239 5 5c0 3.309 2.692 6 6 6 2.761 0 5 2.239 5 5s-2.239 5-5 5c-3.309 0-6 2.692-6 6 0 2.761-2.239 5-5 5z"/></g></g></g></svg>