<svg id="Capa_1" enable-background="new 0 0 512 512" height="512" viewBox="0 0 512 512" width="512" xmlns="http://www.w3.org/2000/svg" xmlns:xlink="http://www.w3.org/1999/xlink"><linearGradient id="SVGID_1_" gradientUnits="userSpaceOnUse" x1="256" x2="256" y1="512" y2="0"><stop offset="0" stop-color="#addcff"/><stop offset=".5028" stop-color="#eaf6ff"/><stop offset="1" stop-color="#eaf6ff"/></linearGradient><linearGradient id="SVGID_2_" gradientUnits="userSpaceOnUse" x1="256" x2="256" y1="105" y2="407"><stop offset="0" stop-color="#5558ff"/><stop offset="1" stop-color="#00c0ff"/></linearGradient><g><g><circle cx="256" cy="256" fill="url(#SVGID_1_)" r="256"/></g><g><g><path d="m167.177 318.176v-124.353c0-14.694 11.953-26.647 26.647-26.647h79.941v-35.529c0-14.694-11.953-26.647-26.647-26.647h-106.589c-14.694 0-26.647 11.953-26.647 26.647v248.706c0 14.694 11.953 26.647 26.647 26.647h106.588c14.694 0 26.647-11.953 26.647-26.647v-35.53h-79.941c-14.694 0-26.646-11.952-26.646-26.647zm26.646-186.529c4.905 0 8.882 3.976 8.882 8.882 0 4.905-3.977 8.882-8.882 8.882s-8.882-3.977-8.882-8.882c0-4.906 3.977-8.882 8.882-8.882zm26.648 239.824c0 4.909-3.973 8.882-8.882 8.882h-35.53c-4.91 0-8.882-3.973-8.882-8.882 0-4.91 3.973-8.882 8.882-8.882h35.53c4.909-.001 8.882 3.972 8.882 8.882zm44.411-142.118h-35.529v17.765h35.529zm124.353-44.412h-195.412c-4.909 0-8.882 3.973-8.882 8.882v124.353c0 4.91 3.973 8.882 8.882 8.882h195.412c4.91 0 8.882-3.973 8.882-8.882v-124.353c.001-4.909-3.972-8.882-8.882-8.882zm-177.647 35.53c0-4.91 3.973-8.882 8.882-8.882h53.294c4.91 0 8.882 3.973 8.882 8.882v35.529c0 4.91-3.973 8.882-8.882 8.882h-53.294c-4.91 0-8.882-3.973-8.882-8.882zm33.751 79.941h-24.869c-4.91 0-8.882-3.973-8.882-8.882s3.973-8.882 8.882-8.882h24.869c4.91 0 8.882 3.973 8.882 8.882s-3.972 8.882-8.882 8.882zm58.629 0h-23.099c-4.91 0-8.882-3.973-8.882-8.882s3.973-8.882 8.882-8.882h23.099c4.909 0 8.882 3.973 8.882 8.882s-3.972 8.882-8.882 8.882zm58.62 0h-23.091c-4.91 0-8.882-3.973-8.882-8.882s3.973-8.882 8.882-8.882h23.091c4.909 0 8.882 3.973 8.882 8.882s-3.972 8.882-8.882 8.882zm0-71.059h-35.53c-4.91 0-8.882-3.973-8.882-8.882 0-4.91 3.973-8.882 8.882-8.882h35.53c4.909 0 8.882 3.973 8.882 8.882.001 4.909-3.972 8.882-8.882 8.882z" fill="url(#SVGID_2_)"/></g></g></g></svg>