<svg id="Capa_1" enable-background="new 0 0 512 512" height="512" viewBox="0 0 512 512" width="512" xmlns="http://www.w3.org/2000/svg" xmlns:xlink="http://www.w3.org/1999/xlink"><linearGradient id="SVGID_1_" gradientUnits="userSpaceOnUse" x1="256" x2="256" y1="512" y2="0"><stop offset="0" stop-color="#ffbef9"/><stop offset="1" stop-color="#fff1ff"/></linearGradient><linearGradient id="SVGID_2_" gradientUnits="userSpaceOnUse" x1="256" x2="256" y1="105" y2="407"><stop offset="0" stop-color="#a93aff"/><stop offset="1" stop-color="#ff81ff"/></linearGradient><g><g><circle cx="256" cy="256" fill="url(#SVGID_1_)" r="256"/></g><g><g><path d="m193.823 282.647h-35.529v17.765h35.529zm35.53-8.882v-44.412h-115.471c-4.91 0-8.882 3.973-8.882 8.882v159.882c0 4.91 3.973 8.882 8.882 8.882h248.706c4.91 0 8.882-3.973 8.882-8.882v-97.706h-115.47c-14.694.001-26.647-11.952-26.647-26.646zm-88.824 0c0-4.91 3.973-8.882 8.882-8.882h53.294c4.91 0 8.882 3.973 8.882 8.882v35.529c0 4.91-3.973 8.882-8.882 8.882h-53.294c-4.91 0-8.882-3.973-8.882-8.882zm26.648 97.706h-17.765c-4.91 0-8.882-3.973-8.882-8.882s3.973-8.882 8.882-8.882h17.765c4.91 0 8.882 3.973 8.882 8.882s-3.973 8.882-8.882 8.882zm53.294 0h-17.765c-4.909 0-8.882-3.973-8.882-8.882s3.973-8.882 8.882-8.882h17.765c4.91 0 8.882 3.973 8.882 8.882s-3.973 8.882-8.882 8.882zm88.823-17.765h17.765c4.91 0 8.882 3.973 8.882 8.882s-3.973 8.882-8.882 8.882h-17.765c-4.91 0-8.882-3.973-8.882-8.882s3.973-8.882 8.882-8.882zm-26.647 8.882c0 4.91-3.973 8.882-8.882 8.882h-17.765c-4.91 0-8.882-3.973-8.882-8.882s3.973-8.882 8.882-8.882h17.765c4.909 0 8.882 3.973 8.882 8.882zm115.471-168.765h-26.647v-44.412c0-24.487-19.925-44.412-44.412-44.412s-44.412 19.925-44.412 44.412v44.412h-26.647c-4.91 0-8.882 3.973-8.882 8.882v71.059c0 4.91 3.973 8.882 8.882 8.882h142.118c4.91 0 8.882-3.973 8.882-8.882v-71.059c0-4.909-3.973-8.882-8.882-8.882zm-53.295 53.295h-35.529c-4.91 0-8.882-3.973-8.882-8.882 0-4.91 3.973-8.882 8.882-8.882h35.529c4.91 0 8.882 3.973 8.882 8.882.001 4.909-3.972 8.882-8.882 8.882zm8.883-53.295h-53.294v-44.412c0-14.694 11.953-26.647 26.647-26.647s26.647 11.953 26.647 26.647z" fill="url(#SVGID_2_)"/></g></g></g></svg>