<svg id="Capa_1" enable-background="new 0 0 512 512" height="512" viewBox="0 0 512 512" width="512" xmlns="http://www.w3.org/2000/svg" xmlns:xlink="http://www.w3.org/1999/xlink"><linearGradient id="SVGID_1_" gradientUnits="userSpaceOnUse" x1="16.261" x2="432.785" y1="13.938" y2="484.911"><stop offset="0" stop-color="#ffdbed"/><stop offset="1" stop-color="#dcfdee"/></linearGradient><linearGradient id="SVGID_2_" gradientUnits="userSpaceOnUse" x1="255.999" x2="255.999" y1="84.636" y2="338.3"><stop offset=".0028" stop-color="#ff7eb8" stop-opacity="0"/><stop offset="1" stop-color="#ff7eb8" stop-opacity=".6"/></linearGradient><g><g><path d="m310.075 89.353c-21.43-52.669-73.271-89.723-133.726-89.35-77.124.475-140.536 62.684-142.407 139.786-.923 38.04 12.978 72.821 36.334 98.983 18.619 20.856 27.963 48.325 27.021 76.268-.125 3.714-.144 7.455-.052 11.22 2.464 101.4 89.087 185.801 190.517 185.74 105.133-.063 190.34-85.31 190.34-190.457 0-77.074-45.784-143.448-111.637-173.423-25.667-11.683-45.762-32.647-56.39-58.767z" fill="url(#SVGID_1_)"/><path d="m270.846 329.029v27.029c0 5.526-4.475 10.011-10.011 10.011h-9.67c-5.536 0-10.011-4.485-10.011-10.011v-27.029z" fill="#6583fe"/><path d="m241.154 329.029h29.692v21.613h-29.692z" fill="#4369fd"/><path d="m108.513 131.052h294.975v162.834h-294.975z" fill="#6583fe"/><path d="m108.513 131.052h294.975v27.9h-294.975z" fill="#4369fd"/><path d="m108.513 195.621h294.975v60.104h-294.975z" fill="#4369fd"/><path d="m411.331 144.743h-310.662c-5.529 0-10.011-4.482-10.011-10.011v-40.085c0-5.529 4.482-10.011 10.011-10.011h310.661c5.529 0 10.011 4.482 10.011 10.011v40.085c0 5.529-4.482 10.011-10.01 10.011z" fill="#ff7eb8"/><g fill="#ffc4df"><circle cx="135.62" cy="114.69" r="5.603"/><circle cx="152.57" cy="114.69" r="5.603"/><circle cx="169.519" cy="114.69" r="5.603"/></g><path d="m283.004 109.676h-76.818c-2.618 0-4.957 1.914-5.206 4.521-.285 2.99 2.058 5.507 4.99 5.507h77.033c2.769 0 5.014-2.245 5.014-5.014.001-2.769-2.244-5.014-5.013-5.014z" fill="#d2deff"/><path d="m382.611 109.676h-76.818c-2.618 0-4.957 1.914-5.206 4.521-.285 2.99 2.058 5.507 4.99 5.507h77.033c2.769 0 5.014-2.245 5.014-5.014.001-2.769-2.244-5.014-5.013-5.014z" fill="#97ffd2"/><path d="m411.331 241.521h-310.662c-5.529 0-10.011-4.482-10.011-10.011v-40.085c0-5.529 4.482-10.011 10.011-10.011h310.661c5.529 0 10.011 4.482 10.011 10.011v40.085c0 5.53-4.482 10.011-10.01 10.011z" fill="#ff7eb8"/><g fill="#ffc4df"><circle cx="135.62" cy="211.468" r="5.603"/><circle cx="152.57" cy="211.468" r="5.603"/><circle cx="169.519" cy="211.468" r="5.603"/></g><path d="m283.004 206.454h-76.818c-2.618 0-4.957 1.914-5.206 4.521-.285 2.99 2.058 5.507 4.99 5.507h77.033c2.769 0 5.014-2.245 5.014-5.014.001-2.769-2.244-5.014-5.013-5.014z" fill="#d2deff"/><path d="m382.611 206.454h-76.818c-2.618 0-4.957 1.914-5.206 4.521-.285 2.99 2.058 5.507 4.99 5.507h77.033c2.769 0 5.014-2.245 5.014-5.014.001-2.769-2.244-5.014-5.013-5.014z" fill="#97ffd2"/><path d="m411.331 338.3h-310.662c-5.529 0-10.011-4.482-10.011-10.011v-40.085c0-5.529 4.482-10.011 10.011-10.011h310.661c5.529 0 10.011 4.482 10.011 10.011v40.085c0 5.529-4.482 10.011-10.01 10.011z" fill="#ff7eb8"/><circle cx="135.62" cy="308.247" fill="#ffc4df" r="5.603"/><circle cx="152.57" cy="308.247" fill="#ffc4df" r="5.603"/><circle cx="169.519" cy="308.247" fill="#ffc4df" r="5.603"/><path d="m283.004 303.233h-76.818c-2.618 0-4.957 1.914-5.206 4.521-.285 2.99 2.058 5.507 4.99 5.507h77.033c2.769 0 5.014-2.245 5.014-5.014.001-2.769-2.244-5.014-5.013-5.014z" fill="#d2deff"/><path d="m382.611 303.233h-76.818c-2.618 0-4.957 1.914-5.206 4.521-.285 2.99 2.058 5.507 4.99 5.507h77.033c2.769 0 5.014-2.245 5.014-5.014.001-2.769-2.244-5.014-5.013-5.014z" fill="#97ffd2"/><path d="m330.58 448.363h-149.16c-5.529 0-10.011-4.482-10.011-10.011v-19.974c0-5.529 4.482-10.011 10.011-10.011h149.16c5.529 0 10.011 4.482 10.011 10.011v19.974c-.001 5.529-4.483 10.011-10.011 10.011z" fill="#6583fe"/><path d="m406.386 399.112c-2.762 0-5-2.238-5-5 0-3.323-2.704-6.027-6.027-6.027-2.762 0-5-2.238-5-5s2.238-5 5-5c3.323 0 6.027-2.704 6.027-6.028 0-2.762 2.238-5 5-5s5 2.238 5 5c0 3.324 2.704 6.028 6.027 6.028 2.762 0 5 2.238 5 5s-2.238 5-5 5c-3.323 0-6.027 2.704-6.027 6.027 0 2.762-2.239 5-5 5z" fill="#6583fe"/><path d="m458.473 355.863c-2.762 0-5-2.238-5-5 0-3.323-2.704-6.027-6.027-6.027-2.762 0-5-2.238-5-5s2.238-5 5-5c3.323 0 6.027-2.704 6.027-6.027 0-2.762 2.238-5 5-5s5 2.238 5 5c0 3.323 2.704 6.027 6.027 6.027 2.762 0 5 2.238 5 5s-2.238 5-5 5c-3.323 0-6.027 2.704-6.027 6.027 0 2.762-2.239 5-5 5z" fill="#ff7eb8"/><path d="m53.505 183.815c-1.28 0-2.559-.488-3.536-1.465l-11.006-11.006c-1.953-1.952-1.953-5.118 0-7.07l11.006-11.006c1.953-1.953 5.118-1.953 7.071 0l11.006 11.006c1.953 1.952 1.953 5.118 0 7.07l-11.006 11.006c-.976.977-2.255 1.465-3.535 1.465zm-3.935-16.005 3.935 3.935 3.935-3.935-3.935-3.935z" fill="#ff7eb8"/><path d="m72.23 405.9c-1.28 0-2.559-.488-3.536-1.465l-11.007-11.005c-1.953-1.952-1.953-5.118 0-7.07l11.006-11.006c1.953-1.953 5.118-1.953 7.071 0l11.006 11.006c1.953 1.952 1.953 5.118 0 7.07l-11.006 11.006c-.975.976-2.254 1.464-3.534 1.464zm-3.935-16.005 3.935 3.935 3.935-3.935-3.935-3.935z" fill="#97ffd2"/></g><path d="m411.331 144.743c5.528 0 10.01-4.482 10.01-10.011v-40.085c0-5.529-4.482-10.011-10.011-10.011h-310.661c-5.529 0-10.011 4.482-10.011 10.011v40.085c0 5.529 4.482 10.011 10.011 10.011h7.844v36.671h-7.844c-5.529 0-10.011 4.482-10.011 10.011v40.085c0 5.529 4.482 10.011 10.011 10.011h7.844v36.672h-7.844c-5.529 0-10.011 4.482-10.011 10.011v40.085c0 5.529 4.482 10.011 10.011 10.011h310.662c5.528 0 10.01-4.482 10.01-10.011v-40.085c0-5.529-4.482-10.011-10.011-10.011h-7.842v-36.672h7.843c5.528 0 10.01-4.481 10.01-10.011v-40.085c0-5.529-4.482-10.011-10.011-10.011h-7.842v-36.671z" fill="url(#SVGID_2_)"/><g fill="#2626bc"><path d="m250.999 366.069h10.001v42.298h-10.001z"/><path d="m466.275 423.366h-125.684v10.002h125.686c2.762 0 5-2.238 5-5s-2.24-5.002-5.002-5.002z"/><path d="m171.409 423.368h-125.685c-2.761 0-5 2.238-5 5s2.239 5 5 5h125.684v-10z"/></g></g></svg>