<svg id="Capa_1" enable-background="new 0 0 512 512" height="512" viewBox="0 0 512 512" width="512" xmlns="http://www.w3.org/2000/svg" xmlns:xlink="http://www.w3.org/1999/xlink"><linearGradient id="SVGID_1_" gradientUnits="userSpaceOnUse" x1="32.854" x2="520.16" y1="138.375" y2="399.723"><stop offset="0" stop-color="#ffdbed"/><stop offset="1" stop-color="#dcfdee"/></linearGradient><linearGradient id="SVGID_2_" gradientUnits="userSpaceOnUse" x1="256.001" x2="256.001" y1="64.001" y2="469.001"><stop offset=".0028" stop-color="#ff7eb8" stop-opacity="0"/><stop offset="1" stop-color="#ff7eb8" stop-opacity=".6"/></linearGradient><g><g><path d="m408.229 154.262c-23.697-9.236-43.717-26.089-55.961-48.381-20.59-37.487-60.43-62.898-106.221-62.898-47.53 0-88.646 27.377-108.477 67.219-12.146 24.401-32.814 43.56-58.09 53.761-37.349 15.074-68.703 49.524-78.653 103.382-1.092 5.91-1.108 11.986-.016 17.896 15.448 83.572 82.399 120.435 143.334 110.66 34.126-5.474 68.672 5.909 93.967 29.462 51.434 47.892 133.884 62.907 213.923 11.57 9.377-6.014 21.957-18.634 27.966-28.015 68.966-107.669 17.879-219.714-71.772-254.656z" fill="url(#SVGID_1_)"/><path d="m396.261 79.031v374.94c0 8.29-6.74 15.03-15.03 15.03h-250.46c-8.29 0-15.03-6.74-15.03-15.03v-374.94c0-8.29 6.74-15.03 15.03-15.03h250.46c8.29 0 15.03 6.74 15.03 15.03z" fill="#fff"/><path d="m396.261 79.031v106.12c-7.34 6.89-17.22 11.11-28.05 11.11-10.84 0-20.71-4.23-28.06-11.12-7.34 6.89-17.21 11.12-28.05 11.12s-20.7-4.23-28.05-11.12c-7.34 6.89-17.21 11.12-28.05 11.12s-20.71-4.23-28.05-11.12c-7.35 6.89-17.21 11.12-28.05 11.12s-20.71-4.23-28.05-11.12c-7.35 6.89-17.22 11.12-28.06 11.12-10.83 0-20.71-4.22-28.05-11.11v-106.12c0-8.29 6.74-15.03 15.03-15.03h250.46c8.29 0 15.03 6.74 15.03 15.03z" fill="#d2deff"/><path d="m186.001 112.261h140v236.8h-140z" fill="#d2deff"/><path d="m326.001 112.261v81.57c-4.34 1.57-9.02 2.43-13.9 2.43-10.84 0-20.7-4.23-28.05-11.12-7.34 6.89-17.21 11.12-28.05 11.12s-20.71-4.23-28.05-11.12c-7.35 6.89-17.21 11.12-28.05 11.12-4.88 0-9.56-.86-13.9-2.43v-81.57z" fill="#b7c5ff"/><path d="m143.795 183.264c-15.492 0-28.051-12.559-28.051-28.051v-42.949h56.103v42.949c0 15.492-12.559 28.051-28.052 28.051z" fill="#ff7eb8"/><path d="m199.898 183.264c-15.492 0-28.051-12.559-28.051-28.051v-42.949h56.103v42.949c0 15.492-12.559 28.051-28.052 28.051z" fill="#97ffd2"/><path d="m256.001 183.264c-15.492 0-28.051-12.559-28.051-28.051v-42.949h56.103v42.949c-.001 15.492-12.56 28.051-28.052 28.051z" fill="#ff7eb8"/><path d="m312.104 183.264c-15.492 0-28.051-12.559-28.051-28.051v-42.949h56.103v42.949c-.001 15.492-12.56 28.051-28.052 28.051z" fill="#97ffd2"/><path d="m368.207 183.264c-15.492 0-28.051-12.559-28.051-28.051v-42.949h56.103v42.949c-.001 15.492-12.56 28.051-28.052 28.051z" fill="#ff7eb8"/><path d="m396.258 112.264v-33.232c0-8.299-6.728-15.028-15.028-15.028h-250.459c-8.299 0-15.028 6.728-15.028 15.028v33.232z" fill="#6583fe"/><g fill="#ff5ba8"><path d="m300.28 229.907c-.95-1.135-2.354-1.79-3.834-1.79h-58.587l-3.222-9.968c-.667-2.063-2.589-3.462-4.758-3.462h-14.323c-2.762 0-5 2.238-5 5s2.238 5 5 5h10.685l12.14 37.554h-.86c-2.762 0-5 2.238-5 5s2.238 5 5 5h52.834c2.423 0 4.496-1.736 4.922-4.121l6.092-34.124c.26-1.457-.139-2.954-1.089-4.089zm-14.112 32.334h-37.277l-7.799-24.124h49.383z"/><path d="m248.228 302.948c-7.175 0-13.012-5.837-13.012-13.012s5.837-13.012 13.012-13.012 13.013 5.837 13.013 13.012-5.839 13.012-13.013 13.012zm0-16.023c-1.661 0-3.012 1.351-3.012 3.012s1.351 3.012 3.012 3.012 3.013-1.351 3.013-3.012-1.352-3.012-3.013-3.012z"/><path d="m285.564 302.948c-7.175 0-13.012-5.837-13.012-13.012s5.837-13.012 13.012-13.012 13.012 5.837 13.012 13.012-5.837 13.012-13.012 13.012zm0-16.023c-1.661 0-3.012 1.351-3.012 3.012s1.351 3.012 3.012 3.012 3.012-1.351 3.012-3.012-1.35-3.012-3.012-3.012z"/></g><path d="m323.001 369.818h-134c-1.657 0-3-1.343-3-3v-35.507c0-1.657 1.343-3 3-3h134c1.657 0 3 1.343 3 3v35.507c0 1.657-1.343 3-3 3z" fill="#9fb0fe"/><path d="m235.93 408.987h90.087c2.833 0 5.129-2.296 5.129-5.129s-2.296-5.129-5.129-5.129h-90.087c-2.833 0-5.129 2.296-5.129 5.129s2.296 5.129 5.129 5.129z" fill="#6583fe"/><path d="m185.985 408.987h24.606c2.833 0 5.129-2.296 5.129-5.129s-2.296-5.129-5.129-5.129h-24.606c-2.833 0-5.129 2.296-5.129 5.129s2.297 5.129 5.129 5.129z" fill="#ffa8cf"/><path d="m185.985 429.331h140.031c2.833 0 5.129-2.296 5.129-5.129s-2.296-5.129-5.129-5.129h-140.031c-2.833 0-5.129 2.296-5.129 5.129s2.297 5.129 5.129 5.129z" fill="#b7c5ff"/><path d="m396.261 79.031v374.94c0 8.29-6.74 15.03-15.03 15.03h-250.46c-8.29 0-15.03-6.74-15.03-15.03v-374.94c0-8.29 6.74-15.03 15.03-15.03h250.46c8.29 0 15.03 6.74 15.03 15.03z" fill="url(#SVGID_2_)"/><path d="m148.896 88.061v.146c0 2.762 2.238 5 5 5s5-2.238 5-5v-.146c0-2.762-2.238-5-5-5s-5 2.239-5 5z" fill="#2d58e0"/><path d="m168.256 88.061v.146c0 2.762 2.238 5 5 5s5-2.238 5-5v-.146c0-2.762-2.238-5-5-5s-5 2.239-5 5z" fill="#2d58e0"/><path d="m187.616 88.061v.146c0 2.762 2.238 5 5 5s5-2.238 5-5v-.146c0-2.762-2.238-5-5-5s-5 2.239-5 5z" fill="#2d58e0"/></g><g><path d="m81.485 146.036c-1.279 0-2.56-.488-3.535-1.465l-10.994-10.994c-1.953-1.952-1.953-5.118 0-7.07l10.994-10.994c1.951-1.953 5.119-1.953 7.07 0l10.994 10.994c1.953 1.952 1.953 5.118 0 7.07l-10.993 10.994c-.976.977-2.256 1.465-3.536 1.465zm-3.922-15.994 3.923 3.923 3.923-3.923-3.923-3.923z" fill="#97ffd2"/><path d="m428.485 289.43c-1.279 0-2.56-.488-3.535-1.465l-10.994-10.994c-1.953-1.952-1.953-5.118 0-7.07l10.994-10.994c1.951-1.953 5.119-1.953 7.07 0l10.994 10.994c1.953 1.952 1.953 5.118 0 7.07l-10.994 10.994c-.975.977-2.255 1.465-3.535 1.465zm-3.922-15.994 3.923 3.923 3.923-3.923-3.923-3.923z" fill="#6583fe"/><path d="m449.522 349.954c-1.279 0-2.56-.488-3.535-1.465l-10.994-10.994c-1.953-1.952-1.953-5.118 0-7.07l10.994-10.994c1.951-1.953 5.119-1.953 7.07 0l10.994 10.994c1.953 1.952 1.953 5.118 0 7.07l-10.994 10.994c-.975.977-2.255 1.465-3.535 1.465zm-3.922-15.994 3.923 3.923 3.923-3.923-3.923-3.923z" fill="#ff7eb8"/><path d="m62.48 315.674c-2.762 0-5-2.238-5-5 0-3.306-2.689-5.995-5.995-5.995-2.762 0-5-2.238-5-5s2.238-5 5-5c3.306 0 5.995-2.689 5.995-5.995 0-2.762 2.238-5 5-5s5 2.238 5 5c0 3.306 2.689 5.995 5.995 5.995 2.762 0 5 2.238 5 5s-2.238 5-5 5c-3.306 0-5.995 2.689-5.995 5.995 0 2.761-2.238 5-5 5z" fill="#6583fe"/></g></g></svg>