<svg id="Capa_1" enable-background="new 0 0 512 512" height="512" viewBox="0 0 512 512" width="512" xmlns="http://www.w3.org/2000/svg" xmlns:xlink="http://www.w3.org/1999/xlink"><linearGradient id="SVGID_1_" gradientUnits="userSpaceOnUse" x1="256" x2="256" y1="512" y2="0"><stop offset="0" stop-color="#ffbef9"/><stop offset="1" stop-color="#fff1ff"/></linearGradient><linearGradient id="SVGID_2_" gradientUnits="userSpaceOnUse" x1="256" x2="256" y1="105" y2="407"><stop offset="0" stop-color="#a93aff"/><stop offset="1" stop-color="#ff81ff"/></linearGradient><g><g><circle cx="256" cy="256" fill="url(#SVGID_1_)" r="256"/></g><g><g><path d="m193.823 122.765c13.501 0 28.069 20.962 33.398 53.294h17.943c-6.218-41.392-26.647-71.059-51.341-71.059s-45.122 29.667-51.34 71.059h17.942c5.33-32.332 19.897-53.294 33.398-53.294zm204.295 142.117h-195.412c-4.909 0-8.882 3.973-8.882 8.882v124.353c0 4.91 3.973 8.882 8.882 8.882h195.412c4.91 0 8.882-3.973 8.882-8.882v-124.352c0-4.91-3.973-8.883-8.882-8.883zm-177.647 35.53c0-4.91 3.973-8.882 8.882-8.882h53.294c4.91 0 8.882 3.973 8.882 8.882v35.53c0 4.909-3.973 8.882-8.882 8.882h-53.294c-4.91 0-8.882-3.973-8.882-8.882zm33.751 79.941h-24.869c-4.91 0-8.882-3.973-8.882-8.882 0-4.91 3.973-8.882 8.882-8.882h24.869c4.91 0 8.882 3.973 8.882 8.882s-3.973 8.882-8.882 8.882zm58.629 0h-23.099c-4.91 0-8.882-3.973-8.882-8.882 0-4.91 3.973-8.882 8.882-8.882h23.099c4.91 0 8.882 3.973 8.882 8.882s-3.973 8.882-8.882 8.882zm58.62 0h-23.091c-4.91 0-8.882-3.973-8.882-8.882 0-4.91 3.973-8.882 8.882-8.882h23.091c4.909 0 8.882 3.973 8.882 8.882s-3.973 8.882-8.882 8.882zm0-71.059h-35.53c-4.909 0-8.882-3.973-8.882-8.882s3.973-8.882 8.882-8.882h35.53c4.909 0 8.882 3.973 8.882 8.882s-3.973 8.882-8.882 8.882zm-97.706 0h-35.529v17.765h35.529zm-71.059-62.176h79.941v-62.176c0-4.975-3.908-8.883-8.882-8.883h-28.601c1.244 8.349 1.954 17.409 1.954 26.647 0 4.974-3.908 8.882-8.882 8.882s-8.882-3.909-8.882-8.882c0-9.416-.71-18.476-2.132-26.647h-66.795c-1.421 8.171-2.132 17.231-2.132 26.647 0 4.974-3.908 8.882-8.883 8.882s-8.882-3.909-8.882-8.882c0-9.238.71-18.298 1.954-26.647h-28.601c-4.975 0-8.882 3.908-8.882 8.883v213.176c0 4.974 3.908 8.882 8.882 8.882h63.776c-.889-2.843-1.599-5.685-1.599-8.882v-124.353c-.001-14.745 11.901-26.647 26.646-26.647z" fill="url(#SVGID_2_)"/></g></g></g></svg>